<svg width="45" height="47" viewBox="0 0 45 47" fill="none" xmlns="http://www.w3.org/2000/svg"><path d="M19.266 25.15c0 4.489-.739 7.81-2.215 9.967-1.465 2.156-3.727 3.235-6.785 3.235-2.965 0-5.204-1.114-6.715-3.34-1.5-2.227-2.25-5.514-2.25-9.862 0-4.535.732-7.875 2.197-10.02 1.465-2.155 3.72-3.234 6.768-3.234 2.964 0 5.203 1.125 6.714 3.375 1.524 2.25 2.286 5.543 2.286 9.88zm-12.569 0c0 3.153.27 5.415.809 6.786.55 1.359 1.47 2.039 2.76 2.039 1.265 0 2.18-.692 2.742-2.075.562-1.382.844-3.632.844-6.75 0-3.152-.287-5.414-.862-6.785-.562-1.383-1.47-2.074-2.724-2.074-1.278 0-2.192.691-2.743 2.074-.55 1.371-.826 3.633-.826 6.785zM39.973 38H22.008v-3.78l6.451-6.52c1.91-1.958 3.158-3.311 3.744-4.061.586-.762 1.008-1.465 1.266-2.11a5.348 5.348 0 00.386-2.004c0-1.03-.287-1.798-.86-2.302-.563-.504-1.32-.756-2.268-.756a6.54 6.54 0 00-2.9.685c-.938.457-1.917 1.108-2.936 1.951l-2.953-3.498c1.265-1.078 2.314-1.84 3.146-2.285.832-.445 1.74-.785 2.725-1.02.984-.245 2.085-.368 3.304-.368 1.606 0 3.024.293 4.254.878 1.23.586 2.186 1.407 2.865 2.461.68 1.055 1.02 2.262 1.02 3.622a8.82 8.82 0 01-.633 3.34c-.41 1.03-1.054 2.091-1.934 3.181-.867 1.09-2.402 2.643-4.605 4.658l-3.305 3.112v.246h11.198V38z" fill="#6832AC"/><path d="M17.05 35.117l-.824-.565-.002.003.827.562zm-13.5-.105l-.829.558.002.003.828-.561zM3.499 15.13l.826.564.001-.002-.827-.562zm13.482.14l-.83.558.002.003.828-.56zM7.506 31.936l-.93.365.003.01.927-.375zm5.484-13.57l-.926.376.004.01.922-.387zm-5.467 0l.928.372.001-.003-.929-.37zm10.743 6.784c0 4.416-.733 7.494-2.04 9.402l1.65 1.13c1.646-2.404 2.39-5.97 2.39-10.532h-2zm-2.042 9.405c-1.245 1.832-3.165 2.797-5.958 2.797v2c3.323 0 5.927-1.192 7.612-3.673l-1.654-1.124zm-5.958 2.797c-2.673 0-4.583-.98-5.888-2.902l-1.655 1.123c1.72 2.532 4.286 3.779 7.543 3.779v-2zM4.38 34.453C3.04 32.465 2.3 29.411 2.3 25.15h-2c0 4.435.76 7.955 2.421 10.42l1.66-1.117zM2.3 25.15c0-4.466.73-7.56 2.024-9.455l-1.652-1.128C1.037 16.96.301 20.547.301 25.15h2zm2.025-9.457c1.245-1.833 3.16-2.796 5.94-2.796v-2c-3.313 0-5.91 1.192-7.594 3.672l1.654 1.124zm5.94-2.796c2.67 0 4.58.988 5.885 2.932l1.66-1.115c-1.717-2.556-4.283-3.818-7.544-3.818v2zm5.887 2.935c1.363 2.013 2.114 5.073 2.114 9.318h2c0-4.426-.773-7.952-2.457-10.44l-1.657 1.122zM5.697 25.15c0 3.168.265 5.593.878 7.151l1.862-.731c-.466-1.184-.74-3.282-.74-6.42h-2zm.882 7.161c.325.803.791 1.482 1.436 1.958.653.483 1.42.706 2.25.706v-2c-.458 0-.795-.118-1.062-.314-.275-.204-.545-.545-.77-1.101l-1.854.751zm3.687 2.664c.826 0 1.589-.23 2.238-.721.638-.483 1.101-1.168 1.43-1.977l-1.852-.753c-.234.573-.509.926-.785 1.134-.265.201-.592.317-1.031.317v2zm3.668-2.698c.64-1.574.918-3.99.918-7.127h-2c0 3.098-.286 5.182-.77 6.374l1.852.753zm.918-7.127c0-3.17-.283-5.603-.94-7.171l-1.844.773c.492 1.174.784 3.263.784 6.398h2zm-.936-7.162c-.328-.807-.79-1.491-1.423-1.974-.646-.491-1.404-.723-2.227-.723v2c.43 0 .753.114 1.015.314.275.209.549.562.783 1.137l1.852-.754zm-3.65-2.697c-.83 0-1.597.229-2.247.721-.64.484-1.101 1.172-1.425 1.983l1.858.74c.228-.571.5-.92.773-1.128.264-.2.593-.316 1.04-.316v-2zm-3.67 2.701c-.628 1.562-.899 3.99-.899 7.158h2c0-3.136.28-5.231.754-6.412l-1.855-.745zM39.973 38v1h1v-1h-1zm-17.965 0h-1v1h1v-1zm0-3.78l-.711-.703-.29.293v.41h1zm6.451-6.52l.71.703.006-.005-.716-.699zm3.744-4.061l.788.615.005-.006-.793-.61zm.791-6.416l-.667.745.008.006.66-.751zm-8.103 1.88l-.764.646.638.756.763-.631-.637-.77zm-2.953-3.498l-.649-.76-.758.645.642.76.765-.645zm5.87-3.304l.232.973.011-.003-.242-.97zm10.811 9.931l-.927-.375-.002.006.93.37zm-1.934 3.182l-.778-.628-.004.005.782.623zm-4.605 4.658l-.675-.738-.005.005-.005.005.685.728zm-3.305 3.112l-.685-.728-.315.296v.432h1zm0 .246h-1v1h1v-1zm11.198 0h1v-1h-1v1zm0 3.57H22.008v2h17.965v-2zm-16.965 1v-3.78h-2V38h2zm-.29-3.076l6.452-6.521-1.422-1.407-6.451 6.521 1.422 1.407zm6.457-6.526c1.904-1.952 3.191-3.343 3.816-4.144l-1.576-1.231c-.547.7-1.756 2.015-3.672 3.978l1.432 1.397zm3.82-4.15c.623-.808 1.1-1.592 1.402-2.347l-1.857-.743c-.213.534-.58 1.156-1.13 1.871l1.586 1.22zm1.402-2.347a6.348 6.348 0 00.459-2.376h-2c0 .564-.105 1.106-.316 1.633l1.857.743zm.459-2.376c0-1.213-.343-2.3-1.202-3.054l-1.32 1.503c.29.254.521.702.521 1.551h2zm-1.195-3.047c-.79-.708-1.805-1.011-2.934-1.011v2c.768 0 1.264.2 1.6.5l1.334-1.49zm-2.934-1.011a7.545 7.545 0 00-3.339.786l.876 1.798a5.547 5.547 0 012.463-.584v-2zm-3.339.786c-1.025.5-2.07 1.199-3.135 2.08l1.275 1.54c.974-.805 1.886-1.407 2.736-1.822l-.876-1.797zm-1.733 2.205l-2.953-3.498-1.529 1.29 2.954 3.499 1.528-1.29zm-3.069-2.091c1.246-1.061 2.231-1.77 2.97-2.165l-.944-1.763c-.925.495-2.037 1.31-3.323 2.405l1.297 1.523zm2.97-2.165c.75-.402 1.578-.713 2.484-.928l-.463-1.946a12.28 12.28 0 00-2.965 1.11l.944 1.764zm2.495-.931c.891-.223 1.91-.34 3.062-.34v-2c-1.284 0-2.47.13-3.547.4l.485 1.94zm3.062-.34c1.483 0 2.75.27 3.824.782l.86-1.805c-1.386-.66-2.956-.976-4.684-.976v2zm3.824.782c1.078.514 1.885 1.215 2.455 2.1l1.681-1.083c-.789-1.225-1.893-2.164-3.276-2.822l-.86 1.805zm2.455 2.1c.567.88.86 1.896.86 3.08h2c0-1.535-.387-2.934-1.179-4.163l-1.681 1.083zm.86 3.08a7.822 7.822 0 01-.56 2.964l1.854.75a9.822 9.822 0 00.706-3.714h-2zm-.562 2.97c-.365.917-.951 1.892-1.783 2.923l1.557 1.256c.926-1.149 1.629-2.295 2.084-3.44l-1.858-.74zm-1.787 2.928c-.815 1.024-2.3 2.533-4.498 4.543l1.35 1.476c2.209-2.02 3.793-3.618 4.713-4.773l-1.565-1.246zm-4.508 4.553l-3.305 3.111 1.37 1.457 3.306-3.112-1.371-1.456zm-3.62 3.84v.246h2v-.246h-2zm1 1.246h11.198v-2H28.775v2zm10.198-1V38h2v-4.57h-2z" fill="#6832AC"/><path d="M20.05 33.117l-.824-.565-.002.003.827.562zm-13.5-.105l-.829.558.002.003.828-.561zM6.499 13.13l.826.564.001-.002-.827-.562zm13.482.14l-.83.558.002.003.828-.56zm-9.474 16.665l-.93.366.003.01.927-.377zm5.484-13.57l-.926.376.004.01.922-.387zm-5.467 0l.928.372.002-.003-.93-.37zm10.743 6.784c0 4.416-.733 7.494-2.04 9.402l1.65 1.13c1.646-2.404 2.39-5.97 2.39-10.532h-2zm-2.042 9.405c-1.245 1.832-3.165 2.797-5.958 2.797v2c3.323 0 5.927-1.192 7.612-3.673l-1.654-1.124zm-5.958 2.797c-2.673 0-4.583-.98-5.888-2.902l-1.655 1.123c1.72 2.532 4.286 3.779 7.543 3.779v-2zM7.38 32.453C6.04 30.465 5.3 27.411 5.3 23.15h-2c0 4.435.76 7.955 2.421 10.42l1.66-1.117zM5.3 23.15c0-4.466.73-7.56 2.024-9.455l-1.652-1.128c-1.635 2.394-2.371 5.98-2.371 10.583h2zm2.025-9.457c1.245-1.833 3.16-2.796 5.94-2.796v-2c-3.313 0-5.91 1.192-7.594 3.672l1.654 1.124zm5.94-2.796c2.67 0 4.58.988 5.885 2.932l1.66-1.115c-1.717-2.556-4.283-3.818-7.544-3.818v2zm5.887 2.935c1.363 2.013 2.114 5.073 2.114 9.318h2c0-4.426-.773-7.952-2.457-10.44l-1.657 1.122zM8.697 23.15c0 3.168.265 5.593.878 7.151l1.862-.731c-.466-1.184-.74-3.282-.74-6.42h-2zm.882 7.161c.325.803.791 1.482 1.436 1.958.653.483 1.42.706 2.25.706v-2c-.458 0-.796-.118-1.062-.314-.275-.204-.545-.545-.77-1.101l-1.854.751zm3.687 2.664c.826 0 1.589-.23 2.238-.721.638-.483 1.101-1.168 1.43-1.977l-1.853-.753c-.233.573-.508.926-.784 1.134-.265.201-.592.317-1.031.317v2zm3.668-2.698c.64-1.574.918-3.99.918-7.127h-2c0 3.098-.286 5.182-.77 6.374l1.852.753zm.918-7.127c0-3.17-.283-5.603-.94-7.171l-1.844.773c.492 1.174.784 3.263.784 6.398h2zm-.936-7.162c-.328-.807-.79-1.492-1.423-1.974-.646-.491-1.404-.723-2.227-.723v2c.43 0 .753.114 1.015.314.275.209.549.562.783 1.137l1.852-.754zm-3.65-2.697c-.83 0-1.597.229-2.247.721-.64.484-1.101 1.172-1.425 1.983l1.859.74c.227-.571.498-.92.772-1.128.264-.2.594-.316 1.04-.316v-2zm-3.67 2.701c-.628 1.562-.899 3.99-.899 7.158h2c0-3.136.28-5.231.754-6.412l-1.855-.745zM42.973 36v1h1v-1h-1zm-17.965 0h-1v1h1v-1zm0-3.78l-.711-.703-.29.293v.41h1zm6.451-6.52l.71.703.006-.005-.716-.699zm3.744-4.061l.788.615.005-.006-.793-.61zm.791-6.416l-.667.744.008.007.66-.751zm-8.103 1.88l-.764.646.638.756.763-.631-.637-.77zm-2.953-3.498l-.649-.76-.758.645.642.76.765-.645zm5.87-3.304l.232.973.011-.003-.242-.97zm10.811 9.931l-.927-.375-.002.006.93.37zm-1.934 3.182l-.778-.628-.004.005.782.623zm-4.605 4.658l-.675-.738-.005.005-.005.005.685.728zm-3.305 3.112l-.685-.729-.315.297v.432h1zm0 .246h-1v1h1v-1zm11.198 0h1v-1h-1v1zm0 3.57H25.008v2h17.965v-2zm-16.965 1v-3.78h-2V36h2zm-.29-3.076l6.452-6.521-1.422-1.407-6.451 6.521 1.422 1.407zm6.457-6.526c1.905-1.952 3.191-3.343 3.816-4.144l-1.576-1.231c-.547.7-1.756 2.015-3.672 3.978l1.432 1.397zm3.82-4.15c.623-.808 1.1-1.592 1.402-2.347l-1.857-.743c-.213.534-.58 1.156-1.13 1.871l1.586 1.22zm1.402-2.347a6.348 6.348 0 00.459-2.376h-2c0 .564-.105 1.106-.316 1.633l1.857.743zm.459-2.376c0-1.213-.343-2.3-1.202-3.054l-1.32 1.503c.29.254.521.702.521 1.551h2zm-1.195-3.047c-.79-.707-1.805-1.011-2.934-1.011v2c.768 0 1.264.2 1.6.5l1.334-1.49zm-2.934-1.011a7.545 7.545 0 00-3.339.787l.876 1.797a5.547 5.547 0 012.463-.584v-2zm-3.339.787c-1.025.5-2.07 1.198-3.135 2.08l1.275 1.54c.974-.806 1.886-1.408 2.736-1.823l-.876-1.797zm-1.733 2.204l-2.953-3.498-1.529 1.29 2.954 3.499 1.528-1.29zm-3.069-2.091c1.246-1.061 2.231-1.77 2.97-2.165l-.944-1.763c-.925.495-2.037 1.31-3.323 2.405l1.297 1.523zm2.97-2.165c.75-.402 1.578-.713 2.484-.928l-.463-1.946a12.284 12.284 0 00-2.965 1.11l.944 1.764zm2.495-.931c.891-.223 1.91-.34 3.062-.34v-2c-1.284 0-2.47.13-3.547.4l.485 1.94zm3.062-.34c1.483 0 2.75.27 3.824.782l.86-1.805c-1.386-.66-2.956-.976-4.684-.976v2zm3.824.782c1.078.514 1.885 1.215 2.455 2.1l1.681-1.083c-.789-1.225-1.893-2.164-3.276-2.822l-.86 1.805zm2.455 2.1c.567.88.86 1.896.86 3.08h2c0-1.535-.387-2.934-1.179-4.163l-1.681 1.083zm.86 3.08a7.822 7.822 0 01-.56 2.964l1.854.75a9.822 9.822 0 00.706-3.714h-2zm-.562 2.97c-.365.917-.951 1.892-1.783 2.923l1.557 1.256c.926-1.149 1.629-2.295 2.084-3.44l-1.858-.74zm-1.787 2.928c-.815 1.024-2.3 2.533-4.498 4.543l1.35 1.476c2.209-2.02 3.793-3.618 4.713-4.773l-1.565-1.246zm-4.508 4.553l-3.305 3.111 1.37 1.457 3.306-3.112-1.371-1.456zm-3.62 3.84v.246h2v-.246h-2zm1 1.246h11.198v-2H31.775v2zm10.198-1V36h2v-4.57h-2z" fill="#6832AC"/></svg>