<svg width="45" height="47" viewBox="0 0 45 47" fill="none" xmlns="http://www.w3.org/2000/svg"><path d="M19.266 25.15c0 4.489-.739 7.81-2.215 9.967-1.465 2.156-3.727 3.235-6.785 3.235-2.965 0-5.204-1.114-6.715-3.34-1.5-2.227-2.25-5.514-2.25-9.862 0-4.535.732-7.875 2.197-10.02 1.465-2.155 3.72-3.234 6.768-3.234 2.964 0 5.203 1.125 6.714 3.375 1.524 2.25 2.286 5.543 2.286 9.88zm-12.569 0c0 3.153.27 5.415.809 6.786.55 1.359 1.47 2.039 2.76 2.039 1.265 0 2.18-.692 2.742-2.075.562-1.382.844-3.632.844-6.75 0-3.152-.287-5.414-.862-6.785-.562-1.383-1.47-2.074-2.724-2.074-1.278 0-2.192.691-2.743 2.074-.55 1.371-.826 3.633-.826 6.785zm32.274-7.101c0 1.605-.487 2.97-1.46 4.096-.972 1.125-2.337 1.898-4.095 2.32v.105c2.074.258 3.645.89 4.711 1.899 1.066.996 1.6 2.343 1.6 4.043 0 2.472-.897 4.4-2.69 5.783-1.793 1.371-4.353 2.057-7.681 2.057-2.79 0-5.262-.463-7.419-1.39V32.34a16.76 16.76 0 003.288 1.23c1.195.317 2.378.475 3.55.475 1.793 0 3.118-.305 3.973-.914.855-.61 1.283-1.588 1.283-2.936 0-1.207-.492-2.062-1.476-2.566-.985-.504-2.555-.756-4.711-.756h-1.951v-4.166h1.986c1.992 0 3.445-.258 4.36-.773.925-.528 1.388-1.424 1.388-2.69 0-1.945-1.219-2.918-3.656-2.918-.844 0-1.705.14-2.584.422-.867.281-1.834.768-2.9 1.459l-2.514-3.744c2.343-1.688 5.138-2.531 8.384-2.531 2.66 0 4.758.539 6.293 1.617 1.547 1.078 2.32 2.578 2.32 4.5z" fill="#6832AC"/><path d="M17.05 35.117l-.824-.565-.002.003.827.562zm-13.5-.105l-.829.558.002.003.828-.561zM3.499 15.13l.826.564.001-.002-.827-.562zm13.482.14l-.83.558.002.003.828-.56zM7.506 31.936l-.93.365.003.01.927-.375zm5.484-13.57l-.926.376.004.01.922-.387zm-5.467 0l.928.372.001-.003-.929-.37zm10.743 6.784c0 4.416-.733 7.494-2.04 9.402l1.65 1.13c1.646-2.404 2.39-5.97 2.39-10.532h-2zm-2.042 9.405c-1.245 1.832-3.165 2.797-5.958 2.797v2c3.323 0 5.927-1.192 7.612-3.673l-1.654-1.124zm-5.958 2.797c-2.673 0-4.583-.98-5.888-2.902l-1.655 1.123c1.72 2.532 4.286 3.779 7.543 3.779v-2zM4.38 34.453C3.04 32.465 2.3 29.411 2.3 25.15h-2c0 4.435.76 7.955 2.421 10.42l1.66-1.117zM2.3 25.15c0-4.466.73-7.56 2.024-9.455l-1.652-1.128C1.037 16.96.301 20.547.301 25.15h2zm2.025-9.457c1.245-1.833 3.16-2.796 5.94-2.796v-2c-3.313 0-5.91 1.192-7.594 3.672l1.654 1.124zm5.94-2.796c2.67 0 4.58.988 5.885 2.932l1.66-1.115c-1.717-2.556-4.283-3.818-7.544-3.818v2zm5.887 2.935c1.363 2.013 2.114 5.073 2.114 9.318h2c0-4.426-.773-7.952-2.457-10.44l-1.657 1.122zM5.697 25.15c0 3.168.265 5.593.878 7.151l1.862-.731c-.466-1.184-.74-3.282-.74-6.42h-2zm.882 7.161c.325.803.791 1.482 1.436 1.958.653.483 1.42.706 2.25.706v-2c-.458 0-.795-.118-1.062-.314-.275-.204-.545-.545-.77-1.101l-1.854.751zm3.687 2.664c.826 0 1.589-.23 2.238-.721.638-.483 1.101-1.168 1.43-1.977l-1.852-.753c-.234.573-.509.926-.785 1.134-.265.201-.592.317-1.031.317v2zm3.668-2.698c.64-1.574.918-3.99.918-7.127h-2c0 3.098-.286 5.182-.77 6.374l1.852.753zm.918-7.127c0-3.17-.283-5.603-.94-7.171l-1.844.773c.492 1.174.784 3.263.784 6.398h2zm-.936-7.162c-.328-.807-.79-1.491-1.423-1.974-.646-.491-1.404-.723-2.227-.723v2c.43 0 .753.114 1.015.314.275.209.549.562.783 1.137l1.852-.754zm-3.65-2.697c-.83 0-1.597.229-2.247.721-.64.484-1.101 1.172-1.425 1.983l1.858.74c.228-.571.5-.92.773-1.128.264-.2.593-.316 1.04-.316v-2zm-3.67 2.701c-.628 1.562-.899 3.99-.899 7.158h2c0-3.136.28-5.231.754-6.412l-1.855-.745zm26.82 6.473l-.233-.973-.767.184v.789h1zm0 .105h-1v.884l.877.109.123-.993zm4.711 1.899l-.687.727.004.003.683-.73zm-1.09 9.826l.608.794.003-.002-.61-.792zm-15.1.668h-1v.659l.606.26.395-.92zm0-4.623l.452-.893-1.451-.734v1.627h1zm3.956-5.467h-1v1h1v-1zm0-4.166v-1h-1v1h1zm6.345-.773l.492.87.003-.002-.495-.868zm-4.851-5.186l-.305-.952h-.004l.309.952zm-2.9 1.459l-.83.557.548.817.825-.535-.544-.839zm-2.514-3.744l-.585-.812-.785.566.54.803.83-.557zm14.677-.914l-.574.818.003.002.571-.82zm1.32 4.5c0 1.386-.412 2.513-1.215 3.442l1.513 1.308c1.143-1.322 1.703-2.925 1.703-4.75h-2zm-1.215 3.442c-.808.935-1.973 1.618-3.572 2.002l.466 1.944c1.917-.46 3.483-1.324 4.62-2.638l-1.514-1.308zm-4.339 2.974v.105h2v-.105h-2zm.877 1.098c1.95.242 3.289.821 4.147 1.633l1.374-1.454c-1.275-1.204-3.076-1.89-5.275-2.164l-.246 1.985zm4.151 1.637c.83.775 1.283 1.84 1.283 3.312h2c0-1.927-.615-3.557-1.917-4.774L37.444 27.2zm1.283 3.312c0 2.195-.778 3.817-2.3 4.991l1.22 1.584c2.064-1.592 3.08-3.825 3.08-6.575h-2zM36.43 35.5c-1.553 1.187-3.866 1.85-7.075 1.85v2c3.448 0 6.257-.707 8.29-2.262L36.43 35.5zm-7.075 1.85c-2.678 0-5.013-.444-7.023-1.307l-.789 1.838c2.302.988 4.913 1.47 7.813 1.47v-2zm-6.418-.388V32.34h-2v4.623h2zm-1.45-3.73c1.064.538 2.226.972 3.482 1.304l.511-1.933a15.764 15.764 0 01-3.091-1.156l-.903 1.784zm3.482 1.304c1.274.337 2.543.508 3.806.508v-2a12.85 12.85 0 01-3.294-.441l-.512 1.933zm3.806.508c1.87 0 3.446-.31 4.553-1.1l-1.16-1.629c-.604.43-1.676.729-3.393.729v2zm4.553-1.1c1.192-.849 1.703-2.18 1.703-3.75h-2c0 1.126-.344 1.752-.863 2.121l1.16 1.63zm1.703-3.75c0-.74-.151-1.435-.502-2.045-.354-.615-.876-1.082-1.519-1.411l-.911 1.78c.342.175.558.388.696.628.142.246.236.581.236 1.048h2zm-2.02-3.456c-1.205-.617-2.976-.866-5.167-.866v2c2.12 0 3.491.255 4.255.646l.911-1.78zm-5.167-.866h-1.951v2h1.95v-2zm-.951 1v-4.166h-2v4.166h2zm-1-3.166h1.986v-2h-1.986v2zm1.986 0c2.035 0 3.704-.256 4.85-.902l-.982-1.742c-.682.384-1.919.644-3.868.644v2zm4.854-.905c1.302-.741 1.894-2.013 1.894-3.558h-2c0 .987-.334 1.508-.884 1.82l.99 1.738zm1.894-3.558c0-1.194-.385-2.248-1.29-2.97-.862-.688-2.041-.948-3.366-.948v2c1.112 0 1.761.226 2.118.511.314.25.538.656.538 1.407h2zm-4.656-3.918c-.957 0-1.92.16-2.89.47l.61 1.905a7.45 7.45 0 012.28-.375v-2zm-2.893.47c-.976.317-2.023.85-3.136 1.572l1.088 1.678c1.02-.66 1.906-1.1 2.665-1.347l-.617-1.902zm-1.761 1.854l-2.514-3.744-1.66 1.114 2.513 3.744 1.66-1.114zm-2.76-2.376c2.153-1.55 4.737-2.342 7.8-2.342v-2c-3.428 0-6.434.894-8.969 2.72l1.169 1.622zm7.8-2.342c2.538 0 4.409.515 5.719 1.435l1.15-1.637c-1.761-1.236-4.086-1.798-6.869-1.798v2zm5.722 1.437c1.272.887 1.892 2.078 1.892 3.68h2c0-2.242-.927-4.051-2.749-5.32l-1.143 1.64z" fill="#6832AC"/><path d="M20.05 33.117l-.824-.565-.002.003.827.562zm-13.5-.105l-.829.558.002.003.828-.561zM6.499 13.13l.826.564.001-.002-.827-.562zm13.482.14l-.83.558.002.003.828-.56zm-9.474 16.665l-.93.366.003.01.927-.377zm5.484-13.57l-.926.376.004.01.922-.387zm-5.467 0l.928.372.002-.003-.93-.37zm10.743 6.784c0 4.416-.733 7.494-2.04 9.402l1.65 1.13c1.646-2.404 2.39-5.97 2.39-10.532h-2zm-2.042 9.405c-1.245 1.832-3.165 2.797-5.958 2.797v2c3.323 0 5.927-1.192 7.612-3.673l-1.654-1.124zm-5.958 2.797c-2.673 0-4.583-.98-5.888-2.902l-1.655 1.123c1.72 2.532 4.286 3.779 7.543 3.779v-2zM7.38 32.453C6.04 30.465 5.3 27.411 5.3 23.15h-2c0 4.435.76 7.955 2.421 10.42l1.66-1.117zM5.3 23.15c0-4.466.73-7.56 2.024-9.455l-1.652-1.128c-1.635 2.394-2.371 5.98-2.371 10.583h2zm2.025-9.457c1.245-1.833 3.16-2.796 5.94-2.796v-2c-3.313 0-5.91 1.192-7.594 3.672l1.654 1.124zm5.94-2.796c2.67 0 4.58.988 5.885 2.932l1.66-1.115c-1.717-2.556-4.283-3.818-7.544-3.818v2zm5.887 2.935c1.363 2.013 2.114 5.073 2.114 9.318h2c0-4.426-.773-7.952-2.457-10.44l-1.657 1.122zM8.697 23.15c0 3.168.265 5.593.878 7.151l1.862-.731c-.466-1.184-.74-3.282-.74-6.42h-2zm.882 7.161c.325.803.791 1.482 1.436 1.958.653.483 1.42.706 2.25.706v-2c-.458 0-.796-.118-1.062-.314-.275-.204-.545-.545-.77-1.101l-1.854.751zm3.687 2.664c.826 0 1.589-.23 2.238-.721.638-.483 1.101-1.168 1.43-1.977l-1.853-.753c-.233.573-.508.926-.784 1.134-.265.201-.592.317-1.031.317v2zm3.668-2.698c.64-1.574.918-3.99.918-7.127h-2c0 3.098-.286 5.182-.77 6.374l1.852.753zm.918-7.127c0-3.17-.283-5.603-.94-7.171l-1.844.773c.492 1.174.784 3.263.784 6.398h2zm-.936-7.162c-.328-.807-.79-1.492-1.423-1.974-.646-.491-1.404-.723-2.227-.723v2c.43 0 .753.114 1.015.314.275.209.549.562.783 1.137l1.852-.754zm-3.65-2.697c-.83 0-1.597.229-2.247.721-.64.484-1.101 1.172-1.425 1.983l1.859.74c.227-.571.498-.92.772-1.128.264-.2.594-.316 1.04-.316v-2zm-3.67 2.701c-.628 1.562-.899 3.99-.899 7.158h2c0-3.136.28-5.231.754-6.412l-1.855-.745zm26.82 6.473l-.233-.973-.767.184v.789h1zm0 .105h-1v.884l.877.109.123-.993zm4.711 1.899l-.687.727.004.003.683-.73zm-1.09 9.826l.608.794.003-.002-.61-.792zm-15.1.668h-1v.659l.606.26.395-.92zm0-4.623l.452-.892-1.451-.735v1.627h1zm3.956-5.467h-1v1h1v-1zm0-4.166v-1h-1v1h1zm6.345-.773l.492.87.003-.002-.495-.868zm-4.851-5.186l-.305-.952h-.004l.309.952zm-2.9 1.459l-.83.557.548.817.825-.535-.544-.839zm-2.514-3.744l-.585-.812-.785.566.54.803.83-.557zm14.677-.914l-.574.818.003.002.571-.82zm1.32 4.5c0 1.386-.412 2.513-1.215 3.442l1.513 1.308c1.143-1.322 1.703-2.925 1.703-4.75h-2zm-1.215 3.442c-.808.935-1.973 1.618-3.572 2.002l.466 1.944c1.917-.46 3.483-1.324 4.62-2.638l-1.514-1.308zm-4.339 2.974v.105h2v-.105h-2zm.877 1.098c1.95.242 3.289.821 4.147 1.633l1.374-1.454c-1.275-1.204-3.076-1.89-5.275-2.164l-.246 1.985zm4.151 1.637c.83.775 1.283 1.84 1.283 3.312h2c0-1.927-.615-3.557-1.917-4.774L40.444 25.2zm1.283 3.312c0 2.195-.778 3.817-2.3 4.991l1.22 1.584c2.064-1.592 3.08-3.825 3.08-6.575h-2zM39.43 33.5c-1.553 1.187-3.866 1.85-7.075 1.85v2c3.448 0 6.257-.707 8.29-2.262L39.43 33.5zm-7.075 1.85c-2.678 0-5.013-.444-7.023-1.307l-.789 1.838c2.302.988 4.913 1.47 7.813 1.47v-2zm-6.417-.388V30.34h-2v4.623h2zm-1.452-3.73a17.78 17.78 0 003.483 1.304l.511-1.933a15.764 15.764 0 01-3.091-1.156l-.903 1.784zm3.483 1.304c1.274.337 2.543.508 3.806.508v-2a12.85 12.85 0 01-3.294-.441l-.512 1.933zm3.806.508c1.87 0 3.446-.31 4.553-1.1l-1.16-1.629c-.604.43-1.676.729-3.393.729v2zm4.553-1.1c1.192-.849 1.703-2.18 1.703-3.75h-2c0 1.126-.344 1.752-.863 2.121l1.16 1.63zm1.703-3.75c0-.74-.151-1.435-.502-2.045-.354-.615-.876-1.082-1.519-1.411l-.911 1.78c.342.175.558.388.696.628.142.246.236.581.236 1.048h2zm-2.02-3.456c-1.205-.617-2.976-.866-5.167-.866v2c2.12 0 3.491.255 4.255.646l.911-1.78zm-5.167-.866h-1.951v2h1.95v-2zm-.951 1v-4.166h-2v4.166h2zm-1-3.166h1.986v-2h-1.986v2zm1.986 0c2.035 0 3.704-.256 4.85-.902l-.982-1.742c-.682.384-1.919.644-3.868.644v2zm4.854-.905c1.302-.741 1.894-2.013 1.894-3.558h-2c0 .987-.334 1.508-.884 1.82l.99 1.738zm1.894-3.558c0-1.194-.385-2.248-1.29-2.97-.862-.688-2.041-.948-3.366-.948v2c1.112 0 1.761.226 2.118.511.314.25.538.656.538 1.407h2zm-4.656-3.918c-.957 0-1.92.16-2.89.47l.61 1.905a7.45 7.45 0 012.28-.375v-2zm-2.893.47c-.976.317-2.023.85-3.136 1.572l1.088 1.678c1.02-.66 1.906-1.1 2.665-1.347l-.617-1.902zm-1.761 1.854l-2.514-3.745-1.66 1.115 2.513 3.744 1.66-1.114zm-2.76-2.376c2.153-1.55 4.737-2.342 7.8-2.342v-2c-3.428 0-6.434.894-8.969 2.72l1.169 1.622zm7.8-2.342c2.538 0 4.409.515 5.719 1.435l1.15-1.637c-1.761-1.236-4.086-1.798-6.869-1.798v2zm5.722 1.437c1.272.887 1.892 2.078 1.892 3.68h2c0-2.242-.927-4.051-2.749-5.32l-1.143 1.64z" fill="#6832AC"/></svg>