<svg width="45" height="47" viewBox="0 0 45 47" fill="none" xmlns="http://www.w3.org/2000/svg"><path d="M19.266 25.15c0 4.489-.739 7.81-2.215 9.967-1.465 2.156-3.727 3.235-6.785 3.235-2.965 0-5.204-1.114-6.715-3.34-1.5-2.227-2.25-5.514-2.25-9.862 0-4.535.732-7.875 2.197-10.02 1.465-2.155 3.72-3.234 6.768-3.234 2.964 0 5.203 1.125 6.714 3.375 1.524 2.25 2.286 5.543 2.286 9.88zm-12.569 0c0 3.153.27 5.415.809 6.786.55 1.359 1.47 2.039 2.76 2.039 1.265 0 2.18-.692 2.742-2.075.562-1.382.844-3.632.844-6.75 0-3.152-.287-5.414-.862-6.785-.562-1.383-1.47-2.074-2.724-2.074-1.278 0-2.192.691-2.743 2.074-.55 1.371-.826 3.633-.826 6.785zm24.662-3.568c2.485 0 4.46.697 5.924 2.092 1.477 1.394 2.215 3.305 2.215 5.73 0 2.871-.885 5.08-2.654 6.627-1.77 1.547-4.301 2.32-7.594 2.32-2.86 0-5.168-.462-6.926-1.388v-4.694c.926.493 2.004.897 3.235 1.213 1.23.305 2.396.458 3.498.458 3.316 0 4.974-1.36 4.974-4.079 0-2.59-1.716-3.884-5.15-3.884-.621 0-1.307.064-2.057.193-.75.117-1.36.246-1.828.387l-2.162-1.16.967-13.096h13.94v4.605h-9.177l-.474 5.045.615-.123c.715-.164 1.6-.246 2.654-.246z" fill="#6832AC"/><path d="M17.05 35.117l-.824-.565-.002.003.827.562zm-13.5-.105l-.829.558.002.003.828-.561zM3.499 15.13l.826.564.001-.002-.827-.562zm13.482.14l-.83.558.002.003.828-.56zM7.506 31.936l-.93.365.003.01.927-.375zm5.484-13.57l-.926.376.004.01.922-.387zm-5.467 0l.928.372.001-.003-.929-.37zm10.743 6.784c0 4.416-.733 7.494-2.04 9.402l1.65 1.13c1.646-2.404 2.39-5.97 2.39-10.532h-2zm-2.042 9.405c-1.245 1.832-3.165 2.797-5.958 2.797v2c3.323 0 5.927-1.192 7.612-3.673l-1.654-1.124zm-5.958 2.797c-2.673 0-4.583-.98-5.888-2.902l-1.655 1.123c1.72 2.532 4.286 3.779 7.543 3.779v-2zM4.38 34.453C3.04 32.465 2.3 29.411 2.3 25.15h-2c0 4.435.76 7.955 2.421 10.42l1.66-1.117zM2.3 25.15c0-4.466.73-7.56 2.024-9.455l-1.652-1.128C1.037 16.96.301 20.547.301 25.15h2zm2.025-9.457c1.245-1.833 3.16-2.796 5.94-2.796v-2c-3.313 0-5.91 1.192-7.594 3.672l1.654 1.124zm5.94-2.796c2.67 0 4.58.988 5.885 2.932l1.66-1.115c-1.717-2.556-4.283-3.818-7.544-3.818v2zm5.887 2.935c1.363 2.013 2.114 5.073 2.114 9.318h2c0-4.426-.773-7.952-2.457-10.44l-1.657 1.122zM5.697 25.15c0 3.168.265 5.593.878 7.151l1.862-.731c-.466-1.184-.74-3.282-.74-6.42h-2zm.882 7.161c.325.803.791 1.482 1.436 1.958.653.483 1.42.706 2.25.706v-2c-.458 0-.795-.118-1.062-.314-.275-.204-.545-.545-.77-1.101l-1.854.751zm3.687 2.664c.826 0 1.589-.23 2.238-.721.638-.483 1.101-1.168 1.43-1.977l-1.852-.753c-.234.573-.509.926-.785 1.134-.265.201-.592.317-1.031.317v2zm3.668-2.698c.64-1.574.918-3.99.918-7.127h-2c0 3.098-.286 5.182-.77 6.374l1.852.753zm.918-7.127c0-3.17-.283-5.603-.94-7.171l-1.844.773c.492 1.174.784 3.263.784 6.398h2zm-.936-7.162c-.328-.807-.79-1.491-1.423-1.974-.646-.491-1.404-.723-2.227-.723v2c.43 0 .753.114 1.015.314.275.209.549.562.783 1.137l1.852-.754zm-3.65-2.697c-.83 0-1.597.229-2.247.721-.64.484-1.101 1.172-1.425 1.983l1.858.74c.228-.571.5-.92.773-1.128.264-.2.593-.316 1.04-.316v-2zm-3.67 2.701c-.628 1.562-.899 3.99-.899 7.158h2c0-3.136.28-5.231.754-6.412l-1.855-.745zm30.687 5.682l-.69.724.004.003.686-.727zM22.324 36.963h-1v.603l.534.282.466-.885zm0-4.694l.47-.882-1.47-.782v1.665h1zm3.235 1.213l-.25.969.01.002.24-.97zm1.265-7.312l.155.988.007-.001.008-.002-.17-.985zm-1.828.387l-.473.88.364.196.396-.118-.287-.958zm-2.162-1.16l-.997-.074-.048.648.572.307.473-.881zm.967-13.096v-1h-.93l-.067.926.997.074zm13.94 0h1v-1h-1v1zm0 4.605v1h1v-1h-1zm-9.177 0v-1h-.91l-.085.907.995.093zm-.474 5.045l-.996-.093-.126 1.337 1.318-.263-.196-.98zm.615-.123l.196.98.014-.002.014-.003-.224-.975zm2.654.754c2.29 0 3.996.637 5.235 1.816l1.379-1.448c-1.691-1.61-3.934-2.368-6.614-2.368v2zm5.238 1.819c1.238 1.17 1.901 2.795 1.901 5.003h2c0-2.643-.813-4.837-2.528-6.457L36.597 24.4zm1.901 5.003c0 2.652-.807 4.559-2.312 5.874l1.316 1.506c2.034-1.778 2.996-4.29 2.996-7.38h-2zm-2.312 5.874c-1.526 1.334-3.788 2.074-6.936 2.074v2c3.438 0 6.239-.808 8.252-2.568l-1.316-1.506zm-6.936 2.074c-2.764 0-4.895-.45-6.46-1.274l-.932 1.77c1.95 1.027 4.437 1.504 7.392 1.504v-2zm-5.926-.39V32.27h-2v4.694h2zm-1.47-3.81c1.01.537 2.164.967 3.456 1.299l.498-1.937c-1.17-.3-2.171-.68-3.014-1.127l-.94 1.766zm3.464 1.301c1.298.321 2.545.486 3.739.486v-2c-1.01 0-2.095-.14-3.258-.427l-.48 1.941zm3.739.486c1.77 0 3.282-.358 4.365-1.246 1.12-.918 1.61-2.26 1.61-3.832h-2c0 1.147-.34 1.845-.878 2.286-.576.471-1.55.793-3.097.793v2zm5.974-5.078c0-1.537-.524-2.836-1.685-3.712-1.108-.835-2.651-1.172-4.465-1.172v2c1.62 0 2.652.31 3.26.77.556.418.89 1.061.89 2.114h2zm-6.15-4.884c-.689 0-1.432.07-2.226.207l.339 1.971a11.226 11.226 0 011.887-.178v-2zm-2.211.205a14.94 14.94 0 00-1.961.417l.574 1.916c.409-.123.969-.244 1.696-.357l-.31-1.976zm-1.201.494l-2.162-1.16-.946 1.762 2.162 1.16.946-1.762zm-1.638-.206l.967-13.096-1.994-.147-.967 13.096 1.994.147zm-.03-12.17h13.94v-2H23.8v2zm12.94-1v4.606h2v-4.605h-2zm1 3.606h-9.177v2h9.176v-2zm-10.172.907l-.475 5.045 1.991.187L29.56 17l-1.991-.187zm.717 6.119l.615-.123-.392-1.962-.615.124.392 1.96zm.643-.13c.617-.14 1.421-.22 2.43-.22v-2c-1.1 0-2.065.085-2.878.271l.448 1.95z" fill="#6832AC"/><path d="M20.05 33.117l-.824-.565-.002.003.827.562zm-13.5-.105l-.829.558.002.003.828-.561zM6.499 13.13l.826.564.001-.002-.827-.562zm13.482.14l-.83.558.002.003.828-.56zm-9.474 16.665l-.93.366.003.01.927-.377zm5.484-13.57l-.926.376.004.01.922-.387zm-5.467 0l.928.372.002-.003-.93-.37zm10.743 6.784c0 4.416-.733 7.494-2.04 9.402l1.65 1.13c1.646-2.404 2.39-5.97 2.39-10.532h-2zm-2.042 9.405c-1.245 1.832-3.165 2.797-5.958 2.797v2c3.323 0 5.927-1.192 7.612-3.673l-1.654-1.124zm-5.958 2.797c-2.673 0-4.583-.98-5.888-2.902l-1.655 1.123c1.72 2.532 4.286 3.779 7.543 3.779v-2zM7.38 32.453C6.04 30.465 5.3 27.411 5.3 23.15h-2c0 4.435.76 7.955 2.421 10.42l1.66-1.117zM5.3 23.15c0-4.466.73-7.56 2.024-9.455l-1.652-1.128c-1.635 2.394-2.371 5.98-2.371 10.583h2zm2.025-9.457c1.245-1.833 3.16-2.796 5.94-2.796v-2c-3.313 0-5.91 1.192-7.594 3.672l1.654 1.124zm5.94-2.796c2.67 0 4.58.988 5.885 2.932l1.66-1.115c-1.717-2.556-4.283-3.818-7.544-3.818v2zm5.887 2.935c1.363 2.013 2.114 5.073 2.114 9.318h2c0-4.426-.773-7.952-2.457-10.44l-1.657 1.122zM8.697 23.15c0 3.168.265 5.593.878 7.151l1.862-.731c-.466-1.184-.74-3.282-.74-6.42h-2zm.882 7.161c.325.803.791 1.482 1.436 1.958.653.483 1.42.706 2.25.706v-2c-.458 0-.796-.118-1.062-.314-.275-.204-.545-.545-.77-1.101l-1.854.751zm3.687 2.664c.826 0 1.589-.23 2.238-.721.638-.483 1.101-1.168 1.43-1.977l-1.853-.753c-.233.573-.508.926-.784 1.134-.265.201-.592.317-1.031.317v2zm3.668-2.698c.64-1.574.918-3.99.918-7.127h-2c0 3.098-.286 5.182-.77 6.374l1.852.753zm.918-7.127c0-3.17-.283-5.603-.94-7.171l-1.844.773c.492 1.174.784 3.263.784 6.398h2zm-.936-7.162c-.328-.807-.79-1.492-1.423-1.974-.646-.491-1.404-.723-2.227-.723v2c.43 0 .753.114 1.015.314.275.209.549.562.783 1.137l1.852-.754zm-3.65-2.697c-.83 0-1.597.229-2.247.721-.64.484-1.101 1.172-1.425 1.983l1.859.74c.227-.571.498-.92.772-1.128.264-.2.594-.316 1.04-.316v-2zm-3.67 2.701c-.628 1.562-.899 3.99-.899 7.158h2c0-3.136.28-5.231.754-6.412l-1.855-.745zm30.687 5.682l-.69.724.004.003.686-.727zM25.324 34.963h-1v.603l.534.282.466-.885zm0-4.694l.47-.882-1.47-.782v1.665h1zm3.235 1.213l-.25.969.01.002.24-.97zm1.265-7.312l.155.988.007-.001.008-.002-.17-.985zm-1.828.387l-.473.88.364.196.396-.118-.287-.958zm-2.162-1.16l-.997-.074-.048.648.572.307.473-.881zm.967-13.096v-1h-.93l-.067.926.997.074zm13.94 0h1v-1h-1v1zm0 4.605v1h1v-1h-1zm-9.177 0v-1h-.91l-.085.907.995.093zm-.474 5.045l-.996-.093-.126 1.337 1.318-.263-.196-.98zm.615-.123l.196.98.014-.002.014-.003-.224-.975zm2.654.754c2.29 0 3.996.637 5.235 1.816l1.379-1.448c-1.691-1.61-3.934-2.368-6.614-2.368v2zm5.238 1.819c1.238 1.17 1.901 2.795 1.901 5.003h2c0-2.643-.813-4.837-2.528-6.457L39.597 22.4zm1.901 5.003c0 2.652-.807 4.559-2.312 5.874l1.316 1.506c2.034-1.778 2.996-4.29 2.996-7.38h-2zm-2.312 5.874c-1.526 1.334-3.788 2.074-6.936 2.074v2c3.438 0 6.239-.808 8.252-2.568l-1.316-1.506zm-6.936 2.074c-2.764 0-4.895-.45-6.46-1.274l-.932 1.77c1.95 1.027 4.437 1.504 7.392 1.504v-2zm-5.926-.39V30.27h-2v4.694h2zm-1.47-3.81c1.01.537 2.164.967 3.456 1.299l.498-1.937c-1.17-.3-2.171-.68-3.014-1.127l-.94 1.765zm3.464 1.301c1.298.321 2.545.486 3.739.486v-2c-1.01 0-2.095-.14-3.258-.427l-.48 1.941zm3.739.486c1.77 0 3.282-.358 4.365-1.246 1.12-.919 1.61-2.26 1.61-3.832h-2c0 1.147-.34 1.845-.878 2.286-.576.471-1.55.793-3.097.793v2zm5.974-5.078c0-1.537-.524-2.836-1.685-3.712-1.108-.835-2.651-1.172-4.465-1.172v2c1.62 0 2.652.31 3.26.77.556.418.89 1.061.89 2.114h2zm-6.15-4.884c-.689 0-1.432.07-2.226.207l.339 1.971a11.226 11.226 0 011.887-.178v-2zm-2.211.205a14.94 14.94 0 00-1.961.417l.574 1.916c.409-.123.969-.244 1.696-.357l-.31-1.976zm-1.201.494l-2.162-1.16-.946 1.762 2.162 1.16.946-1.762zm-1.638-.206l.967-13.096-1.994-.147-.967 13.096 1.994.147zm-.03-12.17h13.94v-2H26.8v2zm12.94-1v4.606h2v-4.605h-2zm1 3.606h-9.177v2h9.176v-2zm-10.172.907l-.475 5.045 1.991.187L32.56 15l-1.991-.187zm.717 6.119l.615-.123-.392-1.962-.615.124.392 1.96zm.643-.13c.617-.14 1.421-.22 2.43-.22v-2c-1.1 0-2.065.085-2.878.271l.448 1.95z" fill="#6832AC"/></svg>