<svg width="45" height="47" viewBox="0 0 45 47" fill="none" xmlns="http://www.w3.org/2000/svg"><path d="M19.266 25.15c0 4.489-.739 7.81-2.215 9.967-1.465 2.156-3.727 3.235-6.785 3.235-2.965 0-5.204-1.114-6.715-3.34-1.5-2.227-2.25-5.514-2.25-9.862 0-4.535.732-7.875 2.197-10.02 1.465-2.155 3.72-3.234 6.768-3.234 2.964 0 5.203 1.125 6.714 3.375 1.524 2.25 2.286 5.543 2.286 9.88zm-12.569 0c0 3.153.27 5.415.809 6.786.55 1.359 1.47 2.039 2.76 2.039 1.265 0 2.18-.692 2.742-2.075.562-1.382.844-3.632.844-6.75 0-3.152-.287-5.414-.862-6.785-.562-1.383-1.47-2.074-2.724-2.074-1.278 0-2.192.691-2.743 2.074-.55 1.371-.826 3.633-.826 6.785zm15.135 1.934c0-5.086 1.072-8.871 3.217-11.355 2.156-2.485 5.379-3.727 9.668-3.727 1.465 0 2.613.088 3.445.264v4.341a14.076 14.076 0 00-3.094-.351c-1.863 0-3.386.281-4.57.844-1.172.562-2.05 1.394-2.637 2.496-.586 1.101-.931 2.666-1.037 4.693h.229c1.16-1.992 3.017-2.988 5.572-2.988 2.297 0 4.096.72 5.397 2.162 1.3 1.441 1.95 3.433 1.95 5.976 0 2.743-.773 4.916-2.32 6.522-1.547 1.594-3.691 2.39-6.433 2.39-1.899 0-3.557-.439-4.975-1.318-1.406-.879-2.496-2.162-3.27-3.85-.761-1.687-1.142-3.72-1.142-6.099zm9.281 6.926c1.16 0 2.051-.387 2.672-1.16.621-.785.932-1.899.932-3.34 0-1.254-.293-2.239-.88-2.953-.573-.727-1.446-1.09-2.618-1.09-1.102 0-2.045.357-2.83 1.072-.774.715-1.16 1.547-1.16 2.496 0 1.395.363 2.572 1.09 3.533.738.961 1.67 1.442 2.794 1.442z" fill="#6832AC"/><path d="M17.05 35.117l-.824-.565-.002.003.827.562zm-13.5-.105l-.829.558.002.003.828-.561zM3.499 15.13l.826.564.001-.002-.827-.562zm13.482.14l-.83.558.002.003.828-.56zM7.506 31.936l-.93.365.003.01.927-.375zm5.484-13.57l-.926.376.004.01.922-.387zm-5.467 0l.928.372.001-.003-.929-.37zm10.743 6.784c0 4.416-.733 7.494-2.04 9.402l1.65 1.13c1.646-2.404 2.39-5.97 2.39-10.532h-2zm-2.042 9.405c-1.245 1.832-3.165 2.797-5.958 2.797v2c3.323 0 5.927-1.192 7.612-3.673l-1.654-1.124zm-5.958 2.797c-2.673 0-4.583-.98-5.888-2.902l-1.655 1.123c1.72 2.532 4.286 3.779 7.543 3.779v-2zM4.38 34.453C3.04 32.465 2.3 29.411 2.3 25.15h-2c0 4.435.76 7.955 2.421 10.42l1.66-1.117zM2.3 25.15c0-4.466.73-7.56 2.024-9.455l-1.652-1.128C1.037 16.96.301 20.547.301 25.15h2zm2.025-9.457c1.245-1.833 3.16-2.796 5.94-2.796v-2c-3.313 0-5.91 1.192-7.594 3.672l1.654 1.124zm5.94-2.796c2.67 0 4.58.988 5.885 2.932l1.66-1.115c-1.717-2.556-4.283-3.818-7.544-3.818v2zm5.887 2.935c1.363 2.013 2.114 5.073 2.114 9.318h2c0-4.426-.773-7.952-2.457-10.44l-1.657 1.122zM5.697 25.15c0 3.168.265 5.593.878 7.151l1.862-.731c-.466-1.184-.74-3.282-.74-6.42h-2zm.882 7.161c.325.803.791 1.482 1.436 1.958.653.483 1.42.706 2.25.706v-2c-.458 0-.795-.118-1.062-.314-.275-.204-.545-.545-.77-1.101l-1.854.751zm3.687 2.664c.826 0 1.589-.23 2.238-.721.638-.483 1.101-1.168 1.43-1.977l-1.852-.753c-.234.573-.509.926-.785 1.134-.265.201-.592.317-1.031.317v2zm3.668-2.698c.64-1.574.918-3.99.918-7.127h-2c0 3.098-.286 5.182-.77 6.374l1.852.753zm.918-7.127c0-3.17-.283-5.603-.94-7.171l-1.844.773c.492 1.174.784 3.263.784 6.398h2zm-.936-7.162c-.328-.807-.79-1.491-1.423-1.974-.646-.491-1.404-.723-2.227-.723v2c.43 0 .753.114 1.015.314.275.209.549.562.783 1.137l1.852-.754zm-3.65-2.697c-.83 0-1.597.229-2.247.721-.64.484-1.101 1.172-1.425 1.983l1.858.74c.228-.571.5-.92.773-1.128.264-.2.593-.316 1.04-.316v-2zm-3.67 2.701c-.628 1.562-.899 3.99-.899 7.158h2c0-3.136.28-5.231.754-6.412l-1.855-.745zm18.453-2.264l-.755-.655-.002.002.757.654zm13.113-3.462h1v-.811l-.793-.168-.207.979zm0 4.341l-.22.976 1.22.274v-1.25h-1zm-7.664.493l-.43-.904-.003.002.433.902zm-3.674 7.19l-.998-.053-.055 1.052h1.053v-1zm.229 0v1h.575l.289-.498-.864-.503zm10.6 11.67l.717.697.003-.002-.72-.694zm-11.409 1.073l-.53.848.003.002.527-.85zm-3.27-3.85l-.91.412.002.005.909-.416zm10.811-.333l.78.626.004-.006-.784-.62zm.053-6.293l-.785.62.006.007.006.007.773-.634zm-5.45-.018l-.673-.74-.005.006.679.734zm-.07 6.03l-.797.602.004.007.793-.61zm-5.486-5.485c0-4.972 1.052-8.476 2.974-10.702l-1.514-1.307c-2.368 2.743-3.46 6.81-3.46 12.009h2zm2.972-10.7c1.913-2.204 4.82-3.382 8.913-3.382v-2c-4.485 0-8.023 1.306-10.423 4.071l1.51 1.311zm8.913-3.382c1.437 0 2.506.087 3.238.242l.414-1.957c-.932-.197-2.16-.285-3.652-.285v2zm2.445-.736v4.341h2v-4.341h-2zm1.22 3.366a15.076 15.076 0 00-3.314-.376v2c.943 0 1.9.108 2.875.327l.438-1.951zm-3.314-.376c-1.953 0-3.637.293-5 .94l.86 1.807c1.005-.478 2.367-.747 4.14-.747v-2zm-5.003.942c-1.355.65-2.396 1.63-3.087 2.928l1.766.94c.482-.906 1.199-1.59 2.187-2.065l-.866-1.803zm-3.087 2.928c-.684 1.287-1.044 3.018-1.152 5.111l1.997.104c.102-1.962.434-3.36.921-4.276l-1.765-.939zm-.154 6.163h.229v-2h-.229v2zm1.093-.497c.959-1.646 2.463-2.491 4.708-2.491v-2c-2.864 0-5.075 1.147-6.436 3.485l1.728 1.006zm4.708-2.491c2.07 0 3.578.64 4.654 1.832l1.485-1.34c-1.525-1.69-3.616-2.492-6.139-2.492v2zm4.654 1.832c1.09 1.207 1.694 2.933 1.694 5.306h2c0-2.712-.697-4.97-2.21-6.646l-1.484 1.34zm1.694 5.306c0 2.547-.713 4.45-2.04 5.828l1.44 1.388c1.765-1.833 2.6-4.277 2.6-7.216h-2zm-2.038 5.825c-1.316 1.356-3.177 2.088-5.716 2.088v2c2.945 0 5.373-.863 7.15-2.695l-1.434-1.392zm-5.716 2.088c-1.739 0-3.21-.4-4.448-1.169l-1.054 1.7c1.597.99 3.444 1.469 5.502 1.469v-2zm-4.445-1.167c-1.22-.763-2.188-1.886-2.89-3.418l-1.819.833c.845 1.843 2.058 3.287 3.65 4.281l1.06-1.696zm-2.888-3.413c-.69-1.527-1.054-3.412-1.054-5.688h-2c0 2.482.397 4.663 1.231 6.511l1.823-.823zm7.227 2.238c1.406 0 2.608-.483 3.452-1.534l-1.56-1.252c-.398.495-.977.786-1.892.786v2zm3.456-1.54c.811-1.025 1.148-2.39 1.148-3.96h-2c0 1.312-.285 2.174-.716 2.72l1.568 1.24zm1.148-3.96c0-1.403-.328-2.639-1.106-3.587l-1.546 1.268c.394.481.652 1.214.652 2.319h2zm-1.095-3.573c-.812-1.029-2.014-1.47-3.403-1.47v2c.955 0 1.499.285 1.834.71l1.57-1.24zm-3.403-1.47c-1.34 0-2.527.443-3.504 1.333l1.347 1.479c.593-.54 1.294-.812 2.157-.812v-2zm-3.51 1.338c-.952.88-1.48 1.97-1.48 3.23h2c0-.638.245-1.213.838-1.762l-1.357-1.468zm-1.48 3.23c0 1.577.414 2.975 1.292 4.137l1.595-1.207c-.575-.76-.887-1.717-.887-2.93h-2zm1.296 4.143c.911 1.185 2.126 1.832 3.588 1.832v-2c-.787 0-1.436-.314-2.002-1.05l-1.586 1.218z" fill="#6832AC"/><path d="M20.05 33.117l-.824-.565-.002.003.827.562zm-13.5-.105l-.829.558.002.003.828-.561zM6.499 13.13l.826.564.001-.002-.827-.562zm13.482.14l-.83.558.002.003.828-.56zm-9.474 16.665l-.93.366.003.01.927-.377zm5.484-13.57l-.926.376.004.01.922-.387zm-5.467 0l.928.372.002-.003-.93-.37zm10.743 6.784c0 4.416-.733 7.494-2.04 9.402l1.65 1.13c1.646-2.404 2.39-5.97 2.39-10.532h-2zm-2.042 9.405c-1.245 1.832-3.165 2.797-5.958 2.797v2c3.323 0 5.927-1.192 7.612-3.673l-1.654-1.124zm-5.958 2.797c-2.673 0-4.583-.98-5.888-2.902l-1.655 1.123c1.72 2.532 4.286 3.779 7.543 3.779v-2zM7.38 32.453C6.04 30.465 5.3 27.411 5.3 23.15h-2c0 4.435.76 7.955 2.421 10.42l1.66-1.117zM5.3 23.15c0-4.466.73-7.56 2.024-9.455l-1.652-1.128c-1.635 2.394-2.371 5.98-2.371 10.583h2zm2.025-9.457c1.245-1.833 3.16-2.796 5.94-2.796v-2c-3.313 0-5.91 1.192-7.594 3.672l1.654 1.124zm5.94-2.796c2.67 0 4.58.988 5.885 2.932l1.66-1.115c-1.717-2.556-4.283-3.818-7.544-3.818v2zm5.887 2.935c1.363 2.013 2.114 5.073 2.114 9.318h2c0-4.426-.773-7.952-2.457-10.44l-1.657 1.122zM8.697 23.15c0 3.168.265 5.593.878 7.151l1.862-.731c-.466-1.184-.74-3.282-.74-6.42h-2zm.882 7.161c.325.803.791 1.482 1.436 1.958.653.483 1.42.706 2.25.706v-2c-.458 0-.796-.118-1.062-.314-.275-.204-.545-.545-.77-1.101l-1.854.751zm3.687 2.664c.826 0 1.589-.23 2.238-.721.638-.483 1.101-1.168 1.43-1.977l-1.853-.753c-.233.573-.508.926-.784 1.134-.265.201-.592.317-1.031.317v2zm3.668-2.698c.64-1.574.918-3.99.918-7.127h-2c0 3.098-.286 5.182-.77 6.374l1.852.753zm.918-7.127c0-3.17-.283-5.603-.94-7.171l-1.844.773c.492 1.174.784 3.263.784 6.398h2zm-.936-7.162c-.328-.807-.79-1.492-1.423-1.974-.646-.491-1.404-.723-2.227-.723v2c.43 0 .753.114 1.015.314.275.209.549.562.783 1.137l1.852-.754zm-3.65-2.697c-.83 0-1.597.229-2.247.721-.64.484-1.101 1.172-1.425 1.983l1.859.74c.227-.571.498-.92.772-1.128.264-.2.594-.316 1.04-.316v-2zm-3.67 2.701c-.628 1.562-.899 3.99-.899 7.158h2c0-3.136.28-5.231.754-6.412l-1.855-.745zm18.453-2.264l-.755-.655-.002.002.757.654zm13.113-3.462h1v-.811l-.793-.168-.207.979zm0 4.341l-.22.976 1.22.274v-1.25h-1zm-7.664.493l-.43-.904-.003.002.433.902zm-3.674 7.19l-.998-.053-.055 1.052h1.053v-1zm.229 0v1h.575l.289-.498-.864-.503zm10.6 11.67l.717.697.003-.002-.72-.694zm-11.409 1.073l-.53.848.003.002.527-.85zm-3.27-3.85l-.91.412.002.005.909-.416zm10.811-.333l.78.626.004-.006-.784-.62zm.053-6.293l-.785.62.006.007.006.007.773-.634zm-5.45-.018l-.673-.74-.005.006.679.734zm-.07 6.03l-.797.603.004.006.793-.61zm-5.486-5.485c0-4.972 1.052-8.476 2.974-10.702l-1.514-1.307c-2.368 2.743-3.46 6.81-3.46 12.009h2zm2.972-10.7c1.913-2.204 4.82-3.382 8.913-3.382v-2c-4.485 0-8.023 1.306-10.423 4.071l1.51 1.311zm8.913-3.382c1.437 0 2.506.087 3.238.242l.414-1.957c-.932-.197-2.16-.285-3.652-.285v2zm2.445-.736v4.341h2v-4.341h-2zm1.22 3.366a15.076 15.076 0 00-3.314-.376v2c.943 0 1.9.108 2.875.327l.438-1.951zm-3.314-.376c-1.953 0-3.637.293-5 .94l.86 1.807c1.005-.478 2.367-.747 4.14-.747v-2zm-5.003.942c-1.355.65-2.396 1.63-3.086 2.928l1.765.94c.482-.906 1.199-1.59 2.187-2.065l-.866-1.803zm-3.086 2.928c-.685 1.287-1.045 3.018-1.153 5.111l1.997.104c.102-1.962.434-3.36.921-4.276l-1.765-.939zm-.155 6.163h.229v-2h-.229v2zm1.093-.497c.959-1.646 2.463-2.491 4.708-2.491v-2c-2.864 0-5.075 1.147-6.436 3.485l1.728 1.006zm4.708-2.491c2.07 0 3.578.64 4.654 1.832l1.485-1.34c-1.525-1.69-3.616-2.492-6.139-2.492v2zm4.654 1.832c1.09 1.207 1.694 2.933 1.694 5.306h2c0-2.712-.697-4.97-2.21-6.646l-1.484 1.34zm1.694 5.306c0 2.547-.713 4.45-2.04 5.828l1.44 1.388c1.765-1.833 2.6-4.277 2.6-7.216h-2zm-2.038 5.825c-1.316 1.356-3.177 2.088-5.716 2.088v2c2.945 0 5.373-.863 7.15-2.695l-1.434-1.392zm-5.716 2.088c-1.739 0-3.21-.4-4.448-1.169l-1.054 1.7c1.597.99 3.444 1.469 5.502 1.469v-2zm-4.445-1.167c-1.22-.763-2.188-1.886-2.89-3.418l-1.819.833c.845 1.843 2.058 3.287 3.65 4.281l1.06-1.696zm-2.888-3.413c-.69-1.527-1.054-3.412-1.054-5.688h-2c0 2.482.397 4.663 1.231 6.511l1.823-.823zm7.227 2.238c1.406 0 2.608-.483 3.452-1.534l-1.56-1.252c-.398.495-.977.786-1.892.786v2zm3.456-1.54c.811-1.025 1.148-2.39 1.148-3.96h-2c0 1.312-.285 2.174-.716 2.72l1.568 1.24zm1.148-3.96c0-1.403-.328-2.639-1.106-3.587l-1.546 1.268c.394.481.652 1.214.652 2.319h2zm-1.095-3.573c-.812-1.029-2.014-1.47-3.403-1.47v2c.955 0 1.499.285 1.834.71l1.57-1.24zm-3.403-1.47c-1.34 0-2.527.443-3.504 1.333l1.347 1.479c.594-.54 1.294-.812 2.157-.812v-2zm-3.51 1.338c-.952.88-1.48 1.97-1.48 3.23h2c0-.638.245-1.213.838-1.762l-1.357-1.468zm-1.48 3.23c0 1.577.414 2.975 1.292 4.137l1.595-1.207c-.575-.76-.887-1.717-.887-2.93h-2zm1.296 4.143c.911 1.185 2.126 1.832 3.588 1.832v-2c-.787 0-1.436-.314-2.002-1.05l-1.586 1.218z" fill="#6832AC"/></svg>