<svg width="45" height="47" viewBox="0 0 45 47" fill="none" xmlns="http://www.w3.org/2000/svg"><path d="M19.266 25.15c0 4.489-.739 7.81-2.215 9.967-1.465 2.156-3.727 3.235-6.785 3.235-2.965 0-5.204-1.114-6.715-3.34-1.5-2.227-2.25-5.514-2.25-9.862 0-4.535.732-7.875 2.197-10.02 1.465-2.155 3.72-3.234 6.768-3.234 2.964 0 5.203 1.125 6.714 3.375 1.524 2.25 2.286 5.543 2.286 9.88zm-12.569 0c0 3.153.27 5.415.809 6.786.55 1.359 1.47 2.039 2.76 2.039 1.265 0 2.18-.692 2.742-2.075.562-1.382.844-3.632.844-6.75 0-3.152-.287-5.414-.862-6.785-.562-1.383-1.47-2.074-2.724-2.074-1.278 0-2.192.691-2.743 2.074-.55 1.371-.826 3.633-.826 6.785zM24.557 38l9.65-21.094H21.533v-4.57h18.44v3.41L30.252 38h-5.695z" fill="#6832AC"/><path d="M17.05 35.117l-.824-.565-.002.003.827.562zm-13.5-.105l-.829.558.002.003.828-.561zM3.499 15.13l.826.564.001-.002-.827-.562zm13.482.14l-.83.558.002.003.828-.56zM7.506 31.936l-.93.365.003.01.927-.375zm5.484-13.57l-.926.376.004.01.922-.387zm-5.467 0l.928.372.001-.003-.929-.37zm10.743 6.784c0 4.416-.733 7.494-2.04 9.402l1.65 1.13c1.646-2.404 2.39-5.97 2.39-10.532h-2zm-2.042 9.405c-1.245 1.832-3.165 2.797-5.958 2.797v2c3.323 0 5.927-1.192 7.612-3.673l-1.654-1.124zm-5.958 2.797c-2.673 0-4.583-.98-5.888-2.902l-1.655 1.123c1.72 2.532 4.286 3.779 7.543 3.779v-2zM4.38 34.453C3.04 32.465 2.3 29.411 2.3 25.15h-2c0 4.435.76 7.955 2.421 10.42l1.66-1.117zM2.3 25.15c0-4.466.73-7.56 2.024-9.455l-1.652-1.128C1.037 16.96.301 20.547.301 25.15h2zm2.025-9.457c1.245-1.833 3.16-2.796 5.94-2.796v-2c-3.313 0-5.91 1.192-7.594 3.672l1.654 1.124zm5.94-2.796c2.67 0 4.58.988 5.885 2.932l1.66-1.115c-1.717-2.556-4.283-3.818-7.544-3.818v2zm5.887 2.935c1.363 2.013 2.114 5.073 2.114 9.318h2c0-4.426-.773-7.952-2.457-10.44l-1.657 1.122zM5.697 25.15c0 3.168.265 5.593.878 7.151l1.862-.731c-.466-1.184-.74-3.282-.74-6.42h-2zm.882 7.161c.325.803.791 1.482 1.436 1.958.653.483 1.42.706 2.25.706v-2c-.458 0-.795-.118-1.062-.314-.275-.204-.545-.545-.77-1.101l-1.854.751zm3.687 2.664c.826 0 1.589-.23 2.238-.721.638-.483 1.101-1.168 1.43-1.977l-1.852-.753c-.234.573-.509.926-.785 1.134-.265.201-.592.317-1.031.317v2zm3.668-2.698c.64-1.574.918-3.99.918-7.127h-2c0 3.098-.286 5.182-.77 6.374l1.852.753zm.918-7.127c0-3.17-.283-5.603-.94-7.171l-1.844.773c.492 1.174.784 3.263.784 6.398h2zm-.936-7.162c-.328-.807-.79-1.491-1.423-1.974-.646-.491-1.404-.723-2.227-.723v2c.43 0 .753.114 1.015.314.275.209.549.562.783 1.137l1.852-.754zm-3.65-2.697c-.83 0-1.597.229-2.247.721-.64.484-1.101 1.172-1.425 1.983l1.858.74c.228-.571.5-.92.773-1.128.264-.2.593-.316 1.04-.316v-2zm-3.67 2.701c-.628 1.562-.899 3.99-.899 7.158h2c0-3.136.28-5.231.754-6.412l-1.855-.745zM24.556 38l-.909-.416L23 39h1.557v-1zm9.651-21.094l.91.416.647-1.416h-1.557v1zm-12.674 0h-1v1h1v-1zm0-4.57v-1h-1v1h1zm18.44 0h1v-1h-1v1zm0 3.41l.916.4.084-.191v-.209h-1zM30.252 38v1h.654l.262-.6-.916-.4zm-4.786.416l9.65-21.094-1.818-.832-9.65 21.094 1.818.832zm8.741-22.51H21.533v2h12.674v-2zm-11.674 1v-4.57h-2v4.57h2zm-1-3.57h18.44v-2h-18.44v2zm17.44-1v3.41h2v-3.41h-2zm.083 3.01L29.336 37.6l1.832.8 9.721-22.254-1.833-.8zM30.252 37h-5.695v2h5.695v-2z" fill="#6832AC"/><path d="M20.05 33.117l-.824-.565-.002.003.827.562zm-13.5-.105l-.829.558.002.003.828-.561zM6.499 13.13l.826.564.001-.002-.827-.562zm13.482.14l-.83.558.002.003.828-.56zm-9.474 16.665l-.93.366.003.01.927-.377zm5.484-13.57l-.926.376.004.01.922-.387zm-5.467 0l.928.372.002-.003-.93-.37zm10.743 6.784c0 4.416-.733 7.494-2.04 9.402l1.65 1.13c1.646-2.404 2.39-5.97 2.39-10.532h-2zm-2.042 9.405c-1.245 1.832-3.165 2.797-5.958 2.797v2c3.323 0 5.927-1.192 7.612-3.673l-1.654-1.124zm-5.958 2.797c-2.673 0-4.583-.98-5.888-2.902l-1.655 1.123c1.72 2.532 4.286 3.779 7.543 3.779v-2zM7.38 32.453C6.04 30.465 5.3 27.411 5.3 23.15h-2c0 4.435.76 7.955 2.421 10.42l1.66-1.117zM5.3 23.15c0-4.466.73-7.56 2.024-9.455l-1.652-1.128c-1.635 2.394-2.371 5.98-2.371 10.583h2zm2.025-9.457c1.245-1.833 3.16-2.796 5.94-2.796v-2c-3.313 0-5.91 1.192-7.594 3.672l1.654 1.124zm5.94-2.796c2.67 0 4.58.988 5.885 2.932l1.66-1.115c-1.717-2.556-4.283-3.818-7.544-3.818v2zm5.887 2.935c1.363 2.013 2.114 5.073 2.114 9.318h2c0-4.426-.773-7.952-2.457-10.44l-1.657 1.122zM8.697 23.15c0 3.168.265 5.593.878 7.151l1.862-.731c-.466-1.184-.74-3.282-.74-6.42h-2zm.882 7.161c.325.803.791 1.482 1.436 1.958.653.483 1.42.706 2.25.706v-2c-.458 0-.796-.118-1.062-.314-.275-.204-.545-.545-.77-1.101l-1.854.751zm3.687 2.664c.826 0 1.589-.23 2.238-.721.638-.483 1.101-1.168 1.43-1.977l-1.853-.753c-.233.573-.508.926-.784 1.134-.265.201-.592.317-1.031.317v2zm3.668-2.698c.64-1.574.918-3.99.918-7.127h-2c0 3.098-.286 5.182-.77 6.374l1.852.753zm.918-7.127c0-3.17-.283-5.603-.94-7.171l-1.844.773c.492 1.174.784 3.263.784 6.398h2zm-.936-7.162c-.328-.807-.79-1.492-1.423-1.974-.646-.491-1.404-.723-2.227-.723v2c.43 0 .753.114 1.015.314.275.209.549.562.783 1.137l1.852-.754zm-3.65-2.697c-.83 0-1.597.229-2.247.721-.64.484-1.101 1.172-1.425 1.983l1.859.74c.227-.571.498-.92.772-1.128.264-.2.594-.316 1.04-.316v-2zm-3.67 2.701c-.628 1.562-.899 3.99-.899 7.158h2c0-3.136.28-5.231.754-6.412l-1.855-.745zM27.556 36l-.909-.416L26 37h1.557v-1zm9.651-21.094l.91.416.647-1.416h-1.557v1zm-12.674 0h-1v1h1v-1zm0-4.57v-1h-1v1h1zm18.44 0h1v-1h-1v1zm0 3.41l.916.4.084-.191v-.209h-1zM33.252 36v1h.654l.262-.6-.916-.4zm-4.786.416l9.65-21.094-1.818-.832-9.65 21.094 1.818.832zm8.741-22.51H24.533v2h12.674v-2zm-11.674 1v-4.57h-2v4.57h2zm-1-3.57h18.44v-2h-18.44v2zm17.44-1v3.41h2v-3.41h-2zm.083 3.01L32.336 35.6l1.832.8 9.721-22.254-1.833-.8zM33.252 35h-5.695v2h5.695v-2z" fill="#6832AC"/></svg>