<svg width="220" height="206" viewBox="0 0 220 206" fill="none" xmlns="http://www.w3.org/2000/svg"><g clip-path="url(#clip0)"><path d="M72.206 59.837c-10.607-15.875-6.334-37.354 9.52-47.863 15.875-10.606 37.354-6.334 47.863 9.52L304.19 282.677c10.606 15.875 6.334 37.354-9.521 47.863-15.874 10.607-37.353 6.334-47.862-9.521L72.206 59.837z" fill="#40F9AD"/></g><g opacity=".5" clip-path="url(#clip1)"><path d="M55.206 173.837c-10.607-15.875-6.334-37.354 9.52-47.863 15.875-10.606 37.354-6.334 47.863 9.521L287.19 396.676c10.606 15.875 6.334 37.354-9.521 47.863-15.874 10.606-37.353 6.334-47.862-9.521L55.206 173.837z" fill="#40F9AD"/></g><defs><clipPath id="clip0"><path fill="#fff" transform="rotate(101.25 156.396 175.887)" d="M0 0h291.2v291.2H0z"/></clipPath><clipPath id="clip1"><path fill="#fff" transform="rotate(101.25 101.117 225.911)" d="M0 0h291.2v291.2H0z"/></clipPath></defs></svg>