<svg width="79" height="140" viewBox="0 0 79 140" fill="none" xmlns="http://www.w3.org/2000/svg"><path d="M74.687 109.455c2.353 0 4.313 1.958 4.313 4.307 0 2.35-1.96 4.308-4.313 4.308-2.352 0-4.312-1.958-4.312-4.308 0-2.349 1.96-4.307 4.312-4.307zm0-21.93c2.353 0 4.313 1.957 4.313 4.307 0 2.35-1.96 4.308-4.313 4.308-2.352 0-4.312-1.958-4.312-4.308 0-2.35 1.96-4.307 4.312-4.307zm0-21.735c2.353 0 4.313 1.958 4.313 4.308 0 2.35-1.96 4.308-4.313 4.308-2.352 0-4.312-1.959-4.312-4.308 0-2.546 1.96-4.308 4.312-4.308zm0-21.93c2.353 0 4.313 1.958 4.313 4.308 0 2.35-1.96 4.307-4.313 4.307-2.352 0-4.312-1.958-4.312-4.307 0-2.546 1.96-4.308 4.312-4.308zm0-21.93c2.353 0 4.313 1.958 4.313 4.308 0 2.35-1.96 4.308-4.313 4.308-2.352 0-4.312-1.959-4.312-4.308 0-2.35 1.96-4.308 4.312-4.308zm0-21.93C77.04 0 79 1.958 79 4.308c0 2.35-1.96 4.307-4.313 4.307-2.352 0-4.312-1.958-4.312-4.307 0-2.35 1.96-4.308 4.312-4.308zm-4.312 135.692c0-1.174.392-2.154 1.372-2.937.784-.783 1.96-1.37 2.94-1.37 1.177 0 2.157.391 2.94 1.37 1.569 1.567 1.569 4.504 0 6.07-.783.783-1.96 1.175-3.136 1.175-1.176 0-2.156-.392-2.94-1.175-.784-.979-1.176-1.958-1.176-3.133zm-19.407-26.237c2.352 0 4.312 1.958 4.312 4.307 0 2.35-1.96 4.308-4.312 4.308-2.353 0-4.313-1.958-4.313-4.308 0-2.349 1.96-4.307 4.313-4.307zm0-21.93c2.352 0 4.312 1.957 4.312 4.307 0 2.35-1.96 4.308-4.312 4.308-2.353 0-4.313-1.958-4.313-4.308 0-2.35 1.96-4.307 4.313-4.307zm0-21.735c2.352 0 4.312 1.958 4.312 4.308 0 2.35-1.96 4.308-4.312 4.308-2.353 0-4.313-1.959-4.313-4.308 0-2.546 1.96-4.308 4.313-4.308zm0-21.93c2.352 0 4.312 1.958 4.312 4.308 0 2.35-1.96 4.307-4.312 4.307-2.353 0-4.313-1.958-4.313-4.307 0-2.546 1.96-4.308 4.313-4.308zm0-21.93c2.352 0 4.312 1.958 4.312 4.308 0 2.35-1.96 4.308-4.312 4.308-2.353 0-4.313-1.959-4.313-4.308 0-2.35 1.96-4.308 4.313-4.308zm0-21.93c2.352 0 4.312 1.958 4.312 4.308 0 2.35-1.96 4.307-4.312 4.307-2.353 0-4.313-1.958-4.313-4.307 0-2.35 1.96-4.308 4.313-4.308zm-4.313 135.692c0-1.174.392-2.154 1.176-2.937.784-.783 1.96-1.37 3.137-1.37 1.176 0 2.156.391 3.136 1.37 1.569 1.567 1.569 4.504 0 6.07-.784.783-1.96 1.175-3.136 1.175-1.176 0-2.157-.392-3.137-1.175-.784-.979-1.176-1.958-1.176-3.133zm-18.623-26.237c2.353 0 4.313 1.958 4.313 4.307 0 2.35-1.96 4.308-4.313 4.308-2.352 0-4.312-1.958-4.312-4.308 0-2.349 1.96-4.307 4.312-4.307zm0-21.93c2.353 0 4.313 1.957 4.313 4.307 0 2.35-1.96 4.308-4.313 4.308-2.352 0-4.312-1.958-4.312-4.308 0-2.35 1.96-4.307 4.312-4.307zm0-21.735c2.353 0 4.313 1.958 4.313 4.308 0 2.35-1.96 4.308-4.313 4.308-2.352 0-4.312-1.959-4.312-4.308 0-2.546 1.96-4.308 4.312-4.308zm0-21.93c2.353 0 4.313 1.958 4.313 4.308 0 2.35-1.96 4.307-4.313 4.307-2.352 0-4.312-1.958-4.312-4.307 0-2.546 1.96-4.308 4.312-4.308zm0-21.93c2.353 0 4.313 1.958 4.313 4.308 0 2.35-1.96 4.308-4.313 4.308-2.352 0-4.312-1.959-4.312-4.308 0-2.35 1.96-4.308 4.312-4.308zm0-21.93c2.353 0 4.313 1.958 4.313 4.308 0 2.35-1.96 4.307-4.313 4.307-2.352 0-4.312-1.958-4.312-4.307C23.72 1.958 25.68 0 28.032 0zM23.72 135.692c0-1.174.392-2.154 1.176-2.937.784-.783 1.96-1.37 3.136-1.37 1.176 0 2.157.391 2.94 1.37 1.569 1.567 1.569 4.504 0 6.07-.783.783-1.96 1.175-2.94 1.175-1.176 0-2.352-.392-3.136-1.175-.784-.979-1.176-1.958-1.176-3.133zM4.313 109.455c2.352 0 4.312 1.958 4.312 4.307 0 2.35-1.96 4.308-4.312 4.308-2.353 0-4.313-1.958-4.313-4.308 0-2.349 1.96-4.307 4.313-4.307zm0-21.93c2.352 0 4.312 1.957 4.312 4.307 0 2.35-1.96 4.308-4.312 4.308C1.96 96.14 0 94.182 0 91.832c0-2.35 1.96-4.307 4.313-4.307zm0-21.735c2.352 0 4.312 1.958 4.312 4.308 0 2.35-1.96 4.308-4.312 4.308C1.96 74.21 0 72.448 0 69.902c0-2.35 1.96-4.112 4.313-4.112zm0-21.93c2.352 0 4.312 1.958 4.312 4.308 0 2.35-1.96 4.307-4.312 4.307C1.96 52.475 0 50.517 0 48.168c0-2.546 1.96-4.308 4.313-4.308zm0-21.93c2.352 0 4.312 1.958 4.312 4.308 0 2.35-1.96 4.308-4.312 4.308C1.96 30.546 0 28.587 0 26.238c0-2.35 1.96-4.308 4.313-4.308zm0-21.93c2.352 0 4.312 1.958 4.312 4.308 0 2.35-1.96 4.307-4.312 4.307C1.96 8.615 0 6.657 0 4.308 0 1.958 1.96 0 4.313 0zM0 135.692c0-1.174.392-2.154 1.176-2.937.784-.783 1.96-1.37 3.137-1.37 1.176 0 2.156.391 2.94 1.37 1.568 1.567 1.568 4.504 0 6.07-.784.783-1.96 1.175-3.136 1.175-1.177 0-2.157-.392-2.94-1.175C.391 137.846 0 136.867 0 135.692z" fill="#FB0"/></svg>