<svg width="120" height="33" viewBox="0 0 120 33" fill="none" xmlns="http://www.w3.org/2000/svg"><path d="M118.959 18.563l-16.66 12.117-16.92-12.633L68.2 30.68 51.02 18.047 33.84 30.68 16.92 18.047 0 30.422v2.32l16.92-12.375L33.84 33l17.18-12.633L68.2 33l17.18-12.633L102.299 33 120 20.11l-1.041-1.547zm0-18.047l-16.66 12.117L85.379 0 68.2 12.633 51.02 0 33.84 12.633 16.92 0 0 12.375v2.32L16.92 2.32l16.92 12.633L51.02 2.32 68.2 14.953 85.38 2.32l16.919 12.633L120 2.063 118.959.516z" fill="#09E8E3"/></svg>