<svg width="161" height="102" viewBox="0 0 161 102" fill="none" xmlns="http://www.w3.org/2000/svg"><g clip-path="url(#clip0)"><path d="M20.119 157.912c-5.39 0-10.445-2.116-14.247-5.916-7.845-7.841-7.845-20.635 0-28.475L123.65 5.868c7.845-7.84 20.648-7.84 28.494 0 3.802 3.8 5.92 8.85 5.92 14.238 0 5.387-2.118 10.437-5.92 14.237L34.366 151.996c-3.802 3.8-8.856 5.916-14.247 5.916zM137.849 3.656c-4.38 0-8.52 1.731-11.648 4.81l-117.73 117.7c-6.401 6.397-6.401 16.835 0 23.28 3.129 3.127 7.268 4.81 11.648 4.81s8.52-1.731 11.648-4.81l117.73-117.7c3.128-3.127 4.813-7.263 4.813-11.64 0-4.377-1.733-8.514-4.813-11.64a16.387 16.387 0 00-11.648-4.81z" fill="#D4FF00"/><path d="M23.729 181a19.507 19.507 0 01-13.814-5.724c-7.605-7.6-7.605-20.01 0-27.609L127.693 30.014c7.605-7.6 20.023-7.6 27.628 0 3.706 3.704 5.727 8.61 5.727 13.805s-2.021 10.101-5.727 13.805L37.543 175.276A19.507 19.507 0 0123.729 181zM141.507 26.744c-4.38 0-8.76 1.683-12.081 5.002L11.648 149.398a16.95 16.95 0 00-5.006 12.073c0 4.57 1.781 8.851 5.006 12.073a16.97 16.97 0 0012.08 5.003 16.97 16.97 0 0012.082-5.003l.866.866-.866-.866L153.54 55.892a16.95 16.95 0 005.005-12.073c0-4.57-1.781-8.85-5.005-12.073a17.036 17.036 0 00-12.033-5.002z" fill="#fff"/></g><defs><clipPath id="clip0"><path fill="#fff" d="M0 0h161v181H0z"/></clipPath></defs></svg>