<svg width="111" height="168" viewBox="0 0 111 168" fill="none" xmlns="http://www.w3.org/2000/svg"><g clip-path="url(#clip0)"><path d="M19.259 123.3c-28.688 0-53.79-20.4-59.766-48.3-3.586-16.2-.597-32.7 8.368-46.5 8.964-13.8 22.412-23.4 38.548-27C10.892.6 15.374 0 19.558 0c28.687 0 53.789 20.4 59.765 48.3 3.586 16.2.598 32.7-8.367 46.5-8.965 13.8-22.412 23.4-38.549 27-4.183.9-8.666 1.5-13.148 1.5zm.299-118.2c-4.184 0-8.069.3-12.252 1.2-14.643 3.3-27.194 12-35.262 24.9-8.367 12.6-11.057 27.9-7.77 42.6 5.678 25.8 28.688 44.4 54.985 44.4 4.184 0 8.068-.6 12.252-1.2 14.643-3.3 27.193-12 35.262-24.9 8.068-12.6 10.758-27.9 7.47-42.6C68.865 23.7 45.855 5.1 19.558 5.1z" fill="#01A6FF"/><path d="M101.139 149.7l-51.1 18.3-41.238-35.4 9.861-53.4 51.1-18L111 96.3l-9.861 53.4z" fill="#D4FF00"/></g><defs><clipPath id="clip0"><path fill="#fff" transform="translate(-42)" d="M0 0h153v168H0z"/></clipPath></defs></svg>