<svg width="206" height="233" viewBox="0 0 206 233" fill="none" xmlns="http://www.w3.org/2000/svg"><path d="M276 64.67c0 75.956-61.862 137.671-138 137.671S0 140.626 0 64.671C0-11.287 61.862-73 138-73S276-11.286 276 64.67z" fill="#FB0"/><path d="M73.164 10.511c-.992 0-1.785-.396-2.578-.989-.595-.593-.991-1.582-.991-2.571 0-.99.396-1.78.991-2.572 1.388-1.384 3.767-1.384 4.957 0 .595.594.991 1.583.991 2.572 0 .989-.396 1.78-.99 2.571a3.287 3.287 0 01-2.38.989zM250.621 6.95a3.55 3.55 0 013.569-3.56 3.55 3.55 0 013.569 3.56 3.55 3.55 0 01-3.569 3.561c-1.785 0-3.371-1.582-3.569-3.56zm-18.043 0a3.55 3.55 0 013.569-3.56 3.55 3.55 0 013.569 3.56 3.55 3.55 0 01-3.569 3.561 3.55 3.55 0 01-3.569-3.56zm-18.044 0a3.55 3.55 0 013.569-3.56 3.55 3.55 0 013.569 3.56 3.55 3.55 0 01-3.569 3.561 3.55 3.55 0 01-3.569-3.56zm-18.043 0a3.55 3.55 0 013.569-3.56 3.55 3.55 0 013.569 3.56 3.55 3.55 0 01-3.569 3.561c-2.181 0-3.569-1.582-3.569-3.56zm-18.241 0a3.55 3.55 0 013.569-3.56 3.55 3.55 0 013.569 3.56 3.55 3.55 0 01-3.569 3.561 3.55 3.55 0 01-3.569-3.56zm-18.043 0a3.55 3.55 0 013.569-3.56 3.55 3.55 0 013.569 3.56 3.55 3.55 0 01-3.569 3.561 3.55 3.55 0 01-3.569-3.56zm-18.241 0a3.55 3.55 0 013.568-3.56 3.55 3.55 0 013.569 3.56 3.55 3.55 0 01-3.569 3.561c-1.784 0-3.568-1.582-3.568-3.56zm-18.044 0a3.55 3.55 0 013.569-3.56 3.55 3.55 0 013.569 3.56 3.55 3.55 0 01-3.569 3.561 3.55 3.55 0 01-3.569-3.56zm-18.043 0a3.55 3.55 0 013.569-3.56 3.55 3.55 0 013.569 3.56 3.55 3.55 0 01-3.569 3.561 3.55 3.55 0 01-3.569-3.56zm-18.241 0a3.55 3.55 0 013.569-3.56 3.55 3.55 0 013.569 3.56 3.55 3.55 0 01-3.57 3.561 3.55 3.55 0 01-3.568-3.56zM73.164 30.093c-.992 0-1.785-.395-2.578-.989-.595-.593-.991-1.582-.991-2.571 0-.989.396-1.78.991-2.571 1.388-1.385 3.767-1.385 4.957 0 .595.593.991 1.582.991 2.571 0 .989-.396 1.78-.99 2.571a3.287 3.287 0 01-2.38.99zm177.457-3.56a3.55 3.55 0 013.569-3.56 3.55 3.55 0 013.569 3.56 3.55 3.55 0 01-3.569 3.56c-1.785 0-3.569-1.582-3.569-3.56zm-18.043 0a3.55 3.55 0 013.569-3.56 3.55 3.55 0 013.569 3.56 3.55 3.55 0 01-3.569 3.56 3.55 3.55 0 01-3.569-3.56zm-18.044 0a3.55 3.55 0 013.569-3.56 3.55 3.55 0 013.569 3.56 3.55 3.55 0 01-3.569 3.56 3.55 3.55 0 01-3.569-3.56zm-18.043 0a3.55 3.55 0 013.569-3.56 3.55 3.55 0 013.569 3.56 3.55 3.55 0 01-3.569 3.56 3.55 3.55 0 01-3.569-3.56zm-18.241 0a3.55 3.55 0 013.569-3.56 3.55 3.55 0 013.569 3.56 3.55 3.55 0 01-3.569 3.56 3.55 3.55 0 01-3.569-3.56zm-18.043 0a3.55 3.55 0 013.569-3.56 3.55 3.55 0 013.569 3.56 3.55 3.55 0 01-3.569 3.56 3.55 3.55 0 01-3.569-3.56zm-18.241 0a3.55 3.55 0 013.568-3.56 3.55 3.55 0 013.569 3.56 3.55 3.55 0 01-3.569 3.56c-1.784 0-3.568-1.582-3.568-3.56zm-18.044 0a3.55 3.55 0 013.569-3.56 3.55 3.55 0 013.569 3.56 3.55 3.55 0 01-3.569 3.56 3.55 3.55 0 01-3.569-3.56zm-18.043 0a3.55 3.55 0 013.569-3.56 3.55 3.55 0 013.569 3.56 3.55 3.55 0 01-3.569 3.56 3.55 3.55 0 01-3.569-3.56zm-18.241 0a3.55 3.55 0 013.569-3.56 3.55 3.55 0 013.569 3.56 3.55 3.55 0 01-3.57 3.56 3.55 3.55 0 01-3.568-3.56zM73.164 48.885c-.992 0-1.785-.396-2.578-.99-.595-.593-.991-1.582-.991-2.57 0-.99.396-1.781.991-2.572 1.388-1.385 3.767-1.385 4.957 0 .595.593.991 1.582.991 2.571 0 .99-.396 1.78-.99 2.572-.596.79-1.389.989-2.38.989zm177.457-3.561a3.55 3.55 0 013.569-3.56 3.55 3.55 0 013.569 3.56 3.55 3.55 0 01-3.569 3.56c-1.785 0-3.569-1.582-3.569-3.56zm-18.043 0a3.55 3.55 0 013.569-3.56 3.55 3.55 0 013.569 3.56 3.55 3.55 0 01-3.569 3.56 3.55 3.55 0 01-3.569-3.56zm-18.044.198a3.55 3.55 0 013.569-3.56 3.55 3.55 0 013.569 3.56 3.55 3.55 0 01-3.569 3.56c-1.982-.197-3.569-1.78-3.569-3.56zm-18.043-.198a3.55 3.55 0 013.569-3.56 3.55 3.55 0 013.569 3.56 3.55 3.55 0 01-3.569 3.56c-2.181 0-3.569-1.582-3.569-3.56zm-18.241 0a3.55 3.55 0 013.569-3.56 3.55 3.55 0 013.569 3.56 3.55 3.55 0 01-3.569 3.56 3.55 3.55 0 01-3.569-3.56zm-18.043 0a3.55 3.55 0 013.569-3.56 3.55 3.55 0 013.569 3.56 3.55 3.55 0 01-3.569 3.56 3.55 3.55 0 01-3.569-3.56zm-18.241 0a3.55 3.55 0 013.568-3.56 3.55 3.55 0 013.569 3.56 3.55 3.55 0 01-3.569 3.56c-1.784 0-3.568-1.582-3.568-3.56zm-18.044 0a3.55 3.55 0 013.569-3.56 3.55 3.55 0 013.569 3.56 3.55 3.55 0 01-3.569 3.56 3.55 3.55 0 01-3.569-3.56zm-18.043 0a3.55 3.55 0 013.569-3.56 3.55 3.55 0 013.569 3.56 3.55 3.55 0 01-3.569 3.56 3.55 3.55 0 01-3.569-3.56zm-18.241 0a3.55 3.55 0 013.569-3.56 3.55 3.55 0 013.569 3.56 3.55 3.55 0 01-3.57 3.56 3.55 3.55 0 01-3.568-3.56zM73.164 68.467c-.992 0-1.785-.395-2.578-.989-.595-.593-.991-1.582-.991-2.571 0-.99.396-1.78.991-2.572 1.388-1.384 3.767-1.384 4.957 0 .595.594.991 1.583.991 2.572 0 .989-.396 1.78-.99 2.571a3.287 3.287 0 01-2.38.99zm177.457-3.56a3.55 3.55 0 013.569-3.56 3.55 3.55 0 013.569 3.56 3.55 3.55 0 01-3.569 3.56c-1.785 0-3.569-1.582-3.569-3.56zm-18.043 0a3.55 3.55 0 013.569-3.56 3.55 3.55 0 013.569 3.56 3.55 3.55 0 01-3.569 3.56 3.55 3.55 0 01-3.569-3.56zm-18.044 0a3.55 3.55 0 013.569-3.56 3.55 3.55 0 013.569 3.56 3.55 3.55 0 01-3.569 3.56 3.55 3.55 0 01-3.569-3.56zm-18.043 0a3.55 3.55 0 013.569-3.56 3.55 3.55 0 013.569 3.56 3.55 3.55 0 01-3.569 3.56 3.55 3.55 0 01-3.569-3.56zm-18.241 0a3.55 3.55 0 013.569-3.56 3.55 3.55 0 013.569 3.56 3.55 3.55 0 01-3.569 3.56 3.55 3.55 0 01-3.569-3.56zm-18.043 0a3.55 3.55 0 013.569-3.56 3.55 3.55 0 013.569 3.56 3.55 3.55 0 01-3.569 3.56 3.55 3.55 0 01-3.569-3.56zm-18.241 0a3.55 3.55 0 013.568-3.56 3.55 3.55 0 013.569 3.56 3.55 3.55 0 01-3.569 3.56c-1.784 0-3.568-1.582-3.568-3.56zm-18.044 0a3.55 3.55 0 013.569-3.56 3.55 3.55 0 013.569 3.56 3.55 3.55 0 01-3.569 3.56 3.55 3.55 0 01-3.569-3.56zm-18.043 0a3.55 3.55 0 013.569-3.56 3.55 3.55 0 013.569 3.56 3.55 3.55 0 01-3.569 3.56 3.55 3.55 0 01-3.569-3.56zm-18.241 0a3.55 3.55 0 013.569-3.56 3.55 3.55 0 013.569 3.56 3.55 3.55 0 01-3.57 3.56 3.55 3.55 0 01-3.568-3.56zM73.164 86.27c-.992 0-1.785-.396-2.578-.99-.595-.593-.991-1.582-.991-2.571 0-.99.396-1.78.991-2.572 1.388-1.384 3.767-1.384 4.957 0 .595.594.991 1.583.991 2.572 0 .989-.396 1.78-.99 2.571a3.287 3.287 0 01-2.38.99zm177.457-3.561a3.55 3.55 0 013.569-3.56 3.55 3.55 0 013.569 3.56 3.55 3.55 0 01-3.569 3.56c-1.785 0-3.569-1.582-3.569-3.56zm-18.043 0a3.55 3.55 0 013.569-3.56 3.55 3.55 0 013.569 3.56 3.55 3.55 0 01-3.569 3.56 3.55 3.55 0 01-3.569-3.56zm-18.044 0a3.55 3.55 0 013.569-3.56 3.55 3.55 0 013.569 3.56 3.55 3.55 0 01-3.569 3.56 3.55 3.55 0 01-3.569-3.56zm-18.043 0a3.55 3.55 0 013.569-3.56 3.55 3.55 0 013.569 3.56 3.55 3.55 0 01-3.569 3.56 3.55 3.55 0 01-3.569-3.56zm-18.241 0a3.55 3.55 0 013.569-3.56 3.55 3.55 0 013.569 3.56 3.55 3.55 0 01-3.569 3.56 3.55 3.55 0 01-3.569-3.56zm-18.043 0a3.55 3.55 0 013.569-3.56 3.55 3.55 0 013.569 3.56 3.55 3.55 0 01-3.569 3.56 3.55 3.55 0 01-3.569-3.56zm-18.241 0a3.55 3.55 0 013.568-3.56 3.55 3.55 0 013.569 3.56 3.55 3.55 0 01-3.569 3.56 3.55 3.55 0 01-3.568-3.56zm-18.044 0a3.55 3.55 0 013.569-3.56 3.55 3.55 0 013.569 3.56 3.55 3.55 0 01-3.569 3.56 3.55 3.55 0 01-3.569-3.56zm-18.043 0a3.55 3.55 0 013.569-3.56 3.55 3.55 0 013.569 3.56 3.55 3.55 0 01-3.569 3.56 3.55 3.55 0 01-3.569-3.56zm-18.241 0a3.55 3.55 0 013.569-3.56 3.55 3.55 0 013.569 3.56 3.55 3.55 0 01-3.57 3.56 3.55 3.55 0 01-3.568-3.56zm-14.474 23.143c-.992 0-1.785-.396-2.578-.989-.595-.594-.991-1.583-.991-2.572 0-.989.396-1.78.991-2.571 1.388-1.385 3.767-1.385 4.957 0 .595.593.991 1.582.991 2.571 0 .989-.396 1.781-.99 2.572a3.289 3.289 0 01-2.38.989zm177.457-3.561a3.55 3.55 0 013.569-3.56 3.55 3.55 0 013.569 3.56 3.55 3.55 0 01-3.569 3.561c-1.785 0-3.371-1.583-3.569-3.561zm-18.043 0a3.55 3.55 0 013.569-3.56 3.55 3.55 0 013.569 3.56 3.55 3.55 0 01-3.569 3.561 3.55 3.55 0 01-3.569-3.561zm-18.044 0a3.55 3.55 0 013.569-3.56 3.55 3.55 0 013.569 3.56 3.55 3.55 0 01-3.569 3.561 3.55 3.55 0 01-3.569-3.561zm-18.043 0a3.55 3.55 0 013.569-3.56 3.55 3.55 0 013.569 3.56 3.55 3.55 0 01-3.569 3.561 3.55 3.55 0 01-3.569-3.561zm-18.241 0a3.55 3.55 0 013.569-3.56 3.55 3.55 0 013.569 3.56 3.55 3.55 0 01-3.569 3.561 3.55 3.55 0 01-3.569-3.561zm-18.043 0a3.55 3.55 0 013.569-3.56 3.55 3.55 0 013.569 3.56 3.55 3.55 0 01-3.569 3.561 3.55 3.55 0 01-3.569-3.561zm-18.241 0a3.55 3.55 0 013.568-3.56 3.55 3.55 0 013.569 3.56 3.55 3.55 0 01-3.569 3.561c-1.784 0-3.568-1.583-3.568-3.561zm-18.044 0a3.55 3.55 0 013.569-3.56 3.55 3.55 0 013.569 3.56 3.55 3.55 0 01-3.569 3.561 3.55 3.55 0 01-3.569-3.561zm-18.043 0a3.55 3.55 0 013.569-3.56 3.55 3.55 0 013.569 3.56 3.55 3.55 0 01-3.569 3.561 3.55 3.55 0 01-3.569-3.561zm-18.241 0a3.55 3.55 0 013.569-3.56 3.55 3.55 0 013.569 3.56 3.55 3.55 0 01-3.57 3.561 3.55 3.55 0 01-3.568-3.561zm-14.474 22.352c-.992 0-1.785-.396-2.578-.989-.595-.594-.991-1.583-.991-2.572 0-.989.396-1.78.991-2.571 1.388-1.385 3.767-1.385 4.957 0 .595.593.991 1.582.991 2.571 0 .989-.396 1.781-.99 2.572a3.289 3.289 0 01-2.38.989zm177.457-3.561a3.55 3.55 0 013.569-3.56 3.55 3.55 0 013.569 3.56 3.55 3.55 0 01-3.569 3.561c-1.785 0-3.371-1.583-3.569-3.561zm-18.043 0a3.55 3.55 0 013.569-3.56 3.55 3.55 0 013.569 3.56 3.55 3.55 0 01-3.569 3.561 3.55 3.55 0 01-3.569-3.561zm-18.044 0a3.55 3.55 0 013.569-3.56 3.55 3.55 0 013.569 3.56 3.55 3.55 0 01-3.569 3.561 3.55 3.55 0 01-3.569-3.561zm-18.043 0a3.55 3.55 0 013.569-3.56 3.55 3.55 0 013.569 3.56 3.55 3.55 0 01-3.569 3.561 3.55 3.55 0 01-3.569-3.561zm-18.241 0a3.55 3.55 0 013.569-3.56 3.55 3.55 0 013.569 3.56 3.55 3.55 0 01-3.569 3.561 3.55 3.55 0 01-3.569-3.561zm-18.043 0a3.55 3.55 0 013.569-3.56 3.55 3.55 0 013.569 3.56 3.55 3.55 0 01-3.569 3.561 3.55 3.55 0 01-3.569-3.561zm-18.241 0a3.55 3.55 0 013.568-3.56 3.55 3.55 0 013.569 3.56 3.55 3.55 0 01-3.569 3.561c-1.784 0-3.568-1.583-3.568-3.561zm-18.044 0a3.55 3.55 0 013.569-3.56 3.55 3.55 0 013.569 3.56 3.55 3.55 0 01-3.569 3.561 3.55 3.55 0 01-3.569-3.561zm-18.043 0a3.55 3.55 0 013.569-3.56 3.55 3.55 0 013.569 3.56 3.55 3.55 0 01-3.569 3.561 3.55 3.55 0 01-3.569-3.561zm-18.241 0a3.55 3.55 0 013.569-3.56 3.55 3.55 0 013.569 3.56 3.55 3.55 0 01-3.57 3.561 3.55 3.55 0 01-3.568-3.561zm-14.474 23.143c-.992 0-1.785-.395-2.578-.989-.595-.593-.991-1.582-.991-2.571 0-.989.396-1.78.991-2.572 1.388-1.384 3.767-1.384 4.957 0 .595.594.991 1.583.991 2.572 0 .989-.396 1.78-.99 2.571a3.285 3.285 0 01-2.38.989zm177.457-3.56a3.55 3.55 0 013.569-3.561 3.55 3.55 0 013.569 3.561 3.55 3.55 0 01-3.569 3.56c-1.785 0-3.569-1.582-3.569-3.56zm-18.043 0a3.55 3.55 0 013.569-3.561 3.55 3.55 0 013.569 3.561 3.55 3.55 0 01-3.569 3.56 3.55 3.55 0 01-3.569-3.56zm-18.044 0a3.55 3.55 0 013.569-3.561 3.55 3.55 0 013.569 3.561 3.55 3.55 0 01-3.569 3.56 3.55 3.55 0 01-3.569-3.56zm-18.043 0a3.55 3.55 0 013.569-3.561 3.55 3.55 0 013.569 3.561 3.55 3.55 0 01-3.569 3.56c-2.181 0-3.569-1.582-3.569-3.56zm-18.241 0a3.55 3.55 0 013.569-3.561 3.55 3.55 0 013.569 3.561 3.55 3.55 0 01-3.569 3.56 3.55 3.55 0 01-3.569-3.56zm-18.043 0a3.55 3.55 0 013.569-3.561 3.55 3.55 0 013.569 3.561 3.55 3.55 0 01-3.569 3.56 3.55 3.55 0 01-3.569-3.56zm-18.241 0a3.55 3.55 0 013.568-3.561 3.55 3.55 0 013.569 3.561 3.55 3.55 0 01-3.569 3.56c-1.784 0-3.568-1.582-3.568-3.56zm-18.044 0a3.55 3.55 0 013.569-3.561 3.55 3.55 0 013.569 3.561 3.55 3.55 0 01-3.569 3.56 3.55 3.55 0 01-3.569-3.56zm-18.043 0a3.55 3.55 0 013.569-3.561 3.55 3.55 0 013.569 3.561 3.55 3.55 0 01-3.569 3.56 3.55 3.55 0 01-3.569-3.56zm-18.241 0a3.55 3.55 0 013.569-3.561 3.55 3.55 0 013.569 3.561 3.55 3.55 0 01-3.57 3.56 3.55 3.55 0 01-3.568-3.56zm-14.474 24.33c-.992 0-1.785-.396-2.578-.989-.595-.594-.991-1.583-.991-2.572 0-.989.396-1.78.991-2.571 1.388-1.385 3.767-1.385 4.957 0 .595.593.991 1.582.991 2.571 0 .989-.396 1.78-.99 2.572a3.289 3.289 0 01-2.38.989zm177.457-3.561a3.55 3.55 0 013.569-3.56 3.55 3.55 0 013.569 3.56 3.55 3.55 0 01-3.569 3.561c-1.785 0-3.569-1.583-3.569-3.561zm-18.043 0a3.55 3.55 0 013.569-3.56 3.55 3.55 0 013.569 3.56 3.55 3.55 0 01-3.569 3.561 3.55 3.55 0 01-3.569-3.561zm-18.044 0a3.55 3.55 0 013.569-3.56 3.55 3.55 0 013.569 3.56 3.55 3.55 0 01-3.569 3.561 3.55 3.55 0 01-3.569-3.561zm-18.043 0a3.55 3.55 0 013.569-3.56 3.55 3.55 0 013.569 3.56 3.55 3.55 0 01-3.569 3.561 3.55 3.55 0 01-3.569-3.561zm-18.241 0a3.55 3.55 0 013.569-3.56 3.55 3.55 0 013.569 3.56 3.55 3.55 0 01-3.569 3.561 3.55 3.55 0 01-3.569-3.561zm-18.043 0a3.55 3.55 0 013.569-3.56 3.55 3.55 0 013.569 3.56 3.55 3.55 0 01-3.569 3.561 3.55 3.55 0 01-3.569-3.561zm-18.241 0a3.55 3.55 0 013.568-3.56 3.55 3.55 0 013.569 3.56 3.55 3.55 0 01-3.569 3.561c-1.784 0-3.568-1.583-3.568-3.561zm-18.044 0a3.55 3.55 0 013.569-3.56 3.55 3.55 0 013.569 3.56 3.55 3.55 0 01-3.569 3.561 3.55 3.55 0 01-3.569-3.561zm-18.043 0a3.55 3.55 0 013.569-3.56 3.55 3.55 0 013.569 3.56 3.55 3.55 0 01-3.569 3.561 3.55 3.55 0 01-3.569-3.561zm-18.241 0a3.55 3.55 0 013.569-3.56 3.55 3.55 0 013.569 3.56 3.55 3.55 0 01-3.57 3.561 3.55 3.55 0 01-3.568-3.561zm-14.474 23.143c-.992 0-1.785-.396-2.578-.989-.595-.594-.991-1.583-.991-2.572 0-.989.396-1.78.991-2.571 1.388-1.385 3.767-1.385 4.957 0 .595.593.991 1.582.991 2.571 0 .989-.396 1.781-.99 2.572a3.289 3.289 0 01-2.38.989zm177.457-3.56a3.55 3.55 0 013.569-3.561 3.55 3.55 0 013.569 3.561 3.55 3.55 0 01-3.569 3.56c-1.785 0-3.569-1.582-3.569-3.56zm-18.043 0a3.55 3.55 0 013.569-3.561 3.55 3.55 0 013.569 3.561 3.55 3.55 0 01-3.569 3.56 3.55 3.55 0 01-3.569-3.56zm-18.044 0a3.55 3.55 0 013.569-3.561 3.55 3.55 0 013.569 3.561 3.55 3.55 0 01-3.569 3.56 3.55 3.55 0 01-3.569-3.56zm-18.043 0a3.55 3.55 0 013.569-3.561 3.55 3.55 0 013.569 3.561 3.55 3.55 0 01-3.569 3.56 3.55 3.55 0 01-3.569-3.56zm-18.241 0a3.55 3.55 0 013.569-3.561 3.55 3.55 0 013.569 3.561 3.55 3.55 0 01-3.569 3.56 3.55 3.55 0 01-3.569-3.56zm-18.043 0a3.55 3.55 0 013.569-3.561 3.55 3.55 0 013.569 3.561 3.55 3.55 0 01-3.569 3.56 3.55 3.55 0 01-3.569-3.56zm-18.241 0a3.55 3.55 0 013.568-3.561 3.55 3.55 0 013.569 3.561 3.55 3.55 0 01-3.569 3.56c-1.784 0-3.568-1.582-3.568-3.56zm-18.044 0a3.55 3.55 0 013.569-3.561 3.55 3.55 0 013.569 3.561 3.55 3.55 0 01-3.569 3.56 3.55 3.55 0 01-3.569-3.56zm-18.043 0a3.55 3.55 0 013.569-3.561 3.55 3.55 0 013.569 3.561 3.55 3.55 0 01-3.569 3.56 3.55 3.55 0 01-3.569-3.56zm-18.241 0a3.55 3.55 0 013.569-3.561 3.55 3.55 0 013.569 3.561 3.55 3.55 0 01-3.57 3.56 3.55 3.55 0 01-3.568-3.56zm-14.474 22.549c-.992 0-1.785-.396-2.578-.989-.595-.593-.991-1.582-.991-2.572 0-.989.396-1.78.991-2.571 1.388-1.385 3.767-1.385 4.957 0 .595.593.991 1.582.991 2.571 0 .99-.396 1.781-.99 2.572a3.289 3.289 0 01-2.38.989zm177.457-3.561a3.55 3.55 0 013.569-3.56 3.55 3.55 0 013.569 3.56 3.55 3.55 0 01-3.569 3.561c-1.785 0-3.569-1.583-3.569-3.561zm-18.043 0a3.55 3.55 0 013.569-3.56 3.55 3.55 0 013.569 3.56 3.55 3.55 0 01-3.569 3.561 3.55 3.55 0 01-3.569-3.561zm-18.044 0a3.55 3.55 0 013.569-3.56 3.55 3.55 0 013.569 3.56 3.55 3.55 0 01-3.569 3.561 3.55 3.55 0 01-3.569-3.561zm-18.043 0a3.55 3.55 0 013.569-3.56 3.55 3.55 0 013.569 3.56 3.55 3.55 0 01-3.569 3.561 3.55 3.55 0 01-3.569-3.561zm-18.241 0a3.55 3.55 0 013.569-3.56 3.55 3.55 0 013.569 3.56 3.55 3.55 0 01-3.569 3.561 3.55 3.55 0 01-3.569-3.561zm-18.043 0a3.55 3.55 0 013.569-3.56 3.55 3.55 0 013.569 3.56 3.55 3.55 0 01-3.569 3.561 3.55 3.55 0 01-3.569-3.561zm-18.241 0a3.55 3.55 0 013.568-3.56 3.55 3.55 0 013.569 3.56 3.55 3.55 0 01-3.569 3.561c-1.784 0-3.568-1.583-3.568-3.561zm-18.044 0a3.55 3.55 0 013.569-3.56 3.55 3.55 0 013.569 3.56 3.55 3.55 0 01-3.569 3.561 3.55 3.55 0 01-3.569-3.561zm-18.043 0a3.55 3.55 0 013.569-3.56 3.55 3.55 0 013.569 3.56 3.55 3.55 0 01-3.569 3.561 3.55 3.55 0 01-3.569-3.561zm-18.241 0a3.55 3.55 0 013.569-3.56 3.55 3.55 0 013.569 3.56 3.55 3.55 0 01-3.57 3.561 3.55 3.55 0 01-3.568-3.561z" fill="#FF2F8B"/></svg>