<svg width="115" height="114" viewBox="0 0 115 114" fill="none" xmlns="http://www.w3.org/2000/svg"><g clip-path="url(#clip0)" stroke="#6832AC" stroke-width="3" stroke-miterlimit="10" stroke-linecap="round" stroke-linejoin="round"><path d="M16.108 32.09c0 3.871-3.122 7.117-7.118 7.117-3.87 0-7.117-3.121-7.117-7.117 0-3.87 3.122-7.117 7.117-7.117 3.871.125 7.118 3.246 7.118 7.117zm68.675 61.558a7.117 7.117 0 100-14.234 7.117 7.117 0 000 14.234zM58.187 71.922c8.344 0 15.108-6.764 15.108-15.109 0-8.344-6.764-15.108-15.108-15.108-8.344 0-15.109 6.764-15.109 15.108 0 8.345 6.764 15.109 15.109 15.109z"/><path d="M85.282 56.813l-6.617 8.491-1.25 10.739-10.738 1.373-8.49 6.618-8.491-6.618-10.738-1.373-1.374-10.739-6.618-8.49 6.618-8.491 1.374-10.739 10.738-1.248 8.49-6.743 8.491 6.743 10.739 1.248 1.249 10.739 6.617 8.49z"/><path d="M77.79 86.531c0-3.87 3.122-7.117 7.118-7.117 2.122 0 3.995.874 5.244 2.372a40.582 40.582 0 008.616-24.973c0-22.475-18.23-40.58-40.581-40.58-22.476 0-40.706 18.23-40.706 40.58 0 22.351 18.23 40.581 40.58 40.581a40.658 40.658 0 0021.477-6.118c-1.123-1.249-1.748-2.872-1.748-4.745z"/><path d="M58.187 1.873c-18.98 0-35.711 9.615-45.576 24.224a7.029 7.029 0 013.497 6.118c0 3.87-3.122 7.117-7.118 7.117-.999 0-1.873-.25-2.747-.5-1.998 5.745-3.121 11.738-3.121 18.106 0 30.342 24.598 54.94 54.94 54.94s54.94-24.598 54.94-54.94S88.529 1.873 58.187 1.873z"/></g><defs><clipPath id="clip0"><path fill="#fff" d="M0 0h115v113.751H0z"/></clipPath></defs></svg>