<svg width="115" height="103" viewBox="0 0 115 103" fill="none" xmlns="http://www.w3.org/2000/svg"><g clip-path="url(#clip0)" stroke="#6832AC" stroke-width="3" stroke-miterlimit="10" stroke-linecap="round" stroke-linejoin="round"><path d="M57.433 77.648c30.61 0 55.425-11.748 55.425-26.24 0-14.491-24.815-26.24-55.425-26.24-30.61 0-55.425 11.749-55.425 26.24 0 14.492 24.815 26.24 55.425 26.24z"/><path d="M79.921 65.078c15.917-26.144 18.787-53.447 6.41-60.983-12.378-7.536-35.315 7.55-51.233 33.694-15.917 26.144-18.787 53.447-6.41 60.983 12.378 7.535 35.316-7.55 51.233-33.694z"/><path d="M86.29 98.77c12.377-7.536 9.508-34.84-6.41-60.984C63.963 11.642 41.026-3.444 28.648 4.093c-12.378 7.535-9.508 34.838 6.41 60.983C50.974 91.22 73.911 106.305 86.29 98.769z"/><path d="M57.433 58.37a6.962 6.962 0 100-13.923 6.962 6.962 0 000 13.923z"/></g><defs><clipPath id="clip0"><path fill="#fff" d="M0 0h115v102.683H0z"/></clipPath></defs></svg>