<svg width="90" height="120" viewBox="0 0 90 120" fill="none" xmlns="http://www.w3.org/2000/svg"><g clip-path="url(#clip0)" stroke="#6832AC" stroke-width="3" stroke-miterlimit="10" stroke-linecap="round"><path d="M17.056 20.803c0 2.3-1.859 4.27-4.264 4.27-2.406 0-4.155-1.97-4.155-4.27s1.859-4.27 4.264-4.27c2.405 0 4.155 1.97 4.155 4.27zm11.479-10.621a4.267 4.267 0 004.264-4.27 4.267 4.267 0 00-4.264-4.27 4.267 4.267 0 00-4.264 4.27 4.267 4.267 0 004.264 4.27zm53.682 14.891c0 2.3-1.859 4.27-4.264 4.27-2.296 0-4.264-1.861-4.264-4.27 0-2.3 1.859-4.27 4.264-4.27 2.405 0 4.264 1.861 4.264 4.27z" stroke-linejoin="round"/><path d="M33.127 45.219L10.714 45c-1.968 0-3.607-1.642-3.607-3.723v-.876c0-1.97 1.64-3.613 3.717-3.613l22.413.22c1.968 0 3.607 1.642 3.607 3.722v.876c-.109 1.97-1.749 3.613-3.717 3.613zM31.815 70.73V45.219H12.026v25.51L1.64 108.505c0 5.255 4.264 9.635 9.621 9.635H32.69c5.248 0 9.621-4.27 9.621-9.635L31.815 70.73z"/><path d="M7.325 87.7s5.904-3.831 14.541.767c8.637 4.599 13.995-2.737 13.995-2.737m48.105-40.511L61.553 45c-1.968 0-3.608-1.642-3.608-3.723v-.876c0-1.97 1.64-3.613 3.718-3.613l22.412.22c1.968 0 3.608 1.642 3.608 3.722v.876c0 1.97-1.64 3.613-3.717 3.613zm-21.101 63.175c0 5.475 4.483 9.964 9.95 9.964 5.466 0 9.948-4.489 9.948-9.964V45.219H62.865v63.175z"/><path d="M62.865 108.394c0 5.475 4.483 9.964 9.95 9.964 5.466 0 9.948-4.489 9.948-9.964V45.219H62.865v63.175z"/><path d="M62.865 86.387c2.515-.329 6.013 0 10.168 2.19 3.936 2.08 7.216 1.642 9.621.657"/></g><defs><clipPath id="clip0"><path fill="#fff" d="M0 0h89.323v120H0z"/></clipPath></defs></svg>