<svg width="39" height="38" viewBox="0 0 39 38" fill="none" xmlns="http://www.w3.org/2000/svg"><path d="M28.038 11.008c-.144 0-.288.048-.432.096L10.69 17.613c-1.153.478-1.153 1.1-.192 1.388l4.324 1.34 1.49 4.881c.192.526.096.766.673.766.432 0 .625-.192.865-.43.144-.145 1.057-1.006 2.066-2.01l.048-.049 4.373 3.207c.288.143.577.239.817.191.384-.048.673-.335.817-.957l2.883-13.496c.24-.957-.192-1.436-.817-1.436zM19.388.002C8.866.001.312 8.52.312 19.001.311 29.48 8.865 38 19.39 38c10.523 0 19.077-8.519 19.077-19C38.466 8.52 29.912.002 19.389.002zm0 36.18c-9.514 0-17.25-7.705-17.25-17.18 0-9.476 7.736-17.181 17.25-17.181C28.904 1.82 36.64 9.525 36.64 19c0 9.476-7.737 17.181-17.251 17.181z" fill="#fff"/></svg>