<svg width="19" height="19" viewBox="0 0 19 19" fill="none" xmlns="http://www.w3.org/2000/svg"><path d="M16.063 18.031h-.112C3.056 17.29 1.225 6.41.969 3.088A1.969 1.969 0 012.78.968h3.616a1.313 1.313 0 011.22.828l.998 2.454a1.312 1.312 0 01-.289 1.418l-1.397 1.41a6.15 6.15 0 004.974 4.988l1.424-1.411a1.312 1.312 0 011.424-.27l2.474.992a1.313 1.313 0 01.807 1.22v3.466a1.969 1.969 0 01-1.968 1.968zM2.937 2.281a.656.656 0 00-.656.656v.053c.302 3.885 2.238 13.072 13.742 13.729a.658.658 0 00.696-.617v-3.505l-2.474-.99-1.884 1.87-.315-.04c-5.71-.715-6.484-6.424-6.484-6.483l-.039-.315 1.864-1.884-.984-2.474H2.936z" fill="#fff"/></svg>