<svg width="39" height="38" viewBox="0 0 39 38" fill="none" xmlns="http://www.w3.org/2000/svg"><path d="M23.22 8.998h-7.736c-3.412 0-6.199 2.776-6.199 6.174v7.705c0 3.398 2.787 6.173 6.199 6.173h7.737c3.412 0 6.199-2.776 6.199-6.173v-7.705c0-3.398-2.788-6.174-6.2-6.174zm4.23 13.113c0 2.776-2.26 4.977-4.998 4.977h-6.247a4.984 4.984 0 01-4.998-4.977v-6.222c0-2.775 2.259-4.977 4.998-4.977h6.247a4.983 4.983 0 014.997 4.977v6.222zm-7.833-8.327a5.26 5.26 0 00-5.286 5.264 5.26 5.26 0 005.286 5.264 5.26 5.26 0 005.286-5.264 5.26 5.26 0 00-5.286-5.264zm0 8.47a3.162 3.162 0 01-3.172-3.158 3.162 3.162 0 013.172-3.159 3.162 3.162 0 013.171 3.159c0 1.723-1.441 3.159-3.171 3.159zM19.232.002C8.708 0 .155 8.52.155 19s8.553 18.998 19.077 18.998C29.756 38 38.31 29.481 38.31 19c0-10.48-8.602-19-19.078-19zm0 36.18c-9.514 0-17.251-7.705-17.251-17.18 0-9.477 7.737-17.182 17.251-17.182 9.515 0 17.252 7.705 17.252 17.181s-7.737 17.181-17.252 17.181zm5.286-23.833a1.34 1.34 0 100 2.68c.721 0 1.346-.622 1.346-1.34.048-.766-.577-1.34-1.346-1.34z" fill="#fff"/></svg>