<svg width="39" height="38" viewBox="0 0 39 38" fill="none" xmlns="http://www.w3.org/2000/svg"><path d="M17.828 10.576s-.865.814-.865 3.207v2.489h-3.172v3.54h3.172v9.19h3.652V19.86h3.124l.432-3.542h-3.556V13.83c0-.287.144-1.532 1.586-1.484h2.114v-3.35h-3.171s-2.018-.048-3.316 1.58zM19.078 0C8.553 0 0 8.519 0 19c0 10.48 8.554 18.999 19.077 18.999 10.524 0 19.078-8.519 19.078-19C38.155 8.52 29.6 0 19.077 0zm0 36.18C9.562 36.18 1.825 28.475 1.825 19c0-9.476 7.737-17.23 17.251-17.23 9.515 0 17.252 7.706 17.252 17.181 0 9.476-7.737 17.23-17.252 17.23z" fill="#6833AC"/></svg>