<svg width="1000" height="1000" viewBox="0 0 1000 1000" fill="none" xmlns="http://www.w3.org/2000/svg"><path fill="#6833AC" d="M0 0h1000v1000H0z"/><path fill-rule="evenodd" clip-rule="evenodd" d="M203.002 474.026c0-6.566 4.185-12.182 10.176-13.658l56.93-14.026 2.893-.342 2.954.355 56.869 14.016c5.995 1.475 10.176 7.091 10.176 13.658 0 6.568-4.185 12.182-10.172 13.66l-11.704 2.88v39.517c0 12.397-13.291 23.356-48.125 23.356s-48.125-10.959-48.125-23.356v-39.517l-11.698-2.88c-5.989-1.478-10.176-7.092-10.176-13.66l.002-.003zm30.624 56.06c0 5.161 13.125 14.015 39.375 14.015s39.376-8.854 39.376-14.015v-37.358l-36.479 8.988c-.954.23-1.931.341-2.897.341-.966 0-1.943-.113-2.948-.355l-36.425-8.974v37.358h-.002z" fill="#D4FF00" stroke="#D4FF00" stroke-width="8"/><path d="M400.023 539.971a4 4 0 004 4h7.845a4 4 0 004-4v-21.809c0-.479.086-.954.253-1.402l17.749-47.444c.978-2.614-.955-5.401-3.747-5.401h-6.47a3.998 3.998 0 00-3.796 2.741l-11.191 33.741-11.191-33.741a4 4 0 00-3.797-2.741h-7.911c-2.791 0-4.724 2.787-3.746 5.401l17.748 47.444c.168.448.254.923.254 1.402v21.809zm59.714-57.643c0-5.719 3.169-7.891 8.211-7.891s8.211 2.172 8.211 7.891v43.23c0 5.718-3.169 7.891-8.211 7.891s-8.211-2.173-8.211-7.891v-43.23zm-15.845 42.429c0 12.809 8.499 20.129 24.056 20.129s24.056-7.32 24.056-20.129v-41.629c0-12.809-8.499-20.128-24.056-20.128s-24.056 7.319-24.056 20.128v41.629zm66.689-60.842a4 4 0 00-4 4v56.957c0 12.809 8.067 20.128 23.624 20.128 15.557 0 23.624-7.319 23.624-20.128v-56.957a4 4 0 00-4-4h-6.981a4 4 0 00-4 4v57.757c0 5.719-3.169 7.777-8.211 7.777s-8.211-2.058-8.211-7.777v-57.757a4 4 0 00-4-4h-7.845zm57.098 19.213c0 22.873 30.97 25.961 30.97 42.43 0 5.718-3.169 7.777-8.211 7.777s-8.211-2.059-8.211-7.777v-1.718c0-2.21-1.79-4-4-4h-6.981a4 4 0 00-4 4v.917c0 12.809 8.067 20.129 23.624 20.129 15.557 0 23.624-7.32 23.624-20.129 0-22.873-30.97-25.961-30.97-42.429 0-5.719 2.881-7.891 7.922-7.891 5.042 0 7.923 2.172 7.923 7.891a3.317 3.317 0 003.317 3.316h9.148a2.515 2.515 0 002.516-2.516c0-12.809-7.923-20.128-23.336-20.128-15.413 0-23.335 7.319-23.335 20.128zm56.284-11.777a4 4 0 004 4h8.565a4 4 0 014 4v60.62a4 4 0 004 4h7.846a4 4 0 004-4v-60.62a4 4 0 014-4h8.565a4 4 0 004-4v-3.436a4 4 0 00-4-4h-40.976a4 4 0 00-4 4v3.436zm64.234-7.436a4 4 0 00-4 4v56.957c0 12.809 8.067 20.128 23.624 20.128 15.557 0 23.624-7.319 23.624-20.128v-56.957a4 4 0 00-4-4h-6.981a4 4 0 00-4 4v57.757c0 5.719-3.169 7.777-8.211 7.777-5.041 0-8.21-2.058-8.21-7.777v-57.757a4 4 0 00-4-4h-7.846zm59.115 76.056a4 4 0 004 4h21.064c15.845 0 23.624-6.977 23.624-19.786V483.7c0-12.809-7.779-19.785-23.624-19.785h-21.064a4 4 0 00-4 4v72.056zm24.776-64.62c5.042 0 8.067 2.059 8.067 7.777v41.629c0 5.719-3.025 7.777-8.067 7.777h-4.931a4 4 0 01-4-4v-49.183a4 4 0 014-4h4.931z" fill="#fff"/></svg>