<svg width="53" height="53" viewBox="0 0 53 53" fill="none" xmlns="http://www.w3.org/2000/svg"><path d="M51.907 1h-12.29v50.901h12.29V1zm0 6.078h-6.174m6.174 11.805h-6.174m6.174 11.805h-6.174m6.174 11.804h-6.174m6.174-31.499H48.82m3.087 3.974H48.82m3.087 7.831H48.82m3.087 3.974H48.82m3.087 7.831H48.82m3.087 3.974H48.82M28.2 18.883h-3.727M28.2 30.688h-3.727M28.2 42.492h-3.727M28.2 10.993h-1.863m1.863 3.974h-1.863m1.863 7.831h-1.863m1.863 3.974h-1.863m1.863 7.831h-1.863m1.863 11.98h-1.863m1.863-8.006h-1.863M1 51.901L28.2 1v50.901H1z" stroke="#6832AC" stroke-width="1.5" stroke-miterlimit="10" stroke-linecap="round" stroke-linejoin="round"/><path d="M13.348 44.48l7.456-13.91v13.91h-7.456z" stroke="#6832AC" stroke-width="1.5" stroke-miterlimit="10" stroke-linecap="round" stroke-linejoin="round"/></svg>