<svg width="91" height="91" viewBox="0 0 91 91" fill="none" xmlns="http://www.w3.org/2000/svg"><g clip-path="url(#clip0)" stroke="#6832AC" stroke-width="3" stroke-miterlimit="10" stroke-linecap="round" stroke-linejoin="round"><path d="M88.9 1.5H67.8v87.1h21.1V1.5zm0 10.4H78.3m10.6 20.2H78.3m10.6 20.2H78.3m10.6 20.2H78.3m10.6-53.9h-5.3m5.3 6.8h-5.3m5.3 13.4h-5.3m5.3 6.8h-5.3M88.9 59h-5.3m5.3 6.8h-5.3M48.2 32.1h-6.4m6.4 20.2h-6.4m6.4 20.2h-6.4m6.4-53.9H45m3.2 6.8H45m3.2 13.4H45m3.2 6.8H45M48.2 59H45m3.2 20.5H45m3.2-13.7H45M1.5 88.6L48.2 1.5v87.1H1.5z"/><path d="M22.7 75.9l12.8-23.8v23.8H22.7z"/></g><defs><clipPath id="clip0"><path fill="#fff" d="M0 0h90.4v90.1H0z"/></clipPath></defs></svg>