<svg width="139" height="40" viewBox="0 0 139 40" fill="none" xmlns="http://www.w3.org/2000/svg"><path d="M40 0H0v40h40V0z" fill="#6833AC"/><path fill-rule="evenodd" clip-rule="evenodd" d="M4 14.355c0-1.489.95-2.762 2.308-3.097l12.91-3.18.656-.078.67.08 12.896 3.18c1.36.334 2.308 1.608 2.308 3.097 0 1.49-.95 2.763-2.307 3.098l-2.654.653v8.961c0 2.811-3.014 5.297-10.913 5.297-7.9 0-10.914-2.486-10.914-5.297v-8.961l-2.652-.653C4.949 17.119 4 15.846 4 14.356h0zm6.945 12.713c0 1.17 2.976 3.178 8.93 3.178 5.952 0 8.928-2.007 8.928-3.178v-8.472l-8.272 2.039a2.811 2.811 0 01-1.325-.003l-8.26-2.036v8.472h0z" fill="#D4FF00" stroke="#D4FF00"/><path d="M48.68 29.31c0 .5.405.907.906.907h1.78c.5 0 .906-.406.906-.907v-4.946a.91.91 0 01.058-.318l4.025-10.759a.907.907 0 00-.85-1.224h-1.467a.907.907 0 00-.861.621l-2.538 7.652-2.538-7.652a.907.907 0 00-.86-.621h-1.795a.907.907 0 00-.85 1.224l4.026 10.76c.038.1.057.209.057.317v4.946zm13.54-13.072c0-1.297.719-1.79 1.862-1.79 1.144 0 1.862.493 1.862 1.79v9.803c0 1.297-.718 1.79-1.862 1.79-1.143 0-1.862-.493-1.862-1.79v-9.803zm-3.593 9.622c0 2.905 1.927 4.564 5.455 4.564s5.456-1.66 5.456-4.564v-9.44c0-2.905-1.928-4.565-5.456-4.565-3.527 0-5.455 1.66-5.455 4.564v9.44zM73.75 12.063a.907.907 0 00-.907.907v12.916c0 2.905 1.83 4.564 5.358 4.564 3.528 0 5.357-1.66 5.357-4.564V12.97a.907.907 0 00-.907-.907h-1.583a.907.907 0 00-.907.907v13.097c0 1.297-.719 1.764-1.862 1.764-1.144 0-1.862-.467-1.862-1.764V12.97a.908.908 0 00-.907-.907h-1.78zm12.949 4.357c0 5.186 7.023 5.887 7.023 9.621 0 1.297-.719 1.764-1.862 1.764-1.144 0-1.862-.467-1.862-1.764v-.39a.907.907 0 00-.907-.906h-1.584c-.5 0-.907.406-.907.907v.208c0 2.905 1.83 4.564 5.358 4.564 3.528 0 5.357-1.66 5.357-4.564 0-5.187-7.023-5.887-7.023-9.622 0-1.297.653-1.79 1.796-1.79 1.144 0 1.797.493 1.797 1.79 0 .415.337.752.752.752h2.075a.57.57 0 00.57-.57c0-2.905-1.796-4.565-5.292-4.565-3.495 0-5.291 1.66-5.291 4.564zm12.763-2.671c0 .501.406.907.907.907h1.943c.501 0 .907.406.907.907V29.31c0 .5.406.907.907.907h1.779a.907.907 0 00.907-.907V15.563c0-.5.406-.907.907-.907h1.943c.5 0 .907-.406.907-.907v-.78c0-.5-.407-.906-.907-.906h-9.293c-.5 0-.907.406-.907.907v.779zm14.567-1.686a.907.907 0 00-.907.907v12.916c0 2.905 1.829 4.564 5.357 4.564 3.528 0 5.357-1.66 5.357-4.564V12.97a.907.907 0 00-.907-.907h-1.583a.907.907 0 00-.907.907v13.097c0 1.297-.719 1.764-1.862 1.764-1.143 0-1.862-.467-1.862-1.764V12.97a.907.907 0 00-.907-.907h-1.779zm13.405 17.247c0 .5.406.907.907.907h4.777c3.593 0 5.357-1.582 5.357-4.487v-9.18c0-2.905-1.764-4.487-5.357-4.487h-4.777a.907.907 0 00-.907.907v16.34zm5.619-14.654c1.143 0 1.829.467 1.829 1.764v9.44c0 1.297-.686 1.763-1.829 1.763h-1.119a.907.907 0 01-.907-.907V15.563c0-.5.406-.907.907-.907h1.119z" fill="#6833AC"/></svg>