<svg width="87" height="72" viewBox="0 0 87 72" fill="none" xmlns="http://www.w3.org/2000/svg"><g clip-path="url(#clip0)"><path d="M22.2 68.8c-5.3 0-9.5-4.3-9.5-9.5V29.7c0-.7.3-1.4.9-1.8L42.4 5.3c.4-.3.9-.5 1.4-.5.5 0 1 .2 1.4.5l28.2 22.1c.6.4.9 1.1.9 1.8v30.1c0 5.3-4.3 9.5-9.5 9.5H22.2z" fill="#3DB9B6"/><path d="M43.8 7.1L72 29.2v30.1c0 4-3.2 7.2-7.2 7.2H22.2c-4 0-7.2-3.2-7.2-7.2V29.7L43.8 7.1zm0-4.6c-1 0-2 .3-2.8 1L12.1 26c-1.1.9-1.8 2.2-1.8 3.6v29.6c0 6.5 5.3 11.8 11.8 11.8h42.6c6.5 0 11.8-5.3 11.8-11.8v-30c0-1.4-.6-2.7-1.8-3.6l-28-22.1c-.9-.7-1.9-1-2.9-1z" fill="#42210B"/><path d="M83.3 33.8L46.7 3.6c-.9-.9-2-1.3-3.2-1.3-1.2 0-2.3.4-3.2 1.3L3.6 33.8c-1.8 1.8-1.7 4.6 0 6.3 1.8 1.8 4.6 1.8 6.3 0L43.4 13 77 40.2c1.7 1.8 4.6 1.8 6.3 0 1.8-1.8 1.8-4.6 0-6.4z" fill="#3DB9B6" stroke="#42210B" stroke-width="4.6" stroke-miterlimit="10" stroke-linejoin="round"/><path d="M83.3 33.8L46.7 3.6c-.9-.9-2-1.3-3.2-1.3-1.2 0-2.3.4-3.2 1.3L3.6 33.8c-1.8 1.8-1.7 4.6 0 6.3 1.8 1.8 4.6 1.8 6.3 0L43.4 13 77 40.2c1.7 1.8 4.6 1.8 6.3 0 1.8-1.8 1.8-4.6 0-6.4z" fill="#3DB9B6" stroke="#42210B" stroke-width="4.6" stroke-miterlimit="10" stroke-linejoin="round"/><path d="M14.9 32.8c-1.3 0-2.3-1-2.3-2.3V7.1c0-2.5 2-4.5 4.5-4.5h2.6c2.5 0 4.5 2 4.5 4.5v23.4c0 1.3-1 2.3-2.3 2.3h-7z" fill="#09E8E3"/><path d="M19.7 4.9c1.2 0 2.2 1 2.2 2.2v23.4H15V7.1c0-1.2 1-2.2 2.2-2.2h2.5zm0-4.6h-2.6c-3.7 0-6.8 3-6.8 6.8v23.4c0 2.5 2.1 4.6 4.6 4.6h6.9c2.5 0 4.6-2.1 4.6-4.6V7.1c.1-3.8-3-6.8-6.7-6.8z" fill="#42210B"/><path d="M43.2 7.5L14.9 29.7v29.6c0 4 3.2 7.2 7.2 7.2h21.1v-59z" fill="#09E8E3"/><path d="M43.2 2.3c-1.1 0-2.2.5-3 1.3L3.6 33.8c-1.8 1.8-1.7 4.6 0 6.3 1.8 1.8 4.6 1.8 6.3 0l33.3-26.9V2.3z" fill="#09E8E3"/><path d="M83.3 33.8L46.7 3.6c-.9-.9-2-1.3-3.2-1.3-1.2 0-2.3.4-3.2 1.3L3.6 33.8c-1.8 1.8-1.7 4.6 0 6.3 1.8 1.8 4.6 1.8 6.3 0L43.4 13 77 40.2c1.7 1.8 4.6 1.8 6.3 0 1.8-1.8 1.8-4.6 0-6.4z" stroke="#42210B" stroke-width="4.6" stroke-miterlimit="10" stroke-linejoin="round"/><path d="M36.7 68.8c-1.3 0-2.3-1-2.3-2.3V48.6c0-3.1 2.5-5.6 5.6-5.6h7c3.1 0 5.6 2.5 5.6 5.6v17.9c0 1.3-1 2.3-2.3 2.3H36.7z" fill="#3DB9B6"/><path d="M47 45.3c1.8 0 3.3 1.5 3.3 3.3v17.9H36.7V48.6c0-1.8 1.5-3.3 3.3-3.3h7zm0-4.6h-7c-4.3 0-7.9 3.5-7.9 7.9v17.9c0 2.5 2.1 4.6 4.6 4.6h13.6c2.5 0 4.6-2.1 4.6-4.6V48.6c0-4.3-3.6-7.9-7.9-7.9z" fill="#42210B"/><path d="M63.2 46v13.7" stroke="#fff" stroke-width="4.6" stroke-miterlimit="10" stroke-linecap="round" stroke-linejoin="round"/></g><defs><clipPath id="clip0"><path fill="#fff" d="M0 0h86.9v71.1H0z"/></clipPath></defs></svg>