<svg width="78" height="112" viewBox="0 0 78 112" fill="none" xmlns="http://www.w3.org/2000/svg"><g clip-path="url(#clip0)"><path d="M51.9 73.7h13.3c5.7 0 10.3-4.6 10.3-10.3 0-5.7-4.6-10.3-10.3-10.3H51.9v20.6z" fill="#FAA61A" stroke="#42210B" stroke-width="4.6" stroke-miterlimit="10" stroke-linejoin="round"/><path d="M10.8 45.3V63c0 13.4 10.9 24.3 24.3 24.3S59.4 76.4 59.4 63V45.3H10.8z" fill="#FAA61A" stroke="#42210B" stroke-width="4.6" stroke-miterlimit="10" stroke-linejoin="round"/><path d="M13.1 47.6V63c0 12.1 9.8 21.9 21.8 22V47.6H13.1z" fill="#FB0"/><path d="M14.2 99.2c-5.4 0-10.1-3.4-11.8-8.5-.2-.7-.1-1.5.3-2.1.4-.6 1.1-.9 1.9-.9h62.2c.7 0 1.4.4 1.9.9.4.6.6 1.4.3 2.1-1.7 5.1-6.4 8.5-11.8 8.5h-43z" fill="#FAA61A"/><path d="M66.8 89.9c-1.3 4-5.1 6.9-9.6 6.9h-43c-4.5 0-8.3-2.9-9.6-6.9h62.2zm0-4.6H4.6c-1.5 0-2.9.7-3.7 1.9C0 88.4-.2 90 .2 91.4c2 6 7.6 10.1 13.9 10.1h43c6.4 0 12-4.1 13.9-10.1.5-1.4.2-2.9-.6-4.1-.8-1.2-2.1-2-3.6-2z" fill="#42210B"/><path opacity=".2" d="M34 2.3c-2.3 1.2-4.6 3.9-4.6 7.3 0 2.6 2 5.6 3.6 6.9 2 1.7 4.9 3.7 4.9 8.3 0 3.4-1.6 6.3-3.9 7.5m14.8-30c-2.3 1.2-4.6 3.9-4.6 7.3 0 2.6 2 5.6 3.6 6.9 2 1.7 4.9 3.7 4.9 8.3 0 3.4-1.6 6.3-3.9 7.5m-29.7-30c-2.3 1.2-4.6 3.9-4.6 7.3 0 2.6 2 5.6 3.6 6.9 2 1.7 4.9 3.7 4.9 8.3 0 3.4-1.6 6.3-3.9 7.5" stroke="#42210B" stroke-width="4.6" stroke-miterlimit="10" stroke-linecap="round" stroke-linejoin="round"/><path d="M47.9 54.8v12.5" stroke="#fff" stroke-width="4.6" stroke-miterlimit="10" stroke-linecap="round" stroke-linejoin="round"/></g><defs><clipPath id="clip0"><path fill="#fff" d="M0 0h77.7v111.6H0z"/></clipPath></defs></svg>