<svg width="106" height="110" viewBox="0 0 106 110" fill="none" xmlns="http://www.w3.org/2000/svg"><circle cx="55.5" cy="50.5" r="50.5" fill="#D5FC01"/><g clip-path="url(#clip0)" fill="#000"><path d="M58.303 87.625h.947c10.903-.013 19.738-8.848 19.75-19.75a9.229 9.229 0 00-9.217-9.217h-4.127c.111-1.748.177-3.505.177-5.267 0-.727-.59-1.316-1.316-1.316h-63.2C.59 52.075 0 52.665 0 53.39a81.402 81.402 0 0013.085 44.313l.295.454H1.317c-.727 0-1.317.59-1.317 1.317a6.59 6.59 0 006.583 6.583H59.25a6.59 6.59 0 006.583-6.583c0-.727-.59-1.317-1.316-1.317H52.453l.295-.454a81.845 81.845 0 005.555-10.08zm7.138-26.334h4.342a6.591 6.591 0 016.584 6.584c-.013 9.36-7.537 16.978-16.897 17.106.374-.89.732-1.786 1.074-2.689 7.462-.675 13.179-6.925 13.19-14.417a3.95 3.95 0 00-3.95-3.95H65.14c.115-.878.215-1.756.3-2.634zm-.686 5.267h5.028c.727 0 1.317.59 1.317 1.317a11.866 11.866 0 01-9.552 11.622 81.295 81.295 0 003.207-12.939zm-1.78 34.233a3.958 3.958 0 01-3.725 2.634H6.583a3.958 3.958 0 01-3.725-2.634h60.117zm-12.439-4.517l-1.219 1.884h-32.8l-1.22-1.884A78.758 78.758 0 012.644 54.708h60.545a78.758 78.758 0 01-12.653 41.566zM34.443 42.413a5.208 5.208 0 00-.793-.65 2.575 2.575 0 01-.395-3.965l.593-.592a1.317 1.317 0 10-1.862-1.862l-.593.592a5.209 5.209 0 00.79 8.017 2.575 2.575 0 01.395 3.965l-.592.593a1.317 1.317 0 101.862 1.861l.592-.592a5.209 5.209 0 00.003-7.367zm7.9 0a5.202 5.202 0 00-.793-.65 2.575 2.575 0 01-.395-3.965l.593-.592a1.317 1.317 0 10-1.862-1.862l-.593.592a5.209 5.209 0 00.79 8.017 2.575 2.575 0 01.395 3.965l-.592.593a1.317 1.317 0 101.862 1.861l.592-.592a5.209 5.209 0 00.003-7.367zm-15.8 0a5.208 5.208 0 00-.793-.65 2.575 2.575 0 01-.395-3.965l.593-.592a1.317 1.317 0 10-1.862-1.862l-.593.592a5.209 5.209 0 00.79 8.017 2.575 2.575 0 01.395 3.965l-.592.593a1.317 1.317 0 101.862 1.861l.592-.592a5.209 5.209 0 00.003-7.367z"/></g><defs><clipPath id="clip0"><path fill="#fff" transform="translate(0 31)" d="M0 0h79v79H0z"/></clipPath></defs></svg>