<svg width="117" height="128" viewBox="0 0 117 128" fill="none" xmlns="http://www.w3.org/2000/svg"><circle cx="66.5" cy="50.5" r="50.5" fill="#40F9AD"/><path d="M9.746 103.599h82.508a3.097 3.097 0 003.094-3.094V47.464a3.097 3.097 0 00-3.094-3.094H9.746a3.097 3.097 0 00-3.094 3.094v53.041a3.098 3.098 0 003.094 3.094zm-.442-56.135c0-.244.198-.442.442-.442h82.508c.244 0 .442.198.442.442v53.041a.442.442 0 01-.442.442H9.746a.442.442 0 01-.442-.442V47.464zM102 105.966v2.476c0 .656-.532 1.188-1.188 1.188H1.188A1.188 1.188 0 010 108.442v-2.476h41.89a1.67 1.67 0 001.598 1.197h15.025a1.67 1.67 0 001.597-1.197H102z" fill="#000"/></svg>