<svg width="108" height="110" viewBox="0 0 108 110" fill="none" xmlns="http://www.w3.org/2000/svg"><circle cx="57.5" cy="50.5" r="50.5" fill="#09E8E3"/><path d="M82.303 67.072L42.928 27.697a1.313 1.313 0 00-1.856 0L1.697 67.072a1.313 1.313 0 00.928 2.24h6.563v31.5H7.875a1.314 1.314 0 00-1.313 1.313v5.25a1.312 1.312 0 001.313 1.312h68.25a1.313 1.313 0 001.313-1.312v-5.25a1.312 1.312 0 00-1.313-1.313h-1.313v-31.5h6.563a1.313 1.313 0 00.928-2.24zm-7.49 38.99H9.186v-2.625h65.626v2.625zm-39.376-5.25h-15.75V77.188h15.75v23.624zm2.626 0V75.875a1.313 1.313 0 00-1.313-1.313H18.375a1.312 1.312 0 00-1.313 1.313v24.937h-5.25V68.543L42 38.356l30.188 30.187v32.269H38.062zm35.98-34.124L42.928 35.572a1.313 1.313 0 00-1.856 0L9.957 66.687H5.793L42 30.481l36.207 36.206h-4.164z" fill="#000"/><path d="M51.188 60.125A9.188 9.188 0 1042 69.313a9.198 9.198 0 009.188-9.188zm-15.75 0A6.562 6.562 0 1142 66.688a6.57 6.57 0 01-6.563-6.563zM68.25 74.563H42a1.313 1.313 0 00-1.313 1.312V94.25A1.313 1.313 0 0042 95.563h26.25a1.313 1.313 0 001.313-1.313V75.875a1.313 1.313 0 00-1.313-1.313zm-1.313 9.187h-10.5v-6.563h10.5v6.563zm-13.124-6.563v6.563h-10.5v-6.563h10.5zm-10.5 9.188h10.5v6.563h-10.5v-6.563zm13.124 6.563v-6.563h10.5v6.563h-10.5zm-31.499-7.875h-2.625v5.25h2.625v-5.25z" fill="#000"/></svg>