<svg width="114" height="71" viewBox="0 0 114 71" fill="none" xmlns="http://www.w3.org/2000/svg"><g clip-path="url(#clip0)"><path d="M20.2 66.9c-5.3 0-9.6-4.3-9.6-9.6V11.9c0-5.3 4.3-9.6 9.6-9.6h73c5.3 0 9.6 4.3 9.6 9.6v45.3c0 5.3-4.3 9.6-9.6 9.6h-73v.1z" fill="#4CBF90"/><path d="M93.2 4.6c4.1 0 7.3 3.3 7.3 7.3v45.3c0 4.1-3.3 7.3-7.3 7.3h-73c-4.1 0-7.3-3.3-7.3-7.3V11.9c0-4.1 3.3-7.3 7.3-7.3h73zm0-4.6h-73c-6.6 0-12 5.4-12 11.9v45.3c0 6.6 5.4 11.9 11.9 11.9h73c6.6 0 11.9-5.4 11.9-11.9V11.9C105.1 5.4 99.8 0 93.2 0z" fill="#42210B"/><path d="M56.2 4.6h-36c-4.1 0-7.3 3.3-7.3 7.3v45.3c0 4.1 3.3 7.3 7.3 7.3h36V4.6z" fill="#40F9AD"/><path d="M94.8 56.5c0 1.5-1.2 2.7-2.7 2.7H21.3c-1.5 0-2.7-1.2-2.7-2.7V12.7c0-1.5 1.2-2.7 2.7-2.7h70.8c1.5 0 2.7 1.2 2.7 2.7v43.8z" fill="#4CBF90" stroke="#42210B" stroke-width="4.6" stroke-miterlimit="10" stroke-linejoin="round"/><path d="M12.4 68.4c-5.2 0-9.5-3.9-10.1-9.1-.1-.6.1-1.3.6-1.8.4-.5 1.1-.8 1.7-.8h104.2c.7 0 1.3.3 1.7.8.4.5.6 1.1.6 1.8-.5 5.2-4.8 9.1-10.1 9.1H12.4z" fill="#4CBF90"/><path d="M108.8 59c-.4 4-3.7 7.1-7.8 7.1H12.4C8.3 66.1 5 63 4.6 59h104.2zm0-4.6H4.6c-1.3 0-2.5.6-3.4 1.5-.9 1-1.3 2.3-1.2 3.5.7 6.4 6 11.2 12.3 11.2H101c6.4 0 11.7-4.8 12.3-11.2.1-1.3-.3-2.6-1.2-3.5-.8-.9-2-1.5-3.3-1.5z" fill="#42210B"/><path d="M56.2 59H4.6c.4 4 3.7 7.1 7.8 7.1h43.9V59h-.1z" fill="#40F9AD"/><path d="M51.7 62.2h9.9" stroke="#42210B" stroke-width="4" stroke-miterlimit="10" stroke-linecap="round" stroke-linejoin="round"/><path d="M39.2 36.5l14-13.9m7.5 20.6l13.9-13.9M46.7 43.2l20.7-20.6" stroke="#fff" stroke-width="4.6" stroke-miterlimit="10" stroke-linecap="round" stroke-linejoin="round"/></g><defs><clipPath id="clip0"><path fill="#fff" d="M0 0h113.4v70.7H0z"/></clipPath></defs></svg>