<svg width="42" height="51" viewBox="0 0 42 51" fill="none" xmlns="http://www.w3.org/2000/svg"><circle cx="21" cy="21" r="21" fill="#D5FC01"/><g clip-path="url(#clip0)" fill="#26133E"><path d="M23.625 51h-5.25c-1.225 0-2.625-1.075-2.625-3.225v-3.763c0-1.791-.875-3.404-2.275-4.658-3.15-2.508-4.725-6.092-4.725-10.033.175-6.809 5.6-12.184 12.075-12.363 3.325 0 6.475 1.254 8.75 3.584 2.275 2.329 3.675 5.554 3.675 8.958 0 3.762-1.575 7.346-4.55 9.675-1.575 1.254-2.45 3.225-2.45 5.017v4.12c0 1.434-1.225 2.688-2.625 2.688zM21 18.75c-5.6 0-10.325 4.837-10.5 10.57 0 3.405 1.4 6.63 4.025 8.6 1.925 1.613 2.975 3.763 2.975 6.092v3.763c0 .358 0 1.433.875 1.433h5.25c.525 0 .875-.358.875-.896v-4.12c0-2.33 1.225-4.838 3.15-6.45 2.45-1.971 3.85-5.017 3.85-8.242 0-2.867-1.05-5.554-3.15-7.704-1.925-1.971-4.55-3.046-7.35-3.046z"/><path d="M25.375 45.625h-8.75c-.525 0-.875-.358-.875-.896 0-.537.35-.896.875-.896h8.75c.525 0 .875.359.875.896 0 .538-.35.896-.875.896zM21 13.375c-.525 0-.875-.358-.875-.896V8.896c0-.538.35-.896.875-.896s.875.358.875.896v3.583c0 .538-.35.896-.875.896zm11.725 5.017c-.175 0-.525 0-.7-.18a.88.88 0 010-1.254l2.45-2.508a.832.832 0 011.225 0 .88.88 0 010 1.254l-2.45 2.508s-.35.18-.525.18zm8.4 12.004h-3.5c-.525 0-.875-.358-.875-.896 0-.537.35-.896.875-.896h3.5c.525 0 .875.359.875.896 0 .538-.35.896-.875.896zm-5.95 14.512c-.175 0-.525 0-.7-.179l-2.45-2.508a.88.88 0 010-1.254.832.832 0 011.225 0l2.45 2.508a.88.88 0 010 1.254c0 .18-.175.18-.525.18zm-28.35 0c-.175 0-.525 0-.7-.179a.88.88 0 010-1.254l2.45-2.508a.832.832 0 011.225 0 .88.88 0 010 1.254l-2.45 2.508c-.175.18-.35.18-.525.18zm-2.45-14.512h-3.5C.35 30.396 0 30.038 0 29.5c0-.537.35-.896.875-.896h3.5c.525 0 .875.359.875.896 0 .538-.35.896-.875.896zm4.9-12.004c-.175 0-.525 0-.7-.18l-2.45-2.687a.88.88 0 010-1.254.832.832 0 011.225 0l2.45 2.508a.88.88 0 010 1.254c-.175.18-.35.358-.525.358zM28 30.396c-.525 0-.875-.358-.875-.896 0-3.404-2.8-6.27-6.125-6.27-.525 0-.875-.36-.875-.897s.35-.895.875-.895c4.375 0 7.875 3.583 7.875 8.062 0 .538-.35.896-.875.896z"/></g><defs><clipPath id="clip0"><path fill="#fff" transform="translate(0 8)" d="M0 0h42v43H0z"/></clipPath></defs></svg>