<svg width="42" height="51" viewBox="0 0 42 51" fill="none" xmlns="http://www.w3.org/2000/svg"><circle cx="21" cy="21" r="21" fill="#40F9AD"/><path d="M22.056 41.899c-2.293 0-4.159 1.886-4.159 4.204 0 2.317 1.866 4.203 4.159 4.203a4.158 4.158 0 002.985-1.261 4.24 4.24 0 001.219-2.942c0-1.111-.44-2.164-1.24-2.964-.8-.8-1.853-1.24-2.964-1.24zm0 6.922c-1.475 0-2.674-1.22-2.674-2.718 0-1.5 1.2-2.719 2.674-2.719 1.473 0 2.718 1.245 2.718 2.719 0 1.473-1.245 2.718-2.718 2.718zm7.156-18.519a.741.741 0 001.047-.071c1.79-2.05 2.697-4.196 2.697-6.379 0-2.301-1.033-4.387-2.91-5.874-1.887-1.494-4.447-2.284-7.405-2.284-3.66 0-5.923 1.235-7.177 2.271-1.516 1.253-2.421 2.933-2.421 4.494 0 1.015.415 1.909 1.17 2.517.62.5 1.448.788 2.27.788 1.415 0 2.035-.915 2.534-1.65.632-.932 1.228-1.811 3.488-1.811.775 0 3.303.167 3.303 2.314 0 1.62-1.498 2.77-2.82 3.785-.326.25-.635.487-.922.731-1.522 1.312-3.27 3.338-3.27 7.395 0 2.254.547 3.755 3.215 3.755 1.182 0 2.074-.268 2.652-.796.485-.443.742-1.062.742-1.79 0-2.19 0-3.288 2.232-5.034l.039-.03c.098-.076.212-.165.337-.266a.742.742 0 10-.932-1.156l-.319.252-.04.03c-2.672 2.09-2.802 3.642-2.802 6.204 0 .33 0 1.1-1.909 1.1-.932 0-1.216-.194-1.359-.364-.25-.297-.37-.92-.37-1.905 0-3.433 1.392-5.096 2.749-6.266.256-.217.55-.443.862-.682 1.514-1.163 3.4-2.61 3.4-4.963 0-2.308-1.88-3.8-4.788-3.8-3.047 0-4.012 1.424-4.717 2.463-.482.71-.702 1-1.306 1-.785 0-1.954-.486-1.954-1.82 0-.868.494-2.203 1.882-3.35 1.067-.88 3.013-1.931 6.231-1.931 5.2 0 8.83 2.744 8.83 6.673 0 1.813-.784 3.63-2.33 5.402a.742.742 0 00.07 1.048z" fill="#26133E"/></svg>