<svg width="43" height="51" viewBox="0 0 43 51" fill="none" xmlns="http://www.w3.org/2000/svg"><circle cx="21" cy="21" r="21" fill="#09E8E3"/><path d="M37.47 38.666c3.525-2.56 5.53-6.25 5.53-10.228C43 21.027 35.968 15 27.323 15c-6.977 0-13.008 3.847-15.01 9.571a.895.895 0 101.69.591c1.724-4.929 7.201-8.37 13.32-8.37 7.656 0 13.885 5.224 13.885 11.645 0 3.605-1.96 6.952-5.377 9.185a.896.896 0 00-.311 1.15l.876 1.754-2.535-1.45a.907.907 0 00-.767-.059 15.99 15.99 0 01-3.937.952.896.896 0 00-.788.99.884.884 0 00.99.789 17.805 17.805 0 003.975-.909l4.74 2.71a.896.896 0 001.247-1.179l-1.85-3.704z" fill="#26133E"/><path d="M13.438 27.54C6.027 27.54 0 32.36 0 38.29c0 3.194 1.804 6.238 4.864 8.27l-1.218 3.044a.897.897 0 001.234 1.134l4.442-2.221a16.5 16.5 0 004.116.523c7.41 0 13.437-4.822 13.437-10.75 0-5.929-6.027-10.75-13.438-10.75zm-.004 19.71c-1.338 0-2.673-.185-3.969-.548a.898.898 0 00-.643.06l-2.639 1.32.622-1.552a.894.894 0 00-.38-1.106c-2.946-1.72-4.635-4.32-4.635-7.132 0-4.94 5.224-8.959 11.646-8.959 6.421 0 11.644 4.019 11.644 8.959 0 4.94-5.225 8.958-11.646 8.958z" fill="#26133E"/></svg>