<svg width="302" height="92" viewBox="0 0 302 92" fill="none" xmlns="http://www.w3.org/2000/svg"><mask id="a" maskUnits="userSpaceOnUse" x="0" y="0" width="302" height="93"><rect width="302" height="92" rx="20" fill="#fff"/></mask><g mask="url(#a)" fill="#FFD500"><path d="M292.183 6.335c0-2.126 2.096-3.898 4.611-3.898 2.516 0 4.612 1.772 4.612 3.898 0 2.126-2.096 3.898-4.612 3.898-2.515 0-4.611-1.772-4.611-3.898zm-23.479 0c0-2.126 2.096-3.898 4.612-3.898 2.515 0 4.612 1.772 4.612 3.898 0 2.126-2.097 3.898-4.612 3.898-2.516 0-4.612-1.772-4.612-3.898zm-23.269 0c0-2.126 2.097-3.898 4.612-3.898 2.516 0 4.612 1.772 4.612 3.898 0 2.126-2.096 3.898-4.612 3.898-2.725 0-4.612-1.772-4.612-3.898zm-23.478 0c0-2.126 2.096-3.898 4.612-3.898 2.515 0 4.612 1.772 4.612 3.898 0 2.126-2.097 3.898-4.612 3.898-2.725 0-4.612-1.772-4.612-3.898zm-23.479 0c0-2.126 2.097-3.898 4.612-3.898 2.516 0 4.612 1.772 4.612 3.898 0 2.126-2.096 3.898-4.612 3.898-2.515 0-4.612-1.772-4.612-3.898zm-23.478 0c0-2.126 2.096-3.898 4.612-3.898 2.515 0 4.612 1.772 4.612 3.898 0 2.126-2.097 3.898-4.612 3.898-2.516 0-4.612-1.772-4.612-3.898zm117.183 20.729c0-2.126 2.096-3.898 4.611-3.898 2.516 0 4.612 1.772 4.612 3.898 0 2.126-2.096 3.898-4.612 3.898-2.515 0-4.611-1.772-4.611-3.898zm-23.479 0c0-2.126 2.096-3.898 4.612-3.898 2.515 0 4.612 1.772 4.612 3.898 0 2.126-2.097 3.898-4.612 3.898-2.516 0-4.612-1.772-4.612-3.898zm-23.269 0c0-2.126 2.097-3.898 4.612-3.898 2.516 0 4.612 1.772 4.612 3.898 0 2.126-2.096 3.898-4.612 3.898-2.725 0-4.612-1.772-4.612-3.898zm-23.478 0c0-2.126 2.096-3.898 4.612-3.898 2.515 0 4.612 1.772 4.612 3.898 0 2.126-2.097 3.898-4.612 3.898-2.725 0-4.612-1.772-4.612-3.898zm-23.479 0c0-2.126 2.097-3.898 4.612-3.898 2.516 0 4.612 1.772 4.612 3.898 0 2.126-2.096 3.898-4.612 3.898-2.515 0-4.612-1.772-4.612-3.898zm-23.478 0c0-2.126 2.096-3.898 4.612-3.898 2.515 0 4.612 1.772 4.612 3.898 0 2.126-2.097 3.898-4.612 3.898-2.516 0-4.612-1.772-4.612-3.898zM292.183 48.5c0-2.125 2.096-3.897 4.611-3.897 2.516 0 4.612 1.772 4.612 3.898 0 2.126-2.096 3.897-4.612 3.897-2.515 0-4.611-1.771-4.611-3.897zm-23.479 0c0-2.125 2.096-3.897 4.612-3.897 2.515 0 4.612 1.772 4.612 3.898 0 2.126-2.097 3.897-4.612 3.897-2.516 0-4.612-1.771-4.612-3.897zm-23.269 0c0-2.125 2.097-3.897 4.612-3.897 2.516 0 4.612 1.772 4.612 3.898-.21 2.126-2.096 3.897-4.821 3.897-2.516 0-4.403-1.771-4.403-3.897zm-23.478 0c0-2.125 2.096-3.897 4.612-3.897 2.515 0 4.612 1.772 4.612 3.898 0 2.126-2.097 3.897-4.612 3.897-2.725 0-4.612-1.771-4.612-3.897zm-23.479 0c0-2.125 2.097-3.897 4.612-3.897 2.516 0 4.612 1.772 4.612 3.898 0 2.126-2.096 3.897-4.612 3.897-2.515 0-4.612-1.771-4.612-3.897zM175 48.5c0-2.125 2.096-3.897 4.612-3.897 2.515 0 4.612 1.772 4.612 3.898 0 2.126-2.097 3.897-4.612 3.897-2.516 0-4.612-1.771-4.612-3.897z"/></g></svg>