<svg width="45" height="47" viewBox="0 0 45 47" fill="none" xmlns="http://www.w3.org/2000/svg">
<path d="M19.2656 25.1504C19.2656 29.6387 18.5273 32.9609 17.0508 35.1172C15.5859 37.2734 13.3242 38.3516 10.2656 38.3516C7.30078 38.3516 5.0625 37.2383 3.55078 35.0117C2.05078 32.7852 1.30078 29.498 1.30078 25.1504C1.30078 20.6152 2.0332 17.2754 3.49805 15.1309C4.96289 12.9746 7.21875 11.8965 10.2656 11.8965C13.2305 11.8965 15.4688 13.0215 16.9805 15.2715C18.5039 17.5215 19.2656 20.8145 19.2656 25.1504ZM6.69727 25.1504C6.69727 28.3027 6.9668 30.5645 7.50586 31.9355C8.05664 33.2949 8.97656 33.9746 10.2656 33.9746C11.5312 33.9746 12.4453 33.2832 13.0078 31.9004C13.5703 30.5176 13.8516 28.2676 13.8516 25.1504C13.8516 21.998 13.5645 19.7363 12.9902 18.3652C12.4277 16.9824 11.5195 16.291 10.2656 16.291C8.98828 16.291 8.07422 16.9824 7.52344 18.3652C6.97266 19.7363 6.69727 21.998 6.69727 25.1504ZM39.9727 38H22.0078V34.2207L28.459 27.6992C30.3691 25.7422 31.6172 24.3887 32.2031 23.6387C32.7891 22.877 33.2109 22.1738 33.4688 21.5293C33.7266 20.8848 33.8555 20.2168 33.8555 19.5254C33.8555 18.4941 33.5684 17.7266 32.9941 17.2227C32.4316 16.7188 31.6758 16.4668 30.7266 16.4668C29.7305 16.4668 28.7637 16.6953 27.8262 17.1523C26.8887 17.6094 25.9102 18.2598 24.8906 19.1035L21.9375 15.6055C23.2031 14.5273 24.252 13.7656 25.084 13.3203C25.916 12.875 26.8242 12.5352 27.8086 12.3008C28.793 12.0547 29.8945 11.9316 31.1133 11.9316C32.7188 11.9316 34.1367 12.2246 35.3672 12.8105C36.5977 13.3965 37.5527 14.2168 38.2324 15.2715C38.9121 16.3262 39.252 17.5332 39.252 18.8926C39.252 20.0762 39.041 21.1895 38.6191 22.2324C38.209 23.2637 37.5645 24.3242 36.6855 25.4141C35.8184 26.5039 34.2832 28.0566 32.0801 30.0723L28.7754 33.1836V33.4297H39.9727V38Z" fill="#6832AC"/>
<path d="M17.0508 35.1172L16.2257 34.5522L16.2236 34.5552L17.0508 35.1172ZM3.55078 35.0117L2.72142 35.5704L2.72345 35.5734L3.55078 35.0117ZM3.49805 15.1309L4.3238 15.6949L4.32522 15.6928L3.49805 15.1309ZM16.9805 15.2715L16.1504 15.8292L16.1524 15.8321L16.9805 15.2715ZM7.50586 31.9355L6.57515 32.3015L6.57904 32.3111L7.50586 31.9355ZM12.9902 18.3652L12.0639 18.7421L12.0679 18.7515L12.9902 18.3652ZM7.52344 18.3652L8.45137 18.738L8.45246 18.7353L7.52344 18.3652ZM18.2656 25.1504C18.2656 29.5657 17.5325 32.6438 16.2257 34.5522L17.8759 35.6822C19.5221 33.2781 20.2656 29.7117 20.2656 25.1504H18.2656ZM16.2236 34.5552C14.9793 36.3869 13.0592 37.3516 10.2656 37.3516V39.3516C13.5893 39.3516 16.1926 38.16 17.878 35.6791L16.2236 34.5552ZM10.2656 37.3516C7.59256 37.3516 5.68252 36.3712 4.37811 34.45L2.72345 35.5734C4.44248 38.1053 7.00901 39.3516 10.2656 39.3516V37.3516ZM4.38014 34.453C3.04085 32.465 2.30078 29.4113 2.30078 25.1504H0.300781C0.300781 29.5848 1.06071 33.1053 2.72143 35.5704L4.38014 34.453ZM2.30078 25.1504C2.30078 20.6839 3.02939 17.5899 4.3238 15.6949L2.6723 14.5668C1.03702 16.9609 0.300781 20.5465 0.300781 25.1504H2.30078ZM4.32522 15.6928C5.57035 13.86 7.48545 12.8965 10.2656 12.8965V10.8965C6.95205 10.8965 4.35543 12.0892 2.67087 14.5689L4.32522 15.6928ZM10.2656 12.8965C12.9342 12.8965 14.8441 13.8849 16.1504 15.8292L17.8105 14.7138C16.0934 12.1581 13.5267 10.8965 10.2656 10.8965V12.8965ZM16.1524 15.8321C17.5152 17.8448 18.2656 20.9052 18.2656 25.1504H20.2656C20.2656 20.7237 19.4926 17.1981 17.8085 14.7108L16.1524 15.8321ZM5.69727 25.1504C5.69727 28.3179 5.96242 30.7428 6.5752 32.3014L8.43651 31.5696C7.97118 30.3861 7.69727 28.2875 7.69727 25.1504H5.69727ZM6.57904 32.3111C6.90441 33.1141 7.37 33.7928 8.01464 34.2691C8.66819 34.752 9.43561 34.9746 10.2656 34.9746V32.9746C9.80658 32.9746 9.46951 32.8574 9.20313 32.6606C8.92785 32.4572 8.65809 32.1164 8.43267 31.56L6.57904 32.3111ZM10.2656 34.9746C11.0922 34.9746 11.8548 34.7444 12.5037 34.2536C13.1415 33.7711 13.6051 33.0861 13.9341 32.2772L12.0815 31.5236C11.848 32.0975 11.5733 32.4496 11.2971 32.6585C11.032 32.8591 10.7046 32.9746 10.2656 32.9746V34.9746ZM13.9341 32.2772C14.5743 30.7034 14.8516 28.2869 14.8516 25.1504H12.8516C12.8516 28.2483 12.5663 30.3317 12.0815 31.5236L13.9341 32.2772ZM14.8516 25.1504C14.8516 21.9808 14.5691 19.5465 13.9126 17.9789L12.0679 18.7515C12.5598 19.9262 12.8516 22.0152 12.8516 25.1504H14.8516ZM13.9165 17.9884C13.5881 17.181 13.1269 16.4965 12.4929 16.0139C11.8474 15.5225 11.0886 15.291 10.2656 15.291V17.291C10.6966 17.291 11.0188 17.4053 11.2815 17.6052C11.5557 17.814 11.8299 18.1666 12.0639 18.742L13.9165 17.9884ZM10.2656 15.291C9.43543 15.291 8.66934 15.52 8.0188 16.012C7.37881 16.4961 6.91758 17.1839 6.59442 17.9952L8.45246 18.7353C8.68007 18.1638 8.95127 17.8144 9.22534 17.6071C9.48886 17.4078 9.81847 17.291 10.2656 17.291V15.291ZM6.59551 17.9925C5.96818 19.5541 5.69727 21.9822 5.69727 25.1504H7.69727C7.69727 22.0139 7.97713 19.9185 8.45137 18.738L6.59551 17.9925ZM39.9727 38V39H40.9727V38H39.9727ZM22.0078 38H21.0078V39H22.0078V38ZM22.0078 34.2207L21.2969 33.5174L21.0078 33.8097V34.2207H22.0078ZM28.459 27.6992L29.1699 28.4025L29.1746 28.3977L28.459 27.6992ZM32.2031 23.6387L32.9912 24.2543L32.9958 24.2484L32.2031 23.6387ZM32.9941 17.2227L32.3269 17.9675L32.3345 17.9743L32.9941 17.2227ZM24.8906 19.1035L24.1265 19.7486L24.7653 20.5053L25.5282 19.8739L24.8906 19.1035ZM21.9375 15.6055L21.289 14.8442L20.5312 15.4898L21.1734 16.2506L21.9375 15.6055ZM27.8086 12.3008L28.0402 13.2736L28.0511 13.2709L27.8086 12.3008ZM38.6191 22.2324L37.6921 21.8574L37.6899 21.8629L38.6191 22.2324ZM36.6855 25.4141L35.9071 24.7863L35.903 24.7914L36.6855 25.4141ZM32.0801 30.0723L31.4051 29.3345L31.3998 29.3393L31.3946 29.3442L32.0801 30.0723ZM28.7754 33.1836L28.0899 32.4555L27.7754 32.7516V33.1836H28.7754ZM28.7754 33.4297H27.7754V34.4297H28.7754V33.4297ZM39.9727 33.4297H40.9727V32.4297H39.9727V33.4297ZM39.9727 37H22.0078V39H39.9727V37ZM23.0078 38V34.2207H21.0078V38H23.0078ZM22.7187 34.924L29.1699 28.4025L27.7481 26.996L21.2969 33.5174L22.7187 34.924ZM29.1746 28.3977C31.0795 26.446 32.366 25.0545 32.9911 24.2543L31.4151 23.023C30.8684 23.7229 29.6587 25.0384 27.7434 27.0007L29.1746 28.3977ZM32.9958 24.2484C33.6179 23.4396 34.095 22.6562 34.3972 21.9007L32.5403 21.1579C32.3268 21.6915 31.9602 22.3143 31.4105 23.029L32.9958 24.2484ZM34.3972 21.9007C34.7021 21.1385 34.8555 20.3445 34.8555 19.5254H32.8555C32.8555 20.0891 32.751 20.631 32.5403 21.1579L34.3972 21.9007ZM34.8555 19.5254C34.8555 18.3121 34.5128 17.2249 33.6537 16.471L32.3345 17.9743C32.6239 18.2282 32.8555 18.6762 32.8555 19.5254H34.8555ZM33.6614 16.4778C32.8719 15.7705 31.8564 15.4668 30.7266 15.4668V17.4668C31.4951 17.4668 31.9914 17.667 32.3269 17.9675L33.6614 16.4778ZM30.7266 15.4668C29.5714 15.4668 28.4554 15.7331 27.388 16.2535L28.2644 18.0512C29.072 17.6575 29.8895 17.4668 30.7266 17.4668V15.4668ZM27.388 16.2535C26.3631 16.7531 25.3182 17.4516 24.2531 18.3331L25.5282 19.8739C26.5021 19.0679 27.4143 18.4657 28.2644 18.0512L27.388 16.2535ZM25.6547 18.4584L22.7016 14.9604L21.1734 16.2506L24.1265 19.7486L25.6547 18.4584ZM22.586 16.3667C23.8316 15.3056 24.817 14.5974 25.5559 14.202L24.6121 12.4386C23.6869 12.9338 22.5746 13.7491 21.289 14.8442L22.586 16.3667ZM25.5559 14.202C26.3068 13.8001 27.1335 13.4895 28.0402 13.2736L27.577 11.328C26.5149 11.5808 25.5252 11.9499 24.6121 12.4386L25.5559 14.202ZM28.0511 13.2709C28.9422 13.0482 29.9605 12.9316 31.1133 12.9316V10.9316C29.8286 10.9316 28.6437 11.0612 27.5661 11.3306L28.0511 13.2709ZM31.1133 12.9316C32.5963 12.9316 33.8629 13.2018 34.9373 13.7134L35.7971 11.9077C34.4105 11.2474 32.8412 10.9316 31.1133 10.9316V12.9316ZM34.9373 13.7134C36.0149 14.2266 36.8215 14.9281 37.3918 15.8132L39.073 14.7298C38.284 13.5055 37.1804 12.5664 35.7971 11.9077L34.9373 13.7134ZM37.3918 15.8132C37.9588 16.6929 38.252 17.7086 38.252 18.8926H40.252C40.252 17.3578 39.8655 15.9595 39.073 14.7298L37.3918 15.8132ZM38.252 18.8926C38.252 19.9544 38.0633 20.9398 37.6921 21.8574L39.5462 22.6074C40.0187 21.4392 40.252 20.1979 40.252 18.8926H38.252ZM37.6899 21.8629C37.325 22.7803 36.7388 23.7551 35.9071 24.7863L37.464 26.0418C38.3901 24.8934 39.0929 23.747 39.5483 22.602L37.6899 21.8629ZM35.903 24.7914C35.0882 25.8155 33.6029 27.3237 31.4051 29.3345L32.7551 30.8101C34.9635 28.7896 36.5485 27.1923 37.4681 26.0367L35.903 24.7914ZM31.3946 29.3442L28.0899 32.4555L29.4609 33.9117L32.7656 30.8004L31.3946 29.3442ZM27.7754 33.1836V33.4297H29.7754V33.1836H27.7754ZM28.7754 34.4297H39.9727V32.4297H28.7754V34.4297ZM38.9727 33.4297V38H40.9727V33.4297H38.9727Z" fill="#6832AC"/>
<path d="M20.0508 33.1172L19.2257 32.5522L19.2236 32.5552L20.0508 33.1172ZM6.55078 33.0117L5.72142 33.5704L5.72345 33.5734L6.55078 33.0117ZM6.49805 13.1309L7.3238 13.6949L7.32522 13.6928L6.49805 13.1309ZM19.9805 13.2715L19.1504 13.8292L19.1524 13.8321L19.9805 13.2715ZM10.5059 29.9355L9.57515 30.3015L9.57904 30.3111L10.5059 29.9355ZM15.9902 16.3652L15.0639 16.7421L15.0679 16.7515L15.9902 16.3652ZM10.5234 16.3652L11.4514 16.738L11.4525 16.7353L10.5234 16.3652ZM21.2656 23.1504C21.2656 27.5657 20.5325 30.6438 19.2257 32.5522L20.8759 33.6822C22.5221 31.2781 23.2656 27.7117 23.2656 23.1504H21.2656ZM19.2236 32.5552C17.9793 34.3869 16.0592 35.3516 13.2656 35.3516V37.3516C16.5893 37.3516 19.1926 36.16 20.878 33.6791L19.2236 32.5552ZM13.2656 35.3516C10.5926 35.3516 8.68252 34.3712 7.37811 32.45L5.72345 33.5734C7.44248 36.1053 10.009 37.3516 13.2656 37.3516V35.3516ZM7.38014 32.453C6.04085 30.465 5.30078 27.4113 5.30078 23.1504H3.30078C3.30078 27.5848 4.06071 31.1053 5.72143 33.5704L7.38014 32.453ZM5.30078 23.1504C5.30078 18.6839 6.02939 15.5899 7.3238 13.6949L5.6723 12.5668C4.03702 14.9609 3.30078 18.5465 3.30078 23.1504H5.30078ZM7.32522 13.6928C8.57035 11.86 10.4854 10.8965 13.2656 10.8965V8.89648C9.95205 8.89648 7.35543 10.0892 5.67087 12.5689L7.32522 13.6928ZM13.2656 10.8965C15.9342 10.8965 17.8441 11.8849 19.1504 13.8292L20.8105 12.7138C19.0934 10.1581 16.5267 8.89648 13.2656 8.89648V10.8965ZM19.1524 13.8321C20.5152 15.8448 21.2656 18.9052 21.2656 23.1504H23.2656C23.2656 18.7237 22.4926 15.1981 20.8085 12.7108L19.1524 13.8321ZM8.69727 23.1504C8.69727 26.3179 8.96242 28.7428 9.5752 30.3014L11.4365 29.5696C10.9712 28.3861 10.6973 26.2875 10.6973 23.1504H8.69727ZM9.57904 30.3111C9.90441 31.1141 10.37 31.7928 11.0146 32.2691C11.6682 32.752 12.4356 32.9746 13.2656 32.9746V30.9746C12.8066 30.9746 12.4695 30.8574 12.2031 30.6606C11.9279 30.4572 11.6581 30.1164 11.4327 29.56L9.57904 30.3111ZM13.2656 32.9746C14.0922 32.9746 14.8548 32.7444 15.5037 32.2536C16.1415 31.7711 16.6051 31.0861 16.9341 30.2772L15.0815 29.5236C14.848 30.0975 14.5733 30.4496 14.2971 30.6585C14.032 30.8591 13.7046 30.9746 13.2656 30.9746V32.9746ZM16.9341 30.2772C17.5743 28.7034 17.8516 26.2869 17.8516 23.1504H15.8516C15.8516 26.2483 15.5663 28.3317 15.0815 29.5236L16.9341 30.2772ZM17.8516 23.1504C17.8516 19.9808 17.5691 17.5465 16.9126 15.9789L15.0679 16.7515C15.5598 17.9262 15.8516 20.0152 15.8516 23.1504H17.8516ZM16.9165 15.9884C16.5881 15.181 16.1269 14.4965 15.4929 14.0139C14.8474 13.5225 14.0886 13.291 13.2656 13.291V15.291C13.6966 15.291 14.0188 15.4053 14.2815 15.6052C14.5557 15.814 14.8299 16.1666 15.0639 16.742L16.9165 15.9884ZM13.2656 13.291C12.4354 13.291 11.6693 13.52 11.0188 14.012C10.3788 14.4961 9.91758 15.1839 9.59442 15.9952L11.4525 16.7353C11.6801 16.1638 11.9513 15.8144 12.2253 15.6071C12.4889 15.4078 12.8185 15.291 13.2656 15.291V13.291ZM9.59551 15.9925C8.96818 17.5541 8.69727 19.9822 8.69727 23.1504H10.6973C10.6973 20.0139 10.9771 17.9185 11.4514 16.738L9.59551 15.9925ZM42.9727 36V37H43.9727V36H42.9727ZM25.0078 36H24.0078V37H25.0078V36ZM25.0078 32.2207L24.2969 31.5174L24.0078 31.8097V32.2207H25.0078ZM31.459 25.6992L32.1699 26.4025L32.1746 26.3977L31.459 25.6992ZM35.2031 21.6387L35.9912 22.2543L35.9958 22.2484L35.2031 21.6387ZM35.9941 15.2227L35.3269 15.9675L35.3345 15.9743L35.9941 15.2227ZM27.8906 17.1035L27.1265 17.7486L27.7653 18.5053L28.5282 17.8739L27.8906 17.1035ZM24.9375 13.6055L24.289 12.8442L23.5312 13.4898L24.1734 14.2506L24.9375 13.6055ZM30.8086 10.3008L31.0402 11.2736L31.0511 11.2709L30.8086 10.3008ZM41.6191 20.2324L40.6921 19.8574L40.6899 19.8629L41.6191 20.2324ZM39.6855 23.4141L38.9071 22.7863L38.903 22.7914L39.6855 23.4141ZM35.0801 28.0723L34.4051 27.3345L34.3998 27.3393L34.3946 27.3442L35.0801 28.0723ZM31.7754 31.1836L31.0899 30.4555L30.7754 30.7516V31.1836H31.7754ZM31.7754 31.4297H30.7754V32.4297H31.7754V31.4297ZM42.9727 31.4297H43.9727V30.4297H42.9727V31.4297ZM42.9727 35H25.0078V37H42.9727V35ZM26.0078 36V32.2207H24.0078V36H26.0078ZM25.7187 32.924L32.1699 26.4025L30.7481 24.996L24.2969 31.5174L25.7187 32.924ZM32.1746 26.3977C34.0795 24.446 35.366 23.0545 35.9911 22.2543L34.4151 21.023C33.8684 21.7229 32.6587 23.0384 30.7434 25.0007L32.1746 26.3977ZM35.9958 22.2484C36.6179 21.4396 37.095 20.6562 37.3972 19.9007L35.5403 19.1579C35.3268 19.6915 34.9602 20.3143 34.4105 21.029L35.9958 22.2484ZM37.3972 19.9007C37.7021 19.1385 37.8555 18.3445 37.8555 17.5254H35.8555C35.8555 18.0891 35.751 18.631 35.5403 19.1579L37.3972 19.9007ZM37.8555 17.5254C37.8555 16.3121 37.5128 15.2249 36.6537 14.471L35.3345 15.9743C35.6239 16.2282 35.8555 16.6762 35.8555 17.5254H37.8555ZM36.6614 14.4778C35.8719 13.7705 34.8564 13.4668 33.7266 13.4668V15.4668C34.4951 15.4668 34.9914 15.667 35.3269 15.9675L36.6614 14.4778ZM33.7266 13.4668C32.5714 13.4668 31.4554 13.7331 30.388 14.2535L31.2644 16.0512C32.072 15.6575 32.8895 15.4668 33.7266 15.4668V13.4668ZM30.388 14.2535C29.3631 14.7531 28.3182 15.4516 27.2531 16.3331L28.5282 17.8739C29.5021 17.0679 30.4143 16.4657 31.2644 16.0512L30.388 14.2535ZM28.6547 16.4584L25.7016 12.9604L24.1734 14.2506L27.1265 17.7486L28.6547 16.4584ZM25.586 14.3667C26.8316 13.3056 27.817 12.5974 28.5559 12.202L27.6121 10.4386C26.6869 10.9338 25.5746 11.7491 24.289 12.8442L25.586 14.3667ZM28.5559 12.202C29.3068 11.8001 30.1335 11.4895 31.0402 11.2736L30.577 9.32798C29.5149 9.58084 28.5252 9.94993 27.6121 10.4386L28.5559 12.202ZM31.0511 11.2709C31.9422 11.0482 32.9605 10.9316 34.1133 10.9316V8.93164C32.8286 8.93164 31.6437 9.06122 30.5661 9.33064L31.0511 11.2709ZM34.1133 10.9316C35.5963 10.9316 36.8629 11.2018 37.9373 11.7134L38.7971 9.90769C37.4105 9.24739 35.8412 8.93164 34.1133 8.93164V10.9316ZM37.9373 11.7134C39.0149 12.2266 39.8215 12.9281 40.3918 13.8132L42.073 12.7298C41.284 11.5055 40.1804 10.5664 38.7971 9.90769L37.9373 11.7134ZM40.3918 13.8132C40.9588 14.6929 41.252 15.7086 41.252 16.8926H43.252C43.252 15.3578 42.8655 13.9595 42.073 12.7298L40.3918 13.8132ZM41.252 16.8926C41.252 17.9544 41.0633 18.9398 40.6921 19.8574L42.5462 20.6074C43.0187 19.4392 43.252 18.1979 43.252 16.8926H41.252ZM40.6899 19.8629C40.325 20.7803 39.7388 21.7551 38.9071 22.7863L40.464 24.0418C41.3901 22.8934 42.0929 21.747 42.5483 20.602L40.6899 19.8629ZM38.903 22.7914C38.0882 23.8155 36.6029 25.3237 34.4051 27.3345L35.7551 28.8101C37.9635 26.7896 39.5485 25.1923 40.4681 24.0367L38.903 22.7914ZM34.3946 27.3442L31.0899 30.4555L32.4609 31.9117L35.7656 28.8004L34.3946 27.3442ZM30.7754 31.1836V31.4297H32.7754V31.1836H30.7754ZM31.7754 32.4297H42.9727V30.4297H31.7754V32.4297ZM41.9727 31.4297V36H43.9727V31.4297H41.9727Z" fill="#6832AC"/>
</svg>
