<svg width="45" height="47" viewBox="0 0 45 47" fill="none" xmlns="http://www.w3.org/2000/svg">
<path d="M19.2656 25.1504C19.2656 29.6387 18.5273 32.9609 17.0508 35.1172C15.5859 37.2734 13.3242 38.3516 10.2656 38.3516C7.30078 38.3516 5.0625 37.2383 3.55078 35.0117C2.05078 32.7852 1.30078 29.498 1.30078 25.1504C1.30078 20.6152 2.0332 17.2754 3.49805 15.1309C4.96289 12.9746 7.21875 11.8965 10.2656 11.8965C13.2305 11.8965 15.4688 13.0215 16.9805 15.2715C18.5039 17.5215 19.2656 20.8145 19.2656 25.1504ZM6.69727 25.1504C6.69727 28.3027 6.9668 30.5645 7.50586 31.9355C8.05664 33.2949 8.97656 33.9746 10.2656 33.9746C11.5312 33.9746 12.4453 33.2832 13.0078 31.9004C13.5703 30.5176 13.8516 28.2676 13.8516 25.1504C13.8516 21.998 13.5645 19.7363 12.9902 18.3652C12.4277 16.9824 11.5195 16.291 10.2656 16.291C8.98828 16.291 8.07422 16.9824 7.52344 18.3652C6.97266 19.7363 6.69727 21.998 6.69727 25.1504ZM38.9707 18.0488C38.9707 19.6543 38.4844 21.0195 37.5117 22.1445C36.5391 23.2695 35.1738 24.043 33.416 24.4648V24.5703C35.4902 24.8281 37.0605 25.4609 38.127 26.4688C39.1934 27.4648 39.7266 28.8125 39.7266 30.5117C39.7266 32.9844 38.8301 34.9121 37.0371 36.2949C35.2441 37.666 32.6836 38.3516 29.3555 38.3516C26.5664 38.3516 24.0938 37.8887 21.9375 36.9629V32.3398C22.9336 32.8438 24.0293 33.2539 25.2246 33.5703C26.4199 33.8867 27.6035 34.0449 28.7754 34.0449C30.5684 34.0449 31.8926 33.7402 32.748 33.1309C33.6035 32.5215 34.0312 31.543 34.0312 30.1953C34.0312 28.9883 33.5391 28.1328 32.5547 27.6289C31.5703 27.125 30 26.873 27.8438 26.873H25.8926V22.707H27.8789C29.8711 22.707 31.3242 22.4492 32.2383 21.9336C33.1641 21.4062 33.627 20.5098 33.627 19.2441C33.627 17.2988 32.4082 16.3262 29.9707 16.3262C29.127 16.3262 28.2656 16.4668 27.3867 16.748C26.5195 17.0293 25.5527 17.5156 24.4863 18.207L21.9727 14.4629C24.3164 12.7754 27.1113 11.9316 30.3574 11.9316C33.0176 11.9316 35.1152 12.4707 36.6504 13.5488C38.1973 14.627 38.9707 16.127 38.9707 18.0488Z" fill="#6832AC"/>
<path d="M17.0508 35.1172L16.2257 34.5522L16.2236 34.5552L17.0508 35.1172ZM3.55078 35.0117L2.72142 35.5704L2.72345 35.5734L3.55078 35.0117ZM3.49805 15.1309L4.3238 15.6949L4.32522 15.6928L3.49805 15.1309ZM16.9805 15.2715L16.1504 15.8292L16.1524 15.8321L16.9805 15.2715ZM7.50586 31.9355L6.57515 32.3015L6.57904 32.3111L7.50586 31.9355ZM12.9902 18.3652L12.0639 18.7421L12.0679 18.7515L12.9902 18.3652ZM7.52344 18.3652L8.45137 18.738L8.45246 18.7353L7.52344 18.3652ZM18.2656 25.1504C18.2656 29.5657 17.5325 32.6438 16.2257 34.5522L17.8759 35.6822C19.5221 33.2781 20.2656 29.7117 20.2656 25.1504H18.2656ZM16.2236 34.5552C14.9793 36.3869 13.0592 37.3516 10.2656 37.3516V39.3516C13.5893 39.3516 16.1926 38.16 17.878 35.6791L16.2236 34.5552ZM10.2656 37.3516C7.59256 37.3516 5.68252 36.3712 4.37811 34.45L2.72345 35.5734C4.44248 38.1053 7.00901 39.3516 10.2656 39.3516V37.3516ZM4.38014 34.453C3.04085 32.465 2.30078 29.4113 2.30078 25.1504H0.300781C0.300781 29.5848 1.06071 33.1053 2.72143 35.5704L4.38014 34.453ZM2.30078 25.1504C2.30078 20.6839 3.02939 17.5899 4.3238 15.6949L2.6723 14.5668C1.03702 16.9609 0.300781 20.5465 0.300781 25.1504H2.30078ZM4.32522 15.6928C5.57035 13.86 7.48545 12.8965 10.2656 12.8965V10.8965C6.95205 10.8965 4.35543 12.0892 2.67087 14.5689L4.32522 15.6928ZM10.2656 12.8965C12.9342 12.8965 14.8441 13.8849 16.1504 15.8292L17.8105 14.7138C16.0934 12.1581 13.5267 10.8965 10.2656 10.8965V12.8965ZM16.1524 15.8321C17.5152 17.8448 18.2656 20.9052 18.2656 25.1504H20.2656C20.2656 20.7237 19.4926 17.1981 17.8085 14.7108L16.1524 15.8321ZM5.69727 25.1504C5.69727 28.3179 5.96242 30.7428 6.5752 32.3014L8.43651 31.5696C7.97118 30.3861 7.69727 28.2875 7.69727 25.1504H5.69727ZM6.57904 32.3111C6.90441 33.1141 7.37 33.7928 8.01464 34.2691C8.66819 34.752 9.43561 34.9746 10.2656 34.9746V32.9746C9.80658 32.9746 9.46951 32.8574 9.20313 32.6606C8.92785 32.4572 8.65809 32.1164 8.43267 31.56L6.57904 32.3111ZM10.2656 34.9746C11.0922 34.9746 11.8548 34.7444 12.5037 34.2536C13.1415 33.7711 13.6051 33.0861 13.9341 32.2772L12.0815 31.5236C11.848 32.0975 11.5733 32.4496 11.2971 32.6585C11.032 32.8591 10.7046 32.9746 10.2656 32.9746V34.9746ZM13.9341 32.2772C14.5743 30.7034 14.8516 28.2869 14.8516 25.1504H12.8516C12.8516 28.2483 12.5663 30.3317 12.0815 31.5236L13.9341 32.2772ZM14.8516 25.1504C14.8516 21.9808 14.5691 19.5465 13.9126 17.9789L12.0679 18.7515C12.5598 19.9262 12.8516 22.0152 12.8516 25.1504H14.8516ZM13.9165 17.9884C13.5881 17.181 13.1269 16.4965 12.4929 16.0139C11.8474 15.5225 11.0886 15.291 10.2656 15.291V17.291C10.6966 17.291 11.0188 17.4053 11.2815 17.6052C11.5557 17.814 11.8299 18.1666 12.0639 18.742L13.9165 17.9884ZM10.2656 15.291C9.43543 15.291 8.66934 15.52 8.0188 16.012C7.37881 16.4961 6.91758 17.1839 6.59442 17.9952L8.45246 18.7353C8.68007 18.1638 8.95127 17.8144 9.22534 17.6071C9.48886 17.4078 9.81847 17.291 10.2656 17.291V15.291ZM6.59551 17.9925C5.96818 19.5541 5.69727 21.9822 5.69727 25.1504H7.69727C7.69727 22.0139 7.97713 19.9185 8.45137 18.738L6.59551 17.9925ZM33.416 24.4648L33.1826 23.4925L32.416 23.6764V24.4648H33.416ZM33.416 24.5703H32.416V25.4537L33.2927 25.5627L33.416 24.5703ZM38.127 26.4688L37.4401 27.1956L37.4443 27.1995L38.127 26.4688ZM37.0371 36.2949L37.6446 37.0893L37.6478 37.0868L37.0371 36.2949ZM21.9375 36.9629H20.9375V37.6218L21.543 37.8818L21.9375 36.9629ZM21.9375 32.3398L22.3889 31.4475L20.9375 30.7133V32.3398H21.9375ZM25.8926 26.873H24.8926V27.873H25.8926V26.873ZM25.8926 22.707V21.707H24.8926V22.707H25.8926ZM32.2383 21.9336L32.7296 22.8046L32.7332 22.8025L32.2383 21.9336ZM27.3867 16.748L27.0819 15.7956L27.0782 15.7968L27.3867 16.748ZM24.4863 18.207L23.6561 18.7644L24.2046 19.5815L25.0303 19.0461L24.4863 18.207ZM21.9727 14.4629L21.3884 13.6514L20.603 14.2168L21.1424 15.0203L21.9727 14.4629ZM36.6504 13.5488L36.0757 14.3672L36.0786 14.3692L36.6504 13.5488ZM37.9707 18.0488C37.9707 19.4348 37.5578 20.5622 36.7552 21.4905L38.2682 22.7986C39.4109 21.4768 39.9707 19.8738 39.9707 18.0488H37.9707ZM36.7552 21.4905C35.9466 22.4258 34.7818 23.1087 33.1826 23.4925L33.6494 25.4372C35.5659 24.9773 37.1315 24.1133 38.2682 22.7986L36.7552 21.4905ZM32.416 24.4648V24.5703H34.416V24.4648H32.416ZM33.2927 25.5627C35.2423 25.805 36.5818 26.3844 37.4401 27.1955L38.8138 25.742C37.5393 24.5375 35.7381 23.8512 33.5394 23.5779L33.2927 25.5627ZM37.4443 27.1995C38.2746 27.975 38.7266 29.0398 38.7266 30.5117H40.7266C40.7266 28.5852 40.1121 26.9546 38.8096 25.738L37.4443 27.1995ZM38.7266 30.5117C38.7266 32.7072 37.949 34.3288 36.4264 35.5031L37.6478 37.0868C39.7112 35.4954 40.7266 33.2616 40.7266 30.5117H38.7266ZM36.4297 35.5006C34.8766 36.6882 32.5639 37.3516 29.3555 37.3516V39.3516C32.8032 39.3516 35.6117 38.6438 37.6446 37.0893L36.4297 35.5006ZM29.3555 37.3516C26.6769 37.3516 24.3424 36.9072 22.332 36.044L21.543 37.8818C23.8451 38.8702 26.4559 39.3516 29.3555 39.3516V37.3516ZM22.9375 36.9629V32.3398H20.9375V36.9629H22.9375ZM21.4861 33.2322C22.5508 33.7708 23.713 34.2046 24.9687 34.537L25.4805 32.6036C24.3456 32.3032 23.3163 31.9167 22.3889 31.4475L21.4861 33.2322ZM24.9687 34.537C26.2429 34.8743 27.5125 35.0449 28.7754 35.0449V33.0449C27.6945 33.0449 26.5969 32.8991 25.4805 32.6036L24.9687 34.537ZM28.7754 35.0449C30.6446 35.0449 32.2208 34.7342 33.3282 33.9453L32.1679 32.3164C31.5643 32.7463 30.4921 33.0449 28.7754 33.0449V35.0449ZM33.3282 33.9453C34.5202 33.0963 35.0312 31.7648 35.0312 30.1953H33.0312C33.0312 31.3212 32.6868 31.9467 32.1679 32.3164L33.3282 33.9453ZM35.0312 30.1953C35.0312 29.4556 34.8798 28.7596 34.5289 28.1497C34.1751 27.5349 33.6531 27.0678 33.0104 26.7388L32.099 28.5191C32.4406 28.6939 32.6569 28.9065 32.7953 29.1471C32.9366 29.3927 33.0312 29.728 33.0312 30.1953H35.0312ZM33.0104 26.7388C31.8056 26.1221 30.0352 25.873 27.8438 25.873V27.873C29.9648 27.873 31.335 28.1279 32.099 28.5191L33.0104 26.7388ZM27.8438 25.873H25.8926V27.873H27.8438V25.873ZM26.8926 26.873V22.707H24.8926V26.873H26.8926ZM25.8926 23.707H27.8789V21.707H25.8926V23.707ZM27.8789 23.707C29.9141 23.707 31.5833 23.4512 32.7296 22.8046L31.747 21.0626C31.0652 21.4472 29.8281 21.707 27.8789 21.707V23.707ZM32.7332 22.8025C34.0352 22.0609 34.627 20.7889 34.627 19.2441H32.627C32.627 20.2306 32.2929 20.7516 31.7433 21.0647L32.7332 22.8025ZM34.627 19.2441C34.627 18.0499 34.2417 16.9963 33.3367 16.2741C32.4747 15.5862 31.2959 15.3262 29.9707 15.3262V17.3262C31.083 17.3262 31.7323 17.5525 32.0891 17.8373C32.4029 18.0877 32.627 18.493 32.627 19.2441H34.627ZM29.9707 15.3262C29.0143 15.3262 28.0502 15.4858 27.0819 15.7956L27.6915 17.7005C28.4811 17.4478 29.2396 17.3262 29.9707 17.3262V15.3262ZM27.0782 15.7968C26.1025 16.1133 25.0555 16.6462 23.9423 17.368L25.0303 19.0461C26.0499 18.3851 26.9365 17.9453 27.6952 17.6993L27.0782 15.7968ZM25.3166 17.6496L22.8029 13.9055L21.1424 15.0203L23.6561 18.7644L25.3166 17.6496ZM22.557 15.2744C24.7097 13.7244 27.2939 12.9316 30.3574 12.9316V10.9316C26.9288 10.9316 23.9231 11.8264 21.3884 13.6514L22.557 15.2744ZM30.3574 12.9316C32.8948 12.9316 34.7659 13.4473 36.0757 14.3672L37.2251 12.7305C35.4646 11.4941 33.1404 10.9316 30.3574 10.9316V12.9316ZM36.0786 14.3692C37.3511 15.2561 37.9707 16.4465 37.9707 18.0488H39.9707C39.9707 15.8075 39.0435 13.9978 37.2222 12.7284L36.0786 14.3692Z" fill="#6832AC"/>
<path d="M20.0508 33.1172L19.2257 32.5522L19.2236 32.5552L20.0508 33.1172ZM6.55078 33.0117L5.72142 33.5704L5.72345 33.5734L6.55078 33.0117ZM6.49805 13.1309L7.3238 13.6949L7.32522 13.6928L6.49805 13.1309ZM19.9805 13.2715L19.1504 13.8292L19.1524 13.8321L19.9805 13.2715ZM10.5059 29.9355L9.57515 30.3015L9.57904 30.3111L10.5059 29.9355ZM15.9902 16.3652L15.0639 16.7421L15.0679 16.7515L15.9902 16.3652ZM10.5234 16.3652L11.4514 16.738L11.4525 16.7353L10.5234 16.3652ZM21.2656 23.1504C21.2656 27.5657 20.5325 30.6438 19.2257 32.5522L20.8759 33.6822C22.5221 31.2781 23.2656 27.7117 23.2656 23.1504H21.2656ZM19.2236 32.5552C17.9793 34.3869 16.0592 35.3516 13.2656 35.3516V37.3516C16.5893 37.3516 19.1926 36.16 20.878 33.6791L19.2236 32.5552ZM13.2656 35.3516C10.5926 35.3516 8.68252 34.3712 7.37811 32.45L5.72345 33.5734C7.44248 36.1053 10.009 37.3516 13.2656 37.3516V35.3516ZM7.38014 32.453C6.04085 30.465 5.30078 27.4113 5.30078 23.1504H3.30078C3.30078 27.5848 4.06071 31.1053 5.72143 33.5704L7.38014 32.453ZM5.30078 23.1504C5.30078 18.6839 6.02939 15.5899 7.3238 13.6949L5.6723 12.5668C4.03702 14.9609 3.30078 18.5465 3.30078 23.1504H5.30078ZM7.32522 13.6928C8.57035 11.86 10.4854 10.8965 13.2656 10.8965V8.89648C9.95205 8.89648 7.35543 10.0892 5.67087 12.5689L7.32522 13.6928ZM13.2656 10.8965C15.9342 10.8965 17.8441 11.8849 19.1504 13.8292L20.8105 12.7138C19.0934 10.1581 16.5267 8.89648 13.2656 8.89648V10.8965ZM19.1524 13.8321C20.5152 15.8448 21.2656 18.9052 21.2656 23.1504H23.2656C23.2656 18.7237 22.4926 15.1981 20.8085 12.7108L19.1524 13.8321ZM8.69727 23.1504C8.69727 26.3179 8.96242 28.7428 9.5752 30.3014L11.4365 29.5696C10.9712 28.3861 10.6973 26.2875 10.6973 23.1504H8.69727ZM9.57904 30.3111C9.90441 31.1141 10.37 31.7928 11.0146 32.2691C11.6682 32.752 12.4356 32.9746 13.2656 32.9746V30.9746C12.8066 30.9746 12.4695 30.8574 12.2031 30.6606C11.9279 30.4572 11.6581 30.1164 11.4327 29.56L9.57904 30.3111ZM13.2656 32.9746C14.0922 32.9746 14.8548 32.7444 15.5037 32.2536C16.1415 31.7711 16.6051 31.0861 16.9341 30.2772L15.0815 29.5236C14.848 30.0975 14.5733 30.4496 14.2971 30.6585C14.032 30.8591 13.7046 30.9746 13.2656 30.9746V32.9746ZM16.9341 30.2772C17.5743 28.7034 17.8516 26.2869 17.8516 23.1504H15.8516C15.8516 26.2483 15.5663 28.3317 15.0815 29.5236L16.9341 30.2772ZM17.8516 23.1504C17.8516 19.9808 17.5691 17.5465 16.9126 15.9789L15.0679 16.7515C15.5598 17.9262 15.8516 20.0152 15.8516 23.1504H17.8516ZM16.9165 15.9884C16.5881 15.181 16.1269 14.4965 15.4929 14.0139C14.8474 13.5225 14.0886 13.291 13.2656 13.291V15.291C13.6966 15.291 14.0188 15.4053 14.2815 15.6052C14.5557 15.814 14.8299 16.1666 15.0639 16.742L16.9165 15.9884ZM13.2656 13.291C12.4354 13.291 11.6693 13.52 11.0188 14.012C10.3788 14.4961 9.91758 15.1839 9.59442 15.9952L11.4525 16.7353C11.6801 16.1638 11.9513 15.8144 12.2253 15.6071C12.4889 15.4078 12.8185 15.291 13.2656 15.291V13.291ZM9.59551 15.9925C8.96818 17.5541 8.69727 19.9822 8.69727 23.1504H10.6973C10.6973 20.0139 10.9771 17.9185 11.4514 16.738L9.59551 15.9925ZM36.416 22.4648L36.1826 21.4925L35.416 21.6764V22.4648H36.416ZM36.416 22.5703H35.416V23.4537L36.2927 23.5627L36.416 22.5703ZM41.127 24.4688L40.4401 25.1956L40.4443 25.1995L41.127 24.4688ZM40.0371 34.2949L40.6446 35.0893L40.6478 35.0868L40.0371 34.2949ZM24.9375 34.9629H23.9375V35.6218L24.543 35.8818L24.9375 34.9629ZM24.9375 30.3398L25.3889 29.4475L23.9375 28.7133V30.3398H24.9375ZM28.8926 24.873H27.8926V25.873H28.8926V24.873ZM28.8926 20.707V19.707H27.8926V20.707H28.8926ZM35.2383 19.9336L35.7296 20.8046L35.7332 20.8025L35.2383 19.9336ZM30.3867 14.748L30.0819 13.7956L30.0782 13.7968L30.3867 14.748ZM27.4863 16.207L26.6561 16.7644L27.2046 17.5815L28.0303 17.0461L27.4863 16.207ZM24.9727 12.4629L24.3884 11.6514L23.603 12.2168L24.1424 13.0203L24.9727 12.4629ZM39.6504 11.5488L39.0757 12.3672L39.0786 12.3692L39.6504 11.5488ZM40.9707 16.0488C40.9707 17.4348 40.5578 18.5622 39.7552 19.4905L41.2682 20.7986C42.4109 19.4768 42.9707 17.8738 42.9707 16.0488H40.9707ZM39.7552 19.4905C38.9466 20.4258 37.7818 21.1087 36.1826 21.4925L36.6494 23.4372C38.5659 22.9773 40.1315 22.1133 41.2682 20.7986L39.7552 19.4905ZM35.416 22.4648V22.5703H37.416V22.4648H35.416ZM36.2927 23.5627C38.2423 23.805 39.5818 24.3844 40.4401 25.1955L41.8138 23.742C40.5393 22.5375 38.7381 21.8512 36.5394 21.5779L36.2927 23.5627ZM40.4443 25.1995C41.2746 25.975 41.7266 27.0398 41.7266 28.5117H43.7266C43.7266 26.5852 43.1121 24.9546 41.8096 23.738L40.4443 25.1995ZM41.7266 28.5117C41.7266 30.7072 40.949 32.3288 39.4264 33.5031L40.6478 35.0868C42.7112 33.4954 43.7266 31.2616 43.7266 28.5117H41.7266ZM39.4297 33.5006C37.8766 34.6882 35.5639 35.3516 32.3555 35.3516V37.3516C35.8032 37.3516 38.6117 36.6438 40.6446 35.0893L39.4297 33.5006ZM32.3555 35.3516C29.6769 35.3516 27.3424 34.9072 25.332 34.044L24.543 35.8818C26.8451 36.8702 29.4559 37.3516 32.3555 37.3516V35.3516ZM25.9375 34.9629V30.3398H23.9375V34.9629H25.9375ZM24.4861 31.2322C25.5508 31.7708 26.713 32.2046 27.9687 32.537L28.4805 30.6036C27.3456 30.3032 26.3163 29.9167 25.3889 29.4475L24.4861 31.2322ZM27.9687 32.537C29.2429 32.8743 30.5125 33.0449 31.7754 33.0449V31.0449C30.6945 31.0449 29.5969 30.8991 28.4805 30.6036L27.9687 32.537ZM31.7754 33.0449C33.6446 33.0449 35.2208 32.7342 36.3282 31.9453L35.1679 30.3164C34.5643 30.7463 33.4921 31.0449 31.7754 31.0449V33.0449ZM36.3282 31.9453C37.5202 31.0963 38.0312 29.7648 38.0312 28.1953H36.0312C36.0312 29.3212 35.6868 29.9467 35.1679 30.3164L36.3282 31.9453ZM38.0312 28.1953C38.0312 27.4556 37.8798 26.7596 37.5289 26.1497C37.1751 25.5349 36.6531 25.0678 36.0104 24.7388L35.099 26.5191C35.4406 26.6939 35.6569 26.9065 35.7953 27.1471C35.9366 27.3927 36.0312 27.728 36.0312 28.1953H38.0312ZM36.0104 24.7388C34.8056 24.1221 33.0352 23.873 30.8438 23.873V25.873C32.9648 25.873 34.335 26.1279 35.099 26.5191L36.0104 24.7388ZM30.8438 23.873H28.8926V25.873H30.8438V23.873ZM29.8926 24.873V20.707H27.8926V24.873H29.8926ZM28.8926 21.707H30.8789V19.707H28.8926V21.707ZM30.8789 21.707C32.9141 21.707 34.5833 21.4512 35.7296 20.8046L34.747 19.0626C34.0652 19.4472 32.8281 19.707 30.8789 19.707V21.707ZM35.7332 20.8025C37.0352 20.0609 37.627 18.7889 37.627 17.2441H35.627C35.627 18.2306 35.2929 18.7516 34.7433 19.0647L35.7332 20.8025ZM37.627 17.2441C37.627 16.0499 37.2417 14.9963 36.3367 14.2741C35.4747 13.5862 34.2959 13.3262 32.9707 13.3262V15.3262C34.083 15.3262 34.7323 15.5525 35.0891 15.8373C35.4029 16.0877 35.627 16.493 35.627 17.2441H37.627ZM32.9707 13.3262C32.0143 13.3262 31.0502 13.4858 30.0819 13.7956L30.6915 15.7005C31.4811 15.4478 32.2396 15.3262 32.9707 15.3262V13.3262ZM30.0782 13.7968C29.1025 14.1133 28.0555 14.6462 26.9423 15.368L28.0303 17.0461C29.0499 16.3851 29.9365 15.9453 30.6952 15.6993L30.0782 13.7968ZM28.3166 15.6496L25.8029 11.9055L24.1424 13.0203L26.6561 16.7644L28.3166 15.6496ZM25.557 13.2744C27.7097 11.7244 30.2939 10.9316 33.3574 10.9316V8.93164C29.9288 8.93164 26.9231 9.82636 24.3884 11.6514L25.557 13.2744ZM33.3574 10.9316C35.8948 10.9316 37.7659 11.4473 39.0757 12.3672L40.2251 10.7305C38.4646 9.49407 36.1404 8.93164 33.3574 8.93164V10.9316ZM39.0786 12.3692C40.3511 13.2561 40.9707 14.4465 40.9707 16.0488H42.9707C42.9707 13.8075 42.0435 11.9978 40.2222 10.7284L39.0786 12.3692Z" fill="#6832AC"/>
</svg>
