<svg width="45" height="47" viewBox="0 0 45 47" fill="none" xmlns="http://www.w3.org/2000/svg">
<path d="M19.2656 25.1504C19.2656 29.6387 18.5273 32.9609 17.0508 35.1172C15.5859 37.2734 13.3242 38.3516 10.2656 38.3516C7.30078 38.3516 5.0625 37.2383 3.55078 35.0117C2.05078 32.7852 1.30078 29.498 1.30078 25.1504C1.30078 20.6152 2.0332 17.2754 3.49805 15.1309C4.96289 12.9746 7.21875 11.8965 10.2656 11.8965C13.2305 11.8965 15.4688 13.0215 16.9805 15.2715C18.5039 17.5215 19.2656 20.8145 19.2656 25.1504ZM6.69727 25.1504C6.69727 28.3027 6.9668 30.5645 7.50586 31.9355C8.05664 33.2949 8.97656 33.9746 10.2656 33.9746C11.5312 33.9746 12.4453 33.2832 13.0078 31.9004C13.5703 30.5176 13.8516 28.2676 13.8516 25.1504C13.8516 21.998 13.5645 19.7363 12.9902 18.3652C12.4277 16.9824 11.5195 16.291 10.2656 16.291C8.98828 16.291 8.07422 16.9824 7.52344 18.3652C6.97266 19.7363 6.69727 21.998 6.69727 25.1504ZM40.5527 32.6738H37.459V38H32.1504V32.6738H21.1816V28.8945L32.4492 12.3008H37.459V28.4551H40.5527V32.6738ZM32.1504 28.4551V24.0957C32.1504 23.3691 32.1797 22.3145 32.2383 20.9316C32.2969 19.5488 32.3438 18.7461 32.3789 18.5234H32.2383C31.8047 19.4844 31.2832 20.4219 30.6738 21.3359L25.9629 28.4551H32.1504Z" fill="#6832AC"/>
<path d="M17.0508 35.1172L16.2257 34.5522L16.2236 34.5552L17.0508 35.1172ZM3.55078 35.0117L2.72142 35.5704L2.72345 35.5734L3.55078 35.0117ZM3.49805 15.1309L4.3238 15.6949L4.32522 15.6928L3.49805 15.1309ZM16.9805 15.2715L16.1504 15.8292L16.1524 15.8321L16.9805 15.2715ZM7.50586 31.9355L6.57515 32.3015L6.57904 32.3111L7.50586 31.9355ZM12.9902 18.3652L12.0639 18.7421L12.0679 18.7515L12.9902 18.3652ZM7.52344 18.3652L8.45137 18.738L8.45246 18.7353L7.52344 18.3652ZM18.2656 25.1504C18.2656 29.5657 17.5325 32.6438 16.2257 34.5522L17.8759 35.6822C19.5221 33.2781 20.2656 29.7117 20.2656 25.1504H18.2656ZM16.2236 34.5552C14.9793 36.3869 13.0592 37.3516 10.2656 37.3516V39.3516C13.5893 39.3516 16.1926 38.16 17.878 35.6791L16.2236 34.5552ZM10.2656 37.3516C7.59256 37.3516 5.68252 36.3712 4.37811 34.45L2.72345 35.5734C4.44248 38.1053 7.00901 39.3516 10.2656 39.3516V37.3516ZM4.38014 34.453C3.04085 32.465 2.30078 29.4113 2.30078 25.1504H0.300781C0.300781 29.5848 1.06071 33.1053 2.72143 35.5704L4.38014 34.453ZM2.30078 25.1504C2.30078 20.6839 3.02939 17.5899 4.3238 15.6949L2.6723 14.5668C1.03702 16.9609 0.300781 20.5465 0.300781 25.1504H2.30078ZM4.32522 15.6928C5.57035 13.86 7.48545 12.8965 10.2656 12.8965V10.8965C6.95205 10.8965 4.35543 12.0892 2.67087 14.5689L4.32522 15.6928ZM10.2656 12.8965C12.9342 12.8965 14.8441 13.8849 16.1504 15.8292L17.8105 14.7138C16.0934 12.1581 13.5267 10.8965 10.2656 10.8965V12.8965ZM16.1524 15.8321C17.5152 17.8448 18.2656 20.9052 18.2656 25.1504H20.2656C20.2656 20.7237 19.4926 17.1981 17.8085 14.7108L16.1524 15.8321ZM5.69727 25.1504C5.69727 28.3179 5.96242 30.7428 6.5752 32.3014L8.43651 31.5696C7.97118 30.3861 7.69727 28.2875 7.69727 25.1504H5.69727ZM6.57904 32.3111C6.90441 33.1141 7.37 33.7928 8.01464 34.2691C8.66819 34.752 9.43561 34.9746 10.2656 34.9746V32.9746C9.80658 32.9746 9.46951 32.8574 9.20313 32.6606C8.92785 32.4572 8.65809 32.1164 8.43267 31.56L6.57904 32.3111ZM10.2656 34.9746C11.0922 34.9746 11.8548 34.7444 12.5037 34.2536C13.1415 33.7711 13.6051 33.0861 13.9341 32.2772L12.0815 31.5236C11.848 32.0975 11.5733 32.4496 11.2971 32.6585C11.032 32.8591 10.7046 32.9746 10.2656 32.9746V34.9746ZM13.9341 32.2772C14.5743 30.7034 14.8516 28.2869 14.8516 25.1504H12.8516C12.8516 28.2483 12.5663 30.3317 12.0815 31.5236L13.9341 32.2772ZM14.8516 25.1504C14.8516 21.9808 14.5691 19.5465 13.9126 17.9789L12.0679 18.7515C12.5598 19.9262 12.8516 22.0152 12.8516 25.1504H14.8516ZM13.9165 17.9884C13.5881 17.181 13.1269 16.4965 12.4929 16.0139C11.8474 15.5225 11.0886 15.291 10.2656 15.291V17.291C10.6966 17.291 11.0188 17.4053 11.2815 17.6052C11.5557 17.814 11.8299 18.1666 12.0639 18.742L13.9165 17.9884ZM10.2656 15.291C9.43543 15.291 8.66934 15.52 8.0188 16.012C7.37881 16.4961 6.91758 17.1839 6.59442 17.9952L8.45246 18.7353C8.68007 18.1638 8.95127 17.8144 9.22534 17.6071C9.48886 17.4078 9.81847 17.291 10.2656 17.291V15.291ZM6.59551 17.9925C5.96818 19.5541 5.69727 21.9822 5.69727 25.1504H7.69727C7.69727 22.0139 7.97713 19.9185 8.45137 18.738L6.59551 17.9925ZM40.5527 32.6738V33.6738H41.5527V32.6738H40.5527ZM37.459 32.6738V31.6738H36.459V32.6738H37.459ZM37.459 38V39H38.459V38H37.459ZM32.1504 38H31.1504V39H32.1504V38ZM32.1504 32.6738H33.1504V31.6738H32.1504V32.6738ZM21.1816 32.6738H20.1816V33.6738H21.1816V32.6738ZM21.1816 28.8945L20.3543 28.3328L20.1816 28.5871V28.8945H21.1816ZM32.4492 12.3008V11.3008H31.9195L31.6219 11.739L32.4492 12.3008ZM37.459 12.3008H38.459V11.3008H37.459V12.3008ZM37.459 28.4551H36.459V29.4551H37.459V28.4551ZM40.5527 28.4551H41.5527V27.4551H40.5527V28.4551ZM32.1504 28.4551V29.4551H33.1504V28.4551H32.1504ZM32.3789 18.5234L33.3667 18.6794L33.5492 17.5234H32.3789V18.5234ZM32.2383 18.5234V17.5234H31.5924L31.3268 18.1121L32.2383 18.5234ZM30.6738 21.3359L29.8418 20.7812L29.8399 20.7841L30.6738 21.3359ZM25.9629 28.4551L25.1289 27.9032L24.102 29.4551H25.9629V28.4551ZM40.5527 31.6738H37.459V33.6738H40.5527V31.6738ZM36.459 32.6738V38H38.459V32.6738H36.459ZM37.459 37H32.1504V39H37.459V37ZM33.1504 38V32.6738H31.1504V38H33.1504ZM32.1504 31.6738H21.1816V33.6738H32.1504V31.6738ZM22.1816 32.6738V28.8945H20.1816V32.6738H22.1816ZM22.0089 29.4563L33.2765 12.8625L31.6219 11.739L20.3543 28.3328L22.0089 29.4563ZM32.4492 13.3008H37.459V11.3008H32.4492V13.3008ZM36.459 12.3008V28.4551H38.459V12.3008H36.459ZM37.459 29.4551H40.5527V27.4551H37.459V29.4551ZM39.5527 28.4551V32.6738H41.5527V28.4551H39.5527ZM33.1504 28.4551V24.0957H31.1504V28.4551H33.1504ZM33.1504 24.0957C33.1504 23.3907 33.179 22.3528 33.2374 20.974L31.2392 20.8893C31.1804 22.2761 31.1504 23.3476 31.1504 24.0957H33.1504ZM33.2374 20.974C33.2666 20.2847 33.2927 19.7444 33.3157 19.3508C33.3272 19.1538 33.3377 18.9972 33.3472 18.8789C33.3519 18.8199 33.3561 18.773 33.3599 18.7372C33.3617 18.7194 33.3633 18.7055 33.3646 18.6951C33.3652 18.69 33.3657 18.6861 33.3661 18.6833C33.3665 18.6805 33.3667 18.6793 33.3667 18.6794L31.3911 18.3675C31.3446 18.6625 31.2962 19.5431 31.2392 20.8893L33.2374 20.974ZM32.3789 17.5234H32.2383V19.5234H32.3789V17.5234ZM31.3268 18.1121C30.9166 19.0211 30.4221 19.9108 29.8418 20.7812L31.5059 21.8906C32.1443 20.9329 32.6928 19.9476 33.1498 18.9347L31.3268 18.1121ZM29.8399 20.7841L25.1289 27.9032L26.7968 29.0069L31.5078 21.8878L29.8399 20.7841ZM25.9629 29.4551H32.1504V27.4551H25.9629V29.4551Z" fill="#6832AC"/>
<path d="M20.0508 33.1172L19.2257 32.5522L19.2236 32.5552L20.0508 33.1172ZM6.55078 33.0117L5.72142 33.5704L5.72345 33.5734L6.55078 33.0117ZM6.49805 13.1309L7.3238 13.6949L7.32522 13.6928L6.49805 13.1309ZM19.9805 13.2715L19.1504 13.8292L19.1524 13.8321L19.9805 13.2715ZM10.5059 29.9355L9.57515 30.3015L9.57904 30.3111L10.5059 29.9355ZM15.9902 16.3652L15.0639 16.7421L15.0679 16.7515L15.9902 16.3652ZM10.5234 16.3652L11.4514 16.738L11.4525 16.7353L10.5234 16.3652ZM21.2656 23.1504C21.2656 27.5657 20.5325 30.6438 19.2257 32.5522L20.8759 33.6822C22.5221 31.2781 23.2656 27.7117 23.2656 23.1504H21.2656ZM19.2236 32.5552C17.9793 34.3869 16.0592 35.3516 13.2656 35.3516V37.3516C16.5893 37.3516 19.1926 36.16 20.878 33.6791L19.2236 32.5552ZM13.2656 35.3516C10.5926 35.3516 8.68252 34.3712 7.37811 32.45L5.72345 33.5734C7.44248 36.1053 10.009 37.3516 13.2656 37.3516V35.3516ZM7.38014 32.453C6.04085 30.465 5.30078 27.4113 5.30078 23.1504H3.30078C3.30078 27.5848 4.06071 31.1053 5.72143 33.5704L7.38014 32.453ZM5.30078 23.1504C5.30078 18.6839 6.02939 15.5899 7.3238 13.6949L5.6723 12.5668C4.03702 14.9609 3.30078 18.5465 3.30078 23.1504H5.30078ZM7.32522 13.6928C8.57035 11.86 10.4854 10.8965 13.2656 10.8965V8.89648C9.95205 8.89648 7.35543 10.0892 5.67087 12.5689L7.32522 13.6928ZM13.2656 10.8965C15.9342 10.8965 17.8441 11.8849 19.1504 13.8292L20.8105 12.7138C19.0934 10.1581 16.5267 8.89648 13.2656 8.89648V10.8965ZM19.1524 13.8321C20.5152 15.8448 21.2656 18.9052 21.2656 23.1504H23.2656C23.2656 18.7237 22.4926 15.1981 20.8085 12.7108L19.1524 13.8321ZM8.69727 23.1504C8.69727 26.3179 8.96242 28.7428 9.5752 30.3014L11.4365 29.5696C10.9712 28.3861 10.6973 26.2875 10.6973 23.1504H8.69727ZM9.57904 30.3111C9.90441 31.1141 10.37 31.7928 11.0146 32.2691C11.6682 32.752 12.4356 32.9746 13.2656 32.9746V30.9746C12.8066 30.9746 12.4695 30.8574 12.2031 30.6606C11.9279 30.4572 11.6581 30.1164 11.4327 29.56L9.57904 30.3111ZM13.2656 32.9746C14.0922 32.9746 14.8548 32.7444 15.5037 32.2536C16.1415 31.7711 16.6051 31.0861 16.9341 30.2772L15.0815 29.5236C14.848 30.0975 14.5733 30.4496 14.2971 30.6585C14.032 30.8591 13.7046 30.9746 13.2656 30.9746V32.9746ZM16.9341 30.2772C17.5743 28.7034 17.8516 26.2869 17.8516 23.1504H15.8516C15.8516 26.2483 15.5663 28.3317 15.0815 29.5236L16.9341 30.2772ZM17.8516 23.1504C17.8516 19.9808 17.5691 17.5465 16.9126 15.9789L15.0679 16.7515C15.5598 17.9262 15.8516 20.0152 15.8516 23.1504H17.8516ZM16.9165 15.9884C16.5881 15.181 16.1269 14.4965 15.4929 14.0139C14.8474 13.5225 14.0886 13.291 13.2656 13.291V15.291C13.6966 15.291 14.0188 15.4053 14.2815 15.6052C14.5557 15.814 14.8299 16.1666 15.0639 16.742L16.9165 15.9884ZM13.2656 13.291C12.4354 13.291 11.6693 13.52 11.0188 14.012C10.3788 14.4961 9.91758 15.1839 9.59442 15.9952L11.4525 16.7353C11.6801 16.1638 11.9513 15.8144 12.2253 15.6071C12.4889 15.4078 12.8185 15.291 13.2656 15.291V13.291ZM9.59551 15.9925C8.96818 17.5541 8.69727 19.9822 8.69727 23.1504H10.6973C10.6973 20.0139 10.9771 17.9185 11.4514 16.738L9.59551 15.9925ZM43.5527 30.6738V31.6738H44.5527V30.6738H43.5527ZM40.459 30.6738V29.6738H39.459V30.6738H40.459ZM40.459 36V37H41.459V36H40.459ZM35.1504 36H34.1504V37H35.1504V36ZM35.1504 30.6738H36.1504V29.6738H35.1504V30.6738ZM24.1816 30.6738H23.1816V31.6738H24.1816V30.6738ZM24.1816 26.8945L23.3543 26.3328L23.1816 26.5871V26.8945H24.1816ZM35.4492 10.3008V9.30078H34.9195L34.6219 9.73902L35.4492 10.3008ZM40.459 10.3008H41.459V9.30078H40.459V10.3008ZM40.459 26.4551H39.459V27.4551H40.459V26.4551ZM43.5527 26.4551H44.5527V25.4551H43.5527V26.4551ZM35.1504 26.4551V27.4551H36.1504V26.4551H35.1504ZM35.3789 16.5234L36.3667 16.6794L36.5492 15.5234H35.3789V16.5234ZM35.2383 16.5234V15.5234H34.5924L34.3268 16.1121L35.2383 16.5234ZM33.6738 19.3359L32.8418 18.7812L32.8399 18.7841L33.6738 19.3359ZM28.9629 26.4551L28.1289 25.9032L27.102 27.4551H28.9629V26.4551ZM43.5527 29.6738H40.459V31.6738H43.5527V29.6738ZM39.459 30.6738V36H41.459V30.6738H39.459ZM40.459 35H35.1504V37H40.459V35ZM36.1504 36V30.6738H34.1504V36H36.1504ZM35.1504 29.6738H24.1816V31.6738H35.1504V29.6738ZM25.1816 30.6738V26.8945H23.1816V30.6738H25.1816ZM25.0089 27.4563L36.2765 10.8625L34.6219 9.73902L23.3543 26.3328L25.0089 27.4563ZM35.4492 11.3008H40.459V9.30078H35.4492V11.3008ZM39.459 10.3008V26.4551H41.459V10.3008H39.459ZM40.459 27.4551H43.5527V25.4551H40.459V27.4551ZM42.5527 26.4551V30.6738H44.5527V26.4551H42.5527ZM36.1504 26.4551V22.0957H34.1504V26.4551H36.1504ZM36.1504 22.0957C36.1504 21.3907 36.179 20.3528 36.2374 18.974L34.2392 18.8893C34.1804 20.2761 34.1504 21.3476 34.1504 22.0957H36.1504ZM36.2374 18.974C36.2666 18.2847 36.2927 17.7444 36.3157 17.3508C36.3272 17.1538 36.3377 16.9972 36.3472 16.8789C36.3519 16.8199 36.3561 16.773 36.3599 16.7372C36.3617 16.7194 36.3633 16.7055 36.3646 16.6951C36.3652 16.69 36.3657 16.6861 36.3661 16.6833C36.3665 16.6805 36.3667 16.6793 36.3667 16.6794L34.3911 16.3675C34.3446 16.6625 34.2962 17.5431 34.2392 18.8893L36.2374 18.974ZM35.3789 15.5234H35.2383V17.5234H35.3789V15.5234ZM34.3268 16.1121C33.9166 17.0211 33.4221 17.9108 32.8418 18.7812L34.5059 19.8906C35.1443 18.9329 35.6928 17.9476 36.1498 16.9347L34.3268 16.1121ZM32.8399 18.7841L28.1289 25.9032L29.7968 27.0069L34.5078 19.8878L32.8399 18.7841ZM28.9629 27.4551H35.1504V25.4551H28.9629V27.4551Z" fill="#6832AC"/>
</svg>
