<svg width="45" height="47" viewBox="0 0 45 47" fill="none" xmlns="http://www.w3.org/2000/svg">
<path d="M19.2656 25.1504C19.2656 29.6387 18.5273 32.9609 17.0508 35.1172C15.5859 37.2734 13.3242 38.3516 10.2656 38.3516C7.30078 38.3516 5.0625 37.2383 3.55078 35.0117C2.05078 32.7852 1.30078 29.498 1.30078 25.1504C1.30078 20.6152 2.0332 17.2754 3.49805 15.1309C4.96289 12.9746 7.21875 11.8965 10.2656 11.8965C13.2305 11.8965 15.4688 13.0215 16.9805 15.2715C18.5039 17.5215 19.2656 20.8145 19.2656 25.1504ZM6.69727 25.1504C6.69727 28.3027 6.9668 30.5645 7.50586 31.9355C8.05664 33.2949 8.97656 33.9746 10.2656 33.9746C11.5312 33.9746 12.4453 33.2832 13.0078 31.9004C13.5703 30.5176 13.8516 28.2676 13.8516 25.1504C13.8516 21.998 13.5645 19.7363 12.9902 18.3652C12.4277 16.9824 11.5195 16.291 10.2656 16.291C8.98828 16.291 8.07422 16.9824 7.52344 18.3652C6.97266 19.7363 6.69727 21.998 6.69727 25.1504ZM31.3594 21.582C33.8438 21.582 35.8184 22.2793 37.2832 23.6738C38.7598 25.0684 39.498 26.9785 39.498 29.4043C39.498 32.2754 38.6133 34.4844 36.8438 36.0312C35.0742 37.5781 32.543 38.3516 29.25 38.3516C26.3906 38.3516 24.082 37.8887 22.3242 36.9629V32.2695C23.25 32.7617 24.3281 33.166 25.5586 33.4824C26.7891 33.7871 27.9551 33.9395 29.0566 33.9395C32.373 33.9395 34.0312 32.5801 34.0312 29.8613C34.0312 27.2715 32.3145 25.9766 28.8809 25.9766C28.2598 25.9766 27.5742 26.041 26.8242 26.1699C26.0742 26.2871 25.4648 26.416 24.9961 26.5566L22.834 25.3965L23.8008 12.3008H37.7402V16.9062H28.5645L28.0898 21.9512L28.7051 21.8281C29.4199 21.6641 30.3047 21.582 31.3594 21.582Z" fill="#6832AC"/>
<path d="M17.0508 35.1172L16.2257 34.5522L16.2236 34.5552L17.0508 35.1172ZM3.55078 35.0117L2.72142 35.5704L2.72345 35.5734L3.55078 35.0117ZM3.49805 15.1309L4.3238 15.6949L4.32522 15.6928L3.49805 15.1309ZM16.9805 15.2715L16.1504 15.8292L16.1524 15.8321L16.9805 15.2715ZM7.50586 31.9355L6.57515 32.3015L6.57904 32.3111L7.50586 31.9355ZM12.9902 18.3652L12.0639 18.7421L12.0679 18.7515L12.9902 18.3652ZM7.52344 18.3652L8.45137 18.738L8.45246 18.7353L7.52344 18.3652ZM18.2656 25.1504C18.2656 29.5657 17.5325 32.6438 16.2257 34.5522L17.8759 35.6822C19.5221 33.2781 20.2656 29.7117 20.2656 25.1504H18.2656ZM16.2236 34.5552C14.9793 36.3869 13.0592 37.3516 10.2656 37.3516V39.3516C13.5893 39.3516 16.1926 38.16 17.878 35.6791L16.2236 34.5552ZM10.2656 37.3516C7.59256 37.3516 5.68252 36.3712 4.37811 34.45L2.72345 35.5734C4.44248 38.1053 7.00901 39.3516 10.2656 39.3516V37.3516ZM4.38014 34.453C3.04085 32.465 2.30078 29.4113 2.30078 25.1504H0.300781C0.300781 29.5848 1.06071 33.1053 2.72143 35.5704L4.38014 34.453ZM2.30078 25.1504C2.30078 20.6839 3.02939 17.5899 4.3238 15.6949L2.6723 14.5668C1.03702 16.9609 0.300781 20.5465 0.300781 25.1504H2.30078ZM4.32522 15.6928C5.57035 13.86 7.48545 12.8965 10.2656 12.8965V10.8965C6.95205 10.8965 4.35543 12.0892 2.67087 14.5689L4.32522 15.6928ZM10.2656 12.8965C12.9342 12.8965 14.8441 13.8849 16.1504 15.8292L17.8105 14.7138C16.0934 12.1581 13.5267 10.8965 10.2656 10.8965V12.8965ZM16.1524 15.8321C17.5152 17.8448 18.2656 20.9052 18.2656 25.1504H20.2656C20.2656 20.7237 19.4926 17.1981 17.8085 14.7108L16.1524 15.8321ZM5.69727 25.1504C5.69727 28.3179 5.96242 30.7428 6.5752 32.3014L8.43651 31.5696C7.97118 30.3861 7.69727 28.2875 7.69727 25.1504H5.69727ZM6.57904 32.3111C6.90441 33.1141 7.37 33.7928 8.01464 34.2691C8.66819 34.752 9.43561 34.9746 10.2656 34.9746V32.9746C9.80658 32.9746 9.46951 32.8574 9.20313 32.6606C8.92785 32.4572 8.65809 32.1164 8.43267 31.56L6.57904 32.3111ZM10.2656 34.9746C11.0922 34.9746 11.8548 34.7444 12.5037 34.2536C13.1415 33.7711 13.6051 33.0861 13.9341 32.2772L12.0815 31.5236C11.848 32.0975 11.5733 32.4496 11.2971 32.6585C11.032 32.8591 10.7046 32.9746 10.2656 32.9746V34.9746ZM13.9341 32.2772C14.5743 30.7034 14.8516 28.2869 14.8516 25.1504H12.8516C12.8516 28.2483 12.5663 30.3317 12.0815 31.5236L13.9341 32.2772ZM14.8516 25.1504C14.8516 21.9808 14.5691 19.5465 13.9126 17.9789L12.0679 18.7515C12.5598 19.9262 12.8516 22.0152 12.8516 25.1504H14.8516ZM13.9165 17.9884C13.5881 17.181 13.1269 16.4965 12.4929 16.0139C11.8474 15.5225 11.0886 15.291 10.2656 15.291V17.291C10.6966 17.291 11.0188 17.4053 11.2815 17.6052C11.5557 17.814 11.8299 18.1666 12.0639 18.742L13.9165 17.9884ZM10.2656 15.291C9.43543 15.291 8.66934 15.52 8.0188 16.012C7.37881 16.4961 6.91758 17.1839 6.59442 17.9952L8.45246 18.7353C8.68007 18.1638 8.95127 17.8144 9.22534 17.6071C9.48886 17.4078 9.81847 17.291 10.2656 17.291V15.291ZM6.59551 17.9925C5.96818 19.5541 5.69727 21.9822 5.69727 25.1504H7.69727C7.69727 22.0139 7.97713 19.9185 8.45137 18.738L6.59551 17.9925ZM37.2832 23.6738L36.5937 24.3981L36.5966 24.4008L37.2832 23.6738ZM22.3242 36.9629H21.3242V37.5664L21.8582 37.8477L22.3242 36.9629ZM22.3242 32.2695L22.7936 31.3866L21.3242 30.6053V32.2695H22.3242ZM25.5586 33.4824L25.3095 34.451L25.3182 34.4531L25.5586 33.4824ZM26.8242 26.1699L26.9786 27.1579L26.9861 27.1568L26.9936 27.1555L26.8242 26.1699ZM24.9961 26.5566L24.5233 27.4378L24.8875 27.6332L25.2834 27.5145L24.9961 26.5566ZM22.834 25.3965L21.8367 25.3229L21.7889 25.9706L22.3612 26.2776L22.834 25.3965ZM23.8008 12.3008V11.3008H22.8719L22.8035 12.2272L23.8008 12.3008ZM37.7402 12.3008H38.7402V11.3008H37.7402V12.3008ZM37.7402 16.9062V17.9062H38.7402V16.9062H37.7402ZM28.5645 16.9062V15.9062H27.6541L27.5688 16.8126L28.5645 16.9062ZM28.0898 21.9512L27.0942 21.8575L26.9684 23.1953L28.286 22.9318L28.0898 21.9512ZM28.7051 21.8281L28.9012 22.8087L28.915 22.8059L28.9288 22.8028L28.7051 21.8281ZM31.3594 22.582C33.6489 22.582 35.3552 23.219 36.5937 24.3981L37.9727 22.9496C36.2815 21.3396 34.0386 20.582 31.3594 20.582V22.582ZM36.5966 24.4008C37.8346 25.5701 38.498 27.1958 38.498 29.4043H40.498C40.498 26.7612 39.6849 24.5666 37.9698 22.9468L36.5966 24.4008ZM38.498 29.4043C38.498 32.0564 37.6905 33.9628 36.1856 35.2784L37.5019 36.7841C39.536 35.0059 40.498 32.4944 40.498 29.4043H38.498ZM36.1856 35.2784C34.6598 36.6121 32.3975 37.3516 29.25 37.3516V39.3516C32.6884 39.3516 35.4886 38.5441 37.5019 36.7841L36.1856 35.2784ZM29.25 37.3516C26.4864 37.3516 24.3552 36.9023 22.7902 36.0781L21.8582 37.8477C23.8089 38.875 26.2948 39.3516 29.25 39.3516V37.3516ZM23.3242 36.9629V32.2695H21.3242V36.9629H23.3242ZM21.8548 33.1525C22.8633 33.6887 24.018 34.1188 25.3096 34.4509L25.8076 32.5139C24.6382 32.2132 23.6367 31.8348 22.7936 31.3866L21.8548 33.1525ZM25.3182 34.4531C26.6158 34.7744 27.863 34.9395 29.0566 34.9395V32.9395C28.0472 32.9395 26.9623 32.7998 25.799 32.5117L25.3182 34.4531ZM29.0566 34.9395C30.8261 34.9395 32.3389 34.5808 33.4216 33.6933C34.5423 32.7745 35.0312 31.4331 35.0312 29.8613H33.0312C33.0312 31.0083 32.6911 31.706 32.1536 32.1466C31.5781 32.6184 30.6036 32.9395 29.0566 32.9395V34.9395ZM35.0312 29.8613C35.0312 28.3245 34.5071 27.0253 33.3458 26.1494C32.2377 25.3136 30.6947 24.9766 28.8809 24.9766V26.9766C30.5006 26.9766 31.5328 27.287 32.1415 27.7461C32.697 28.1651 33.0312 28.8083 33.0312 29.8613H35.0312ZM28.8809 24.9766C28.192 24.9766 27.4488 25.0479 26.6548 25.1844L26.9936 27.1555C27.6996 27.0341 28.3275 26.9766 28.8809 26.9766V24.9766ZM26.6698 25.1819C25.8965 25.3027 25.2379 25.4401 24.7087 25.5988L25.2834 27.5145C25.6918 27.392 26.252 27.2715 26.9786 27.1579L26.6698 25.1819ZM25.4689 25.6755L23.3068 24.5153L22.3612 26.2776L24.5233 27.4378L25.4689 25.6755ZM23.8313 25.4701L24.7981 12.3744L22.8035 12.2272L21.8367 25.3229L23.8313 25.4701ZM23.8008 13.3008H37.7402V11.3008H23.8008V13.3008ZM36.7402 12.3008V16.9062H38.7402V12.3008H36.7402ZM37.7402 15.9062H28.5645V17.9062H37.7402V15.9062ZM27.5688 16.8126L27.0942 21.8575L29.0854 22.0448L29.5601 16.9999L27.5688 16.8126ZM28.286 22.9318L28.9012 22.8087L28.509 20.8475L27.8937 20.9706L28.286 22.9318ZM28.9288 22.8028C29.546 22.6611 30.3502 22.582 31.3594 22.582V20.582C30.2592 20.582 29.2938 20.667 28.4814 20.8535L28.9288 22.8028Z" fill="#6832AC"/>
<path d="M20.0508 33.1172L19.2257 32.5522L19.2236 32.5552L20.0508 33.1172ZM6.55078 33.0117L5.72142 33.5704L5.72345 33.5734L6.55078 33.0117ZM6.49805 13.1309L7.3238 13.6949L7.32522 13.6928L6.49805 13.1309ZM19.9805 13.2715L19.1504 13.8292L19.1524 13.8321L19.9805 13.2715ZM10.5059 29.9355L9.57515 30.3015L9.57904 30.3111L10.5059 29.9355ZM15.9902 16.3652L15.0639 16.7421L15.0679 16.7515L15.9902 16.3652ZM10.5234 16.3652L11.4514 16.738L11.4525 16.7353L10.5234 16.3652ZM21.2656 23.1504C21.2656 27.5657 20.5325 30.6438 19.2257 32.5522L20.8759 33.6822C22.5221 31.2781 23.2656 27.7117 23.2656 23.1504H21.2656ZM19.2236 32.5552C17.9793 34.3869 16.0592 35.3516 13.2656 35.3516V37.3516C16.5893 37.3516 19.1926 36.16 20.878 33.6791L19.2236 32.5552ZM13.2656 35.3516C10.5926 35.3516 8.68252 34.3712 7.37811 32.45L5.72345 33.5734C7.44248 36.1053 10.009 37.3516 13.2656 37.3516V35.3516ZM7.38014 32.453C6.04085 30.465 5.30078 27.4113 5.30078 23.1504H3.30078C3.30078 27.5848 4.06071 31.1053 5.72143 33.5704L7.38014 32.453ZM5.30078 23.1504C5.30078 18.6839 6.02939 15.5899 7.3238 13.6949L5.6723 12.5668C4.03702 14.9609 3.30078 18.5465 3.30078 23.1504H5.30078ZM7.32522 13.6928C8.57035 11.86 10.4854 10.8965 13.2656 10.8965V8.89648C9.95205 8.89648 7.35543 10.0892 5.67087 12.5689L7.32522 13.6928ZM13.2656 10.8965C15.9342 10.8965 17.8441 11.8849 19.1504 13.8292L20.8105 12.7138C19.0934 10.1581 16.5267 8.89648 13.2656 8.89648V10.8965ZM19.1524 13.8321C20.5152 15.8448 21.2656 18.9052 21.2656 23.1504H23.2656C23.2656 18.7237 22.4926 15.1981 20.8085 12.7108L19.1524 13.8321ZM8.69727 23.1504C8.69727 26.3179 8.96242 28.7428 9.5752 30.3014L11.4365 29.5696C10.9712 28.3861 10.6973 26.2875 10.6973 23.1504H8.69727ZM9.57904 30.3111C9.90441 31.1141 10.37 31.7928 11.0146 32.2691C11.6682 32.752 12.4356 32.9746 13.2656 32.9746V30.9746C12.8066 30.9746 12.4695 30.8574 12.2031 30.6606C11.9279 30.4572 11.6581 30.1164 11.4327 29.56L9.57904 30.3111ZM13.2656 32.9746C14.0922 32.9746 14.8548 32.7444 15.5037 32.2536C16.1415 31.7711 16.6051 31.0861 16.9341 30.2772L15.0815 29.5236C14.848 30.0975 14.5733 30.4496 14.2971 30.6585C14.032 30.8591 13.7046 30.9746 13.2656 30.9746V32.9746ZM16.9341 30.2772C17.5743 28.7034 17.8516 26.2869 17.8516 23.1504H15.8516C15.8516 26.2483 15.5663 28.3317 15.0815 29.5236L16.9341 30.2772ZM17.8516 23.1504C17.8516 19.9808 17.5691 17.5465 16.9126 15.9789L15.0679 16.7515C15.5598 17.9262 15.8516 20.0152 15.8516 23.1504H17.8516ZM16.9165 15.9884C16.5881 15.181 16.1269 14.4965 15.4929 14.0139C14.8474 13.5225 14.0886 13.291 13.2656 13.291V15.291C13.6966 15.291 14.0188 15.4053 14.2815 15.6052C14.5557 15.814 14.8299 16.1666 15.0639 16.742L16.9165 15.9884ZM13.2656 13.291C12.4354 13.291 11.6693 13.52 11.0188 14.012C10.3788 14.4961 9.91758 15.1839 9.59442 15.9952L11.4525 16.7353C11.6801 16.1638 11.9513 15.8144 12.2253 15.6071C12.4889 15.4078 12.8185 15.291 13.2656 15.291V13.291ZM9.59551 15.9925C8.96818 17.5541 8.69727 19.9822 8.69727 23.1504H10.6973C10.6973 20.0139 10.9771 17.9185 11.4514 16.738L9.59551 15.9925ZM40.2832 21.6738L39.5937 22.3981L39.5966 22.4008L40.2832 21.6738ZM25.3242 34.9629H24.3242V35.5664L24.8582 35.8477L25.3242 34.9629ZM25.3242 30.2695L25.7936 29.3866L24.3242 28.6053V30.2695H25.3242ZM28.5586 31.4824L28.3095 32.451L28.3182 32.4531L28.5586 31.4824ZM29.8242 24.1699L29.9786 25.1579L29.9861 25.1568L29.9936 25.1555L29.8242 24.1699ZM27.9961 24.5566L27.5233 25.4378L27.8875 25.6332L28.2834 25.5145L27.9961 24.5566ZM25.834 23.3965L24.8367 23.3229L24.7889 23.9706L25.3612 24.2776L25.834 23.3965ZM26.8008 10.3008V9.30078H25.8719L25.8035 10.2272L26.8008 10.3008ZM40.7402 10.3008H41.7402V9.30078H40.7402V10.3008ZM40.7402 14.9062V15.9062H41.7402V14.9062H40.7402ZM31.5645 14.9062V13.9062H30.6541L30.5688 14.8126L31.5645 14.9062ZM31.0898 19.9512L30.0942 19.8575L29.9684 21.1953L31.286 20.9318L31.0898 19.9512ZM31.7051 19.8281L31.9012 20.8087L31.915 20.8059L31.9288 20.8028L31.7051 19.8281ZM34.3594 20.582C36.6489 20.582 38.3552 21.219 39.5937 22.3981L40.9727 20.9496C39.2815 19.3396 37.0386 18.582 34.3594 18.582V20.582ZM39.5966 22.4008C40.8346 23.5701 41.498 25.1958 41.498 27.4043H43.498C43.498 24.7612 42.6849 22.5666 40.9698 20.9468L39.5966 22.4008ZM41.498 27.4043C41.498 30.0564 40.6905 31.9628 39.1856 33.2784L40.5019 34.7841C42.536 33.0059 43.498 30.4944 43.498 27.4043H41.498ZM39.1856 33.2784C37.6598 34.6121 35.3975 35.3516 32.25 35.3516V37.3516C35.6884 37.3516 38.4886 36.5441 40.5019 34.7841L39.1856 33.2784ZM32.25 35.3516C29.4864 35.3516 27.3552 34.9023 25.7902 34.0781L24.8582 35.8477C26.8089 36.875 29.2948 37.3516 32.25 37.3516V35.3516ZM26.3242 34.9629V30.2695H24.3242V34.9629H26.3242ZM24.8548 31.1525C25.8633 31.6887 27.018 32.1188 28.3096 32.4509L28.8076 30.5139C27.6382 30.2132 26.6367 29.8348 25.7936 29.3866L24.8548 31.1525ZM28.3182 32.4531C29.6158 32.7744 30.863 32.9395 32.0566 32.9395V30.9395C31.0472 30.9395 29.9623 30.7998 28.799 30.5117L28.3182 32.4531ZM32.0566 32.9395C33.8261 32.9395 35.3389 32.5808 36.4216 31.6933C37.5423 30.7745 38.0312 29.4331 38.0312 27.8613H36.0312C36.0312 29.0083 35.6911 29.706 35.1536 30.1466C34.5781 30.6184 33.6036 30.9395 32.0566 30.9395V32.9395ZM38.0312 27.8613C38.0312 26.3245 37.5071 25.0253 36.3458 24.1494C35.2377 23.3136 33.6947 22.9766 31.8809 22.9766V24.9766C33.5006 24.9766 34.5328 25.287 35.1415 25.7461C35.697 26.1651 36.0312 26.8083 36.0312 27.8613H38.0312ZM31.8809 22.9766C31.192 22.9766 30.4488 23.0479 29.6548 23.1844L29.9936 25.1555C30.6996 25.0341 31.3275 24.9766 31.8809 24.9766V22.9766ZM29.6698 23.1819C28.8965 23.3027 28.2379 23.4401 27.7087 23.5988L28.2834 25.5145C28.6918 25.392 29.252 25.2715 29.9786 25.1579L29.6698 23.1819ZM28.4689 23.6755L26.3068 22.5153L25.3612 24.2776L27.5233 25.4378L28.4689 23.6755ZM26.8313 23.4701L27.7981 10.3744L25.8035 10.2272L24.8367 23.3229L26.8313 23.4701ZM26.8008 11.3008H40.7402V9.30078H26.8008V11.3008ZM39.7402 10.3008V14.9062H41.7402V10.3008H39.7402ZM40.7402 13.9062H31.5645V15.9062H40.7402V13.9062ZM30.5688 14.8126L30.0942 19.8575L32.0854 20.0448L32.5601 14.9999L30.5688 14.8126ZM31.286 20.9318L31.9012 20.8087L31.509 18.8475L30.8937 18.9706L31.286 20.9318ZM31.9288 20.8028C32.546 20.6611 33.3502 20.582 34.3594 20.582V18.582C33.2592 18.582 32.2938 18.667 31.4814 18.8535L31.9288 20.8028Z" fill="#6832AC"/>
</svg>
