<svg width="45" height="47" viewBox="0 0 45 47" fill="none" xmlns="http://www.w3.org/2000/svg">
<path d="M19.2656 25.1504C19.2656 29.6387 18.5273 32.9609 17.0508 35.1172C15.5859 37.2734 13.3242 38.3516 10.2656 38.3516C7.30078 38.3516 5.0625 37.2383 3.55078 35.0117C2.05078 32.7852 1.30078 29.498 1.30078 25.1504C1.30078 20.6152 2.0332 17.2754 3.49805 15.1309C4.96289 12.9746 7.21875 11.8965 10.2656 11.8965C13.2305 11.8965 15.4688 13.0215 16.9805 15.2715C18.5039 17.5215 19.2656 20.8145 19.2656 25.1504ZM6.69727 25.1504C6.69727 28.3027 6.9668 30.5645 7.50586 31.9355C8.05664 33.2949 8.97656 33.9746 10.2656 33.9746C11.5312 33.9746 12.4453 33.2832 13.0078 31.9004C13.5703 30.5176 13.8516 28.2676 13.8516 25.1504C13.8516 21.998 13.5645 19.7363 12.9902 18.3652C12.4277 16.9824 11.5195 16.291 10.2656 16.291C8.98828 16.291 8.07422 16.9824 7.52344 18.3652C6.97266 19.7363 6.69727 21.998 6.69727 25.1504ZM21.832 27.084C21.832 21.998 22.9043 18.2129 25.0488 15.7285C27.2051 13.2441 30.4277 12.002 34.7168 12.002C36.1816 12.002 37.3301 12.0898 38.1621 12.2656V16.6074C37.1191 16.373 36.0879 16.2559 35.0684 16.2559C33.2051 16.2559 31.6816 16.5371 30.498 17.0996C29.3262 17.6621 28.4473 18.4941 27.8613 19.5957C27.2754 20.6973 26.9297 22.2617 26.8242 24.2891H27.0527C28.2129 22.2969 30.0703 21.3008 32.625 21.3008C34.9219 21.3008 36.7207 22.0215 38.0215 23.4629C39.3223 24.9043 39.9727 26.8965 39.9727 29.4395C39.9727 32.1816 39.1992 34.3555 37.6523 35.9609C36.1055 37.5547 33.9609 38.3516 31.2188 38.3516C29.3203 38.3516 27.6621 37.9121 26.2441 37.0332C24.8379 36.1543 23.748 34.8711 22.9746 33.1836C22.2129 31.4961 21.832 29.4629 21.832 27.084ZM31.1133 34.0098C32.2734 34.0098 33.1641 33.623 33.7852 32.8496C34.4062 32.0645 34.7168 30.9512 34.7168 29.5098C34.7168 28.2559 34.4238 27.2715 33.8379 26.5566C33.2637 25.8301 32.3906 25.4668 31.2188 25.4668C30.1172 25.4668 29.1738 25.8242 28.3887 26.5391C27.6152 27.2539 27.2285 28.0859 27.2285 29.0352C27.2285 30.4297 27.5918 31.6074 28.3184 32.5684C29.0566 33.5293 29.9883 34.0098 31.1133 34.0098Z" fill="#6832AC"/>
<path d="M17.0508 35.1172L16.2257 34.5522L16.2236 34.5552L17.0508 35.1172ZM3.55078 35.0117L2.72142 35.5704L2.72345 35.5734L3.55078 35.0117ZM3.49805 15.1309L4.3238 15.6949L4.32522 15.6928L3.49805 15.1309ZM16.9805 15.2715L16.1504 15.8292L16.1524 15.8321L16.9805 15.2715ZM7.50586 31.9355L6.57515 32.3015L6.57904 32.3111L7.50586 31.9355ZM12.9902 18.3652L12.0639 18.7421L12.0679 18.7515L12.9902 18.3652ZM7.52344 18.3652L8.45137 18.738L8.45246 18.7353L7.52344 18.3652ZM18.2656 25.1504C18.2656 29.5657 17.5325 32.6438 16.2257 34.5522L17.8759 35.6822C19.5221 33.2781 20.2656 29.7117 20.2656 25.1504H18.2656ZM16.2236 34.5552C14.9793 36.3869 13.0592 37.3516 10.2656 37.3516V39.3516C13.5893 39.3516 16.1926 38.16 17.878 35.6791L16.2236 34.5552ZM10.2656 37.3516C7.59256 37.3516 5.68252 36.3712 4.37811 34.45L2.72345 35.5734C4.44248 38.1053 7.00901 39.3516 10.2656 39.3516V37.3516ZM4.38014 34.453C3.04085 32.465 2.30078 29.4113 2.30078 25.1504H0.300781C0.300781 29.5848 1.06071 33.1053 2.72143 35.5704L4.38014 34.453ZM2.30078 25.1504C2.30078 20.6839 3.02939 17.5899 4.3238 15.6949L2.6723 14.5668C1.03702 16.9609 0.300781 20.5465 0.300781 25.1504H2.30078ZM4.32522 15.6928C5.57035 13.86 7.48545 12.8965 10.2656 12.8965V10.8965C6.95205 10.8965 4.35543 12.0892 2.67087 14.5689L4.32522 15.6928ZM10.2656 12.8965C12.9342 12.8965 14.8441 13.8849 16.1504 15.8292L17.8105 14.7138C16.0934 12.1581 13.5267 10.8965 10.2656 10.8965V12.8965ZM16.1524 15.8321C17.5152 17.8448 18.2656 20.9052 18.2656 25.1504H20.2656C20.2656 20.7237 19.4926 17.1981 17.8085 14.7108L16.1524 15.8321ZM5.69727 25.1504C5.69727 28.3179 5.96242 30.7428 6.5752 32.3014L8.43651 31.5696C7.97118 30.3861 7.69727 28.2875 7.69727 25.1504H5.69727ZM6.57904 32.3111C6.90441 33.1141 7.37 33.7928 8.01464 34.2691C8.66819 34.752 9.43561 34.9746 10.2656 34.9746V32.9746C9.80658 32.9746 9.46951 32.8574 9.20313 32.6606C8.92785 32.4572 8.65809 32.1164 8.43267 31.56L6.57904 32.3111ZM10.2656 34.9746C11.0922 34.9746 11.8548 34.7444 12.5037 34.2536C13.1415 33.7711 13.6051 33.0861 13.9341 32.2772L12.0815 31.5236C11.848 32.0975 11.5733 32.4496 11.2971 32.6585C11.032 32.8591 10.7046 32.9746 10.2656 32.9746V34.9746ZM13.9341 32.2772C14.5743 30.7034 14.8516 28.2869 14.8516 25.1504H12.8516C12.8516 28.2483 12.5663 30.3317 12.0815 31.5236L13.9341 32.2772ZM14.8516 25.1504C14.8516 21.9808 14.5691 19.5465 13.9126 17.9789L12.0679 18.7515C12.5598 19.9262 12.8516 22.0152 12.8516 25.1504H14.8516ZM13.9165 17.9884C13.5881 17.181 13.1269 16.4965 12.4929 16.0139C11.8474 15.5225 11.0886 15.291 10.2656 15.291V17.291C10.6966 17.291 11.0188 17.4053 11.2815 17.6052C11.5557 17.814 11.8299 18.1666 12.0639 18.742L13.9165 17.9884ZM10.2656 15.291C9.43543 15.291 8.66934 15.52 8.0188 16.012C7.37881 16.4961 6.91758 17.1839 6.59442 17.9952L8.45246 18.7353C8.68007 18.1638 8.95127 17.8144 9.22534 17.6071C9.48886 17.4078 9.81847 17.291 10.2656 17.291V15.291ZM6.59551 17.9925C5.96818 19.5541 5.69727 21.9822 5.69727 25.1504H7.69727C7.69727 22.0139 7.97713 19.9185 8.45137 18.738L6.59551 17.9925ZM25.0488 15.7285L24.2936 15.073L24.2918 15.0751L25.0488 15.7285ZM38.1621 12.2656H39.1621V11.4548L38.3688 11.2872L38.1621 12.2656ZM38.1621 16.6074L37.9429 17.5831L39.1621 17.8571V16.6074H38.1621ZM30.498 17.0996L30.0688 16.1964L30.0653 16.1981L30.498 17.0996ZM26.8242 24.2891L25.8256 24.2371L25.7708 25.2891H26.8242V24.2891ZM27.0527 24.2891V25.2891H27.6276L27.9169 24.7923L27.0527 24.2891ZM37.6523 35.9609L38.3699 36.6574L38.3725 36.6548L37.6523 35.9609ZM26.2441 37.0332L25.7141 37.8812L25.7173 37.8832L26.2441 37.0332ZM22.9746 33.1836L22.0631 33.595L22.0655 33.6002L22.9746 33.1836ZM33.7852 32.8496L34.5649 33.4758L34.5694 33.47L33.7852 32.8496ZM33.8379 26.5566L33.0533 27.1767L33.0589 27.1837L33.0645 27.1906L33.8379 26.5566ZM28.3887 26.5391L27.7154 25.7996L27.7099 25.8047L28.3887 26.5391ZM28.3184 32.5684L27.5207 33.1715L27.5254 33.1776L28.3184 32.5684ZM22.832 27.084C22.832 22.112 23.8843 18.6079 25.8058 16.3819L24.2918 15.0751C21.9243 17.8179 20.832 21.8841 20.832 27.084H22.832ZM25.804 16.384C27.7165 14.1805 30.6237 13.002 34.7168 13.002V11.002C30.2318 11.002 26.6937 12.3077 24.2936 15.073L25.804 16.384ZM34.7168 13.002C36.1543 13.002 37.2229 13.0893 37.9554 13.244L38.3688 11.2872C37.4373 11.0904 36.209 11.002 34.7168 11.002V13.002ZM37.1621 12.2656V16.6074H39.1621V12.2656H37.1621ZM38.3814 15.6318C37.2699 15.382 36.1651 15.2559 35.0684 15.2559V17.2559C36.0107 17.2559 36.9684 17.3641 37.9429 17.5831L38.3814 15.6318ZM35.0684 15.2559C33.1149 15.2559 31.4308 15.5492 30.0688 16.1964L30.9273 18.0028C31.9325 17.5251 33.2952 17.2559 35.0684 17.2559V15.2559ZM30.0653 16.1981C28.7098 16.8487 27.6689 17.828 26.9785 19.1261L28.7442 20.0653C29.2256 19.1603 29.9426 18.4755 30.9308 18.0011L30.0653 16.1981ZM26.9785 19.1261C26.294 20.4129 25.9344 22.1445 25.8256 24.2371L27.8229 24.341C27.9249 22.3789 28.2568 20.9816 28.7442 20.0653L26.9785 19.1261ZM26.8242 25.2891H27.0527V23.2891H26.8242V25.2891ZM27.9169 24.7923C28.8757 23.1459 30.3797 22.3008 32.625 22.3008V20.3008C29.7609 20.3008 27.5501 21.4479 26.1886 23.7858L27.9169 24.7923ZM32.625 22.3008C34.6955 22.3008 36.2028 22.9402 37.2791 24.1329L38.7639 22.7929C37.2386 21.1028 35.1483 20.3008 32.625 20.3008V22.3008ZM37.2791 24.1329C38.3681 25.3396 38.9727 27.0655 38.9727 29.4395H40.9727C40.9727 26.7275 40.2765 24.469 38.7639 22.7929L37.2791 24.1329ZM38.9727 29.4395C38.9727 31.9857 38.2602 33.8888 36.9322 35.2671L38.3725 36.6548C40.1382 34.8221 40.9727 32.3776 40.9727 29.4395H38.9727ZM36.9348 35.2645C35.6186 36.6205 33.7582 37.3516 31.2188 37.3516V39.3516C34.1637 39.3516 36.5923 38.4889 38.3699 36.6574L36.9348 35.2645ZM31.2188 37.3516C29.4802 37.3516 28.0098 36.9511 26.771 36.1832L25.7173 37.8832C27.3144 38.8731 29.1605 39.3516 31.2188 39.3516V37.3516ZM26.7741 36.1852C25.5531 35.422 24.5857 34.2987 23.8837 32.7669L22.0655 33.6002C22.9104 35.4435 24.1227 36.8866 25.7141 37.8812L26.7741 36.1852ZM23.8861 32.7722C23.1968 31.2453 22.832 29.3599 22.832 27.084H20.832C20.832 29.5659 21.229 31.7469 22.0632 33.595L23.8861 32.7722ZM31.1133 35.0098C32.519 35.0098 33.7207 34.527 34.5649 33.4757L33.0054 32.2235C32.6075 32.7191 32.0278 33.0098 31.1133 33.0098V35.0098ZM34.5694 33.47C35.3801 32.4452 35.7168 31.0801 35.7168 29.5098H33.7168C33.7168 30.8222 33.4324 31.6837 33.0009 32.2292L34.5694 33.47ZM35.7168 29.5098C35.7168 28.107 35.3886 26.871 34.6113 25.9227L33.0645 27.1906C33.4591 27.672 33.7168 28.4047 33.7168 29.5098H35.7168ZM34.6224 25.9366C33.8096 24.9081 32.6077 24.4668 31.2188 24.4668V26.4668C32.1736 26.4668 32.7178 26.7521 33.0533 27.1767L34.6224 25.9366ZM31.2188 24.4668C29.8784 24.4668 28.6922 24.9104 27.7155 25.7996L29.0619 27.2785C29.6555 26.7381 30.356 26.4668 31.2188 26.4668V24.4668ZM27.7099 25.8047C26.7566 26.6858 26.2285 27.7749 26.2285 29.0352H28.2285C28.2285 28.397 28.4739 27.822 29.0674 27.2734L27.7099 25.8047ZM26.2285 29.0352C26.2285 30.6117 26.6428 32.0104 27.5207 33.1715L29.116 31.9653C28.5408 31.2044 28.2285 30.2477 28.2285 29.0352H26.2285ZM27.5254 33.1776C28.4361 34.3629 29.6509 35.0098 31.1133 35.0098V33.0098C30.3257 33.0098 29.6772 32.6957 29.1113 31.9591L27.5254 33.1776Z" fill="#6832AC"/>
<path d="M20.0508 33.1172L19.2257 32.5522L19.2236 32.5552L20.0508 33.1172ZM6.55078 33.0117L5.72142 33.5704L5.72345 33.5734L6.55078 33.0117ZM6.49805 13.1309L7.3238 13.6949L7.32522 13.6928L6.49805 13.1309ZM19.9805 13.2715L19.1504 13.8292L19.1524 13.8321L19.9805 13.2715ZM10.5059 29.9355L9.57515 30.3015L9.57904 30.3111L10.5059 29.9355ZM15.9902 16.3652L15.0639 16.7421L15.0679 16.7515L15.9902 16.3652ZM10.5234 16.3652L11.4514 16.738L11.4525 16.7353L10.5234 16.3652ZM21.2656 23.1504C21.2656 27.5657 20.5325 30.6438 19.2257 32.5522L20.8759 33.6822C22.5221 31.2781 23.2656 27.7117 23.2656 23.1504H21.2656ZM19.2236 32.5552C17.9793 34.3869 16.0592 35.3516 13.2656 35.3516V37.3516C16.5893 37.3516 19.1926 36.16 20.878 33.6791L19.2236 32.5552ZM13.2656 35.3516C10.5926 35.3516 8.68252 34.3712 7.37811 32.45L5.72345 33.5734C7.44248 36.1053 10.009 37.3516 13.2656 37.3516V35.3516ZM7.38014 32.453C6.04085 30.465 5.30078 27.4113 5.30078 23.1504H3.30078C3.30078 27.5848 4.06071 31.1053 5.72143 33.5704L7.38014 32.453ZM5.30078 23.1504C5.30078 18.6839 6.02939 15.5899 7.3238 13.6949L5.6723 12.5668C4.03702 14.9609 3.30078 18.5465 3.30078 23.1504H5.30078ZM7.32522 13.6928C8.57035 11.86 10.4854 10.8965 13.2656 10.8965V8.89648C9.95205 8.89648 7.35543 10.0892 5.67087 12.5689L7.32522 13.6928ZM13.2656 10.8965C15.9342 10.8965 17.8441 11.8849 19.1504 13.8292L20.8105 12.7138C19.0934 10.1581 16.5267 8.89648 13.2656 8.89648V10.8965ZM19.1524 13.8321C20.5152 15.8448 21.2656 18.9052 21.2656 23.1504H23.2656C23.2656 18.7237 22.4926 15.1981 20.8085 12.7108L19.1524 13.8321ZM8.69727 23.1504C8.69727 26.3179 8.96242 28.7428 9.5752 30.3014L11.4365 29.5696C10.9712 28.3861 10.6973 26.2875 10.6973 23.1504H8.69727ZM9.57904 30.3111C9.90441 31.1141 10.37 31.7928 11.0146 32.2691C11.6682 32.752 12.4356 32.9746 13.2656 32.9746V30.9746C12.8066 30.9746 12.4695 30.8574 12.2031 30.6606C11.9279 30.4572 11.6581 30.1164 11.4327 29.56L9.57904 30.3111ZM13.2656 32.9746C14.0922 32.9746 14.8548 32.7444 15.5037 32.2536C16.1415 31.7711 16.6051 31.0861 16.9341 30.2772L15.0815 29.5236C14.848 30.0975 14.5733 30.4496 14.2971 30.6585C14.032 30.8591 13.7046 30.9746 13.2656 30.9746V32.9746ZM16.9341 30.2772C17.5743 28.7034 17.8516 26.2869 17.8516 23.1504H15.8516C15.8516 26.2483 15.5663 28.3317 15.0815 29.5236L16.9341 30.2772ZM17.8516 23.1504C17.8516 19.9808 17.5691 17.5465 16.9126 15.9789L15.0679 16.7515C15.5598 17.9262 15.8516 20.0152 15.8516 23.1504H17.8516ZM16.9165 15.9884C16.5881 15.181 16.1269 14.4965 15.4929 14.0139C14.8474 13.5225 14.0886 13.291 13.2656 13.291V15.291C13.6966 15.291 14.0188 15.4053 14.2815 15.6052C14.5557 15.814 14.8299 16.1666 15.0639 16.742L16.9165 15.9884ZM13.2656 13.291C12.4354 13.291 11.6693 13.52 11.0188 14.012C10.3788 14.4961 9.91758 15.1839 9.59442 15.9952L11.4525 16.7353C11.6801 16.1638 11.9513 15.8144 12.2253 15.6071C12.4889 15.4078 12.8185 15.291 13.2656 15.291V13.291ZM9.59551 15.9925C8.96818 17.5541 8.69727 19.9822 8.69727 23.1504H10.6973C10.6973 20.0139 10.9771 17.9185 11.4514 16.738L9.59551 15.9925ZM28.0488 13.7285L27.2936 13.073L27.2918 13.0751L28.0488 13.7285ZM41.1621 10.2656H42.1621V9.45482L41.3688 9.28722L41.1621 10.2656ZM41.1621 14.6074L40.9429 15.5831L42.1621 15.8571V14.6074H41.1621ZM33.498 15.0996L33.0688 14.1964L33.0653 14.1981L33.498 15.0996ZM29.8242 22.2891L28.8256 22.2371L28.7708 23.2891H29.8242V22.2891ZM30.0527 22.2891V23.2891H30.6276L30.9169 22.7923L30.0527 22.2891ZM40.6523 33.9609L41.3699 34.6574L41.3725 34.6548L40.6523 33.9609ZM29.2441 35.0332L28.7141 35.8812L28.7173 35.8832L29.2441 35.0332ZM25.9746 31.1836L25.0631 31.595L25.0655 31.6002L25.9746 31.1836ZM36.7852 30.8496L37.5649 31.4758L37.5694 31.47L36.7852 30.8496ZM36.8379 24.5566L36.0533 25.1767L36.0589 25.1837L36.0645 25.1906L36.8379 24.5566ZM31.3887 24.5391L30.7154 23.7996L30.7099 23.8047L31.3887 24.5391ZM31.3184 30.5684L30.5207 31.1715L30.5254 31.1776L31.3184 30.5684ZM25.832 25.084C25.832 20.112 26.8843 16.6079 28.8058 14.3819L27.2918 13.0751C24.9243 15.8179 23.832 19.8841 23.832 25.084H25.832ZM28.804 14.384C30.7165 12.1805 33.6237 11.002 37.7168 11.002V9.00195C33.2318 9.00195 29.6937 10.3077 27.2936 13.073L28.804 14.384ZM37.7168 11.002C39.1543 11.002 40.2229 11.0893 40.9554 11.244L41.3688 9.28722C40.4373 9.09042 39.209 9.00195 37.7168 9.00195V11.002ZM40.1621 10.2656V14.6074H42.1621V10.2656H40.1621ZM41.3814 13.6318C40.2699 13.382 39.1651 13.2559 38.0684 13.2559V15.2559C39.0107 15.2559 39.9684 15.3641 40.9429 15.5831L41.3814 13.6318ZM38.0684 13.2559C36.1149 13.2559 34.4308 13.5492 33.0688 14.1964L33.9273 16.0028C34.9325 15.5251 36.2952 15.2559 38.0684 15.2559V13.2559ZM33.0653 14.1981C31.7098 14.8487 30.6689 15.828 29.9785 17.1261L31.7442 18.0653C32.2256 17.1603 32.9426 16.4755 33.9308 16.0011L33.0653 14.1981ZM29.9785 17.1261C29.294 18.4129 28.9344 20.1445 28.8256 22.2371L30.8229 22.341C30.9249 20.3789 31.2568 18.9816 31.7442 18.0653L29.9785 17.1261ZM29.8242 23.2891H30.0527V21.2891H29.8242V23.2891ZM30.9169 22.7923C31.8757 21.1459 33.3797 20.3008 35.625 20.3008V18.3008C32.7609 18.3008 30.5501 19.4479 29.1886 21.7858L30.9169 22.7923ZM35.625 20.3008C37.6955 20.3008 39.2028 20.9402 40.2791 22.1329L41.7639 20.7929C40.2386 19.1028 38.1483 18.3008 35.625 18.3008V20.3008ZM40.2791 22.1329C41.3681 23.3396 41.9727 25.0655 41.9727 27.4395H43.9727C43.9727 24.7275 43.2765 22.469 41.7639 20.7929L40.2791 22.1329ZM41.9727 27.4395C41.9727 29.9857 41.2602 31.8888 39.9322 33.2671L41.3725 34.6548C43.1382 32.8221 43.9727 30.3776 43.9727 27.4395H41.9727ZM39.9348 33.2645C38.6186 34.6205 36.7582 35.3516 34.2188 35.3516V37.3516C37.1637 37.3516 39.5923 36.4889 41.3699 34.6574L39.9348 33.2645ZM34.2188 35.3516C32.4802 35.3516 31.0098 34.9511 29.771 34.1832L28.7173 35.8832C30.3144 36.8731 32.1605 37.3516 34.2188 37.3516V35.3516ZM29.7741 34.1852C28.5531 33.422 27.5857 32.2987 26.8837 30.7669L25.0655 31.6002C25.9104 33.4435 27.1227 34.8866 28.7141 35.8812L29.7741 34.1852ZM26.8861 30.7722C26.1968 29.2453 25.832 27.3599 25.832 25.084H23.832C23.832 27.5659 24.229 29.7469 25.0632 31.595L26.8861 30.7722ZM34.1133 33.0098C35.519 33.0098 36.7207 32.527 37.5649 31.4757L36.0054 30.2235C35.6075 30.7191 35.0278 31.0098 34.1133 31.0098V33.0098ZM37.5694 31.47C38.3801 30.4452 38.7168 29.0801 38.7168 27.5098H36.7168C36.7168 28.8222 36.4324 29.6837 36.0009 30.2292L37.5694 31.47ZM38.7168 27.5098C38.7168 26.107 38.3886 24.871 37.6113 23.9227L36.0645 25.1906C36.4591 25.672 36.7168 26.4047 36.7168 27.5098H38.7168ZM37.6224 23.9366C36.8096 22.9081 35.6077 22.4668 34.2188 22.4668V24.4668C35.1736 24.4668 35.7178 24.7521 36.0533 25.1767L37.6224 23.9366ZM34.2188 22.4668C32.8784 22.4668 31.6922 22.9104 30.7155 23.7996L32.0619 25.2785C32.6555 24.7381 33.356 24.4668 34.2188 24.4668V22.4668ZM30.7099 23.8047C29.7566 24.6858 29.2285 25.7749 29.2285 27.0352H31.2285C31.2285 26.397 31.4739 25.822 32.0674 25.2734L30.7099 23.8047ZM29.2285 27.0352C29.2285 28.6117 29.6428 30.0104 30.5207 31.1715L32.116 29.9653C31.5408 29.2044 31.2285 28.2477 31.2285 27.0352H29.2285ZM30.5254 31.1776C31.4361 32.3629 32.6509 33.0098 34.1133 33.0098V31.0098C33.3257 31.0098 32.6772 30.6957 32.1113 29.9591L30.5254 31.1776Z" fill="#6832AC"/>
</svg>
