<svg width="45" height="47" viewBox="0 0 45 47" fill="none" xmlns="http://www.w3.org/2000/svg">
<path d="M19.2656 25.1504C19.2656 29.6387 18.5273 32.9609 17.0508 35.1172C15.5859 37.2734 13.3242 38.3516 10.2656 38.3516C7.30078 38.3516 5.0625 37.2383 3.55078 35.0117C2.05078 32.7852 1.30078 29.498 1.30078 25.1504C1.30078 20.6152 2.0332 17.2754 3.49805 15.1309C4.96289 12.9746 7.21875 11.8965 10.2656 11.8965C13.2305 11.8965 15.4688 13.0215 16.9805 15.2715C18.5039 17.5215 19.2656 20.8145 19.2656 25.1504ZM6.69727 25.1504C6.69727 28.3027 6.9668 30.5645 7.50586 31.9355C8.05664 33.2949 8.97656 33.9746 10.2656 33.9746C11.5312 33.9746 12.4453 33.2832 13.0078 31.9004C13.5703 30.5176 13.8516 28.2676 13.8516 25.1504C13.8516 21.998 13.5645 19.7363 12.9902 18.3652C12.4277 16.9824 11.5195 16.291 10.2656 16.291C8.98828 16.291 8.07422 16.9824 7.52344 18.3652C6.97266 19.7363 6.69727 21.998 6.69727 25.1504ZM24.5566 38L34.207 16.9062H21.5332V12.3359H39.9727V15.7461L30.252 38H24.5566Z" fill="#6832AC"/>
<path d="M17.0508 35.1172L16.2257 34.5522L16.2236 34.5552L17.0508 35.1172ZM3.55078 35.0117L2.72142 35.5704L2.72345 35.5734L3.55078 35.0117ZM3.49805 15.1309L4.3238 15.6949L4.32522 15.6928L3.49805 15.1309ZM16.9805 15.2715L16.1504 15.8292L16.1524 15.8321L16.9805 15.2715ZM7.50586 31.9355L6.57515 32.3015L6.57904 32.3111L7.50586 31.9355ZM12.9902 18.3652L12.0639 18.7421L12.0679 18.7515L12.9902 18.3652ZM7.52344 18.3652L8.45137 18.738L8.45246 18.7353L7.52344 18.3652ZM18.2656 25.1504C18.2656 29.5657 17.5325 32.6438 16.2257 34.5522L17.8759 35.6822C19.5221 33.2781 20.2656 29.7117 20.2656 25.1504H18.2656ZM16.2236 34.5552C14.9793 36.3869 13.0592 37.3516 10.2656 37.3516V39.3516C13.5893 39.3516 16.1926 38.16 17.878 35.6791L16.2236 34.5552ZM10.2656 37.3516C7.59256 37.3516 5.68252 36.3712 4.37811 34.45L2.72345 35.5734C4.44248 38.1053 7.00901 39.3516 10.2656 39.3516V37.3516ZM4.38014 34.453C3.04085 32.465 2.30078 29.4113 2.30078 25.1504H0.300781C0.300781 29.5848 1.06071 33.1053 2.72143 35.5704L4.38014 34.453ZM2.30078 25.1504C2.30078 20.6839 3.02939 17.5899 4.3238 15.6949L2.6723 14.5668C1.03702 16.9609 0.300781 20.5465 0.300781 25.1504H2.30078ZM4.32522 15.6928C5.57035 13.86 7.48545 12.8965 10.2656 12.8965V10.8965C6.95205 10.8965 4.35543 12.0892 2.67087 14.5689L4.32522 15.6928ZM10.2656 12.8965C12.9342 12.8965 14.8441 13.8849 16.1504 15.8292L17.8105 14.7138C16.0934 12.1581 13.5267 10.8965 10.2656 10.8965V12.8965ZM16.1524 15.8321C17.5152 17.8448 18.2656 20.9052 18.2656 25.1504H20.2656C20.2656 20.7237 19.4926 17.1981 17.8085 14.7108L16.1524 15.8321ZM5.69727 25.1504C5.69727 28.3179 5.96242 30.7428 6.5752 32.3014L8.43651 31.5696C7.97118 30.3861 7.69727 28.2875 7.69727 25.1504H5.69727ZM6.57904 32.3111C6.90441 33.1141 7.37 33.7928 8.01464 34.2691C8.66819 34.752 9.43561 34.9746 10.2656 34.9746V32.9746C9.80658 32.9746 9.46951 32.8574 9.20313 32.6606C8.92785 32.4572 8.65809 32.1164 8.43267 31.56L6.57904 32.3111ZM10.2656 34.9746C11.0922 34.9746 11.8548 34.7444 12.5037 34.2536C13.1415 33.7711 13.6051 33.0861 13.9341 32.2772L12.0815 31.5236C11.848 32.0975 11.5733 32.4496 11.2971 32.6585C11.032 32.8591 10.7046 32.9746 10.2656 32.9746V34.9746ZM13.9341 32.2772C14.5743 30.7034 14.8516 28.2869 14.8516 25.1504H12.8516C12.8516 28.2483 12.5663 30.3317 12.0815 31.5236L13.9341 32.2772ZM14.8516 25.1504C14.8516 21.9808 14.5691 19.5465 13.9126 17.9789L12.0679 18.7515C12.5598 19.9262 12.8516 22.0152 12.8516 25.1504H14.8516ZM13.9165 17.9884C13.5881 17.181 13.1269 16.4965 12.4929 16.0139C11.8474 15.5225 11.0886 15.291 10.2656 15.291V17.291C10.6966 17.291 11.0188 17.4053 11.2815 17.6052C11.5557 17.814 11.8299 18.1666 12.0639 18.742L13.9165 17.9884ZM10.2656 15.291C9.43543 15.291 8.66934 15.52 8.0188 16.012C7.37881 16.4961 6.91758 17.1839 6.59442 17.9952L8.45246 18.7353C8.68007 18.1638 8.95127 17.8144 9.22534 17.6071C9.48886 17.4078 9.81847 17.291 10.2656 17.291V15.291ZM6.59551 17.9925C5.96818 19.5541 5.69727 21.9822 5.69727 25.1504H7.69727C7.69727 22.0139 7.97713 19.9185 8.45137 18.738L6.59551 17.9925ZM24.5566 38L23.6473 37.584L22.9995 39H24.5566V38ZM34.207 16.9062L35.1164 17.3223L35.7642 15.9062H34.207V16.9062ZM21.5332 16.9062H20.5332V17.9062H21.5332V16.9062ZM21.5332 12.3359V11.3359H20.5332V12.3359H21.5332ZM39.9727 12.3359H40.9727V11.3359H39.9727V12.3359ZM39.9727 15.7461L40.889 16.1464L40.9727 15.955V15.7461H39.9727ZM30.252 38V39H30.9064L31.1683 38.4003L30.252 38ZM25.466 38.416L35.1164 17.3223L33.2977 16.4902L23.6473 37.584L25.466 38.416ZM34.207 15.9062H21.5332V17.9062H34.207V15.9062ZM22.5332 16.9062V12.3359H20.5332V16.9062H22.5332ZM21.5332 13.3359H39.9727V11.3359H21.5332V13.3359ZM38.9727 12.3359V15.7461H40.9727V12.3359H38.9727ZM39.0563 15.3458L29.3356 37.5997L31.1683 38.4003L40.889 16.1464L39.0563 15.3458ZM30.252 37H24.5566V39H30.252V37Z" fill="#6832AC"/>
<path d="M20.0508 33.1172L19.2257 32.5522L19.2236 32.5552L20.0508 33.1172ZM6.55078 33.0117L5.72142 33.5704L5.72345 33.5734L6.55078 33.0117ZM6.49805 13.1309L7.3238 13.6949L7.32522 13.6928L6.49805 13.1309ZM19.9805 13.2715L19.1504 13.8292L19.1524 13.8321L19.9805 13.2715ZM10.5059 29.9355L9.57515 30.3015L9.57904 30.3111L10.5059 29.9355ZM15.9902 16.3652L15.0639 16.7421L15.0679 16.7515L15.9902 16.3652ZM10.5234 16.3652L11.4514 16.738L11.4525 16.7353L10.5234 16.3652ZM21.2656 23.1504C21.2656 27.5657 20.5325 30.6438 19.2257 32.5522L20.8759 33.6822C22.5221 31.2781 23.2656 27.7117 23.2656 23.1504H21.2656ZM19.2236 32.5552C17.9793 34.3869 16.0592 35.3516 13.2656 35.3516V37.3516C16.5893 37.3516 19.1926 36.16 20.878 33.6791L19.2236 32.5552ZM13.2656 35.3516C10.5926 35.3516 8.68252 34.3712 7.37811 32.45L5.72345 33.5734C7.44248 36.1053 10.009 37.3516 13.2656 37.3516V35.3516ZM7.38014 32.453C6.04085 30.465 5.30078 27.4113 5.30078 23.1504H3.30078C3.30078 27.5848 4.06071 31.1053 5.72143 33.5704L7.38014 32.453ZM5.30078 23.1504C5.30078 18.6839 6.02939 15.5899 7.3238 13.6949L5.6723 12.5668C4.03702 14.9609 3.30078 18.5465 3.30078 23.1504H5.30078ZM7.32522 13.6928C8.57035 11.86 10.4854 10.8965 13.2656 10.8965V8.89648C9.95205 8.89648 7.35543 10.0892 5.67087 12.5689L7.32522 13.6928ZM13.2656 10.8965C15.9342 10.8965 17.8441 11.8849 19.1504 13.8292L20.8105 12.7138C19.0934 10.1581 16.5267 8.89648 13.2656 8.89648V10.8965ZM19.1524 13.8321C20.5152 15.8448 21.2656 18.9052 21.2656 23.1504H23.2656C23.2656 18.7237 22.4926 15.1981 20.8085 12.7108L19.1524 13.8321ZM8.69727 23.1504C8.69727 26.3179 8.96242 28.7428 9.5752 30.3014L11.4365 29.5696C10.9712 28.3861 10.6973 26.2875 10.6973 23.1504H8.69727ZM9.57904 30.3111C9.90441 31.1141 10.37 31.7928 11.0146 32.2691C11.6682 32.752 12.4356 32.9746 13.2656 32.9746V30.9746C12.8066 30.9746 12.4695 30.8574 12.2031 30.6606C11.9279 30.4572 11.6581 30.1164 11.4327 29.56L9.57904 30.3111ZM13.2656 32.9746C14.0922 32.9746 14.8548 32.7444 15.5037 32.2536C16.1415 31.7711 16.6051 31.0861 16.9341 30.2772L15.0815 29.5236C14.848 30.0975 14.5733 30.4496 14.2971 30.6585C14.032 30.8591 13.7046 30.9746 13.2656 30.9746V32.9746ZM16.9341 30.2772C17.5743 28.7034 17.8516 26.2869 17.8516 23.1504H15.8516C15.8516 26.2483 15.5663 28.3317 15.0815 29.5236L16.9341 30.2772ZM17.8516 23.1504C17.8516 19.9808 17.5691 17.5465 16.9126 15.9789L15.0679 16.7515C15.5598 17.9262 15.8516 20.0152 15.8516 23.1504H17.8516ZM16.9165 15.9884C16.5881 15.181 16.1269 14.4965 15.4929 14.0139C14.8474 13.5225 14.0886 13.291 13.2656 13.291V15.291C13.6966 15.291 14.0188 15.4053 14.2815 15.6052C14.5557 15.814 14.8299 16.1666 15.0639 16.742L16.9165 15.9884ZM13.2656 13.291C12.4354 13.291 11.6693 13.52 11.0188 14.012C10.3788 14.4961 9.91758 15.1839 9.59442 15.9952L11.4525 16.7353C11.6801 16.1638 11.9513 15.8144 12.2253 15.6071C12.4889 15.4078 12.8185 15.291 13.2656 15.291V13.291ZM9.59551 15.9925C8.96818 17.5541 8.69727 19.9822 8.69727 23.1504H10.6973C10.6973 20.0139 10.9771 17.9185 11.4514 16.738L9.59551 15.9925ZM27.5566 36L26.6473 35.584L25.9995 37H27.5566V36ZM37.207 14.9062L38.1164 15.3223L38.7642 13.9062H37.207V14.9062ZM24.5332 14.9062H23.5332V15.9062H24.5332V14.9062ZM24.5332 10.3359V9.33594H23.5332V10.3359H24.5332ZM42.9727 10.3359H43.9727V9.33594H42.9727V10.3359ZM42.9727 13.7461L43.889 14.1464L43.9727 13.955V13.7461H42.9727ZM33.252 36V37H33.9064L34.1683 36.4003L33.252 36ZM28.466 36.416L38.1164 15.3223L36.2977 14.4902L26.6473 35.584L28.466 36.416ZM37.207 13.9062H24.5332V15.9062H37.207V13.9062ZM25.5332 14.9062V10.3359H23.5332V14.9062H25.5332ZM24.5332 11.3359H42.9727V9.33594H24.5332V11.3359ZM41.9727 10.3359V13.7461H43.9727V10.3359H41.9727ZM42.0563 13.3458L32.3356 35.5997L34.1683 36.4003L43.889 14.1464L42.0563 13.3458ZM33.252 35H27.5566V37H33.252V35Z" fill="#6832AC"/>
</svg>
