<svg width="10" height="18" viewBox="0 0 10 18" fill="none" xmlns="http://www.w3.org/2000/svg">
<path d="M2.08332 17.1668C1.80099 17.1673 1.52738 17.0724 1.30999 16.8984C1.18763 16.8005 1.08649 16.6802 1.01236 16.5445C0.938225 16.4087 0.892555 16.2602 0.877963 16.1074C0.863372 15.9546 0.880146 15.8005 0.927324 15.654C0.974503 15.5074 1.05116 15.3713 1.1529 15.2534L6.56624 9.00009L1.34624 2.73509C1.24587 2.61576 1.17091 2.47845 1.12568 2.33105C1.08045 2.18365 1.06584 2.02908 1.08268 1.87621C1.09952 1.72335 1.14749 1.5752 1.22383 1.44029C1.30016 1.30538 1.40336 1.18637 1.52749 1.09009C1.65251 0.983884 1.79892 0.903772 1.95753 0.854785C2.11613 0.805798 2.28352 0.788993 2.44917 0.805426C2.61483 0.821858 2.77517 0.871173 2.92015 0.950275C3.06513 1.02938 3.19161 1.13656 3.29165 1.26509L9.1279 8.26509C9.30563 8.47385 9.40279 8.7357 9.40279 9.00593C9.40279 9.27616 9.30563 9.538 9.1279 9.74676L3.08624 16.7468C2.96502 16.8879 2.81104 16.9996 2.63678 17.0725C2.46253 17.1455 2.27291 17.1778 2.08332 17.1668Z" fill="#F5F5F5"/>
</svg>
