<svg width="206" height="233" viewBox="0 0 206 233" fill="none" xmlns="http://www.w3.org/2000/svg">
<path d="M276 64.6703C276 140.626 214.138 202.341 138 202.341C61.8621 202.341 0 140.626 0 64.6703C0 -11.2857 61.8621 -73 138 -73C214.138 -73 276 -11.2857 276 64.6703Z" fill="#FFBB00"/>
<path d="M73.1638 10.511C72.1724 10.511 71.3793 10.1154 70.5862 9.52201C69.9914 8.9286 69.5948 7.93959 69.5948 6.95058C69.5948 5.96157 69.9914 5.17037 70.5862 4.37916C71.9742 2.99454 74.3535 2.99454 75.5431 4.37916C76.1379 4.97256 76.5345 5.96157 76.5345 6.95058C76.5345 7.93959 76.1379 8.7308 75.5431 9.52201C74.9483 10.1154 74.1552 10.511 73.1638 10.511Z" fill="#FF2F8B"/>
<path d="M250.621 6.95057C250.621 4.97255 252.207 3.39014 254.19 3.39014C256.172 3.39014 257.759 4.97255 257.759 6.95057C257.759 8.92859 256.172 10.511 254.19 10.511C252.405 10.511 250.819 8.92859 250.621 6.95057ZM232.578 6.95057C232.578 4.97255 234.164 3.39014 236.147 3.39014C238.129 3.39014 239.716 4.97255 239.716 6.95057C239.716 8.92859 238.129 10.511 236.147 10.511C234.164 10.511 232.578 8.92859 232.578 6.95057ZM214.534 6.95057C214.534 4.97255 216.121 3.39014 218.103 3.39014C220.086 3.39014 221.672 4.97255 221.672 6.95057C221.672 8.92859 220.086 10.511 218.103 10.511C216.121 10.511 214.534 8.92859 214.534 6.95057ZM196.491 6.95057C196.491 4.97255 198.078 3.39014 200.06 3.39014C202.043 3.39014 203.629 4.97255 203.629 6.95057C203.629 8.92859 202.043 10.511 200.06 10.511C197.879 10.511 196.491 8.92859 196.491 6.95057ZM178.25 6.95057C178.25 4.97255 179.836 3.39014 181.819 3.39014C183.802 3.39014 185.388 4.97255 185.388 6.95057C185.388 8.92859 183.802 10.511 181.819 10.511C179.836 10.511 178.25 8.92859 178.25 6.95057ZM160.207 6.95057C160.207 4.97255 161.793 3.39014 163.776 3.39014C165.759 3.39014 167.345 4.97255 167.345 6.95057C167.345 8.92859 165.759 10.511 163.776 10.511C161.793 10.511 160.207 8.92859 160.207 6.95057ZM141.966 6.95057C141.966 4.97255 143.552 3.39014 145.534 3.39014C147.517 3.39014 149.103 4.97255 149.103 6.95057C149.103 8.92859 147.517 10.511 145.534 10.511C143.75 10.511 141.966 8.92859 141.966 6.95057ZM123.922 6.95057C123.922 4.97255 125.509 3.39014 127.491 3.39014C129.474 3.39014 131.06 4.97255 131.06 6.95057C131.06 8.92859 129.474 10.511 127.491 10.511C125.509 10.511 123.922 8.92859 123.922 6.95057ZM105.879 6.95057C105.879 4.97255 107.466 3.39014 109.448 3.39014C111.431 3.39014 113.017 4.97255 113.017 6.95057C113.017 8.92859 111.431 10.511 109.448 10.511C107.466 10.511 105.879 8.92859 105.879 6.95057ZM87.6379 6.95057C87.6379 4.97255 89.2241 3.39014 91.2069 3.39014C93.1897 3.39014 94.7759 4.97255 94.7759 6.95057C94.7759 8.92859 93.1897 10.511 91.2069 10.511C89.2241 10.511 87.6379 8.92859 87.6379 6.95057Z" fill="#FF2F8B"/>
<path d="M73.1638 30.0934C72.1724 30.0934 71.3793 29.6978 70.5862 29.1044C69.9914 28.511 69.5948 27.522 69.5948 26.533C69.5948 25.544 69.9914 24.7528 70.5862 23.9616C71.9742 22.5769 74.3535 22.5769 75.5431 23.9616C76.1379 24.555 76.5345 25.544 76.5345 26.533C76.5345 27.522 76.1379 28.3132 75.5431 29.1044C74.9483 29.6978 74.1552 30.0934 73.1638 30.0934Z" fill="#FF2F8B"/>
<path d="M250.621 26.533C250.621 24.5549 252.207 22.9725 254.19 22.9725C256.172 22.9725 257.759 24.5549 257.759 26.533C257.759 28.511 256.172 30.0934 254.19 30.0934C252.405 30.0934 250.621 28.511 250.621 26.533ZM232.578 26.533C232.578 24.5549 234.164 22.9725 236.147 22.9725C238.129 22.9725 239.716 24.5549 239.716 26.533C239.716 28.511 238.129 30.0934 236.147 30.0934C234.164 30.0934 232.578 28.511 232.578 26.533ZM214.534 26.533C214.534 24.5549 216.121 22.9725 218.103 22.9725C220.086 22.9725 221.672 24.5549 221.672 26.533C221.672 28.511 220.086 30.0934 218.103 30.0934C216.121 30.0934 214.534 28.511 214.534 26.533ZM196.491 26.533C196.491 24.5549 198.078 22.9725 200.06 22.9725C202.043 22.9725 203.629 24.5549 203.629 26.533C203.629 28.511 202.043 30.0934 200.06 30.0934C198.078 30.0934 196.491 28.511 196.491 26.533ZM178.25 26.533C178.25 24.5549 179.836 22.9725 181.819 22.9725C183.802 22.9725 185.388 24.5549 185.388 26.533C185.388 28.511 183.802 30.0934 181.819 30.0934C179.836 30.0934 178.25 28.511 178.25 26.533ZM160.207 26.533C160.207 24.5549 161.793 22.9725 163.776 22.9725C165.759 22.9725 167.345 24.5549 167.345 26.533C167.345 28.511 165.759 30.0934 163.776 30.0934C161.793 30.0934 160.207 28.511 160.207 26.533ZM141.966 26.533C141.966 24.5549 143.552 22.9725 145.534 22.9725C147.517 22.9725 149.103 24.5549 149.103 26.533C149.103 28.511 147.517 30.0934 145.534 30.0934C143.75 30.0934 141.966 28.511 141.966 26.533ZM123.922 26.533C123.922 24.5549 125.509 22.9725 127.491 22.9725C129.474 22.9725 131.06 24.5549 131.06 26.533C131.06 28.511 129.474 30.0934 127.491 30.0934C125.509 30.0934 123.922 28.511 123.922 26.533ZM105.879 26.533C105.879 24.5549 107.466 22.9725 109.448 22.9725C111.431 22.9725 113.017 24.5549 113.017 26.533C113.017 28.511 111.431 30.0934 109.448 30.0934C107.466 30.0934 105.879 28.511 105.879 26.533ZM87.6379 26.533C87.6379 24.5549 89.2241 22.9725 91.2069 22.9725C93.1897 22.9725 94.7759 24.5549 94.7759 26.533C94.7759 28.511 93.1897 30.0934 91.2069 30.0934C89.2241 30.0934 87.6379 28.511 87.6379 26.533Z" fill="#FF2F8B"/>
<path d="M73.1638 48.8847C72.1724 48.8847 71.3793 48.4891 70.5862 47.8957C69.9914 47.3023 69.5948 46.3132 69.5948 45.3242C69.5948 44.3352 69.9914 43.544 70.5862 42.7528C71.9742 41.3682 74.3535 41.3682 75.5431 42.7528C76.1379 43.3462 76.5345 44.3352 76.5345 45.3242C76.5345 46.3132 76.1379 47.1045 75.5431 47.8957C74.9483 48.6869 74.1552 48.8847 73.1638 48.8847Z" fill="#FF2F8B"/>
<path d="M250.621 45.3242C250.621 43.3462 252.207 41.7638 254.19 41.7638C256.172 41.7638 257.759 43.3462 257.759 45.3242C257.759 47.3022 256.172 48.8847 254.19 48.8847C252.405 48.8847 250.621 47.3022 250.621 45.3242ZM232.578 45.3242C232.578 43.3462 234.164 41.7638 236.147 41.7638C238.129 41.7638 239.716 43.3462 239.716 45.3242C239.716 47.3022 238.129 48.8847 236.147 48.8847C234.164 48.8847 232.578 47.3022 232.578 45.3242ZM214.534 45.522C214.534 43.544 216.121 41.9616 218.103 41.9616C220.086 41.9616 221.672 43.544 221.672 45.522C221.672 47.5001 220.086 49.0825 218.103 49.0825C216.121 48.8847 214.534 47.3023 214.534 45.522ZM196.491 45.3242C196.491 43.3462 198.078 41.7638 200.06 41.7638C202.043 41.7638 203.629 43.3462 203.629 45.3242C203.629 47.3022 202.043 48.8847 200.06 48.8847C197.879 48.8847 196.491 47.3022 196.491 45.3242ZM178.25 45.3242C178.25 43.3462 179.836 41.7638 181.819 41.7638C183.802 41.7638 185.388 43.3462 185.388 45.3242C185.388 47.3022 183.802 48.8847 181.819 48.8847C179.836 48.8847 178.25 47.3022 178.25 45.3242ZM160.207 45.3242C160.207 43.3462 161.793 41.7638 163.776 41.7638C165.759 41.7638 167.345 43.3462 167.345 45.3242C167.345 47.3022 165.759 48.8847 163.776 48.8847C161.793 48.8847 160.207 47.3022 160.207 45.3242ZM141.966 45.3242C141.966 43.3462 143.552 41.7638 145.534 41.7638C147.517 41.7638 149.103 43.3462 149.103 45.3242C149.103 47.3022 147.517 48.8847 145.534 48.8847C143.75 48.8847 141.966 47.3022 141.966 45.3242ZM123.922 45.3242C123.922 43.3462 125.509 41.7638 127.491 41.7638C129.474 41.7638 131.06 43.3462 131.06 45.3242C131.06 47.3022 129.474 48.8847 127.491 48.8847C125.509 48.8847 123.922 47.3022 123.922 45.3242ZM105.879 45.3242C105.879 43.3462 107.466 41.7638 109.448 41.7638C111.431 41.7638 113.017 43.3462 113.017 45.3242C113.017 47.3022 111.431 48.8847 109.448 48.8847C107.466 48.8847 105.879 47.3022 105.879 45.3242ZM87.6379 45.3242C87.6379 43.3462 89.2241 41.7638 91.2069 41.7638C93.1897 41.7638 94.7759 43.3462 94.7759 45.3242C94.7759 47.3022 93.1897 48.8847 91.2069 48.8847C89.2241 48.8847 87.6379 47.3022 87.6379 45.3242Z" fill="#FF2F8B"/>
<path d="M73.1638 68.4671C72.1724 68.4671 71.3793 68.0715 70.5862 67.4781C69.9914 66.8847 69.5948 65.8956 69.5948 64.9066C69.5948 63.9176 69.9914 63.1264 70.5862 62.3352C71.9742 60.9506 74.3535 60.9506 75.5431 62.3352C76.1379 62.9286 76.5345 63.9176 76.5345 64.9066C76.5345 65.8956 76.1379 66.6869 75.5431 67.4781C74.9483 68.0715 74.1552 68.4671 73.1638 68.4671Z" fill="#FF2F8B"/>
<path d="M250.621 64.9066C250.621 62.9286 252.207 61.3462 254.19 61.3462C256.172 61.3462 257.759 62.9286 257.759 64.9066C257.759 66.8846 256.172 68.4671 254.19 68.4671C252.405 68.4671 250.621 66.8846 250.621 64.9066ZM232.578 64.9066C232.578 62.9286 234.164 61.3462 236.147 61.3462C238.129 61.3462 239.716 62.9286 239.716 64.9066C239.716 66.8846 238.129 68.4671 236.147 68.4671C234.164 68.4671 232.578 66.8846 232.578 64.9066ZM214.534 64.9066C214.534 62.9286 216.121 61.3462 218.103 61.3462C220.086 61.3462 221.672 62.9286 221.672 64.9066C221.672 66.8846 220.086 68.4671 218.103 68.4671C216.121 68.4671 214.534 66.8846 214.534 64.9066ZM196.491 64.9066C196.491 62.9286 198.078 61.3462 200.06 61.3462C202.043 61.3462 203.629 62.9286 203.629 64.9066C203.629 66.8846 202.043 68.4671 200.06 68.4671C198.078 68.4671 196.491 66.8846 196.491 64.9066ZM178.25 64.9066C178.25 62.9286 179.836 61.3462 181.819 61.3462C183.802 61.3462 185.388 62.9286 185.388 64.9066C185.388 66.8846 183.802 68.4671 181.819 68.4671C179.836 68.4671 178.25 66.8846 178.25 64.9066ZM160.207 64.9066C160.207 62.9286 161.793 61.3462 163.776 61.3462C165.759 61.3462 167.345 62.9286 167.345 64.9066C167.345 66.8846 165.759 68.4671 163.776 68.4671C161.793 68.4671 160.207 66.8846 160.207 64.9066ZM141.966 64.9066C141.966 62.9286 143.552 61.3462 145.534 61.3462C147.517 61.3462 149.103 62.9286 149.103 64.9066C149.103 66.8846 147.517 68.4671 145.534 68.4671C143.75 68.4671 141.966 66.8846 141.966 64.9066ZM123.922 64.9066C123.922 62.9286 125.509 61.3462 127.491 61.3462C129.474 61.3462 131.06 62.9286 131.06 64.9066C131.06 66.8846 129.474 68.4671 127.491 68.4671C125.509 68.4671 123.922 66.8846 123.922 64.9066ZM105.879 64.9066C105.879 62.9286 107.466 61.3462 109.448 61.3462C111.431 61.3462 113.017 62.9286 113.017 64.9066C113.017 66.8846 111.431 68.4671 109.448 68.4671C107.466 68.4671 105.879 66.8846 105.879 64.9066ZM87.6379 64.9066C87.6379 62.9286 89.2241 61.3462 91.2069 61.3462C93.1897 61.3462 94.7759 62.9286 94.7759 64.9066C94.7759 66.8846 93.1897 68.4671 91.2069 68.4671C89.2241 68.4671 87.6379 66.8846 87.6379 64.9066Z" fill="#FF2F8B"/>
<path d="M73.1638 86.2693C72.1724 86.2693 71.3793 85.8737 70.5862 85.2803C69.9914 84.6869 69.5948 83.6979 69.5948 82.7089C69.5948 81.7199 69.9914 80.9287 70.5862 80.1375C71.9742 78.7528 74.3535 78.7528 75.5431 80.1375C76.1379 80.7309 76.5345 81.7199 76.5345 82.7089C76.5345 83.6979 76.1379 84.4891 75.5431 85.2803C74.9483 85.8737 74.1552 86.2693 73.1638 86.2693Z" fill="#FF2F8B"/>
<path d="M250.621 82.7089C250.621 80.7308 252.207 79.1484 254.19 79.1484C256.172 79.1484 257.759 80.7308 257.759 82.7089C257.759 84.6869 256.172 86.2693 254.19 86.2693C252.405 86.2693 250.621 84.6869 250.621 82.7089ZM232.578 82.7089C232.578 80.7308 234.164 79.1484 236.147 79.1484C238.129 79.1484 239.716 80.7308 239.716 82.7089C239.716 84.6869 238.129 86.2693 236.147 86.2693C234.164 86.2693 232.578 84.6869 232.578 82.7089ZM214.534 82.7089C214.534 80.7308 216.121 79.1484 218.103 79.1484C220.086 79.1484 221.672 80.7308 221.672 82.7089C221.672 84.6869 220.086 86.2693 218.103 86.2693C216.121 86.2693 214.534 84.6869 214.534 82.7089ZM196.491 82.7089C196.491 80.7308 198.078 79.1484 200.06 79.1484C202.043 79.1484 203.629 80.7308 203.629 82.7089C203.629 84.6869 202.043 86.2693 200.06 86.2693C198.078 86.2693 196.491 84.6869 196.491 82.7089ZM178.25 82.7089C178.25 80.7308 179.836 79.1484 181.819 79.1484C183.802 79.1484 185.388 80.7308 185.388 82.7089C185.388 84.6869 183.802 86.2693 181.819 86.2693C179.836 86.2693 178.25 84.6869 178.25 82.7089ZM160.207 82.7089C160.207 80.7308 161.793 79.1484 163.776 79.1484C165.759 79.1484 167.345 80.7308 167.345 82.7089C167.345 84.6869 165.759 86.2693 163.776 86.2693C161.793 86.2693 160.207 84.6869 160.207 82.7089ZM141.966 82.7089C141.966 80.7308 143.552 79.1484 145.534 79.1484C147.517 79.1484 149.103 80.7308 149.103 82.7089C149.103 84.6869 147.517 86.2693 145.534 86.2693C143.552 86.2693 141.966 84.6869 141.966 82.7089ZM123.922 82.7089C123.922 80.7308 125.509 79.1484 127.491 79.1484C129.474 79.1484 131.06 80.7308 131.06 82.7089C131.06 84.6869 129.474 86.2693 127.491 86.2693C125.509 86.2693 123.922 84.6869 123.922 82.7089ZM105.879 82.7089C105.879 80.7308 107.466 79.1484 109.448 79.1484C111.431 79.1484 113.017 80.7308 113.017 82.7089C113.017 84.6869 111.431 86.2693 109.448 86.2693C107.466 86.2693 105.879 84.6869 105.879 82.7089ZM87.6379 82.7089C87.6379 80.7308 89.2241 79.1484 91.2069 79.1484C93.1897 79.1484 94.7759 80.7308 94.7759 82.7089C94.7759 84.6869 93.1897 86.2693 91.2069 86.2693C89.2241 86.2693 87.6379 84.6869 87.6379 82.7089Z" fill="#FF2F8B"/>
<path d="M73.1638 105.852C72.1724 105.852 71.3793 105.456 70.5862 104.863C69.9914 104.269 69.5948 103.28 69.5948 102.291C69.5948 101.302 69.9914 100.511 70.5862 99.7199C71.9742 98.3352 74.3535 98.3352 75.5431 99.7199C76.1379 100.313 76.5345 101.302 76.5345 102.291C76.5345 103.28 76.1379 104.072 75.5431 104.863C74.9483 105.456 74.1552 105.852 73.1638 105.852Z" fill="#FF2F8B"/>
<path d="M250.621 102.291C250.621 100.313 252.207 98.7308 254.19 98.7308C256.172 98.7308 257.759 100.313 257.759 102.291C257.759 104.269 256.172 105.852 254.19 105.852C252.405 105.852 250.819 104.269 250.621 102.291ZM232.578 102.291C232.578 100.313 234.164 98.7308 236.147 98.7308C238.129 98.7308 239.716 100.313 239.716 102.291C239.716 104.269 238.129 105.852 236.147 105.852C234.164 105.852 232.578 104.269 232.578 102.291ZM214.534 102.291C214.534 100.313 216.121 98.7308 218.103 98.7308C220.086 98.7308 221.672 100.313 221.672 102.291C221.672 104.269 220.086 105.852 218.103 105.852C216.121 105.852 214.534 104.269 214.534 102.291ZM196.491 102.291C196.491 100.313 198.078 98.7308 200.06 98.7308C202.043 98.7308 203.629 100.313 203.629 102.291C203.629 104.269 202.043 105.852 200.06 105.852C198.078 105.852 196.491 104.269 196.491 102.291ZM178.25 102.291C178.25 100.313 179.836 98.7308 181.819 98.7308C183.802 98.7308 185.388 100.313 185.388 102.291C185.388 104.269 183.802 105.852 181.819 105.852C179.836 105.852 178.25 104.269 178.25 102.291ZM160.207 102.291C160.207 100.313 161.793 98.7308 163.776 98.7308C165.759 98.7308 167.345 100.313 167.345 102.291C167.345 104.269 165.759 105.852 163.776 105.852C161.793 105.852 160.207 104.269 160.207 102.291ZM141.966 102.291C141.966 100.313 143.552 98.7308 145.534 98.7308C147.517 98.7308 149.103 100.313 149.103 102.291C149.103 104.269 147.517 105.852 145.534 105.852C143.75 105.852 141.966 104.269 141.966 102.291ZM123.922 102.291C123.922 100.313 125.509 98.7308 127.491 98.7308C129.474 98.7308 131.06 100.313 131.06 102.291C131.06 104.269 129.474 105.852 127.491 105.852C125.509 105.852 123.922 104.269 123.922 102.291ZM105.879 102.291C105.879 100.313 107.466 98.7308 109.448 98.7308C111.431 98.7308 113.017 100.313 113.017 102.291C113.017 104.269 111.431 105.852 109.448 105.852C107.466 105.852 105.879 104.269 105.879 102.291ZM87.6379 102.291C87.6379 100.313 89.2241 98.7308 91.2069 98.7308C93.1897 98.7308 94.7759 100.313 94.7759 102.291C94.7759 104.269 93.1897 105.852 91.2069 105.852C89.2241 105.852 87.6379 104.269 87.6379 102.291Z" fill="#FF2F8B"/>
<path d="M73.1638 124.643C72.1724 124.643 71.3793 124.247 70.5862 123.654C69.9914 123.06 69.5948 122.071 69.5948 121.082C69.5948 120.093 69.9914 119.302 70.5862 118.511C71.9742 117.126 74.3535 117.126 75.5431 118.511C76.1379 119.104 76.5345 120.093 76.5345 121.082C76.5345 122.071 76.1379 122.863 75.5431 123.654C74.9483 124.247 74.1552 124.643 73.1638 124.643Z" fill="#FF2F8B"/>
<path d="M250.621 121.082C250.621 119.104 252.207 117.522 254.19 117.522C256.172 117.522 257.759 119.104 257.759 121.082C257.759 123.06 256.172 124.643 254.19 124.643C252.405 124.643 250.819 123.06 250.621 121.082ZM232.578 121.082C232.578 119.104 234.164 117.522 236.147 117.522C238.129 117.522 239.716 119.104 239.716 121.082C239.716 123.06 238.129 124.643 236.147 124.643C234.164 124.643 232.578 123.06 232.578 121.082ZM214.534 121.082C214.534 119.104 216.121 117.522 218.103 117.522C220.086 117.522 221.672 119.104 221.672 121.082C221.672 123.06 220.086 124.643 218.103 124.643C216.121 124.643 214.534 123.06 214.534 121.082ZM196.491 121.082C196.491 119.104 198.078 117.522 200.06 117.522C202.043 117.522 203.629 119.104 203.629 121.082C203.629 123.06 202.043 124.643 200.06 124.643C198.078 124.643 196.491 123.06 196.491 121.082ZM178.25 121.082C178.25 119.104 179.836 117.522 181.819 117.522C183.802 117.522 185.388 119.104 185.388 121.082C185.388 123.06 183.802 124.643 181.819 124.643C179.836 124.643 178.25 123.06 178.25 121.082ZM160.207 121.082C160.207 119.104 161.793 117.522 163.776 117.522C165.759 117.522 167.345 119.104 167.345 121.082C167.345 123.06 165.759 124.643 163.776 124.643C161.793 124.643 160.207 123.06 160.207 121.082ZM141.966 121.082C141.966 119.104 143.552 117.522 145.534 117.522C147.517 117.522 149.103 119.104 149.103 121.082C149.103 123.06 147.517 124.643 145.534 124.643C143.75 124.643 141.966 123.06 141.966 121.082ZM123.922 121.082C123.922 119.104 125.509 117.522 127.491 117.522C129.474 117.522 131.06 119.104 131.06 121.082C131.06 123.06 129.474 124.643 127.491 124.643C125.509 124.643 123.922 123.06 123.922 121.082ZM105.879 121.082C105.879 119.104 107.466 117.522 109.448 117.522C111.431 117.522 113.017 119.104 113.017 121.082C113.017 123.06 111.431 124.643 109.448 124.643C107.466 124.643 105.879 123.06 105.879 121.082ZM87.6379 121.082C87.6379 119.104 89.2241 117.522 91.2069 117.522C93.1897 117.522 94.7759 119.104 94.7759 121.082C94.7759 123.06 93.1897 124.643 91.2069 124.643C89.2241 124.643 87.6379 123.06 87.6379 121.082Z" fill="#FF2F8B"/>
<path d="M73.1638 144.225C72.1724 144.225 71.3793 143.83 70.5862 143.236C69.9914 142.643 69.5948 141.654 69.5948 140.665C69.5948 139.676 69.9914 138.885 70.5862 138.093C71.9742 136.709 74.3535 136.709 75.5431 138.093C76.1379 138.687 76.5345 139.676 76.5345 140.665C76.5345 141.654 76.1379 142.445 75.5431 143.236C74.9483 143.83 74.1552 144.225 73.1638 144.225Z" fill="#FF2F8B"/>
<path d="M250.621 140.665C250.621 138.687 252.207 137.104 254.19 137.104C256.172 137.104 257.759 138.687 257.759 140.665C257.759 142.643 256.172 144.225 254.19 144.225C252.405 144.225 250.621 142.643 250.621 140.665ZM232.578 140.665C232.578 138.687 234.164 137.104 236.147 137.104C238.129 137.104 239.716 138.687 239.716 140.665C239.716 142.643 238.129 144.225 236.147 144.225C234.164 144.225 232.578 142.643 232.578 140.665ZM214.534 140.665C214.534 138.687 216.121 137.104 218.103 137.104C220.086 137.104 221.672 138.687 221.672 140.665C221.672 142.643 220.086 144.225 218.103 144.225C216.121 144.225 214.534 142.643 214.534 140.665ZM196.491 140.665C196.491 138.687 198.078 137.104 200.06 137.104C202.043 137.104 203.629 138.687 203.629 140.665C203.629 142.643 202.043 144.225 200.06 144.225C197.879 144.225 196.491 142.643 196.491 140.665ZM178.25 140.665C178.25 138.687 179.836 137.104 181.819 137.104C183.802 137.104 185.388 138.687 185.388 140.665C185.388 142.643 183.802 144.225 181.819 144.225C179.836 144.225 178.25 142.643 178.25 140.665ZM160.207 140.665C160.207 138.687 161.793 137.104 163.776 137.104C165.759 137.104 167.345 138.687 167.345 140.665C167.345 142.643 165.759 144.225 163.776 144.225C161.793 144.225 160.207 142.643 160.207 140.665ZM141.966 140.665C141.966 138.687 143.552 137.104 145.534 137.104C147.517 137.104 149.103 138.687 149.103 140.665C149.103 142.643 147.517 144.225 145.534 144.225C143.75 144.225 141.966 142.643 141.966 140.665ZM123.922 140.665C123.922 138.687 125.509 137.104 127.491 137.104C129.474 137.104 131.06 138.687 131.06 140.665C131.06 142.643 129.474 144.225 127.491 144.225C125.509 144.225 123.922 142.643 123.922 140.665ZM105.879 140.665C105.879 138.687 107.466 137.104 109.448 137.104C111.431 137.104 113.017 138.687 113.017 140.665C113.017 142.643 111.431 144.225 109.448 144.225C107.466 144.225 105.879 142.643 105.879 140.665ZM87.6379 140.665C87.6379 138.687 89.2241 137.104 91.2069 137.104C93.1897 137.104 94.7759 138.687 94.7759 140.665C94.7759 142.643 93.1897 144.225 91.2069 144.225C89.2241 144.225 87.6379 142.643 87.6379 140.665Z" fill="#FF2F8B"/>
<path d="M73.1638 164.995C72.1724 164.995 71.3793 164.599 70.5862 164.006C69.9914 163.412 69.5948 162.423 69.5948 161.434C69.5948 160.445 69.9914 159.654 70.5862 158.863C71.9742 157.478 74.3535 157.478 75.5431 158.863C76.1379 159.456 76.5345 160.445 76.5345 161.434C76.5345 162.423 76.1379 163.214 75.5431 164.006C74.9483 164.599 74.1552 164.995 73.1638 164.995Z" fill="#FF2F8B"/>
<path d="M250.621 161.434C250.621 159.456 252.207 157.874 254.19 157.874C256.172 157.874 257.759 159.456 257.759 161.434C257.759 163.412 256.172 164.995 254.19 164.995C252.405 164.995 250.621 163.412 250.621 161.434ZM232.578 161.434C232.578 159.456 234.164 157.874 236.147 157.874C238.129 157.874 239.716 159.456 239.716 161.434C239.716 163.412 238.129 164.995 236.147 164.995C234.164 164.995 232.578 163.412 232.578 161.434ZM214.534 161.434C214.534 159.456 216.121 157.874 218.103 157.874C220.086 157.874 221.672 159.456 221.672 161.434C221.672 163.412 220.086 164.995 218.103 164.995C216.121 164.995 214.534 163.412 214.534 161.434ZM196.491 161.434C196.491 159.456 198.078 157.874 200.06 157.874C202.043 157.874 203.629 159.456 203.629 161.434C203.629 163.412 202.043 164.995 200.06 164.995C198.078 164.995 196.491 163.412 196.491 161.434ZM178.25 161.434C178.25 159.456 179.836 157.874 181.819 157.874C183.802 157.874 185.388 159.456 185.388 161.434C185.388 163.412 183.802 164.995 181.819 164.995C179.836 164.995 178.25 163.412 178.25 161.434ZM160.207 161.434C160.207 159.456 161.793 157.874 163.776 157.874C165.759 157.874 167.345 159.456 167.345 161.434C167.345 163.412 165.759 164.995 163.776 164.995C161.793 164.995 160.207 163.412 160.207 161.434ZM141.966 161.434C141.966 159.456 143.552 157.874 145.534 157.874C147.517 157.874 149.103 159.456 149.103 161.434C149.103 163.412 147.517 164.995 145.534 164.995C143.75 164.995 141.966 163.412 141.966 161.434ZM123.922 161.434C123.922 159.456 125.509 157.874 127.491 157.874C129.474 157.874 131.06 159.456 131.06 161.434C131.06 163.412 129.474 164.995 127.491 164.995C125.509 164.995 123.922 163.412 123.922 161.434ZM105.879 161.434C105.879 159.456 107.466 157.874 109.448 157.874C111.431 157.874 113.017 159.456 113.017 161.434C113.017 163.412 111.431 164.995 109.448 164.995C107.466 164.995 105.879 163.412 105.879 161.434ZM87.6379 161.434C87.6379 159.456 89.2241 157.874 91.2069 157.874C93.1897 157.874 94.7759 159.456 94.7759 161.434C94.7759 163.412 93.1897 164.995 91.2069 164.995C89.2241 164.995 87.6379 163.412 87.6379 161.434Z" fill="#FF2F8B"/>
<path d="M73.1638 184.577C72.1724 184.577 71.3793 184.181 70.5862 183.588C69.9914 182.994 69.5948 182.005 69.5948 181.016C69.5948 180.027 69.9914 179.236 70.5862 178.445C71.9742 177.06 74.3535 177.06 75.5431 178.445C76.1379 179.038 76.5345 180.027 76.5345 181.016C76.5345 182.005 76.1379 182.797 75.5431 183.588C74.9483 184.181 74.1552 184.577 73.1638 184.577Z" fill="#FF2F8B"/>
<path d="M250.621 181.017C250.621 179.038 252.207 177.456 254.19 177.456C256.172 177.456 257.759 179.038 257.759 181.017C257.759 182.995 256.172 184.577 254.19 184.577C252.405 184.577 250.621 182.995 250.621 181.017ZM232.578 181.017C232.578 179.038 234.164 177.456 236.147 177.456C238.129 177.456 239.716 179.038 239.716 181.017C239.716 182.995 238.129 184.577 236.147 184.577C234.164 184.577 232.578 182.995 232.578 181.017ZM214.534 181.017C214.534 179.038 216.121 177.456 218.103 177.456C220.086 177.456 221.672 179.038 221.672 181.017C221.672 182.995 220.086 184.577 218.103 184.577C216.121 184.577 214.534 182.995 214.534 181.017ZM196.491 181.017C196.491 179.038 198.078 177.456 200.06 177.456C202.043 177.456 203.629 179.038 203.629 181.017C203.629 182.995 202.043 184.577 200.06 184.577C198.078 184.577 196.491 182.995 196.491 181.017ZM178.25 181.017C178.25 179.038 179.836 177.456 181.819 177.456C183.802 177.456 185.388 179.038 185.388 181.017C185.388 182.995 183.802 184.577 181.819 184.577C179.836 184.577 178.25 182.995 178.25 181.017ZM160.207 181.017C160.207 179.038 161.793 177.456 163.776 177.456C165.759 177.456 167.345 179.038 167.345 181.017C167.345 182.995 165.759 184.577 163.776 184.577C161.793 184.577 160.207 182.995 160.207 181.017ZM141.966 181.017C141.966 179.038 143.552 177.456 145.534 177.456C147.517 177.456 149.103 179.038 149.103 181.017C149.103 182.995 147.517 184.577 145.534 184.577C143.75 184.577 141.966 182.995 141.966 181.017ZM123.922 181.017C123.922 179.038 125.509 177.456 127.491 177.456C129.474 177.456 131.06 179.038 131.06 181.017C131.06 182.995 129.474 184.577 127.491 184.577C125.509 184.577 123.922 182.995 123.922 181.017ZM105.879 181.017C105.879 179.038 107.466 177.456 109.448 177.456C111.431 177.456 113.017 179.038 113.017 181.017C113.017 182.995 111.431 184.577 109.448 184.577C107.466 184.577 105.879 182.995 105.879 181.017ZM87.6379 181.017C87.6379 179.038 89.2241 177.456 91.2069 177.456C93.1897 177.456 94.7759 179.038 94.7759 181.017C94.7759 182.995 93.1897 184.577 91.2069 184.577C89.2241 184.577 87.6379 182.995 87.6379 181.017Z" fill="#FF2F8B"/>
<path d="M73.1638 203.566C72.1724 203.566 71.3793 203.17 70.5862 202.577C69.9914 201.984 69.5948 200.995 69.5948 200.005C69.5948 199.016 69.9914 198.225 70.5862 197.434C71.9742 196.049 74.3535 196.049 75.5431 197.434C76.1379 198.027 76.5345 199.016 76.5345 200.005C76.5345 200.995 76.1379 201.786 75.5431 202.577C74.9483 203.17 74.1552 203.566 73.1638 203.566Z" fill="#FF2F8B"/>
<path d="M250.621 200.005C250.621 198.027 252.207 196.445 254.19 196.445C256.172 196.445 257.759 198.027 257.759 200.005C257.759 201.983 256.172 203.566 254.19 203.566C252.405 203.566 250.621 201.983 250.621 200.005ZM232.578 200.005C232.578 198.027 234.164 196.445 236.147 196.445C238.129 196.445 239.716 198.027 239.716 200.005C239.716 201.983 238.129 203.566 236.147 203.566C234.164 203.566 232.578 201.983 232.578 200.005ZM214.534 200.005C214.534 198.027 216.121 196.445 218.103 196.445C220.086 196.445 221.672 198.027 221.672 200.005C221.672 201.983 220.086 203.566 218.103 203.566C216.121 203.566 214.534 201.983 214.534 200.005ZM196.491 200.005C196.491 198.027 198.078 196.445 200.06 196.445C202.043 196.445 203.629 198.027 203.629 200.005C203.629 201.983 202.043 203.566 200.06 203.566C198.078 203.566 196.491 201.983 196.491 200.005ZM178.25 200.005C178.25 198.027 179.836 196.445 181.819 196.445C183.802 196.445 185.388 198.027 185.388 200.005C185.388 201.983 183.802 203.566 181.819 203.566C179.836 203.566 178.25 201.983 178.25 200.005ZM160.207 200.005C160.207 198.027 161.793 196.445 163.776 196.445C165.759 196.445 167.345 198.027 167.345 200.005C167.345 201.983 165.759 203.566 163.776 203.566C161.793 203.566 160.207 201.983 160.207 200.005ZM141.966 200.005C141.966 198.027 143.552 196.445 145.534 196.445C147.517 196.445 149.103 198.027 149.103 200.005C149.103 201.983 147.517 203.566 145.534 203.566C143.75 203.566 141.966 201.983 141.966 200.005ZM123.922 200.005C123.922 198.027 125.509 196.445 127.491 196.445C129.474 196.445 131.06 198.027 131.06 200.005C131.06 201.983 129.474 203.566 127.491 203.566C125.509 203.566 123.922 201.983 123.922 200.005ZM105.879 200.005C105.879 198.027 107.466 196.445 109.448 196.445C111.431 196.445 113.017 198.027 113.017 200.005C113.017 201.983 111.431 203.566 109.448 203.566C107.466 203.566 105.879 201.983 105.879 200.005ZM87.6379 200.005C87.6379 198.027 89.2241 196.445 91.2069 196.445C93.1897 196.445 94.7759 198.027 94.7759 200.005C94.7759 201.983 93.1897 203.566 91.2069 203.566C89.2241 203.566 87.6379 201.983 87.6379 200.005Z" fill="#FF2F8B"/>
</svg>
