<svg width="111" height="168" viewBox="0 0 111 168" fill="none" xmlns="http://www.w3.org/2000/svg">
<g clip-path="url(#clip0)">
<path d="M19.259 123.3C-9.42851 123.3 -34.5301 102.9 -40.5066 75C-44.0926 58.8 -41.1043 42.3 -32.1394 28.5C-23.1746 14.7 -9.72733 5.1 6.40939 1.5C10.8918 0.6 15.3742 0 19.5578 0C48.2453 0 73.3469 20.4 79.3235 48.3C82.9094 64.5 79.9211 81 70.9563 94.8C61.9914 108.6 48.5442 118.2 32.4074 121.8C28.2238 122.7 23.7414 123.3 19.259 123.3ZM19.5578 5.1C15.3742 5.1 11.4895 5.4 7.30587 6.3C-7.33671 9.6 -19.8875 18.3 -27.9559 31.2C-36.323 43.8 -39.0125 59.1 -35.7254 73.8C-30.0476 99.6 -7.03788 118.2 19.259 118.2C23.4426 118.2 27.3274 117.6 31.511 117C46.1535 113.7 58.7043 105 66.7727 92.1C74.841 79.5 77.5305 64.2 74.2434 49.5C68.8645 23.7 45.8547 5.1 19.5578 5.1Z" fill="#01A6FF"/>
<path d="M101.139 149.7L50.0391 168L8.80078 132.6L18.6621 79.2L69.7617 61.2L111 96.2999L101.139 149.7Z" fill="#D4FF00"/>
</g>
<defs>
<clipPath id="clip0">
<rect width="153" height="168" fill="white" transform="translate(-42)"/>
</clipPath>
</defs>
</svg>
