<svg width="79" height="140" viewBox="0 0 79 140" fill="none" xmlns="http://www.w3.org/2000/svg">
<path d="M74.6873 109.455C77.0397 109.455 79 111.413 79 113.762C79 116.112 77.0397 118.07 74.6873 118.07C72.335 118.07 70.3747 116.112 70.3747 113.762C70.3747 111.413 72.335 109.455 74.6873 109.455ZM74.6873 87.5245C77.0397 87.5245 79 89.4825 79 91.8322C79 94.1818 77.0397 96.1399 74.6873 96.1399C72.335 96.1399 70.3747 94.1818 70.3747 91.8322C70.3747 89.4825 72.335 87.5245 74.6873 87.5245ZM74.6873 65.7902C77.0397 65.7902 79 67.7482 79 70.0979C79 72.4475 77.0397 74.4056 74.6873 74.4056C72.335 74.4056 70.3747 72.4475 70.3747 70.0979C70.3747 67.5524 72.335 65.7902 74.6873 65.7902ZM74.6873 43.8601C77.0397 43.8601 79 45.8182 79 48.1678C79 50.5175 77.0397 52.4755 74.6873 52.4755C72.335 52.4755 70.3747 50.5175 70.3747 48.1678C70.3747 45.6224 72.335 43.8601 74.6873 43.8601ZM74.6873 21.9301C77.0397 21.9301 79 23.8881 79 26.2378C79 28.5874 77.0397 30.5455 74.6873 30.5455C72.335 30.5455 70.3747 28.5874 70.3747 26.2378C70.3747 23.8881 72.335 21.9301 74.6873 21.9301ZM74.6873 0C77.0397 0 79 1.95804 79 4.30769C79 6.65734 77.0397 8.61538 74.6873 8.61538C72.335 8.61538 70.3747 6.65734 70.3747 4.30769C70.3747 1.95804 72.335 0 74.6873 0Z" fill="#FFBB00"/>
<path d="M70.3747 135.692C70.3747 134.518 70.7667 133.538 71.7469 132.755C72.531 131.972 73.7072 131.385 74.6873 131.385C75.8635 131.385 76.8437 131.776 77.6278 132.755C79.196 134.322 79.196 137.259 77.6278 138.825C76.8437 139.608 75.6675 140 74.4913 140C73.3151 140 72.335 139.608 71.5509 138.825C70.7668 137.846 70.3747 136.867 70.3747 135.692Z" fill="#FFBB00"/>
<path d="M50.9677 109.455C53.3201 109.455 55.2804 111.413 55.2804 113.762C55.2804 116.112 53.3201 118.07 50.9677 118.07C48.6154 118.07 46.6551 116.112 46.6551 113.762C46.6551 111.413 48.6154 109.455 50.9677 109.455ZM50.9677 87.5245C53.3201 87.5245 55.2804 89.4825 55.2804 91.8322C55.2804 94.1818 53.3201 96.1399 50.9677 96.1399C48.6154 96.1399 46.6551 94.1818 46.6551 91.8322C46.6551 89.4825 48.6154 87.5245 50.9677 87.5245ZM50.9677 65.7902C53.3201 65.7902 55.2804 67.7482 55.2804 70.0979C55.2804 72.4475 53.3201 74.4056 50.9677 74.4056C48.6154 74.4056 46.6551 72.4475 46.6551 70.0979C46.6551 67.5524 48.6154 65.7902 50.9677 65.7902ZM50.9677 43.8601C53.3201 43.8601 55.2804 45.8182 55.2804 48.1678C55.2804 50.5175 53.3201 52.4755 50.9677 52.4755C48.6154 52.4755 46.6551 50.5175 46.6551 48.1678C46.6551 45.6224 48.6154 43.8601 50.9677 43.8601ZM50.9677 21.9301C53.3201 21.9301 55.2804 23.8881 55.2804 26.2378C55.2804 28.5874 53.3201 30.5455 50.9677 30.5455C48.6154 30.5455 46.6551 28.5874 46.6551 26.2378C46.6551 23.8881 48.6154 21.9301 50.9677 21.9301ZM50.9677 0C53.3201 0 55.2804 1.95804 55.2804 4.30769C55.2804 6.65734 53.3201 8.61538 50.9677 8.61538C48.6154 8.61538 46.6551 6.65734 46.6551 4.30769C46.6551 1.95804 48.6154 0 50.9677 0Z" fill="#FFBB00"/>
<path d="M46.6551 135.692C46.6551 134.518 47.0472 133.538 47.8313 132.755C48.6154 131.972 49.7916 131.385 50.9677 131.385C52.1439 131.385 53.1241 131.776 54.1042 132.755C55.6725 134.322 55.6725 137.259 54.1042 138.825C53.3201 139.608 52.1439 140 50.9677 140C49.7916 140 48.8114 139.608 47.8313 138.825C47.0472 137.846 46.6551 136.867 46.6551 135.692Z" fill="#FFBB00"/>
<path d="M28.0323 109.455C30.3846 109.455 32.3449 111.413 32.3449 113.762C32.3449 116.112 30.3846 118.07 28.0323 118.07C25.6799 118.07 23.7196 116.112 23.7196 113.762C23.7196 111.413 25.6799 109.455 28.0323 109.455ZM28.0323 87.5245C30.3846 87.5245 32.3449 89.4825 32.3449 91.8322C32.3449 94.1818 30.3846 96.1399 28.0323 96.1399C25.6799 96.1399 23.7196 94.1818 23.7196 91.8322C23.7196 89.4825 25.6799 87.5245 28.0323 87.5245ZM28.0323 65.7902C30.3846 65.7902 32.3449 67.7482 32.3449 70.0979C32.3449 72.4475 30.3846 74.4056 28.0323 74.4056C25.6799 74.4056 23.7196 72.4475 23.7196 70.0979C23.7196 67.5524 25.6799 65.7902 28.0323 65.7902ZM28.0323 43.8601C30.3846 43.8601 32.3449 45.8182 32.3449 48.1678C32.3449 50.5175 30.3846 52.4755 28.0323 52.4755C25.6799 52.4755 23.7196 50.5175 23.7196 48.1678C23.7196 45.6224 25.6799 43.8601 28.0323 43.8601ZM28.0323 21.9301C30.3846 21.9301 32.3449 23.8881 32.3449 26.2378C32.3449 28.5874 30.3846 30.5455 28.0323 30.5455C25.6799 30.5455 23.7196 28.5874 23.7196 26.2378C23.7196 23.8881 25.6799 21.9301 28.0323 21.9301ZM28.0323 0C30.3846 0 32.3449 1.95804 32.3449 4.30769C32.3449 6.65734 30.3846 8.61538 28.0323 8.61538C25.6799 8.61538 23.7196 6.65734 23.7196 4.30769C23.7196 1.95804 25.6799 0 28.0323 0Z" fill="#FFBB00"/>
<path d="M23.7196 135.692C23.7196 134.518 24.1117 133.538 24.8958 132.755C25.6799 131.972 26.8561 131.385 28.0323 131.385C29.2084 131.385 30.1886 131.776 30.9727 132.755C32.5409 134.322 32.5409 137.259 30.9727 138.825C30.1886 139.608 29.0124 140 28.0323 140C26.8561 140 25.6799 139.608 24.8958 138.825C24.1117 137.846 23.7196 136.867 23.7196 135.692Z" fill="#FFBB00"/>
<path d="M4.31266 109.455C6.66501 109.455 8.62531 111.413 8.62531 113.762C8.62531 116.112 6.66501 118.07 4.31266 118.07C1.9603 118.07 0 116.112 0 113.762C0 111.413 1.9603 109.455 4.31266 109.455ZM4.31266 87.5245C6.66501 87.5245 8.62531 89.4825 8.62531 91.8322C8.62531 94.1818 6.66501 96.1399 4.31266 96.1399C1.9603 96.1399 0 94.1818 0 91.8322C0 89.4825 1.9603 87.5245 4.31266 87.5245ZM4.31266 65.7902C6.66501 65.7902 8.62531 67.7482 8.62531 70.0979C8.62531 72.4475 6.66501 74.4056 4.31266 74.4056C1.9603 74.2098 0 72.4476 0 69.9021C0 67.5524 1.9603 65.7902 4.31266 65.7902ZM4.31266 43.8601C6.66501 43.8601 8.62531 45.8182 8.62531 48.1678C8.62531 50.5175 6.66501 52.4755 4.31266 52.4755C1.9603 52.4755 0 50.5175 0 48.1678C0 45.6224 1.9603 43.8601 4.31266 43.8601ZM4.31266 21.9301C6.66501 21.9301 8.62531 23.8881 8.62531 26.2378C8.62531 28.5874 6.66501 30.5455 4.31266 30.5455C1.9603 30.5455 0 28.5874 0 26.2378C0 23.8881 1.9603 21.9301 4.31266 21.9301ZM4.31266 0C6.66501 0 8.62531 1.95804 8.62531 4.30769C8.62531 6.65734 6.66501 8.61538 4.31266 8.61538C1.9603 8.61538 0 6.65734 0 4.30769C0 1.95804 1.9603 0 4.31266 0Z" fill="#FFBB00"/>
<path d="M0 135.692C0 134.518 0.39206 133.538 1.17618 132.755C1.9603 131.972 3.13648 131.385 4.31266 131.385C5.48883 131.385 6.46898 131.776 7.2531 132.755C8.82134 134.322 8.82134 137.259 7.2531 138.825C6.46898 139.608 5.2928 140 4.11663 140C2.94045 140 1.9603 139.608 1.17618 138.825C0.39206 137.846 0 136.867 0 135.692Z" fill="#FFBB00"/>
</svg>
