<svg width="161" height="102" viewBox="0 0 161 102" fill="none" xmlns="http://www.w3.org/2000/svg">
<g clip-path="url(#clip0)">
<path d="M20.119 157.912C14.7283 157.912 9.67445 155.796 5.87206 151.996C-1.97338 144.155 -1.97338 131.361 5.87206 123.521L123.65 5.86813C131.495 -1.97216 144.298 -1.97216 152.144 5.86813C155.946 9.66802 158.064 14.7185 158.064 20.1057C158.064 25.4929 155.946 30.5434 152.144 34.3433L34.3659 151.996C30.5635 155.796 25.5097 157.912 20.119 157.912ZM137.849 3.65553C133.469 3.65553 129.329 5.38713 126.201 8.46553L8.47116 126.166C2.06967 132.563 2.06967 143.001 8.47116 149.446C11.5997 152.573 15.739 154.256 20.119 154.256C24.499 154.256 28.6383 152.525 31.7668 149.446L149.497 31.7459C152.625 28.6194 154.31 24.4828 154.31 20.1057C154.31 15.7286 152.577 11.592 149.497 8.46553C146.416 5.38713 142.277 3.65553 137.849 3.65553Z" fill="#D4FF00"/>
<path d="M23.7289 181C18.7232 181 13.7175 179.076 9.91511 175.276C2.31032 167.676 2.31032 155.266 9.91511 147.667L127.693 30.0143C135.298 22.4145 147.716 22.4145 155.321 30.0143C159.027 33.718 161.048 38.6242 161.048 43.819C161.048 49.0138 159.027 53.92 155.321 57.6236L37.5426 175.276C33.7402 179.076 28.7345 181 23.7289 181ZM141.507 26.7435C137.127 26.7435 132.747 28.427 129.426 31.7459L11.6478 149.398C8.42303 152.621 6.64216 156.902 6.64216 161.471C6.64216 166.041 8.42303 170.322 11.6478 173.544C14.8727 176.767 19.1564 178.547 23.7289 178.547C28.3014 178.547 32.5851 176.767 35.8099 173.544L36.6762 174.41L35.8099 173.544L153.54 55.892C156.764 52.6694 158.545 48.3885 158.545 43.819C158.545 39.2495 156.764 34.9686 153.54 31.7459C150.219 28.427 145.839 26.7435 141.507 26.7435Z" fill="white"/>
</g>
<defs>
<clipPath id="clip0">
<rect width="161" height="181" fill="white"/>
</clipPath>
</defs>
</svg>
