<svg width="220" height="206" viewBox="0 0 220 206" fill="none" xmlns="http://www.w3.org/2000/svg">
<g clip-path="url(#clip0)">
<path d="M72.206 59.8368C61.5991 43.9625 65.8716 22.4833 81.7264 11.9745C97.6007 1.36757 119.08 5.64005 129.589 21.4949L304.19 282.676C314.796 298.551 310.524 320.03 294.669 330.539C278.795 341.146 257.316 336.873 246.807 321.018L72.206 59.8368Z" fill="#40F9AD"/>
</g>
<g opacity="0.5" clip-path="url(#clip1)">
<path d="M55.206 173.837C44.5991 157.962 48.8716 136.483 64.7264 125.974C80.6007 115.368 102.08 119.64 112.589 135.495L287.19 396.676C297.796 412.551 293.524 434.03 277.669 444.539C261.795 455.145 240.316 450.873 229.807 435.018L55.206 173.837Z" fill="#40F9AD"/>
</g>
<defs>
<clipPath id="clip0">
<rect width="291.2" height="291.2" fill="white" transform="translate(359.415 56.8103) rotate(101.25)"/>
</clipPath>
<clipPath id="clip1">
<rect width="291.2" height="291.2" fill="white" transform="translate(342.415 170.81) rotate(101.25)"/>
</clipPath>
</defs>
</svg>
