<svg width="120" height="33" viewBox="0 0 120 33" fill="none" xmlns="http://www.w3.org/2000/svg">
<path d="M118.959 18.5625L102.299 30.6797L85.3796 18.0469L68.1996 30.6797L51.0195 18.0469L33.8395 30.6797L16.9197 18.0469L0 30.4219V32.7422L16.9197 20.3672L33.8395 33L51.0195 20.3672L68.1996 33L85.3796 20.3672L102.299 33L120 20.1094L118.959 18.5625Z" fill="#09E8E3"/>
<path d="M118.959 0.515625L102.299 12.6328L85.3796 0L68.1996 12.6328L51.0195 0L33.8395 12.6328L16.9197 0L0 12.375V14.6953L16.9197 2.32031L33.8395 14.9531L51.0195 2.32031L68.1996 14.9531L85.3796 2.32031L102.299 14.9531L120 2.0625L118.959 0.515625Z" fill="#09E8E3"/>
</svg>
