<svg width="115" height="114" viewBox="0 0 115 114" fill="none" xmlns="http://www.w3.org/2000/svg">
<g clip-path="url(#clip0)">
<path d="M16.1075 32.0902C16.1075 35.961 12.9859 39.2074 8.99023 39.2074C5.11944 39.2074 1.87297 36.0858 1.87297 32.0902C1.87297 28.2194 4.99458 24.9729 8.99023 24.9729C12.861 25.0978 16.1075 28.2194 16.1075 32.0902Z" stroke="#6832AC" stroke-width="3" stroke-miterlimit="10" stroke-linecap="round" stroke-linejoin="round"/>
<path d="M84.7829 93.6483C88.7136 93.6483 91.9001 90.4618 91.9001 86.5311C91.9001 82.6003 88.7136 79.4138 84.7829 79.4138C80.8521 79.4138 77.6656 82.6003 77.6656 86.5311C77.6656 90.4618 80.8521 93.6483 84.7829 93.6483Z" stroke="#6832AC" stroke-width="3" stroke-miterlimit="10" stroke-linecap="round" stroke-linejoin="round"/>
<path d="M58.1868 71.922C66.531 71.922 73.2953 65.1576 73.2953 56.8134C73.2953 48.4692 66.531 41.7048 58.1868 41.7048C49.8425 41.7048 43.0782 48.4692 43.0782 56.8134C43.0782 65.1576 49.8425 71.922 58.1868 71.922Z" stroke="#6832AC" stroke-width="3" stroke-miterlimit="10" stroke-linecap="round" stroke-linejoin="round"/>
<path d="M85.2823 56.8134L78.6645 65.3042L77.4158 76.0425L66.6775 77.416L58.1867 84.0338L49.696 77.416L38.9577 76.0425L37.5841 65.3042L30.9663 56.8134L37.5841 48.3227L38.9577 37.5843L49.696 36.3357L58.1867 29.593L66.6775 36.3357L77.4158 37.5843L78.6645 48.3227L85.2823 56.8134Z" stroke="#6832AC" stroke-width="3" stroke-miterlimit="10" stroke-linecap="round" stroke-linejoin="round"/>
<path d="M77.7904 86.531C77.7904 82.6602 80.9121 79.4138 84.9077 79.4138C87.0304 79.4138 88.9034 80.2878 90.152 81.7862C95.5212 74.9186 98.7676 66.1781 98.7676 56.8133C98.7676 34.3377 80.5375 16.2324 58.1868 16.2324C35.7112 16.2324 17.481 34.4626 17.481 56.8133C17.481 79.164 35.7112 97.3942 58.0619 97.3942C65.9283 97.3942 73.2953 95.1467 79.5385 91.2759C78.4148 90.0272 77.7904 88.404 77.7904 86.531Z" stroke="#6832AC" stroke-width="3" stroke-miterlimit="10" stroke-linecap="round" stroke-linejoin="round"/>
<path d="M58.1868 1.87305C39.2074 1.87305 22.4756 11.4876 12.6113 26.0967C14.734 27.3454 16.1075 29.5929 16.1075 32.2151C16.1075 36.0859 12.9859 39.3323 8.99023 39.3323C7.99132 39.3323 7.11727 39.0826 6.24322 38.8329C4.24539 44.5766 3.12161 50.5701 3.12161 56.9382C3.12161 87.2802 27.7199 111.878 58.0619 111.878C88.4039 111.878 113.002 87.2802 113.002 56.9382C113.002 26.5962 88.5288 1.87305 58.1868 1.87305Z" stroke="#6832AC" stroke-width="3" stroke-miterlimit="10" stroke-linecap="round" stroke-linejoin="round"/>
</g>
<defs>
<clipPath id="clip0">
<rect width="115" height="113.751" fill="white"/>
</clipPath>
</defs>
</svg>
