<svg width="115" height="103" viewBox="0 0 115 103" fill="none" xmlns="http://www.w3.org/2000/svg">
<g clip-path="url(#clip0)">
<path d="M57.4331 77.6483C88.0434 77.6483 112.858 65.9004 112.858 51.4085C112.858 36.9167 88.0434 25.1687 57.4331 25.1687C26.8227 25.1687 2.00815 36.9167 2.00815 51.4085C2.00815 65.9004 26.8227 77.6483 57.4331 77.6483Z" stroke="#6832AC" stroke-width="3" stroke-miterlimit="10" stroke-linecap="round" stroke-linejoin="round"/>
<path d="M79.9211 65.0779C95.8385 38.9337 98.7081 11.6306 86.3307 4.09482C73.9532 -3.44094 51.0156 11.6442 35.0983 37.7885C19.1809 63.9328 16.3113 91.2359 28.6887 98.7717C41.0662 106.307 64.0037 91.2222 79.9211 65.0779Z" stroke="#6832AC" stroke-width="3" stroke-miterlimit="10" stroke-linecap="round" stroke-linejoin="round"/>
<path d="M86.2899 98.7694C98.6674 91.2337 95.7977 63.9306 79.8803 37.7863C63.963 11.642 41.0255 -3.44316 28.648 4.0926C16.2705 11.6284 19.1401 38.9314 35.0575 65.0757C50.9749 91.22 73.9124 106.305 86.2899 98.7694Z" stroke="#6832AC" stroke-width="3" stroke-miterlimit="10" stroke-linecap="round" stroke-linejoin="round"/>
<path d="M57.433 58.3702C61.2778 58.3702 64.3946 55.2534 64.3946 51.4086C64.3946 47.5638 61.2778 44.447 57.433 44.447C53.5883 44.447 50.4715 47.5638 50.4715 51.4086C50.4715 55.2534 53.5883 58.3702 57.433 58.3702Z" stroke="#6832AC" stroke-width="3" stroke-miterlimit="10" stroke-linecap="round" stroke-linejoin="round"/>
</g>
<defs>
<clipPath id="clip0">
<rect width="115" height="102.683" fill="white"/>
</clipPath>
</defs>
</svg>
