<svg width="90" height="120" viewBox="0 0 90 120" fill="none" xmlns="http://www.w3.org/2000/svg">
<g clip-path="url(#clip0)">
<path d="M17.0556 20.803C17.0556 23.1023 15.197 25.0731 12.7917 25.0731C10.3864 25.0731 8.63714 23.1023 8.63714 20.803C8.63714 18.5038 10.4958 16.533 12.901 16.533C15.3063 16.533 17.0556 18.5038 17.0556 20.803Z" stroke="#6832AC" stroke-width="3" stroke-miterlimit="10" stroke-linecap="round" stroke-linejoin="round"/>
<path d="M28.5354 10.1825C30.8902 10.1825 32.7993 8.2707 32.7993 5.91241C32.7993 3.55411 30.8902 1.64233 28.5354 1.64233C26.1805 1.64233 24.2715 3.55411 24.2715 5.91241C24.2715 8.2707 26.1805 10.1825 28.5354 10.1825Z" stroke="#6832AC" stroke-width="3" stroke-miterlimit="10" stroke-linecap="round" stroke-linejoin="round"/>
<path d="M82.2168 25.0731C82.2168 27.3723 80.3582 29.3431 77.9529 29.3431C75.657 29.3431 73.689 27.4818 73.689 25.0731C73.689 22.7738 75.5476 20.803 77.9529 20.803C80.3582 20.803 82.2168 22.6643 82.2168 25.0731Z" stroke="#6832AC" stroke-width="3" stroke-miterlimit="10" stroke-linecap="round" stroke-linejoin="round"/>
<path d="M33.1273 45.219L10.7144 45C8.74647 45 7.10651 43.3577 7.10651 41.2774V40.4015C7.10651 38.4307 8.74647 36.7883 10.8238 36.7883L33.2366 37.0073C35.2045 37.0073 36.8445 38.6496 36.8445 40.7299V41.6059C36.7352 43.5767 35.0952 45.219 33.1273 45.219Z" stroke="#6832AC" stroke-width="3" stroke-miterlimit="10" stroke-linecap="round"/>
<path d="M31.8153 70.7299V45.219H12.0264V70.7299L1.63996 108.504C1.63996 113.759 5.90386 118.139 11.2611 118.139H32.6899C37.9378 118.139 42.311 113.869 42.311 108.504L31.8153 70.7299Z" stroke="#6832AC" stroke-width="3" stroke-miterlimit="10" stroke-linecap="round"/>
<path d="M7.32516 87.7008C7.32516 87.7008 13.229 83.8687 21.8662 88.4672C30.5033 93.0657 35.8605 85.73 35.8605 85.73" stroke="#6832AC" stroke-width="3" stroke-miterlimit="10" stroke-linecap="round"/>
<path d="M83.9661 45.219L61.5533 45C59.5853 45 57.9454 43.3577 57.9454 41.2774V40.4015C57.9454 38.4307 59.5853 36.7883 61.6626 36.7883L84.0754 37.0073C86.0434 37.0073 87.6833 38.6496 87.6833 40.7299V41.6059C87.6833 43.5767 86.0434 45.219 83.9661 45.219Z" stroke="#6832AC" stroke-width="3" stroke-miterlimit="10" stroke-linecap="round"/>
<path d="M62.8652 108.394C62.8652 113.869 67.3478 118.358 72.8144 118.358C78.2809 118.358 82.7635 113.869 82.7635 108.394V45.219H62.8652V108.394Z" stroke="#6832AC" stroke-width="3" stroke-miterlimit="10" stroke-linecap="round"/>
<path d="M62.8652 108.394C62.8652 113.869 67.3478 118.358 72.8144 118.358C78.2809 118.358 82.7635 113.869 82.7635 108.394V45.219H62.8652V108.394Z" stroke="#6832AC" stroke-width="3" stroke-miterlimit="10" stroke-linecap="round"/>
<path d="M62.8652 86.3869C65.3799 86.0585 68.8784 86.3869 73.033 88.5767C76.9689 90.657 80.2489 90.2191 82.6541 89.2337" stroke="#6832AC" stroke-width="3" stroke-miterlimit="10" stroke-linecap="round"/>
</g>
<defs>
<clipPath id="clip0">
<rect width="89.3233" height="120" fill="white"/>
</clipPath>
</defs>
</svg>
