<svg width="39" height="38" viewBox="0 0 39 38" fill="none" xmlns="http://www.w3.org/2000/svg">
<path d="M17.828 10.5764C17.828 10.5764 16.963 11.39 16.963 13.7829V16.2715H13.7915V19.8129H16.963V29.0015H20.6151V19.8607H23.7387L24.1711 16.3193H20.6151V13.8307C20.6151 13.5436 20.7593 12.2993 22.2009 12.3472H24.3153V8.99716H21.1437C21.1437 8.99716 19.1255 8.9493 17.828 10.5764ZM19.0774 0C8.5536 0 0 8.51858 0 18.9993C0 29.48 8.5536 37.9986 19.0774 37.9986C29.6012 37.9986 38.1548 29.48 38.1548 18.9993C38.1548 8.51858 29.6012 0 19.0774 0ZM19.0774 36.1801C9.56274 36.1801 1.82605 28.475 1.82605 18.9993C1.82605 9.52359 9.56274 1.77072 19.0774 1.77072C28.5921 1.77072 36.3288 9.47573 36.3288 18.9515C36.3288 28.4272 28.5921 36.1801 19.0774 36.1801Z" fill="white"/>
</svg>
