<svg width="39" height="38" viewBox="0 0 39 38" fill="none" xmlns="http://www.w3.org/2000/svg">
<path d="M23.2207 8.99807H15.484C12.0722 8.99807 9.28504 11.7738 9.28504 15.1717V22.8767C9.28504 26.2745 12.0722 29.0502 15.484 29.0502H23.2207C26.6325 29.0502 29.4197 26.2745 29.4197 22.8767V15.1717C29.4197 11.7738 26.6325 8.99807 23.2207 8.99807ZM27.4494 22.1109C27.4494 24.8867 25.1909 27.0881 22.4518 27.0881H16.2048C13.4177 27.0881 11.2072 24.8388 11.2072 22.1109V15.8895C11.2072 13.1138 13.4657 10.9124 16.2048 10.9124H22.4518C25.239 10.9124 27.4494 13.1616 27.4494 15.8895V22.1109ZM19.6166 13.7838C16.6854 13.7838 14.3307 16.1288 14.3307 19.0481C14.3307 21.9674 16.6854 24.3124 19.6166 24.3124C22.5479 24.3124 24.9026 21.9674 24.9026 19.0481C24.9026 16.1288 22.5479 13.7838 19.6166 13.7838ZM19.6166 22.2545C17.8386 22.2545 16.4451 20.8188 16.4451 19.0959C16.4451 17.3252 17.8867 15.9374 19.6166 15.9374C21.3946 15.9374 22.7882 17.3731 22.7882 19.0959C22.7882 20.8188 21.3466 22.2545 19.6166 22.2545ZM19.2322 0.000915527C8.70839 0.000915527 0.154785 8.5195 0.154785 19.0002C0.154785 29.481 8.70839 37.9995 19.2322 37.9995C29.756 37.9995 38.3096 29.481 38.3096 19.0002C38.3096 8.5195 29.708 0.000915527 19.2322 0.000915527ZM19.2322 36.181C9.71753 36.181 1.98084 28.476 1.98084 19.0002C1.98084 9.5245 9.71753 1.81949 19.2322 1.81949C28.7469 1.81949 36.4836 9.5245 36.4836 19.0002C36.4836 28.476 28.7469 36.181 19.2322 36.181ZM24.5182 12.3481C23.7493 12.3481 23.1726 12.9702 23.1726 13.6881C23.1726 14.4538 23.7973 15.0281 24.5182 15.0281C25.239 15.0281 25.8637 14.4059 25.8637 13.6881C25.9117 12.9224 25.287 12.3481 24.5182 12.3481Z" fill="white"/>
</svg>
