<svg width="19" height="19" viewBox="0 0 19 19" fill="none" xmlns="http://www.w3.org/2000/svg">
<path d="M16.0625 18.0312H15.9509C3.05562 17.2897 1.22468 6.40906 0.968745 3.08844C0.948122 2.83026 0.978646 2.57054 1.05857 2.32418C1.13849 2.07781 1.26624 1.84964 1.4345 1.65273C1.60275 1.45582 1.80821 1.29405 2.0391 1.17668C2.26998 1.05931 2.52176 0.988649 2.77999 0.968751H6.39593C6.6588 0.968496 6.91568 1.04718 7.13332 1.19461C7.35095 1.34203 7.5193 1.55141 7.61656 1.79563L8.61406 4.25C8.7101 4.48858 8.73394 4.75011 8.6826 5.00212C8.63127 5.25413 8.50702 5.4855 8.32531 5.6675L6.9275 7.07844C7.14584 8.31924 7.74005 9.46303 8.62974 10.3551C9.51943 11.2471 10.6616 11.8443 11.9019 12.0659L13.3259 10.655C13.5107 10.4753 13.7442 10.3539 13.9975 10.3061C14.2507 10.2583 14.5124 10.286 14.75 10.3859L17.2241 11.3769C17.4646 11.4772 17.6698 11.6469 17.8136 11.8643C17.9573 12.0816 18.0331 12.3369 18.0312 12.5975V16.0625C18.0312 16.5846 17.8238 17.0854 17.4546 17.4546C17.0854 17.8238 16.5846 18.0312 16.0625 18.0312ZM2.93749 2.28125C2.76345 2.28125 2.59653 2.35039 2.47346 2.47346C2.35039 2.59653 2.28124 2.76345 2.28124 2.9375V2.99C2.58312 6.875 4.51906 16.0625 16.0231 16.7188C16.1093 16.7241 16.1958 16.7123 16.2774 16.6842C16.3591 16.656 16.4344 16.6121 16.499 16.5547C16.5636 16.4974 16.6163 16.4279 16.654 16.3502C16.6917 16.2725 16.7137 16.1881 16.7187 16.1019V12.5975L14.2447 11.6066L12.3612 13.4769L12.0462 13.4375C6.33687 12.7222 5.56249 7.01281 5.56249 6.95375L5.52312 6.63875L7.38687 4.75531L6.4025 2.28125H2.93749Z" fill="white"/>
</svg>
