<svg width="39" height="38" viewBox="0 0 39 38" fill="none" xmlns="http://www.w3.org/2000/svg">
<path d="M28.0383 11.0085C27.8941 11.0085 27.75 11.0563 27.6058 11.1042L10.6908 17.6128C9.53752 18.0914 9.53752 18.7135 10.4986 19.0006L14.8235 20.3407L16.3131 25.2221C16.5053 25.7485 16.4092 25.9878 16.9859 25.9878C17.4184 25.9878 17.6106 25.7964 17.8509 25.5571C17.995 25.4135 18.908 24.5521 19.9172 23.5471L19.9652 23.4992L24.3381 26.7057C24.6265 26.8492 24.9148 26.9449 25.1551 26.8971C25.5395 26.8492 25.8278 26.5621 25.972 25.9399L28.8552 12.4442C29.0955 11.4871 28.663 11.0085 28.0383 11.0085ZM19.3886 0.00134277C8.86476 0.00134277 0.311157 8.51992 0.311157 19.0006C0.311157 29.4814 8.86476 38 19.3886 38C29.9124 38 38.466 29.4814 38.466 19.0006C38.466 8.51992 29.9124 0.00134277 19.3886 0.00134277ZM19.3886 36.1814C9.8739 36.1814 2.13721 28.4764 2.13721 19.0006C2.13721 9.52492 9.8739 1.81991 19.3886 1.81991C28.9033 1.81991 36.64 9.52492 36.64 19.0006C36.64 28.4764 28.9033 36.1814 19.3886 36.1814Z" fill="white"/>
</svg>
