<svg width="1000" height="1000" viewBox="0 0 1000 1000" fill="none" xmlns="http://www.w3.org/2000/svg">
<rect width="1000" height="1000" fill="#6833AC"/>
<path fill-rule="evenodd" clip-rule="evenodd" d="M203.002 474.026C203.002 467.46 207.187 461.844 213.178 460.368L270.108 446.342L273.001 446L275.955 446.355L332.824 460.371C338.819 461.846 343 467.462 343 474.029C343 480.597 338.815 486.211 332.828 487.689L321.124 490.569V530.086C321.124 542.483 307.833 553.442 272.999 553.442C238.165 553.442 224.874 542.483 224.874 530.086V490.569L213.176 487.689C207.187 486.211 203 480.597 203 474.029L203.002 474.026ZM233.626 530.086C233.626 535.247 246.751 544.101 273.001 544.101C299.251 544.101 312.377 535.247 312.377 530.086V492.728L275.898 501.716C274.944 501.946 273.967 502.057 273.001 502.057C272.035 502.057 271.058 501.944 270.053 501.702L233.628 492.728V530.086H233.626Z" fill="#D4FF00" stroke="#D4FF00" stroke-width="8"/>
<path d="M400.023 539.971C400.023 542.18 401.814 543.971 404.023 543.971H411.868C414.077 543.971 415.868 542.18 415.868 539.971V518.162C415.868 517.683 415.954 517.208 416.121 516.76L433.87 469.316C434.848 466.702 432.915 463.915 430.123 463.915H423.653C421.929 463.915 420.399 465.019 419.857 466.656L408.666 500.397L397.475 466.656C396.932 465.019 395.402 463.915 393.678 463.915H385.767C382.976 463.915 381.043 466.702 382.021 469.316L399.769 516.76C399.937 517.208 400.023 517.683 400.023 518.162V539.971Z" fill="white"/>
<path d="M459.737 482.328C459.737 476.609 462.906 474.437 467.948 474.437C472.99 474.437 476.159 476.609 476.159 482.328V525.558C476.159 531.276 472.99 533.449 467.948 533.449C462.906 533.449 459.737 531.276 459.737 525.558V482.328ZM443.892 524.757C443.892 537.566 452.391 544.886 467.948 544.886C483.505 544.886 492.004 537.566 492.004 524.757V483.128C492.004 470.319 483.505 463 467.948 463C452.391 463 443.892 470.319 443.892 483.128V524.757Z" fill="white"/>
<path d="M510.581 463.915C508.372 463.915 506.581 465.706 506.581 467.915V524.872C506.581 537.681 514.648 545 530.205 545C545.762 545 553.829 537.681 553.829 524.872V467.915C553.829 465.706 552.038 463.915 549.829 463.915H542.848C540.638 463.915 538.848 465.706 538.848 467.915V525.672C538.848 531.391 535.679 533.449 530.637 533.449C525.595 533.449 522.426 531.391 522.426 525.672V467.915C522.426 465.706 520.635 463.915 518.426 463.915H510.581Z" fill="white"/>
<path d="M567.679 483.128C567.679 506.001 598.649 509.089 598.649 525.558C598.649 531.276 595.48 533.335 590.438 533.335C585.396 533.335 582.227 531.276 582.227 525.558V523.84C582.227 521.63 580.437 519.84 578.227 519.84H571.246C569.037 519.84 567.246 521.63 567.246 523.84V524.757C567.246 537.566 575.313 544.886 590.87 544.886C606.427 544.886 614.494 537.566 614.494 524.757C614.494 501.884 583.524 498.796 583.524 482.328C583.524 476.609 586.405 474.437 591.446 474.437C596.488 474.437 599.369 476.609 599.369 482.328V482.328C599.369 484.159 600.854 485.644 602.686 485.644H611.834C613.224 485.644 614.35 484.518 614.35 483.128V483.128C614.35 470.319 606.427 463 591.014 463C575.601 463 567.679 470.319 567.679 483.128Z" fill="white"/>
<path d="M623.963 471.351C623.963 473.561 625.754 475.351 627.963 475.351H636.528C638.738 475.351 640.528 477.142 640.528 479.351V539.971C640.528 542.18 642.319 543.971 644.528 543.971H652.374C654.583 543.971 656.374 542.18 656.374 539.971V479.351C656.374 477.142 658.165 475.351 660.374 475.351H668.939C671.148 475.351 672.939 473.561 672.939 471.351V467.915C672.939 465.706 671.148 463.915 668.939 463.915H627.963C625.754 463.915 623.963 465.706 623.963 467.915V471.351Z" fill="white"/>
<path d="M688.197 463.915C685.988 463.915 684.197 465.706 684.197 467.915V524.872C684.197 537.681 692.264 545 707.821 545C723.378 545 731.445 537.681 731.445 524.872V467.915C731.445 465.706 729.654 463.915 727.445 463.915H720.464C718.255 463.915 716.464 465.706 716.464 467.915V525.672C716.464 531.391 713.295 533.449 708.253 533.449C703.212 533.449 700.043 531.391 700.043 525.672V467.915C700.043 465.706 698.252 463.915 696.043 463.915H688.197Z" fill="white"/>
<path d="M747.312 539.971C747.312 542.18 749.103 543.971 751.312 543.971H772.376C788.221 543.971 796 536.994 796 524.185V483.7C796 470.891 788.221 463.915 772.376 463.915H751.312C749.103 463.915 747.312 465.706 747.312 467.915V539.971ZM772.088 475.351C777.13 475.351 780.155 477.41 780.155 483.128V524.757C780.155 530.476 777.13 532.534 772.088 532.534H767.157C764.948 532.534 763.157 530.743 763.157 528.534V479.351C763.157 477.142 764.948 475.351 767.157 475.351H772.088Z" fill="white"/>
</svg>
