<svg width="139" height="40" viewBox="0 0 139 40" fill="none" xmlns="http://www.w3.org/2000/svg">
<path d="M40 0H0V40H40V0Z" fill="#6833AC"/>
<path fill-rule="evenodd" clip-rule="evenodd" d="M4.00045 14.3555C4.00045 12.8665 4.94949 11.593 6.30807 11.2582L19.2181 8.07756L19.8742 8L20.5441 8.08051L33.4403 11.2589C34.7998 11.5934 35.7479 12.8669 35.7479 14.3562C35.7479 15.8456 34.7989 17.1187 33.4412 17.4538L30.7871 18.1069V27.0682C30.7871 29.8795 27.7731 32.3647 19.8737 32.3647C11.9744 32.3647 8.96038 29.8795 8.96038 27.0682V18.1069L6.30762 17.4538C4.94949 17.1187 4 15.8456 4 14.3562L4.00045 14.3555ZM10.9451 27.0682C10.9451 28.2386 13.9214 30.2464 19.8742 30.2464C25.8269 30.2464 28.8035 28.2386 28.8035 27.0682V18.5965L20.5311 20.6348C20.3148 20.6869 20.0932 20.7121 19.8742 20.7121C19.6551 20.7121 19.4336 20.6865 19.2057 20.6316L10.9455 18.5965V27.0682H10.9451Z" fill="#D4FF00" stroke="#D4FF00"/>
<path d="M48.6791 29.3099C48.6791 29.8108 49.0852 30.217 49.5862 30.217H51.3652C51.8661 30.217 52.2723 29.8108 52.2723 29.3099V24.3642C52.2723 24.2556 52.2918 24.1479 52.3297 24.0463L56.3546 13.2874C56.5764 12.6946 56.138 12.0626 55.5049 12.0626H54.0377C53.6467 12.0626 53.2998 12.313 53.1769 12.6842L50.6391 20.3357L48.1013 12.6842C47.9781 12.313 47.6312 12.0626 47.2402 12.0626H45.4462C44.8133 12.0626 44.375 12.6946 44.5968 13.2874L48.6215 24.0463C48.6596 24.1479 48.6791 24.2556 48.6791 24.3642V29.3099Z" fill="#6833AC"/>
<path d="M62.2204 16.2381C62.2204 14.9412 62.939 14.4487 64.0824 14.4487C65.2258 14.4487 65.9444 14.9412 65.9444 16.2381V26.0414C65.9444 27.3381 65.2258 27.8309 64.0824 27.8309C62.939 27.8309 62.2204 27.3381 62.2204 26.0414V16.2381ZM58.6272 25.8598C58.6272 28.7645 60.5545 30.4244 64.0824 30.4244C67.6103 30.4244 69.5376 28.7645 69.5376 25.8598V16.4195C69.5376 13.5148 67.6103 11.8551 64.0824 11.8551C60.5545 11.8551 58.6272 13.5148 58.6272 16.4195V25.8598Z" fill="#6833AC"/>
<path d="M73.7505 12.0626C73.2495 12.0626 72.8434 12.4688 72.8434 12.9697V25.8859C72.8434 28.7906 74.6727 30.4503 78.2006 30.4503C81.7285 30.4503 83.5578 28.7906 83.5578 25.8859V12.9697C83.5578 12.4688 83.1517 12.0626 82.6507 12.0626H81.0677C80.5665 12.0626 80.1606 12.4688 80.1606 12.9697V26.0673C80.1606 27.3642 79.442 27.8309 78.2986 27.8309C77.1552 27.8309 76.4366 27.3642 76.4366 26.0673V12.9697C76.4366 12.4688 76.0304 12.0626 75.5295 12.0626H73.7505Z" fill="#6833AC"/>
<path d="M86.6987 16.4195C86.6987 21.6065 93.7217 22.3067 93.7217 26.0414C93.7217 27.3381 93.0031 27.805 91.8597 27.805C90.7164 27.805 89.9977 27.3381 89.9977 26.0414V25.6518C89.9977 25.1507 89.5918 24.7448 89.0906 24.7448H87.5075C87.0066 24.7448 86.6005 25.1507 86.6005 25.6518V25.8598C86.6005 28.7645 88.4298 30.4244 91.9577 30.4244C95.4856 30.4244 97.3149 28.7645 97.3149 25.8598C97.3149 20.6729 90.2918 19.9726 90.2918 16.2381C90.2918 14.9412 90.9452 14.4487 92.0883 14.4487C93.2317 14.4487 93.885 14.9412 93.885 16.2381C93.885 16.6533 94.2218 16.9901 94.6372 16.9901H96.7117C97.0269 16.9901 97.2823 16.7348 97.2823 16.4195C97.2823 13.5148 95.4856 11.8551 91.9903 11.8551C88.4951 11.8551 86.6987 13.5148 86.6987 16.4195Z" fill="#6833AC"/>
<path d="M99.4623 13.7489C99.4623 14.2501 99.8684 14.656 100.369 14.656H102.312C102.813 14.656 103.219 15.0621 103.219 15.5631V29.3099C103.219 29.8108 103.625 30.217 104.126 30.217H105.905C106.406 30.217 106.812 29.8108 106.812 29.3099V15.5631C106.812 15.0621 107.218 14.656 107.719 14.656H109.662C110.162 14.656 110.569 14.2501 110.569 13.7489V12.9697C110.569 12.4688 110.162 12.0626 109.662 12.0626H100.369C99.8684 12.0626 99.4623 12.4688 99.4623 12.9697V13.7489Z" fill="#6833AC"/>
<path d="M114.029 12.0626C113.528 12.0626 113.122 12.4688 113.122 12.9697V25.8859C113.122 28.7906 114.951 30.4503 118.479 30.4503C122.007 30.4503 123.836 28.7906 123.836 25.8859V12.9697C123.836 12.4688 123.43 12.0626 122.929 12.0626H121.346C120.845 12.0626 120.439 12.4688 120.439 12.9697V26.0673C120.439 27.3642 119.72 27.8309 118.577 27.8309C117.434 27.8309 116.715 27.3642 116.715 26.0673V12.9697C116.715 12.4688 116.309 12.0626 115.808 12.0626H114.029Z" fill="#6833AC"/>
<path d="M127.434 29.3099C127.434 29.8108 127.84 30.217 128.341 30.217H133.118C136.711 30.217 138.475 28.6348 138.475 25.7301V16.5493C138.475 13.6446 136.711 12.0626 133.118 12.0626H128.341C127.84 12.0626 127.434 12.4688 127.434 12.9697V29.3099ZM133.053 14.656C134.196 14.656 134.882 15.1229 134.882 16.4196V25.8598C134.882 27.1567 134.196 27.6234 133.053 27.6234H131.934C131.433 27.6234 131.027 27.2172 131.027 26.7163V15.5631C131.027 15.0621 131.433 14.656 131.934 14.656H133.053Z" fill="#6833AC"/>
</svg>
