<svg width="117" height="128" viewBox="0 0 117 128" fill="none" xmlns="http://www.w3.org/2000/svg">
<circle cx="66.5" cy="50.5" r="50.5" fill="#40F9AD"/>
<path d="M9.74624 103.599H92.2538C93.9608 103.599 95.3478 102.211 95.3478 100.505V47.4639C95.3478 45.7578 93.9608 44.3699 92.2538 44.3699H9.74624C8.04009 44.3699 6.65219 45.7578 6.65219 47.4639V100.505C6.65219 102.211 8.04098 103.599 9.74624 103.599ZM9.30423 47.4639C9.30423 47.2199 9.50225 47.0219 9.74624 47.0219H92.2538C92.4977 47.0219 92.6958 47.2199 92.6958 47.4639V100.505C92.6958 100.749 92.4977 100.947 92.2538 100.947H9.74624C9.50225 100.947 9.30423 100.749 9.30423 100.505V47.4639ZM102 105.966V108.442C102 109.098 101.468 109.63 100.812 109.63H1.18811C0.532175 109.63 0 109.098 0 108.442V105.966H41.8907C42.0976 106.656 42.7305 107.163 43.4881 107.163H58.5128C59.2695 107.163 59.9024 106.657 60.1102 105.966H102Z" fill="black"/>
</svg>
