<svg width="87" height="72" viewBox="0 0 87 72" fill="none" xmlns="http://www.w3.org/2000/svg">
<g clip-path="url(#clip0)">
<path d="M22.2 68.8C16.9 68.8 12.7 64.5 12.7 59.3V29.7001C12.7 29 13 28.3 13.6 27.9L42.4 5.30005C42.8 5.00005 43.3 4.80005 43.8 4.80005C44.3 4.80005 44.8 5.00005 45.2 5.30005L73.4 27.4C74 27.8 74.3 28.5 74.3 29.2001V59.3C74.3 64.6 70 68.8 64.8 68.8H22.2Z" fill="#3DB9B6"/>
<path d="M43.8 7.1L72 29.2V59.3C72 63.3 68.8 66.5 64.8 66.5H22.2C18.2 66.5 15 63.3 15 59.3V29.7L43.8 7.1ZM43.8 2.5C42.8 2.5 41.8 2.8 41 3.5L12.1 26C11 26.9 10.3 28.2 10.3 29.6V59.2C10.3 65.7 15.6 71 22.1 71H64.7C71.2 71 76.5 65.7 76.5 59.2V29.2C76.5 27.8 75.9 26.5 74.7 25.6L46.7 3.5C45.8 2.8 44.8 2.5 43.8 2.5Z" fill="#42210B"/>
<path d="M83.3 33.8L46.7 3.60005C45.8 2.70005 44.7 2.30005 43.5 2.30005C42.3 2.30005 41.2 2.70005 40.3 3.60005L3.6 33.8C1.8 35.6 1.9 38.4 3.6 40.1C5.4 41.9 8.2 41.9 9.9 40.1L43.4 13L77 40.2001C78.7 42 81.6 42 83.3 40.2001C85.1 38.4001 85.1 35.6 83.3 33.8Z" fill="#3DB9B6" stroke="#42210B" stroke-width="4.6" stroke-miterlimit="10" stroke-linejoin="round"/>
<path d="M83.3 33.8L46.7 3.60005C45.8 2.70005 44.7 2.30005 43.5 2.30005C42.3 2.30005 41.2 2.70005 40.3 3.60005L3.6 33.8C1.8 35.6 1.9 38.4 3.6 40.1C5.4 41.9 8.2 41.9 9.9 40.1L43.4 13L77 40.2001C78.7 42 81.6 42 83.3 40.2001C85.1 38.4001 85.1 35.6 83.3 33.8Z" fill="#3DB9B6" stroke="#42210B" stroke-width="4.6" stroke-miterlimit="10" stroke-linejoin="round"/>
<path d="M14.9 32.8001C13.6 32.8001 12.6 31.8001 12.6 30.5001V7.1001C12.6 4.6001 14.6 2.6001 17.1 2.6001H19.7C22.2 2.6001 24.2 4.6001 24.2 7.1001V30.5001C24.2 31.8001 23.2 32.8001 21.9 32.8001H14.9Z" fill="#09E8E3"/>
<path d="M19.7 4.90005C20.9 4.90005 21.9 5.90005 21.9 7.10005V30.5H15V7.10005C15 5.90005 16 4.90005 17.2 4.90005H19.7ZM19.7 0.300049H17.1C13.4 0.300049 10.3 3.30005 10.3 7.10005V30.5C10.3 33 12.4 35.1 14.9 35.1H21.8C24.3 35.1 26.4 33 26.4 30.5V7.10005C26.5 3.30005 23.4 0.300049 19.7 0.300049Z" fill="#42210B"/>
<path d="M43.2 7.5L14.9 29.7V59.3C14.9 63.3 18.1 66.5 22.1 66.5H43.2V7.5Z" fill="#09E8E3"/>
<path d="M43.2 2.30005C42.1 2.30005 41 2.80005 40.2 3.60005L3.6 33.8C1.8 35.6 1.9 38.4 3.6 40.1C5.4 41.9 8.2 41.9 9.9 40.1L43.2 13.2V2.30005Z" fill="#09E8E3"/>
<path d="M83.3 33.8L46.7 3.60005C45.8 2.70005 44.7 2.30005 43.5 2.30005C42.3 2.30005 41.2 2.70005 40.3 3.60005L3.6 33.8C1.8 35.6 1.9 38.4 3.6 40.1C5.4 41.9 8.2 41.9 9.9 40.1L43.4 13L77 40.2001C78.7 42.0001 81.6 42.0001 83.3 40.2001C85.1 38.4001 85.1 35.6 83.3 33.8Z" stroke="#42210B" stroke-width="4.6" stroke-miterlimit="10" stroke-linejoin="round"/>
<path d="M36.7 68.8001C35.4 68.8001 34.4 67.8001 34.4 66.5001V48.6001C34.4 45.5001 36.9 43.0001 40 43.0001H47C50.1 43.0001 52.6 45.5001 52.6 48.6001V66.5001C52.6 67.8001 51.6 68.8001 50.3 68.8001H36.7Z" fill="#3DB9B6"/>
<path d="M47 45.3001C48.8 45.3001 50.3 46.8001 50.3 48.6001V66.5001H36.7V48.6001C36.7 46.8001 38.2 45.3001 40 45.3001H47ZM47 40.7001H40C35.7 40.7001 32.1 44.2001 32.1 48.6001V66.5001C32.1 69.0001 34.2 71.1001 36.7 71.1001H50.3C52.8 71.1001 54.9 69.0001 54.9 66.5001V48.6001C54.9 44.3001 51.3 40.7001 47 40.7001Z" fill="#42210B"/>
<path d="M63.2 46V59.7" stroke="white" stroke-width="4.6" stroke-miterlimit="10" stroke-linecap="round" stroke-linejoin="round"/>
</g>
<defs>
<clipPath id="clip0">
<rect width="86.9" height="71.1" fill="white"/>
</clipPath>
</defs>
</svg>
