<svg width="108" height="110" viewBox="0 0 108 110" fill="none" xmlns="http://www.w3.org/2000/svg">
<circle cx="57.5" cy="50.5" r="50.5" fill="#09E8E3"/>
<path d="M82.3029 67.072L42.9279 27.697C42.6818 27.451 42.348 27.3127 42 27.3127C41.652 27.3127 41.3182 27.451 41.0721 27.697L1.69706 67.072C1.51356 67.2556 1.3886 67.4894 1.33798 67.744C1.28736 67.9985 1.31335 68.2624 1.41267 68.5022C1.51198 68.742 1.68017 68.947 1.89596 69.0912C2.11174 69.2354 2.36545 69.3124 2.625 69.3125H9.1875V100.812H7.875C7.5269 100.812 7.19306 100.951 6.94692 101.197C6.70078 101.443 6.5625 101.777 6.5625 102.125V107.375C6.5625 107.723 6.70078 108.057 6.94692 108.303C7.19306 108.549 7.5269 108.687 7.875 108.687H76.125C76.4731 108.687 76.8069 108.549 77.0531 108.303C77.2992 108.057 77.4375 107.723 77.4375 107.375V102.125C77.4375 101.777 77.2992 101.443 77.0531 101.197C76.8069 100.951 76.4731 100.812 76.125 100.812H74.8125V69.3125H81.375C81.6346 69.3124 81.8883 69.2354 82.104 69.0912C82.3198 68.947 82.488 68.742 82.5873 68.5022C82.6866 68.2624 82.7126 67.9985 82.662 67.744C82.6114 67.4894 82.4864 67.2556 82.3029 67.072ZM74.8125 106.062H9.1875V103.437H74.8125V106.062ZM35.4375 100.812H19.6875V77.1875H35.4375V100.812ZM38.0625 100.812V75.875C38.0625 75.5269 37.9242 75.193 37.6781 74.9469C37.4319 74.7007 37.0981 74.5625 36.75 74.5625H18.375C18.0269 74.5625 17.6931 74.7007 17.4469 74.9469C17.2008 75.193 17.0625 75.5269 17.0625 75.875V100.812H11.8125V68.5433L42 38.3558L72.1875 68.5433V100.812H38.0625ZM74.0434 66.6875L42.9279 35.572C42.6818 35.326 42.348 35.1877 42 35.1877C41.652 35.1877 41.3182 35.326 41.0721 35.572L9.95662 66.6875H5.79337L42 30.4808L78.2066 66.6875H74.0434Z" fill="black"/>
<path d="M51.1875 60.125C51.1875 58.3079 50.6486 56.5316 49.6391 55.0207C48.6296 53.5098 47.1947 52.3322 45.5159 51.6369C43.8371 50.9415 41.9898 50.7595 40.2076 51.114C38.4254 51.4685 36.7883 52.3436 35.5034 53.6285C34.2185 54.9134 33.3435 56.5504 32.989 58.3326C32.6345 60.1148 32.8165 61.9621 33.5118 63.6409C34.2072 65.3197 35.3848 66.7546 36.8957 67.7641C38.4065 68.7737 40.1829 69.3125 42 69.3125C44.4358 69.3097 46.7711 68.3409 48.4935 66.6185C50.2158 64.8961 51.1847 62.5608 51.1875 60.125ZM35.4375 60.125C35.4375 58.8271 35.8224 57.5583 36.5435 56.4791C37.2646 55.3999 38.2895 54.5587 39.4886 54.062C40.6878 53.5653 42.0073 53.4354 43.2803 53.6886C44.5533 53.9418 45.7226 54.5668 46.6404 55.4846C47.5581 56.4024 48.1832 57.5717 48.4364 58.8447C48.6896 60.1177 48.5596 61.4372 48.0629 62.6364C47.5662 63.8355 46.7251 64.8604 45.6459 65.5815C44.5667 66.3026 43.2979 66.6875 42 66.6875C40.2601 66.6854 38.5921 65.9933 37.3619 64.7631C36.1316 63.5328 35.4396 61.8648 35.4375 60.125Z" fill="black"/>
<path d="M68.25 74.5625H42C41.6519 74.5625 41.3181 74.7008 41.0719 74.9469C40.8258 75.1931 40.6875 75.5269 40.6875 75.875V94.25C40.6875 94.5981 40.8258 94.9319 41.0719 95.1781C41.3181 95.4242 41.6519 95.5625 42 95.5625H68.25C68.5981 95.5625 68.9319 95.4242 69.1781 95.1781C69.4242 94.9319 69.5625 94.5981 69.5625 94.25V75.875C69.5625 75.5269 69.4242 75.1931 69.1781 74.9469C68.9319 74.7008 68.5981 74.5625 68.25 74.5625ZM66.9375 83.75H56.4375V77.1875H66.9375V83.75ZM53.8125 77.1875V83.75H43.3125V77.1875H53.8125ZM43.3125 86.375H53.8125V92.9375H43.3125V86.375ZM56.4375 92.9375V86.375H66.9375V92.9375H56.4375Z" fill="black"/>
<path d="M24.9375 85.0625H22.3125V90.3125H24.9375V85.0625Z" fill="black"/>
</svg>
