<svg width="106" height="110" viewBox="0 0 106 110" fill="none" xmlns="http://www.w3.org/2000/svg">
<circle cx="55.5" cy="50.5" r="50.5" fill="#D5FC01"/>
<g clip-path="url(#clip0)">
<path d="M58.3033 87.6247H59.25C70.1525 87.6124 78.9877 78.7772 79 67.8747C78.9934 62.7873 74.8708 58.6646 69.7833 58.658H65.6556C65.7675 56.9095 65.8334 55.1531 65.8334 53.3914C65.8334 52.6642 65.2438 52.0747 64.5167 52.0747H1.31668C0.589553 52.0747 1.60582e-05 52.6642 1.60582e-05 53.3914C-0.00985894 69.116 4.53495 84.5068 13.085 97.7038L13.38 98.158H1.31668C0.589553 98.158 1.60582e-05 98.7476 1.60582e-05 99.4747C0.00429523 103.109 2.94935 106.054 6.58335 106.058H59.25C62.884 106.054 65.8291 103.109 65.8334 99.4747C65.8334 98.7476 65.2438 98.158 64.5167 98.158H52.4534L52.7483 97.7038C54.8342 94.4786 56.6904 91.1106 58.3033 87.6247ZM65.441 61.2914H69.7833C73.4174 61.2957 76.3624 64.2407 76.3667 67.8747C76.3538 77.2354 68.8298 84.8528 59.4699 84.9808C59.8438 84.0908 60.202 83.1946 60.5443 82.2922C68.0057 81.6166 73.723 75.3667 73.7334 67.8747C73.7334 65.6932 71.9649 63.9247 69.7833 63.9247H65.1408C65.2558 63.047 65.3559 62.1693 65.441 61.2914ZM64.755 66.558H69.7833C70.5105 66.558 71.1 67.1476 71.1 67.8747C71.0924 73.5301 67.0946 78.3944 61.5476 79.4969C62.9691 75.279 64.0419 70.9516 64.755 66.558ZM62.9749 100.791C62.4148 102.368 60.9235 103.423 59.25 103.425H6.58335C4.90987 103.423 3.41858 102.368 2.8585 100.791H62.9749ZM50.5363 96.2739L49.3171 98.158H16.5163L15.2971 96.2739C7.26538 83.8791 2.88072 69.4756 2.64388 54.708H63.1895C62.9526 69.4758 58.568 83.8791 50.5363 96.2739Z" fill="black"/>
<path d="M34.4434 42.4135C34.2011 42.1709 33.9353 41.953 33.6501 41.7626C32.4659 40.9746 32.1448 39.376 32.9328 38.1918C33.027 38.0503 33.1349 37.9184 33.2551 37.7981L33.8476 37.2056C34.3706 36.7005 34.3851 35.8669 33.88 35.3439C33.3749 34.8208 32.5413 34.8063 32.0182 35.3114C32.0072 35.322 31.9965 35.3328 31.9858 35.3439L31.3933 35.9364C29.3582 37.9696 29.3567 41.2675 31.39 43.3026C31.6323 43.5452 31.8981 43.7631 32.1833 43.9535C33.3675 44.7416 33.6886 46.3402 32.9006 47.5243C32.8064 47.6659 32.6985 47.7977 32.5783 47.918L31.9858 48.5105C31.4628 49.0156 31.4483 49.8493 31.9534 50.3723C32.4585 50.8953 33.2921 50.9098 33.8151 50.4047C33.8262 50.3942 33.8369 50.3833 33.8476 50.3723L34.4401 49.7798C36.4751 47.7465 36.4766 44.4486 34.4434 42.4135Z" fill="black"/>
<path d="M42.3433 42.4135C42.1011 42.1709 41.8353 41.953 41.5501 41.7626C40.3659 40.9746 40.0448 39.376 40.8328 38.1918C40.9269 38.0502 41.0349 37.9184 41.1551 37.7981L41.7476 37.2056C42.2706 36.7003 42.2851 35.8669 41.7798 35.3438C41.2745 34.8208 40.4411 34.8063 39.918 35.3116C39.907 35.3221 39.8963 35.333 39.8858 35.3438L39.2933 35.9363C37.2582 37.9696 37.2569 41.2675 39.29 43.3026C39.5323 43.5452 39.7981 43.7631 40.0833 43.9535C41.2675 44.7415 41.5886 46.3401 40.8005 47.5243C40.7064 47.6659 40.5984 47.7977 40.4783 47.918L39.8858 48.5105C39.3627 49.0158 39.3483 49.8492 39.8535 50.3723C40.3588 50.8953 41.1923 50.9098 41.7153 50.4045C41.7263 50.394 41.737 50.3831 41.7476 50.3723L42.3401 49.7798C44.3751 47.7465 44.3766 44.4486 42.3433 42.4135Z" fill="black"/>
<path d="M26.5434 42.4135C26.3011 42.1709 26.0353 41.953 25.7501 41.7626C24.5659 40.9746 24.2448 39.376 25.0328 38.1918C25.127 38.0503 25.2349 37.9184 25.3551 37.7981L25.9476 37.2056C26.4706 36.7005 26.4851 35.8669 25.98 35.3439C25.4749 34.8208 24.6413 34.8063 24.1182 35.3114C24.1072 35.322 24.0965 35.3328 24.0858 35.3439L23.4933 35.9364C21.4582 37.9696 21.4568 41.2675 23.49 43.3026C23.7323 43.5452 23.9981 43.7631 24.2833 43.9535C25.4675 44.7416 25.7886 46.3402 25.0006 47.5243C24.9064 47.6659 24.7985 47.7977 24.6783 47.918L24.0858 48.5105C23.5628 49.0156 23.5483 49.8493 24.0534 50.3723C24.5585 50.8953 25.3921 50.9098 25.9151 50.4047C25.9262 50.3942 25.9369 50.3833 25.9476 50.3723L26.5401 49.7798C28.5751 47.7465 28.5766 44.4486 26.5434 42.4135Z" fill="black"/>
</g>
<defs>
<clipPath id="clip0">
<rect width="79" height="79" fill="white" transform="translate(0 31)"/>
</clipPath>
</defs>
</svg>
