<svg width="114" height="71" viewBox="0 0 114 71" fill="none" xmlns="http://www.w3.org/2000/svg">
<g clip-path="url(#clip0)">
<path d="M20.2 66.9C14.9 66.9 10.6 62.6 10.6 57.3V11.9C10.6 6.60005 14.9 2.30005 20.2 2.30005H93.2C98.5 2.30005 102.8 6.60005 102.8 11.9V57.2001C102.8 62.5 98.5 66.8 93.2 66.8H20.2V66.9Z" fill="#4CBF90"/>
<path d="M93.2 4.6C97.3 4.6 100.5 7.9 100.5 11.9V57.2C100.5 61.3 97.2 64.5 93.2 64.5H20.2C16.1 64.5 12.9 61.2 12.9 57.2V11.9C12.9 7.8 16.2 4.6 20.2 4.6H93.2ZM93.2 0H20.2C13.6 0 8.2 5.4 8.2 11.9V57.2C8.2 63.8 13.6 69.1 20.1 69.1H93.1C99.7 69.1 105 63.7 105 57.2V11.9C105.1 5.4 99.8 0 93.2 0Z" fill="#42210B"/>
<path d="M56.2 4.59998H20.2C16.1 4.59998 12.9 7.89998 12.9 11.9V57.2C12.9 61.3 16.2 64.5 20.2 64.5H56.2V4.59998Z" fill="#40F9AD"/>
<path d="M94.8 56.5C94.8 58 93.6 59.2 92.1 59.2H21.3C19.8 59.2 18.6 58 18.6 56.5V12.7C18.6 11.2 19.8 10 21.3 10H92.1C93.6 10 94.8 11.2 94.8 12.7V56.5Z" fill="#4CBF90" stroke="#42210B" stroke-width="4.6" stroke-miterlimit="10" stroke-linejoin="round"/>
<path d="M12.4 68.4001C7.2 68.4001 2.9 64.5001 2.3 59.3001C2.2 58.7001 2.4 58.0001 2.9 57.5001C3.3 57.0001 4 56.7001 4.6 56.7001H108.8C109.5 56.7001 110.1 57.0001 110.5 57.5001C110.9 58.0001 111.1 58.6001 111.1 59.3001C110.6 64.5001 106.3 68.4001 101 68.4001H12.4Z" fill="#4CBF90"/>
<path d="M108.8 59C108.4 63 105.1 66.1 101 66.1H12.4C8.3 66.1 5 63 4.6 59H108.8ZM108.8 54.4H4.6C3.3 54.4 2.1 55 1.2 55.9C0.300001 56.9 -0.0999994 58.2 6.09085e-07 59.4C0.700001 65.8 6 70.6 12.3 70.6H101C107.4 70.6 112.7 65.8 113.3 59.4C113.4 58.1 113 56.8 112.1 55.9C111.3 55 110.1 54.4 108.8 54.4Z" fill="#42210B"/>
<path d="M56.2 59H4.6C5 63 8.3 66.1 12.4 66.1H56.3V59H56.2Z" fill="#40F9AD"/>
<path d="M51.7 62.2H61.6" stroke="#42210B" stroke-width="4" stroke-miterlimit="10" stroke-linecap="round" stroke-linejoin="round"/>
<path d="M39.2 36.5L53.2 22.6" stroke="white" stroke-width="4.6" stroke-miterlimit="10" stroke-linecap="round" stroke-linejoin="round"/>
<path d="M60.7 43.2001L74.6 29.3" stroke="white" stroke-width="4.6" stroke-miterlimit="10" stroke-linecap="round" stroke-linejoin="round"/>
<path d="M46.7 43.2L67.4 22.6" stroke="white" stroke-width="4.6" stroke-miterlimit="10" stroke-linecap="round" stroke-linejoin="round"/>
</g>
<defs>
<clipPath id="clip0">
<rect width="113.4" height="70.7" fill="white"/>
</clipPath>
</defs>
</svg>
