<svg width="17" height="16" viewBox="0 0 17 16" fill="none" xmlns="http://www.w3.org/2000/svg">
<path d="M15.9706 7H9.97058V1C9.97058 0.734784 9.86522 0.48043 9.67769 0.292893C9.49015 0.105357 9.2358 0 8.97058 0C8.70536 0 8.45101 0.105357 8.26347 0.292893C8.07594 0.48043 7.97058 0.734784 7.97058 1V7H1.97058C1.70536 7 1.45101 7.10536 1.26347 7.29289C1.07594 7.48043 0.970581 7.73478 0.970581 8C0.970581 8.26522 1.07594 8.51957 1.26347 8.70711C1.45101 8.89464 1.70536 9 1.97058 9H7.97058V15C7.97058 15.2652 8.07594 15.5196 8.26347 15.7071C8.45101 15.8946 8.70536 16 8.97058 16C9.2358 16 9.49015 15.8946 9.67769 15.7071C9.86522 15.5196 9.97058 15.2652 9.97058 15V9H15.9706C16.2358 9 16.4902 8.89464 16.6777 8.70711C16.8652 8.51957 16.9706 8.26522 16.9706 8C16.9706 7.73478 16.8652 7.48043 16.6777 7.29289C16.4902 7.10536 16.2358 7 15.9706 7Z" fill="#26133E"/>
</svg>
