<svg width="5" height="10" viewBox="0 0 5 10" fill="none" xmlns="http://www.w3.org/2000/svg">
<path d="M0.70958 9.93738C0.544077 9.9377 0.383684 9.88006 0.256247 9.77446C0.184522 9.715 0.125233 9.64196 0.0817754 9.55955C0.0383177 9.47714 0.0115453 9.38696 0.00299159 9.29419C-0.00556215 9.20141 0.00427095 9.10786 0.0319275 9.01889C0.059584 8.92992 0.10452 8.84729 0.164163 8.77571L3.3375 4.97904L0.277497 1.17529C0.218659 1.10284 0.174719 1.01947 0.148205 0.929981C0.121691 0.84049 0.113125 0.746642 0.122998 0.653831C0.132872 0.561019 0.16099 0.471073 0.205739 0.389164C0.250487 0.307255 0.310982 0.234997 0.383747 0.176543C0.457035 0.112059 0.542861 0.0634194 0.635838 0.0336772C0.728816 0.00393498 0.826938 -0.00626764 0.924045 0.00370915C1.02115 0.0136859 1.11515 0.043627 1.20014 0.0916533C1.28513 0.13968 1.35927 0.204754 1.41791 0.282793L4.83916 4.53279C4.94335 4.65954 5.0003 4.81852 5.0003 4.98258C5.0003 5.14665 4.94335 5.30563 4.83916 5.43238L1.2975 9.68237C1.22644 9.7681 1.13617 9.83586 1.03402 9.88016C0.931876 9.92447 0.820722 9.94407 0.70958 9.93738Z" fill="#6832AC"/>
</svg>
