<svg width="42" height="51" viewBox="0 0 42 51" fill="none" xmlns="http://www.w3.org/2000/svg">
<circle cx="21" cy="21" r="21" fill="#40F9AD"/>
<path d="M22.0559 41.8989C19.7629 41.8989 17.8971 43.7849 17.8971 46.1027C17.8971 48.4205 19.7629 50.3065 22.0559 50.3065C23.1816 50.3065 24.2417 49.8587 25.0409 49.045C25.8153 48.2565 26.2597 47.1842 26.2597 46.1027C26.2597 44.9915 25.8191 43.939 25.0195 43.1391C24.2196 42.3395 23.1671 41.8989 22.0559 41.8989ZM22.0559 48.8215C20.5815 48.8215 19.3822 47.6019 19.3822 46.1027C19.3822 44.6035 20.5815 43.384 22.0559 43.384C23.5295 43.384 24.7742 44.6291 24.7742 46.1027C24.7742 47.5763 23.5295 48.8215 22.0559 48.8215Z" fill="#26133E"/>
<path d="M29.2115 30.3017C29.5208 30.5718 29.9897 30.5397 30.2593 30.2308C32.0488 28.1807 32.9563 26.0346 32.9563 23.8522C32.9563 21.5508 31.9226 19.4645 30.0457 17.978C28.159 16.4837 25.5986 15.6941 22.6406 15.6941C18.9816 15.6941 16.7183 16.9293 15.4644 17.9654C13.9481 19.2181 13.0425 20.8981 13.0425 22.4591C13.0425 23.4738 13.4579 24.3676 14.2124 24.976C14.8335 25.4769 15.6605 25.7641 16.4822 25.7641C17.8978 25.7641 18.5185 24.849 19.0171 24.1135C19.6488 23.1823 20.245 22.3027 22.5052 22.3027C23.28 22.3027 25.808 22.4698 25.808 24.6167C25.808 26.2371 24.3099 27.3873 22.9882 28.402C22.6616 28.6522 22.3534 28.8891 22.0658 29.1333C20.5437 30.4451 18.7962 32.4715 18.7962 36.5284C18.7962 38.7818 19.3428 40.2829 22.0112 40.2829C23.193 40.2829 24.0853 40.0151 24.6632 39.4871C25.1484 39.0438 25.4051 38.4247 25.4051 37.6965C25.4051 35.5076 25.4051 34.409 27.6375 32.663L27.6757 32.6333C27.7741 32.5566 27.8878 32.4677 28.0129 32.3666C28.3322 32.1091 28.3821 31.6418 28.1246 31.3225C27.8672 31.0032 27.3999 30.9533 27.0806 31.2108C26.9619 31.3065 26.8547 31.39 26.762 31.4625L26.7227 31.493C24.0502 33.5835 23.9201 35.1349 23.9201 37.6969C23.9201 38.0261 23.9201 38.7978 22.0112 38.7978C21.0789 38.7978 20.7951 38.6029 20.652 38.4327C20.4026 38.1363 20.2812 37.5134 20.2812 36.5284C20.2812 33.0948 21.6736 31.432 23.0309 30.262C23.2868 30.045 23.581 29.8191 23.8926 29.58C25.4074 28.4169 27.2934 26.9692 27.2934 24.6167C27.2934 22.3088 25.4139 20.8176 22.5052 20.8176C19.458 20.8176 18.4929 22.2409 17.788 23.28C17.3062 23.9907 17.0864 24.2791 16.4822 24.2791C15.6967 24.2791 14.5279 23.7942 14.5279 22.4591C14.5279 21.592 15.0223 20.2569 16.4105 19.1102C17.4771 18.2293 19.4233 17.1788 22.641 17.1788C27.8405 17.1788 31.4713 19.9231 31.4713 23.8522C31.4713 25.6649 30.6874 27.4823 29.1409 29.2542C28.8708 29.5632 28.9028 30.032 29.2115 30.3017Z" fill="#26133E"/>
</svg>
