<svg width="43" height="51" viewBox="0 0 43 51" fill="none" xmlns="http://www.w3.org/2000/svg">
<circle cx="21" cy="21" r="21" fill="#09E8E3"/>
<path d="M37.4709 38.6661C40.9951 36.1058 43 32.4168 43 28.4375C43 21.0271 35.9678 15 27.3229 15C20.3462 15 14.3154 18.8467 12.3123 24.5711C12.1493 25.0387 12.3947 25.5494 12.8623 25.7124C13.3299 25.8754 13.8388 25.6281 14.0036 25.1624C15.7273 20.2334 21.2044 16.7916 27.3229 16.7916C34.9787 16.7916 41.2083 22.0161 41.2083 28.4375C41.2083 32.0424 39.2482 35.3891 35.8315 37.6216C35.4499 37.8706 35.3173 38.3651 35.5198 38.7719L36.3959 40.5259L33.8607 39.0764C33.6259 38.942 33.3464 38.9241 33.0938 39.0173C31.8665 39.4903 30.5407 39.811 29.1575 39.9686C28.6667 40.0242 28.3137 40.4685 28.3692 40.9594C28.4247 41.4503 28.8512 41.8069 29.3599 41.7478C30.7449 41.5919 32.0797 41.2855 33.3338 40.8394L38.0746 43.5484C38.2143 43.629 38.3666 43.6666 38.5189 43.6666C38.7429 43.6666 38.9651 43.5824 39.1353 43.4212C39.4219 43.1506 39.499 42.7224 39.3217 42.3694L37.4709 38.6661Z" fill="#26133E"/>
<path d="M13.4375 27.5398C6.02714 27.5398 0 32.3612 0 38.2898C0 41.4843 1.80424 44.5284 4.86437 46.5602L3.64601 49.6042C3.50803 49.9499 3.59764 50.3442 3.87176 50.5968C4.04015 50.7527 4.257 50.8333 4.47738 50.8333C4.61351 50.8333 4.7515 50.8028 4.8805 50.7383L9.32201 48.5167C10.6694 48.8643 12.0525 49.0398 13.4375 49.0398C20.8479 49.0398 26.875 44.2184 26.875 38.2898C26.875 32.3612 20.8479 27.5398 13.4375 27.5398ZM13.4339 47.2499C12.0955 47.2499 10.7607 47.0654 9.46537 46.7017C9.25037 46.6425 9.02101 46.6623 8.82214 46.7626L6.18301 48.0812L6.80475 46.5296C6.96961 46.1175 6.80836 45.6481 6.42489 45.4241C3.47939 43.7042 1.78988 41.1045 1.78988 38.2916C1.78988 33.3519 7.01438 29.3332 13.4357 29.3332C19.8571 29.3332 25.0798 33.3519 25.0798 38.2916C25.0798 43.2312 19.8552 47.2499 13.4339 47.2499Z" fill="#26133E"/>
</svg>
