<svg width="42" height="51" viewBox="0 0 42 51" fill="none" xmlns="http://www.w3.org/2000/svg">
<circle cx="21" cy="21" r="21" fill="#D5FC01"/>
<g clip-path="url(#clip0)">
<path d="M23.625 50.9999H18.375C17.15 50.9999 15.75 49.9249 15.75 47.7749V44.0124C15.75 42.2208 14.875 40.6082 13.475 39.3541C10.325 36.8458 8.75 33.2624 8.75 29.3208C8.925 22.5124 14.35 17.1374 20.825 16.9583C24.15 16.9583 27.3 18.2124 29.575 20.5416C31.85 22.8708 33.25 26.0958 33.25 29.4999C33.25 33.2624 31.675 36.8457 28.7 39.1749C27.125 40.4291 26.25 42.3999 26.25 44.1916V48.3124C26.25 49.7458 25.025 50.9999 23.625 50.9999ZM21 18.7499C15.4 18.7499 10.675 23.5874 10.5 29.3208C10.5 32.7249 11.9 35.9499 14.525 37.9208C16.45 39.5333 17.5 41.6833 17.5 44.0124V47.7749C17.5 48.1333 17.5 49.2082 18.375 49.2082H23.625C24.15 49.2082 24.5 48.8499 24.5 48.3124V44.1916C24.5 41.8624 25.725 39.3541 27.65 37.7416C30.1 35.7708 31.5 32.7249 31.5 29.4999C31.5 26.6333 30.45 23.9458 28.35 21.7958C26.425 19.8249 23.8 18.7499 21 18.7499Z" fill="#26133E"/>
<path d="M25.375 45.6249H16.625C16.1 45.6249 15.75 45.2666 15.75 44.7291C15.75 44.1916 16.1 43.8333 16.625 43.8333H25.375C25.9 43.8333 26.25 44.1916 26.25 44.7291C26.25 45.2666 25.9 45.6249 25.375 45.6249Z" fill="#26133E"/>
<path d="M21 13.375C20.475 13.375 20.125 13.0167 20.125 12.4792V8.89583C20.125 8.35833 20.475 8 21 8C21.525 8 21.875 8.35833 21.875 8.89583V12.4792C21.875 13.0167 21.525 13.375 21 13.375Z" fill="#26133E"/>
<path d="M32.725 18.3916C32.55 18.3916 32.2 18.3916 32.025 18.2124C31.675 17.8541 31.675 17.3166 32.025 16.9582L34.475 14.4499C34.825 14.0916 35.35 14.0916 35.7 14.4499C36.05 14.8082 36.05 15.3457 35.7 15.7041L33.25 18.2124C33.25 18.2124 32.9 18.3916 32.725 18.3916Z" fill="#26133E"/>
<path d="M41.125 30.3959H37.625C37.1 30.3959 36.75 30.0376 36.75 29.5001C36.75 28.9626 37.1 28.6042 37.625 28.6042H41.125C41.65 28.6042 42 28.9626 42 29.5001C42 30.0376 41.65 30.3959 41.125 30.3959Z" fill="#26133E"/>
<path d="M35.175 44.9084C35 44.9084 34.65 44.9084 34.475 44.7292L32.025 42.2209C31.675 41.8626 31.675 41.3251 32.025 40.9667C32.375 40.6084 32.9 40.6084 33.25 40.9667L35.7 43.4751C36.05 43.8334 36.05 44.3709 35.7 44.7292C35.7 44.9084 35.525 44.9084 35.175 44.9084Z" fill="#26133E"/>
<path d="M6.82499 44.9084C6.64999 44.9084 6.29999 44.9084 6.12499 44.7292C5.77499 44.3709 5.77499 43.8334 6.12499 43.4751L8.57499 40.9667C8.92499 40.6084 9.44999 40.6084 9.79999 40.9667C10.15 41.3251 10.15 41.8626 9.79999 42.2209L7.34999 44.7292C7.17499 44.9084 6.99999 44.9084 6.82499 44.9084Z" fill="#26133E"/>
<path d="M4.375 30.3959H0.875C0.35 30.3959 0 30.0376 0 29.5001C0 28.9626 0.35 28.6042 0.875 28.6042H4.375C4.9 28.6042 5.25 28.9626 5.25 29.5001C5.25 30.0376 4.9 30.3959 4.375 30.3959Z" fill="#26133E"/>
<path d="M9.27499 18.3915C9.09999 18.3915 8.74999 18.3915 8.57499 18.2124L6.12499 15.5249C5.77499 15.1665 5.77499 14.629 6.12499 14.2707C6.47499 13.9124 6.99999 13.9124 7.34999 14.2707L9.79999 16.779C10.15 17.1374 10.15 17.6749 9.79999 18.0332C9.62499 18.2124 9.44999 18.3915 9.27499 18.3915Z" fill="#26133E"/>
<path d="M28 30.3958C27.475 30.3958 27.125 30.0375 27.125 29.5C27.125 26.0958 24.325 23.2292 21 23.2292C20.475 23.2292 20.125 22.8708 20.125 22.3333C20.125 21.7958 20.475 21.4375 21 21.4375C25.375 21.4375 28.875 25.0208 28.875 29.5C28.875 30.0375 28.525 30.3958 28 30.3958Z" fill="#26133E"/>
</g>
<defs>
<clipPath id="clip0">
<rect width="42" height="43" fill="white" transform="translate(0 8)"/>
</clipPath>
</defs>
</svg>
