<svg width="302" height="92" viewBox="0 0 302 92" fill="none" xmlns="http://www.w3.org/2000/svg">
<mask id="mask0" mask-type="alpha" maskUnits="userSpaceOnUse" x="0" y="0" width="302" height="93">
<rect y="0.00012207" width="302" height="92" rx="20" fill="white"/>
</mask>
<g mask="url(#mask0)">
<path d="M292.183 6.33496C292.183 4.20894 294.279 2.43726 296.794 2.43726C299.31 2.43726 301.406 4.20894 301.406 6.33496C301.406 8.46098 299.31 10.2327 296.794 10.2327C294.279 10.2327 292.183 8.46098 292.183 6.33496ZM268.704 6.33496C268.704 4.20894 270.8 2.43726 273.316 2.43726C275.831 2.43726 277.928 4.20894 277.928 6.33496C277.928 8.46098 275.831 10.2327 273.316 10.2327C270.8 10.2327 268.704 8.46098 268.704 6.33496ZM245.435 6.33496C245.435 4.20894 247.532 2.43726 250.047 2.43726C252.563 2.43726 254.659 4.20894 254.659 6.33496C254.659 8.46098 252.563 10.2327 250.047 10.2327C247.322 10.2327 245.435 8.46098 245.435 6.33496ZM221.957 6.33496C221.957 4.20894 224.053 2.43726 226.569 2.43726C229.084 2.43726 231.181 4.20894 231.181 6.33496C231.181 8.46098 229.084 10.2327 226.569 10.2327C223.844 10.2327 221.957 8.46098 221.957 6.33496ZM198.478 6.33496C198.478 4.20894 200.575 2.43726 203.09 2.43726C205.606 2.43726 207.702 4.20894 207.702 6.33496C207.702 8.46098 205.606 10.2327 203.09 10.2327C200.575 10.2327 198.478 8.46098 198.478 6.33496ZM175 6.33496C175 4.20894 177.096 2.43726 179.612 2.43726C182.127 2.43726 184.224 4.20894 184.224 6.33496C184.224 8.46098 182.127 10.2327 179.612 10.2327C177.096 10.2327 175 8.46098 175 6.33496Z" fill="#FFD500"/>
<path d="M292.183 27.0637C292.183 24.9376 294.279 23.1658 296.794 23.1658C299.31 23.1658 301.406 24.9376 301.406 27.0637C301.406 29.1899 299.31 30.9617 296.794 30.9617C294.279 30.9617 292.183 29.1899 292.183 27.0637ZM268.704 27.0637C268.704 24.9376 270.8 23.1658 273.316 23.1658C275.831 23.1658 277.928 24.9376 277.928 27.0637C277.928 29.1899 275.831 30.9617 273.316 30.9617C270.8 30.9617 268.704 29.1899 268.704 27.0637ZM245.435 27.0637C245.435 24.9376 247.532 23.1658 250.047 23.1658C252.563 23.1658 254.659 24.9376 254.659 27.0637C254.659 29.1899 252.563 30.9617 250.047 30.9617C247.322 30.9617 245.435 29.1899 245.435 27.0637ZM221.957 27.0637C221.957 24.9376 224.053 23.1658 226.569 23.1658C229.084 23.1658 231.181 24.9376 231.181 27.0637C231.181 29.1899 229.084 30.9617 226.569 30.9617C223.844 30.9617 221.957 29.1899 221.957 27.0637ZM198.478 27.0637C198.478 24.9376 200.575 23.1658 203.09 23.1658C205.606 23.1658 207.702 24.9376 207.702 27.0637C207.702 29.1899 205.606 30.9617 203.09 30.9617C200.575 30.9617 198.478 29.1899 198.478 27.0637ZM175 27.0637C175 24.9376 177.096 23.1658 179.612 23.1658C182.127 23.1658 184.224 24.9376 184.224 27.0637C184.224 29.1899 182.127 30.9617 179.612 30.9617C177.096 30.9617 175 29.1899 175 27.0637Z" fill="#FFD500"/>
<path d="M292.183 48.5007C292.183 46.3747 294.279 44.603 296.794 44.603C299.31 44.603 301.406 46.3747 301.406 48.5007C301.406 50.6268 299.31 52.3984 296.794 52.3984C294.279 52.3984 292.183 50.6268 292.183 48.5007ZM268.704 48.5007C268.704 46.3747 270.8 44.603 273.316 44.603C275.831 44.603 277.928 46.3747 277.928 48.5007C277.928 50.6268 275.831 52.3984 273.316 52.3984C270.8 52.3984 268.704 50.6268 268.704 48.5007ZM245.435 48.5007C245.435 46.3747 247.532 44.603 250.047 44.603C252.563 44.603 254.659 46.3747 254.659 48.5007C254.449 50.6268 252.563 52.3984 249.838 52.3984C247.322 52.3984 245.435 50.6268 245.435 48.5007ZM221.957 48.5007C221.957 46.3747 224.053 44.603 226.569 44.603C229.084 44.603 231.181 46.3747 231.181 48.5007C231.181 50.6268 229.084 52.3984 226.569 52.3984C223.844 52.3984 221.957 50.6268 221.957 48.5007ZM198.478 48.5007C198.478 46.3747 200.575 44.603 203.09 44.603C205.606 44.603 207.702 46.3747 207.702 48.5007C207.702 50.6268 205.606 52.3984 203.09 52.3984C200.575 52.3984 198.478 50.6268 198.478 48.5007ZM175 48.5007C175 46.3747 177.096 44.603 179.612 44.603C182.127 44.603 184.224 46.3747 184.224 48.5007C184.224 50.6268 182.127 52.3984 179.612 52.3984C177.096 52.3984 175 50.6268 175 48.5007Z" fill="#FFD500"/>
</g>
</svg>
